<?xml version="1.0" encoding="utf-8"?>
<!-- Generator: Adobe Illustrator 23.0.3, SVG Export Plug-In . SVG Version: 6.00 Build 0)  -->
<svg version="1.1" id="Capa_1" xmlns="http://www.w3.org/2000/svg" xmlns:xlink="http://www.w3.org/1999/xlink" x="0px" y="0px"
	 viewBox="0 0 44 44" style="enable-background:new 0 0 44 44;" xml:space="preserve">
<style type="text/css">
	.st0{fill:#3C3C3B;}
</style>
<g>
	<g>
		<path class="st0" d="M41.4,12.4c0.3,0,0.6-0.3,0.6-0.6v-0.9C42,9.3,40.7,8,39.1,8H4.9C3.3,8,2,9.3,2,10.9v22.1
			C2,34.7,3.3,36,4.9,36h34.2c1.6,0,2.9-1.3,2.9-2.9V13.8c0-0.3-0.3-0.6-0.6-0.6c-0.3,0-0.6,0.3-0.6,0.6v19.2c0,0.9-0.7,1.7-1.7,1.7
			H4.9c-0.9,0-1.7-0.7-1.7-1.7V10.9C3.3,10,4,9.3,4.9,9.3h34.2c0.9,0,1.7,0.7,1.7,1.7v0.9C40.7,12.1,41,12.4,41.4,12.4z"/>
	</g>
</g>
<g>
	<g>
		<path class="st0" d="M18.3,14.9H6.8c-0.3,0-0.6,0.3-0.6,0.6s0.3,0.6,0.6,0.6h11.5c0.3,0,0.6-0.3,0.6-0.6S18.7,14.9,18.3,14.9z"/>
	</g>
</g>
<g>
	<g>
		<path class="st0" d="M18.3,17.5H6.8c-0.3,0-0.6,0.3-0.6,0.6c0,0.3,0.3,0.6,0.6,0.6h11.5c0.3,0,0.6-0.3,0.6-0.6
			C19,17.8,18.7,17.5,18.3,17.5z"/>
	</g>
</g>
<g>
	<g>
		<path class="st0" d="M29.9,20.6C29.9,20.6,29.9,20.6,29.9,20.6c-0.6,0.1-1.7,0.2-2.3,0.7c-0.8,0.6-1.1,2.7,0.6,2.7
			c0.3,0,0.5,0,0.7-0.1c0.8-0.2,1.3-0.8,1.3-1.6v-1.5C30.2,20.7,30.1,20.6,29.9,20.6z M28.9,22.3c0,0.2-0.1,0.3-0.3,0.4
			c-0.1,0-0.2,0-0.3,0c0-0.2,0.1-0.4,0.2-0.5c0.1-0.1,0.2-0.1,0.5-0.2V22.3z"/>
	</g>
</g>
<g>
	<g>
		<path class="st0" d="M38.1,26c-0.3-0.4-0.8-0.9-2-0.9c-0.4,0-0.8,0.1-1.2,0.1c0.4-0.6,0.4-1.4,0-2c-0.1-0.1-0.2-0.2-0.3-0.4
			c-0.1-0.1-0.1-0.2-0.1-0.3v-5c0-0.3-0.1-1.5-1-2.6c-0.7-0.8-2-1.8-4.5-1.8c-1.7,0-3.1,0.6-4.2,1.6c-0.9,0.9-1.3,1.9-1.4,2.4
			c-0.1,0.4-0.1,0.9,0.2,1.3c0.2,0.4,0.6,0.6,1,0.7c-1.2,1-1.8,2.6-1.8,4c0,1.1,0.5,2.2,1.4,3.1c0.9,0.9,2.2,1.4,3.5,1.4
			c1.3,0,2.3-0.5,3-1c0.1,0.1,0.2,0.2,0.4,0.3c0.3,0.3,0.7,0.4,1.1,0.4c0.1,0,0.2,0,0.3,0c0,0,0,0.1,0,0.1c-1.3,0.4-2.8,0.6-4.3,0.6
			c-1.6,0-3.5-0.8-5.6-2.2l0,0c-0.4-0.3-0.8-0.4-1.2-0.4c-0.8,0-1.3,0.5-1.5,0.9c-0.1,0.3-0.5,1.2,0.5,2.4c0.4,0.5,1.4,1.4,2.7,2.1
			c1.2,0.6,3,1.4,5.2,1.4c3.1,0,4.6-0.7,6-1.5c0.1,0,0.2-0.1,0.3-0.1c0.1,0.1,0.3,0.2,0.4,0.3c0.2,0.1,0.4,0.2,0.7,0.2
			c1.2,0,2-1.4,2.2-1.8C38.6,28,38.6,26.8,38.1,26z M32.4,25.9C32.4,25.9,32.3,26,32.4,25.9C32.3,26,32.3,26,32.4,25.9
			C32.3,26,32.3,26,32.2,26c0,0,0,0,0,0c0,0,0,0,0,0c0,0,0,0,0,0c0,0,0,0,0,0c0,0,0,0,0,0c0,0,0,0,0,0c0,0,0,0,0,0c0,0,0,0,0,0
			c0,0,0,0,0,0c0,0,0,0,0,0c0,0,0,0,0,0c0,0,0,0-0.1,0c-0.2-0.2-0.4-0.4-0.6-0.6c-0.2-0.2-0.3-0.4-0.4-0.5c0,0,0,0,0,0c0,0,0,0,0,0
			c0,0,0,0,0,0c0,0,0,0,0,0c0,0,0,0,0,0c0,0,0,0,0,0c0,0,0,0,0,0c0,0,0,0,0,0c0,0,0,0,0,0c0,0,0,0,0,0c0,0,0,0,0,0c0,0,0,0,0,0
			c0,0,0,0,0,0c0,0,0,0,0,0c-0.3,0.5-1.3,1.5-2.9,1.5c-2.2,0-3.6-1.7-3.6-3.2c0-1.5,1-3.4,3-3.9c0.1,0,0.2,0,0.2,0c0,0,0,0,0.1,0
			c0.1,0,0.1,0,0.2,0c0,0,0,0,0.1,0c0.1,0,0.1,0,0.2,0c0,0,0,0,0,0c0.1,0,0.1,0,0.2,0c0,0,0,0,0.1,0c0.1,0,0.1,0,0.2,0c0,0,0,0,0,0
			c0.1,0,0.1,0,0.2,0c0,0,0,0,0,0c0,0,0.1,0,0.1,0c0,0,0,0,0,0c0.1,0,0.1,0,0.2,0c0,0,0,0,0,0c0,0,0.1,0,0.1,0c0,0,0,0,0,0
			c0,0,0.1,0,0.1,0c0,0,0,0,0,0c0,0,0.1,0,0.1,0c0,0,0,0,0,0c0,0,0,0,0.1,0c0,0,0,0,0,0c0,0,0.1,0,0.1,0c0,0,0,0,0.1,0
			c0,0,0.1,0,0.1,0c0,0,0,0,0,0c0,0,0.1,0,0.1,0c0,0,0,0,0,0c0,0,0.1,0,0.1,0c0,0,0,0,0,0c0,0,0,0,0,0c0,0,0,0,0,0c0,0,0,0,0,0
			c0,0,0,0,0,0c0,0,0,0,0,0c0,0,0,0,0,0c0,0,0,0,0,0c0,0,0,0,0,0c0,0,0,0,0,0c0,0,0,0,0,0c0,0,0,0,0,0c0,0,0,0,0,0c0,0,0,0,0,0
			c0,0,0,0,0-0.1v-1.2c0,0,0-1-1.3-1c-1,0-1.6,1.1-1.8,1.5c0,0,0,0,0,0c0,0,0,0,0,0c0,0,0,0,0,0c0,0,0,0,0,0c0,0,0,0,0,0
			c0,0,0,0,0,0c0,0,0,0,0,0c0,0,0,0,0,0c0,0,0,0,0,0c0,0,0,0,0,0c0,0,0,0,0,0c0,0,0,0,0,0c0,0,0,0,0,0c0,0,0,0,0,0c0,0,0,0,0,0
			l-2-0.3c-0.2,0-0.3-0.2-0.2-0.3c0.2-0.8,1.2-3.1,4.4-3.1c3.9,0,4.2,2.5,4.2,3.1v5.1c0,0,0,0.4,0.4,1c0.1,0.2,0.2,0.3,0.3,0.4
			c0.1,0.2,0.1,0.4-0.1,0.6L32.4,25.9z M37.2,27.4C37.2,27.4,37.2,27.4,37.2,27.4c0,0.1,0,0.1,0,0.1c0,0,0,0,0,0.1c0,0,0,0,0,0.1
			c0,0,0,0,0,0.1c0,0,0,0,0,0.1c0,0,0,0,0,0.1c0,0,0,0,0,0.1c0,0,0,0,0,0.1c0,0,0,0,0,0.1c0,0,0,0,0,0.1c0,0,0,0,0,0.1
			c0,0,0,0,0,0.1c0,0,0,0,0,0.1c0,0,0,0,0,0.1c0,0,0,0,0,0.1c0,0,0,0,0,0.1c0,0,0,0,0,0.1c0,0,0,0,0,0.1c0,0,0,0,0,0.1
			c0,0,0,0,0,0.1c0,0,0,0,0,0.1c0,0,0,0,0,0c0,0,0,0.1-0.1,0.1c0,0,0,0,0,0c0,0-0.1,0.1-0.1,0.1c0,0,0,0,0,0c0,0,0,0.1-0.1,0.1
			c0,0,0,0,0,0c0,0,0,0,0,0.1c0,0,0,0,0,0c0,0,0,0,0,0.1c0,0,0,0,0,0c0,0,0,0,0,0c0,0,0,0,0,0c0,0,0,0,0,0c0,0,0,0,0,0c0,0,0,0,0,0
			c0,0,0,0,0,0c0,0,0,0,0,0c0,0,0,0,0,0c0,0,0,0,0,0c0,0,0,0,0,0c0,0,0,0,0,0c0,0,0,0,0,0c0,0,0,0,0,0c0,0,0,0,0,0c0,0,0,0,0,0
			c0,0,0,0,0,0c0,0,0,0,0,0c0,0,0,0,0,0c0,0,0,0-0.1,0c-0.4-0.2,0-0.6,0.2-1.1c0.2-0.5,0.2-0.9,0-1.1c0.1,0.3-0.6,1.1-1.6,1.7
			c0,0,0,0,0,0c-0.1,0.1-0.2,0.1-0.2,0.2c0,0,0,0,0,0c-0.1,0.1-0.2,0.1-0.3,0.1c-1.3,0.7-2.5,1.3-5.4,1.3c-3.6,0-6.4-2.3-7-3
			c-0.6-0.7-0.4-1-0.4-1s0,0,0,0c0,0,0,0,0,0c0,0,0,0,0,0c0,0,0,0,0,0c0,0,0,0,0.1-0.1c0,0,0,0,0,0c0,0,0,0,0,0c0,0,0,0,0,0
			c0,0,0.1,0,0.1,0c0,0,0,0,0,0c0,0,0.1,0,0.1,0c0,0,0,0,0,0c0,0,0,0,0,0c0,0,0,0,0,0c0,0,0,0,0,0c0,0,0.1,0,0.1,0c0,0,0,0,0,0
			c0,0,0,0,0,0c0,0,0,0,0,0c0,0,0.1,0,0.1,0.1c0,0,0,0,0,0c0,0,0,0,0,0c0,0,0,0,0,0c0,0,0,0,0.1,0c0.6,0.4,3.5,2.4,6.3,2.4
			c0.1,0,0.2,0,0.2,0c0,0,0.1,0,0.1,0c0.1,0,0.1,0,0.2,0c0,0,0.1,0,0.1,0c0.1,0,0.1,0,0.2,0c0,0,0.1,0,0.1,0c0.1,0,0.1,0,0.1,0
			c0,0,0.1,0,0.1,0c0.1,0,0.1,0,0.2,0c0,0,0,0,0.1,0c0.1,0,0.1,0,0.2,0c0,0,0,0,0,0c0.1,0,0.1,0,0.2,0c0,0,0,0,0.1,0
			c0,0,0.1,0,0.1,0c0,0,0.1,0,0.1,0c0,0,0.1,0,0.1,0c0,0,0,0,0.1,0c0,0,0.1,0,0.1,0c0,0,0,0,0.1,0c0.1,0,0.1,0,0.2,0c0,0,0,0,0,0
			c0.1,0,0.1,0,0.2,0c0,0,0,0,0.1,0c0,0,0.1,0,0.1,0c0,0,0,0,0.1,0c0,0,0.1,0,0.1,0c0,0,0,0,0.1,0c0,0,0.1,0,0.1,0c0,0,0,0,0.1,0
			c0,0,0.1,0,0.1,0c0,0,0,0,0.1,0c0.1,0,0.1,0,0.2,0c0,0,0,0,0,0c0,0,0.1,0,0.1,0c0,0,0,0,0.1,0c0,0,0.1,0,0.1,0c0,0,0,0,0.1,0
			c0,0,0.1,0,0.1,0c0,0,0,0,0.1,0c0,0,0.1,0,0.1,0c0,0,0,0,0.1,0c0,0,0.1,0,0.1,0c0,0,0,0,0,0c0,0,0.1,0,0.1,0c0,0,0,0,0.1,0
			c0,0,0,0,0.1,0c0,0,0,0,0.1,0c0,0,0,0,0.1,0c0,0,0,0,0.1,0c0,0,0,0,0.1,0c0,0,0,0,0,0c0,0,0,0,0.1,0c0,0,0,0,0,0
			c0.2-0.1,0.3-0.1,0.4-0.1c0.9-0.3,1.8-1,2.1-1c-0.2-0.1-0.6,0-1.3,0.1c-0.8,0.1-0.7-0.3-0.7-0.3s0-0.1,0.2-0.3
			c0.1-0.1,1.8-0.8,2.8-0.5c0,0,0,0,0,0c0,0,0,0,0.1,0c0,0,0,0,0,0c0,0,0,0,0.1,0c0,0,0,0,0,0c0,0,0,0,0,0c0,0,0,0,0,0c0,0,0,0,0,0
			c0,0,0,0,0,0c0,0,0,0,0,0c0,0,0,0,0.1,0.1c0,0,0,0.1,0.1,0.1c0,0,0,0,0,0c0,0,0,0,0,0.1c0,0,0,0,0,0c0,0,0,0,0,0.1c0,0,0,0,0,0
			c0,0,0,0,0,0.1c0,0,0,0,0,0.1c0,0,0,0,0,0.1C37.2,27.2,37.2,27.3,37.2,27.4C37.2,27.3,37.2,27.3,37.2,27.4z"/>
	</g>
</g>
</svg>
