<?xml version="1.0" encoding="utf-8"?>
<!-- Generator: Adobe Illustrator 23.0.3, SVG Export Plug-In . SVG Version: 6.00 Build 0)  -->
<svg version="1.1" id="Layer_1" xmlns="http://www.w3.org/2000/svg" xmlns:xlink="http://www.w3.org/1999/xlink" x="0px" y="0px"
	 viewBox="0 0 44 44" style="enable-background:new 0 0 44 44;" xml:space="preserve">
<style type="text/css">
	.st0{fill:#3C3C3B;}
</style>
<path class="st0" d="M33.3,5.2c0-1.8-1.5-3.2-3.2-3.2H12.9c-1.8,0-3.2,1.5-3.2,3.2v33.5c0,1.8,1.5,3.2,3.2,3.2h17.2
	c1.8,0,3.2-1.5,3.2-3.2V5.2z M22.6,37.5c0,0.6-0.5,1.1-1.1,1.1s-1.1-0.5-1.1-1.1c0-0.6,0.5-1.1,1.1-1.1
	C22.1,36.5,22.6,36.9,22.6,37.5z M22.8,34.1l-0.4-0.7c0,0,0,0,0,0l-2.3-4.2c0.4-0.2,0.9-0.2,1.2,0.2l0.8,1c0.2,0.2,0.5,0.3,0.7,0.2
	c0.3-0.1,0.4-0.3,0.4-0.6c0-2.4,0-5.5,0-7.1c0-0.1,0.1-0.2,0.2-0.2h0.3c0.1,0,0.2,0.1,0.2,0.2c0,0.4,0,5.5,0,5.6c0,0,0,0.1,0,0.1
	v0.3c0,0.4,0.3,0.7,0.7,0.7s0.7-0.3,0.7-0.7v-1.6c0,0,0.1-0.1,0.1-0.1h0.7c0,0,0,0,0.1,0c0,0,0,0,0,0v2.1c0,0.4,0.3,0.7,0.7,0.7
	s0.7-0.3,0.7-0.7v-1.6c0,0,0-0.1,0.1-0.1h0.7c0,0,0.1,0,0.1,0.1v1.6c0,0.4,0.3,0.7,0.7,0.7c0.4,0,0.7-0.3,0.7-0.7V29
	c0-0.1,0-0.1,0.1-0.2c0,0,0.1,0,0.1,0l0.3,0c0.1,0,0.1,0,0.2,0.1s0.1,0.1,0.1,0.1c0,1.4,0,1.4,0,2.1c0,0.4,0,0.9,0,1.9
	c0,1.2-1,2.2-2.2,2.2h-3.4C23.9,35.2,23.2,34.8,22.8,34.1z M17.8,25.4c-0.4,0-0.7-0.2-0.9-0.4c-0.2-0.2-0.3-0.5-0.3-0.8l0.8-7.3h0.7
	v1.7c0,0.4,0.3,0.7,0.7,0.7c0.4,0,0.7-0.3,0.7-0.7v-1.7h4.1v1.7c0,0.4,0.3,0.7,0.7,0.7S25,19,25,18.6v-1.7h0.6l0.8,7.3
	c0,0.3-0.1,0.6-0.3,0.8c-0.2,0.2-0.5,0.4-0.8,0.4c0-1.2,0-2.4,0-2.6c0-0.8-0.7-1.5-1.5-1.5h-0.3c-0.4,0-0.8,0.2-1.1,0.4
	c-0.3,0.3-0.5,0.7-0.5,1.1c0,0.7,0,1.5,0,2.6H17.8z M23.7,15.6h-4.1v-0.6c0-1.1,0.9-1.9,2.1-1.9c1.1,0,2.1,0.9,2.1,1.9V15.6z
	 M31.6,29c0-0.8-0.7-1.5-1.5-1.5l-0.3,0c-0.1,0-0.1,0-0.2,0c-0.1-0.7-0.7-1.2-1.4-1.2h-0.7c-0.1,0-0.2,0-0.4,0.1
	c-0.1-0.1-0.2-0.2-0.3-0.3c0.1-0.1,0.1-0.1,0.2-0.2c0.4-0.5,0.7-1.2,0.6-1.8l-0.9-7.9c0-0.3-0.3-0.6-0.7-0.6H25v-0.6
	c0-1.8-1.5-3.2-3.4-3.2c-1.9,0-3.4,1.5-3.4,3.2v0.6h-1.3c-0.3,0-0.6,0.3-0.7,0.6L15.3,24c-0.1,0.7,0.1,1.3,0.6,1.9
	c0.5,0.5,1.2,0.9,1.9,0.9h4.1v1.4c-0.8-0.6-2-0.6-2.8,0l-0.3,0.2c-0.3,0.2-0.3,0.6-0.2,0.8l2.1,3.7H11V9.8h21V33h-0.4
	c0-1,0-1.5,0-1.9C31.7,30.4,31.7,30.4,31.6,29z M12.9,3.3h17.2c1.1,0,1.9,0.9,1.9,1.9v3.2H11V5.3C11,4.2,11.8,3.3,12.9,3.3z
	 M30.1,40.8H12.9c-1.1,0-1.9-0.9-1.9-1.9v-4.5h10.5l0.2,0.4c0.1,0.2,0.2,0.3,0.3,0.5c-1-0.2-2,0.2-2.5,1.1c-0.5,0.9-0.4,2,0.2,2.7
	c0.6,0.8,1.7,1.1,2.6,0.7c1-0.3,1.6-1.2,1.6-2.2c0-0.4-0.1-0.8-0.3-1.2c0.4,0.1,0.8,0.2,1.2,0.2h3.4c1.4,0,2.7-0.9,3.3-2.2H32v4.5
	C32,39.9,31.2,40.8,30.1,40.8z"/>
<path class="st0" d="M18.7,6.4h5.6c0.4,0,0.7-0.3,0.7-0.7c0-0.4-0.3-0.7-0.7-0.7h-5.6c-0.4,0-0.7,0.3-0.7,0.7
	C18,6.1,18.3,6.4,18.7,6.4z"/>
</svg>
