<svg xmlns="http://www.w3.org/2000/svg" viewBox="0 0 512 512"><style><![CDATA[.A{fill:#333}.C{fill:#F0F0F0}.D{fill:#D80027}]]></style><path class="A" d="M433.4 110.7C400.2 45.9 333.4 0 255 0v101.3c55.5 0 100.6 43.7 100.6 99.2 0 54.8-45.5 102-100.6 102.1V512c70.6-73.6 152-154.5 187.5-251.4 17.8-48.5 14.5-104.1-9.1-149.9z"/><path class="A" d="M68.5 260.6C104.1 357.5 185.4 438.4 256 512V302.5c-55.1 0-100.6-47.2-100.6-102.1 0-55.5 45.1-99.1 100.6-99.2V0C177.6 0 110.8 45.9 77.6 110.7 54 156.5 50.7 212.1 68.5 260.6z"/><path d="M416 198.8c0 88.4-71.6 160-160 160s-160-71.6-160-160l160-160c88.4 0 160 71.6 160 160z" fill="#0052b4"/><path class="C" d="M256 38.8zm-.4 160h.4v-.4c-.1.1-.3.2-.4.4z"/><path class="C" d="M256 122.3V38.8c-88.4 0-160 71.6-160 160h83.5v-47l47 47h29.1l.4-.4v-29.1l-47-47h47z"/><path class="D" d="M176.9 59.6c-25 14.2-45.8 35.1-60.1 60.1v79.1h41.7v-97.4H256V59.7l-79.1-.1zM256 179.1l-56.8-56.8h-19.7l76.5 76.5v-19.7z"/><path class="C" d="M192.5 226.6l8.8 18.4 19.8-4.6-8.9 18.3 16 12.6-19.9 4.5.1 20.4-15.9-12.8-15.9 12.8.1-20.4-19.9-4.5 16-12.6-8.9-18.3 19.8 4.6zm143.1 34.8l4.3 9.2 10-2.3-4.5 9.1 8 6.4-9.9 2.2v10.2l-7.9-6.4-8 6.4V286l-9.9-2.2 8-6.4-4.5-9.1 10 2.3zM294.7 164l4.4 9.2 9.9-2.3-4.4 9.1 7.9 6.4-9.9 2.2v10.2l-7.9-6.4-7.9 6.4v-10.2l-9.9-2.2 7.9-6.4-4.4-9.1 9.9 2.3zm40.9-55.7l4.3 9.2 10-2.3-4.5 9.2 8 6.3-9.9 2.2v10.2l-7.9-6.3-8 6.3v-10.2l-9.9-2.2 8-6.3-4.5-9.2 10 2.3zm35.6 41.8l4.4 9.2 9.9-2.3-4.4 9.1 8 6.3-10 2.3.1 10.2-8-6.4-7.9 6.4v-10.2l-9.9-2.3 8-6.3-4.5-9.1 9.9 2.3zm-25.5 48.7l3.5 10.6h11.1l-9 6.6 3.5 10.6-9.1-6.6-9 6.6 3.4-10.6-9-6.6h11.2z"/><path d="M255.9 21.7c-73.7 0-141.5 47.6-166.6 116.8-25.3 69.8-3.1 149.8 54 197.1 57.2 47.3 140.4 53.6 204 15.1s97.2-114.7 82.3-187.6c-14.7-71.4-74-128-146.1-139.3-9.1-1.4-18.4-2.1-27.6-2.1m142.7 241.5c-30.2 67-105.7 104.8-177.5 88.4-55.2-12.6-100.4-55.8-115.8-110.2-15.7-55.7 1.3-116.8 43.4-156.4C194.2 42.1 262.9 30.4 320 56.2 388.2 87 426 164.3 407.7 237c-2.2 9-5.3 17.7-9.1 26.2-2.1 4.6 1.5-3.5 0 0" fill="#c7c7c7"/></svg>