<svg xmlns="http://www.w3.org/2000/svg" width="446.094" height="356.743" viewBox="0 0 446.094 356.743"><defs><style>.a{fill:#a2a8ac;}.b{fill:#ffceb6;}.c{fill:#ba6804;}.d{fill:#e16370;}.e{fill:#878f94;}.f{fill:#e2e3e5;}.g{fill:#ff9633;}.h{fill:#fb6459;}.i{fill:#25a98b;}.j{fill:#dd5d00;}.k{fill:#5ea6fe;}.l{fill:#fff;}.m{fill:#3d3d3d;}.n{fill:#555e66;}.o{fill:#d1d1d1;}.p{fill:#ffb066;}.q{fill:#ffbc7d;}.r{fill:#ffd638;}.s{fill:#f17d03;}.t{fill:#cdd0d2;}.u{fill:#2b2b2b;}.v{fill:#475059;}.w{fill:#8b9398;}.x{fill:#bbbfc2;}.y{fill:#ffb300;}.z{fill:#1b90fe;}.aa{fill:#ff7c00;}.ab{fill:#cfd2d4;}</style></defs><g transform="translate(-0.175)"><g transform="translate(0.175 0)"><rect class="a" width="37.146" height="1.866" transform="translate(366.881 77.978)"/><rect class="a" width="17.029" height="0.853" transform="translate(366.881 80.974)"/><circle class="b" cx="161.003" cy="161.003" r="161.003" transform="translate(68.764 345.05) rotate(-88.87)"/><path class="c" d="M175,84a1.59,1.59,0,0,0-1.636,1.544,1.613,1.613,0,0,0,1.521,1.659,1.59,1.59,0,0,0,1.682-1.521A1.659,1.659,0,0,0,175,84Z" transform="translate(225.711 109.562)"/><path class="c" d="M174.813,88.205a1.6,1.6,0,0,0-.346,3.18,1.636,1.636,0,0,0,1.8-1.429,1.613,1.613,0,0,0-1.452-1.751Z" transform="translate(225.296 115.035)"/><path class="c" d="M174.38,92.34a1.659,1.659,0,0,0-1.867,1.313A1.59,1.59,0,0,0,173.8,95.5a1.636,1.636,0,0,0,1.866-1.313,1.544,1.544,0,0,0-1.29-1.843Z" transform="translate(224.576 120.417)"/><path class="c" d="M173.656,96.438a1.636,1.636,0,0,0-1.913,1.221,1.59,1.59,0,0,0,1.2,1.913,1.636,1.636,0,0,0,1.936-1.221,1.59,1.59,0,0,0-1.221-1.913Z" transform="translate(223.549 125.744)"/><path class="c" d="M172.728,100.5a1.613,1.613,0,1,0,1.169,1.363,1.613,1.613,0,0,0-1.169-1.363Z" transform="translate(222.219 131.011)"/><path class="c" d="M171.557,104.5a1.6,1.6,0,1,0-1.037,3.019,1.567,1.567,0,0,0,2.028-.991,1.613,1.613,0,0,0-.991-2.028Z" transform="translate(220.602 136.186)"/><path class="c" d="M170.152,108.431a1.567,1.567,0,0,0-2.074.876,1.659,1.659,0,0,0,.9,2.1,1.567,1.567,0,0,0,2.074-.876,1.613,1.613,0,0,0-.9-2.1Z" transform="translate(218.689 141.265)"/><path class="c" d="M168.559,112.271a1.567,1.567,0,0,0-2.12.76,1.59,1.59,0,0,0,.737,2.12,1.613,1.613,0,0,0,2.166-.737,1.636,1.636,0,0,0-.783-2.143Z" transform="translate(216.479 146.227)"/><path class="c" d="M166.817,116.038a1.636,1.636,0,0,0-2.3.622,1.567,1.567,0,0,0,.622,2.143,1.59,1.59,0,0,0,2.189-.6,1.544,1.544,0,0,0-.507-2.166Z" transform="translate(213.912 151.032)"/><path class="c" d="M164.665,119.624a1.59,1.59,0,1,0,.484,2.3,1.544,1.544,0,0,0-.484-2.3Z" transform="translate(211.248 155.742)"/><path class="c" d="M160.236,123.525a1.613,1.613,0,0,0,.369,2.3,1.567,1.567,0,0,0,2.3-.369,1.59,1.59,0,0,0-.369-2.3,1.613,1.613,0,0,0-2.3.369Z" transform="translate(208.165 160.205)"/><path class="c" d="M157.76,126.8a1.636,1.636,0,0,0,.277,2.3,1.544,1.544,0,0,0,2.3-.254,1.613,1.613,0,1,0-2.512-2Z" transform="translate(204.904 164.509)"/><path class="c" d="M155.174,129.855a1.613,1.613,0,0,0,0,2.3,1.59,1.59,0,0,0,2.3-.115,1.613,1.613,0,0,0-.138-2.3A1.544,1.544,0,0,0,155.174,129.855Z" transform="translate(201.36 168.715)"/><path class="c" d="M152.336,132.824a1.567,1.567,0,0,0,0,2.3,1.613,1.613,0,0,0,2.3,0,1.59,1.59,0,0,0,0-2.3,1.613,1.613,0,0,0-2.3,0Z" transform="translate(197.631 172.613)"/><path class="c" d="M149.416,135.621a1.59,1.59,0,1,0,2.12,2.3,1.544,1.544,0,0,0,.138-2.3A1.613,1.613,0,0,0,149.416,135.621Z" transform="translate(193.523 176.291)"/><path class="c" d="M146.215,138.208a1.6,1.6,0,1,0,1.982,2.512,1.567,1.567,0,0,0,.276-2.3A1.613,1.613,0,0,0,146.215,138.208Z" transform="translate(189.512 179.788)"/><path class="c" d="M142.958,140.648a1.636,1.636,0,0,0-.392,2.3,1.59,1.59,0,0,0,2.3.392,1.613,1.613,0,0,0,.392-2.3,1.59,1.59,0,0,0-2.3-.392Z" transform="translate(185.141 183.017)"/><path class="c" d="M139.563,142.871a1.636,1.636,0,0,0-.507,2.3,1.544,1.544,0,0,0,2.189.507,1.59,1.59,0,0,0,.507-2.3,1.567,1.567,0,0,0-2.189-.507Z" transform="translate(180.609 186.024)"/><path class="c" d="M136.045,144.929a1.567,1.567,0,0,0-.668,2.143,1.613,1.613,0,0,0,2.189.668,1.59,1.59,0,0,0,.622-2.3A1.567,1.567,0,0,0,136.045,144.929Z" transform="translate(175.923 188.735)"/><path class="c" d="M132.4,146.731a1.567,1.567,0,0,0-.783,2.1,1.636,1.636,0,0,0,2.143.807,1.59,1.59,0,0,0,.783-2.12,1.636,1.636,0,0,0-2.143-.784Z" transform="translate(171.069 191.197)"/><path class="c" d="M128.61,148.336a1.613,1.613,0,0,0,1.175,3,1.567,1.567,0,0,0,.9-2.074A1.636,1.636,0,0,0,128.61,148.336Z" transform="translate(166.145 193.348)"/><path class="c" d="M124.839,149.757a1.613,1.613,0,0,0-1.014,2.028,1.567,1.567,0,0,0,2.028.991,1.592,1.592,0,1,0-1.014-3.019Z" transform="translate(160.998 195.222)"/><path class="c" d="M120.927,150.946a1.636,1.636,0,0,0-1.106,1.982,1.59,1.59,0,0,0,1.959,1.106,1.636,1.636,0,0,0,1.129-1.982,1.59,1.59,0,0,0-1.982-1.106Z" transform="translate(155.809 196.798)"/><path class="c" d="M116.98,151.9a1.636,1.636,0,0,0-1.221,1.913,1.521,1.521,0,0,0,1.889,1.221,1.613,1.613,0,0,0,1.221-1.913,1.59,1.59,0,0,0-1.89-1.221Z" transform="translate(150.539 198.079)"/><path class="c" d="M113,152.641a1.567,1.567,0,0,0-1.36,1.8,1.636,1.636,0,0,0,1.82,1.36,1.59,1.59,0,0,0,1.337-1.843,1.567,1.567,0,0,0-1.8-1.313Z" transform="translate(145.186 199.066)"/><path class="c" d="M108.934,153.122a1.567,1.567,0,0,0-1.429,1.728,1.613,1.613,0,0,0,1.728,1.475,1.567,1.567,0,0,0,1.452-1.751,1.659,1.659,0,0,0-1.751-1.452Z" transform="translate(139.805 199.715)"/><path class="c" d="M104.874,153.39a1.59,1.59,0,0,0-1.544,1.636,1.613,1.613,0,0,0,1.659,1.567,1.567,1.567,0,0,0,1.544-1.659,1.636,1.636,0,0,0-1.659-1.544Z" transform="translate(134.37 200.069)"/><path class="c" d="M100.912,153.427a1.613,1.613,0,1,0,0,3.2,1.59,1.59,0,0,0,1.636-1.567,1.636,1.636,0,0,0-1.636-1.636Z" transform="translate(128.862 200.101)"/><path class="c" d="M96.748,153.232a1.636,1.636,0,0,0-1.728,1.475,1.606,1.606,0,1,0,1.728-1.475Z" transform="translate(123.532 199.858)"/><path class="c" d="M92.7,152.807a1.613,1.613,0,0,0-1.8,1.406,1.567,1.567,0,0,0,1.36,1.774,1.59,1.59,0,0,0,1.8-1.383,1.613,1.613,0,0,0-1.36-1.8Z" transform="translate(118.136 199.292)"/><path class="c" d="M88.686,152.164a1.636,1.636,0,0,0-1.89,1.29,1.567,1.567,0,0,0,1.267,1.843,1.613,1.613,0,0,0,1.89-1.29,1.567,1.567,0,0,0-1.267-1.843Z" transform="translate(112.768 198.437)"/><path class="c" d="M84.7,151.282a1.636,1.636,0,0,0-1.936,1.175,1.544,1.544,0,0,0,1.152,1.936,1.613,1.613,0,0,0,1.959-1.175,1.59,1.59,0,0,0-1.175-1.936Z" transform="translate(107.468 197.268)"/><path class="c" d="M80.766,150.2a1.521,1.521,0,0,0-1.982,1.014,1.613,1.613,0,0,0,1.037,2.028,1.593,1.593,0,1,0,.945-3.042Z" transform="translate(102.253 195.791)"/><path class="c" d="M76.93,148.849a1.59,1.59,0,0,0-2.051.922,1.613,1.613,0,0,0,.922,2.074,1.567,1.567,0,0,0,2.051-.922,1.636,1.636,0,0,0-.922-2.074Z" transform="translate(97.125 194.01)"/><path class="c" d="M73.1,147.255a1.613,1.613,0,0,0-1.313,2.926,1.59,1.59,0,0,0,2.12-.783A1.636,1.636,0,0,0,73.1,147.255Z" transform="translate(92.18 191.963)"/><path class="c" d="M69.52,145.531a1.613,1.613,0,0,0-2.166.691,1.567,1.567,0,0,0,.691,2.143,1.6,1.6,0,1,0,1.475-2.834Z" transform="translate(87.207 189.586)"/><path class="c" d="M66.014,143.585a1.636,1.636,0,0,0-2.3.576,1.544,1.544,0,0,0,.576,2.166,1.59,1.59,0,0,0,2.189-.576,1.544,1.544,0,0,0-.461-2.166Z" transform="translate(82.394 186.946)"/><path class="c" d="M62.485,141.4a1.595,1.595,0,0,0-1.774,2.65,1.636,1.636,0,0,0,2.3-.461,1.567,1.567,0,0,0-.53-2.189Z" transform="translate(77.858 184.082)"/><path class="c" d="M56.955,139.384a1.636,1.636,0,0,0,.3,2.3,1.567,1.567,0,0,0,2.3-.323,1.636,1.636,0,0,0-.3-2.3,1.59,1.59,0,0,0-2.3.323Z" transform="translate(73.434 180.916)"/><path class="c" d="M53.766,136.629a1.613,1.613,0,0,0,.184,2.3,1.567,1.567,0,0,0,2.3-.184,1.593,1.593,0,0,0-2.42-2.074Z" transform="translate(69.203 177.541)"/><path class="c" d="M50.728,133.794a1.59,1.59,0,1,0,2.3,0,1.613,1.613,0,0,0-2.3,0Z" transform="translate(65.19 173.878)"/><path class="c" d="M47.862,130.813a1.544,1.544,0,0,0,0,2.3,1.629,1.629,0,0,0,2.3-2.3A1.659,1.659,0,0,0,47.862,130.813Z" transform="translate(61.35 170.015)"/><path class="c" d="M45.19,127.609a1.567,1.567,0,0,0-.207,2.3,1.636,1.636,0,0,0,2.3.184,1.567,1.567,0,0,0,.184-2.3,1.659,1.659,0,0,0-2.281-.184Z" transform="translate(57.731 165.961)"/><path class="c" d="M42.686,124.289a1.613,1.613,0,0,0-.346,2.3,1.59,1.59,0,0,0,2.3.323,1.636,1.636,0,0,0,.323-2.3,1.613,1.613,0,0,0-2.281-.323Z" transform="translate(54.382 161.677)"/><path class="c" d="M40.451,120.844a1.657,1.657,0,1,0,1.82,2.765,1.613,1.613,0,0,0,.461-2.3,1.567,1.567,0,0,0-2.281-.461Z" transform="translate(51.317 157.217)"/><path class="c" d="M38.283,117.113a1.59,1.59,0,0,0-.576,2.3,1.567,1.567,0,0,0,2.166.6,1.613,1.613,0,0,0-1.59-2.788Z" transform="translate(48.416 152.722)"/><path class="c" d="M36.341,113.529a1.592,1.592,0,1,0,2.143.691,1.592,1.592,0,0,0-2.143-.691Z" transform="translate(45.865 147.849)"/><path class="c" d="M34.648,109.711a1.567,1.567,0,0,0-.807,2.1,1.613,1.613,0,0,0,2.12.806,1.567,1.567,0,0,0,.737-2.1,1.636,1.636,0,0,0-2.051-.807Z" transform="translate(43.548 142.957)"/><path class="c" d="M33.222,105.808a1.636,1.636,0,0,0-.991,2.074,1.659,1.659,0,0,0,2.1.945,1.59,1.59,0,0,0,.922-2.051,1.613,1.613,0,0,0-2.028-.968Z" transform="translate(41.517 137.896)"/><path class="c" d="M31.99,101.835a1.636,1.636,0,0,0-1.106,2,1.59,1.59,0,0,0,2,1.083,1.682,1.682,0,0,0,1.083-2,1.613,1.613,0,0,0-1.982-1.083Z" transform="translate(39.8 132.745)"/><path class="c" d="M30.981,97.8a1.6,1.6,0,0,0,.714,3.111,1.636,1.636,0,0,0,1.2-1.936A1.59,1.59,0,0,0,30.981,97.8Z" transform="translate(38.389 127.511)"/><path class="c" d="M30.189,93.715a1.593,1.593,0,1,0,1.855,1.279A1.593,1.593,0,0,0,30.189,93.715Z" transform="translate(37.269 122.199)"/><path class="c" d="M29.636,89.587a1.59,1.59,0,1,0,1.8,1.383A1.613,1.613,0,0,0,29.636,89.587Z" transform="translate(36.462 116.833)"/><path class="c" d="M29.338,85.432a1.567,1.567,0,0,0-1.475,1.705,1.613,1.613,0,0,0,1.728,1.475,1.567,1.567,0,0,0,1.475-1.682A1.636,1.636,0,0,0,29.338,85.432Z" transform="translate(35.93 111.426)"/><path class="c" d="M29.268,81.27A1.544,1.544,0,0,0,27.7,82.883a1.613,1.613,0,0,0,1.636,1.59A1.567,1.567,0,0,0,30.9,82.86,1.659,1.659,0,0,0,29.268,81.27Z" transform="translate(35.724 106.002)"/><path class="c" d="M29.453,77.112a1.59,1.59,0,0,0-1.682,1.521,1.636,1.636,0,0,0,1.567,1.682,1.59,1.59,0,0,0,1.636-1.544,1.613,1.613,0,0,0-1.521-1.659Z" transform="translate(35.816 100.574)"/><path class="c" d="M29.881,73.005a1.636,1.636,0,0,0-1.8,1.429,1.616,1.616,0,1,0,1.8-1.429Z" transform="translate(36.217 95.21)"/><path class="c" d="M30.512,68.852a1.613,1.613,0,0,0-1.843,1.313,1.544,1.544,0,0,0,1.29,1.843A1.659,1.659,0,0,0,31.825,70.7a1.59,1.59,0,0,0-1.313-1.843Z" transform="translate(36.946 89.777)"/><path class="c" d="M31.4,64.781A1.636,1.636,0,0,0,29.463,66a1.59,1.59,0,0,0,1.221,1.913A1.636,1.636,0,0,0,32.6,66.693a1.59,1.59,0,0,0-1.2-1.913Z" transform="translate(37.972 84.447)"/><path class="c" d="M32.548,60.8a1.322,1.322,0,1,0,.115,0Z" transform="translate(39.241 79.166)"/><path class="c" d="M33.806,56.834a1.567,1.567,0,0,0-2.028.991,1.59,1.59,0,1,0,2.028-.991Z" transform="translate(40.934 74.005)"/><path class="c" d="M35.349,52.961a1.567,1.567,0,0,0-2.074.876,1.613,1.613,0,0,0,.9,2.1,1.567,1.567,0,0,0,2.074-.876,1.659,1.659,0,0,0-.9-2.1Z" transform="translate(42.846 68.915)"/><path class="c" d="M37.146,49.2a1.6,1.6,0,1,0-1.383,2.88,1.544,1.544,0,0,0,2.1-.76,1.567,1.567,0,0,0-.714-2.12Z" transform="translate(45.06 63.966)"/><path class="c" d="M39.163,45.562a1.59,1.59,0,0,0-2.189.6,1.544,1.544,0,0,0,.622,2.166,1.659,1.659,0,0,0,2.3-.622,1.567,1.567,0,0,0-.737-2.143Z" transform="translate(47.536 59.146)"/><path class="c" d="M41.445,42.026a1.636,1.636,0,0,0-2.3.507,1.567,1.567,0,0,0,.507,2.189,1.62,1.62,0,1,0,1.8-2.7Z" transform="translate(50.323 54.456)"/><path class="c" d="M41.532,38.96a1.615,1.615,0,1,0,2.212-.3,1.544,1.544,0,0,0-2.212.3Z" transform="translate(53.324 49.986)"/><path class="c" d="M44.08,35.622a1.613,1.613,0,0,0,.253,2.3,1.567,1.567,0,0,0,2.3-.253,1.613,1.613,0,0,0-.253-2.3,1.544,1.544,0,0,0-2.3.253Z" transform="translate(56.606 45.605)"/><path class="c" d="M46.827,32.365a1.613,1.613,0,0,0,.138,2.3,1.544,1.544,0,0,0,2.3-.138,1.636,1.636,0,0,0,0-2.3,1.59,1.59,0,0,0-2.443.138Z" transform="translate(60.127 41.373)"/><path class="c" d="M49.77,29.274a1.59,1.59,0,0,0,0,2.3,1.613,1.613,0,0,0,2.3,0,1.567,1.567,0,0,0,0-2.3,1.613,1.613,0,0,0-2.3,0Z" transform="translate(63.867 37.551)"/><path class="c" d="M52.894,26.4a1.544,1.544,0,0,0-.138,2.3,1.613,1.613,0,0,0,2.3.161,1.59,1.59,0,1,0-2.12-2.3Z" transform="translate(67.817 33.832)"/><path class="c" d="M56.163,23.66a1.567,1.567,0,0,0-.277,2.3,1.613,1.613,0,0,0,2.3.277,1.59,1.59,0,0,0,.253-2.3,1.567,1.567,0,0,0-2.281-.277Z" transform="translate(71.99 30.376)"/><path class="c" d="M59.526,21.134a1.613,1.613,0,1,0,2.3.392,1.567,1.567,0,0,0-2.3-.392Z" transform="translate(76.393 27.119)"/><path class="c" d="M63.124,18.776a1.59,1.59,0,0,0-.507,2.3,1.567,1.567,0,0,0,2.189.507,1.659,1.659,0,0,0,.507-2.3,1.544,1.544,0,0,0-2.189-.507Z" transform="translate(80.883 24.153)"/><path class="c" d="M66.771,16.629a1.614,1.614,0,1,0,2.189.668,1.613,1.613,0,0,0-2.189-.668Z" transform="translate(85.6 21.439)"/><path class="c" d="M70.592,14.718a1.567,1.567,0,0,0-.783,2.12,1.636,1.636,0,0,0,2.143.783,1.567,1.567,0,0,0,.807-2.051,1.59,1.59,0,0,0-2.166-.853Z" transform="translate(90.444 18.994)"/><path class="c" d="M74.476,13.066A1.567,1.567,0,0,0,73.6,15.14a1.59,1.59,0,1,0,.876-2.074Z" transform="translate(95.431 16.89)"/><path class="c" d="M78.475,11.574a1.592,1.592,0,1,0,1.014,3.019A1.636,1.636,0,0,0,80.5,12.564a1.567,1.567,0,0,0-2.028-.991Z" transform="translate(100.535 14.972)"/><path class="c" d="M82.552,10.323A1.613,1.613,0,0,0,81.423,12.3a1.59,1.59,0,0,0,1.959,1.106,1.636,1.636,0,0,0,1.129-1.982,1.59,1.59,0,0,0-1.959-1.106Z" transform="translate(105.721 13.388)"/><path class="c" d="M86.621,9.329a1.613,1.613,0,0,0,.668,3.134A1.636,1.636,0,0,0,88.51,10.55a1.521,1.521,0,0,0-1.89-1.221Z" transform="translate(111.146 12.101)"/><path class="c" d="M90.856,8.548a1.636,1.636,0,0,0-1.337,1.843A1.59,1.59,0,0,0,91.34,11.7a1.567,1.567,0,0,0,1.36-1.8A1.659,1.659,0,0,0,90.856,8.548Z" transform="translate(116.335 11.131)"/><path class="c" d="M95.1,8a1.567,1.567,0,0,0-1.452,1.751A1.659,1.659,0,0,0,95.4,11.2,1.59,1.59,0,0,0,96.78,9.545,1.613,1.613,0,0,0,95.1,8Z" transform="translate(121.725 10.434)"/><path class="c" d="M99.335,7.76a1.567,1.567,0,0,0-1.544,1.659,1.636,1.636,0,0,0,1.659,1.544,1.59,1.59,0,0,0,1.544-1.636A1.613,1.613,0,0,0,99.335,7.76Z" transform="translate(127.143 10.121)"/><path class="c" d="M103.593,7.73A1.59,1.59,0,0,0,101.957,9.3a1.613,1.613,0,1,0,3.2,0,1.59,1.59,0,0,0-1.567-1.567Z" transform="translate(132.564 10.082)"/><path class="c" d="M107.84,7.934a1.59,1.59,0,0,0-1.728,1.475,1.613,1.613,0,0,0,1.475,1.705,1.636,1.636,0,0,0,1.728-1.475,1.59,1.59,0,0,0-1.475-1.705Z" transform="translate(137.995 10.34)"/><path class="c" d="M112.024,8.369a1.592,1.592,0,1,0,1.36,1.774,1.567,1.567,0,0,0-1.36-1.774Z" transform="translate(143.35 10.895)"/><path class="c" d="M116.253,9.016a1.59,1.59,0,0,0-1.867,1.29,1.567,1.567,0,0,0,1.267,1.843,1.636,1.636,0,0,0,1.89-1.29,1.567,1.567,0,0,0-1.29-1.843Z" transform="translate(148.754 11.723)"/><path class="c" d="M120.426,9.958a1.613,1.613,0,0,0-1.959,1.175,1.59,1.59,0,0,0,1.175,1.936,1.636,1.636,0,0,0,1.936-1.175,1.544,1.544,0,0,0-1.152-1.936Z" transform="translate(154.052 12.924)"/><path class="c" d="M124.5,11.111a1.593,1.593,0,1,0-.945,3.042,1.521,1.521,0,0,0,1.982-1.014A1.613,1.613,0,0,0,124.5,11.111Z" transform="translate(159.288 14.398)"/><path class="c" d="M128.517,12.513a1.567,1.567,0,0,0-2.051.922,1.636,1.636,0,0,0,.922,2.074,1.59,1.59,0,0,0,2.051-.922,1.613,1.613,0,0,0-.922-2.074Z" transform="translate(164.418 16.176)"/><path class="c" d="M132.446,14.144a1.567,1.567,0,0,0-2.1.783,1.636,1.636,0,0,0,.807,2.143,1.613,1.613,0,0,0,2.1-.807,1.59,1.59,0,0,0-.807-2.12Z" transform="translate(169.43 18.255)"/><path class="c" d="M136.309,15.979A1.59,1.59,0,1,0,137,18.122a1.567,1.567,0,0,0-.691-2.143Z" transform="translate(174.369 20.614)"/><path class="c" d="M140.079,18.061a1.613,1.613,0,0,0-2.3.576,1.567,1.567,0,0,0,.576,2.166,1.636,1.636,0,0,0,2.3-.576,1.544,1.544,0,0,0-.576-2.166Z" transform="translate(179.01 23.21)"/><path class="c" d="M143.643,20.309a1.613,1.613,0,0,0-2.3.461,1.59,1.59,0,1,0,2.3-.461Z" transform="translate(183.649 26.1)"/><path class="c" d="M144.86,23.1a1.613,1.613,0,0,0,.3,2.3,1.567,1.567,0,0,0,2.3-.277,1.636,1.636,0,0,0-.276-2.3,1.567,1.567,0,0,0-2.327.277Z" transform="translate(188.078 29.253)"/><path class="c" d="M148.135,25.59a1.659,1.659,0,0,0,.184,2.3,1.625,1.625,0,1,0-.115-2.281Z" transform="translate(192.315 32.686)"/><path class="c" d="M151.28,28.34a1.59,1.59,0,0,0,0,2.3,1.629,1.629,0,1,0,2.3-2.3,1.59,1.59,0,0,0-2.3,0Z" transform="translate(196.268 36.319)"/><path class="c" d="M154.28,31.269a1.59,1.59,0,0,0,0,2.3,1.659,1.659,0,0,0,2.3,0,1.544,1.544,0,0,0,0-2.3A1.636,1.636,0,0,0,154.28,31.269Z" transform="translate(200.18 40.165)"/><path class="c" d="M157.122,34.3a1.567,1.567,0,0,0-.184,2.3,1.659,1.659,0,0,0,2.3.207,1.59,1.59,0,0,0,.207-2.3,1.636,1.636,0,0,0-2.327-.207Z" transform="translate(203.744 44.229)"/><path class="c" d="M159.763,37.53a1.636,1.636,0,0,0-.323,2.3,1.59,1.59,0,0,0,2.3.346,1.636,1.636,0,0,0,.369-2.3,1.59,1.59,0,0,0-2.35-.346Z" transform="translate(207.118 48.467)"/><path class="c" d="M162.246,40.865a1.59,1.59,0,0,0-.461,2.3,1.567,1.567,0,0,0,2.189.461,1.59,1.59,0,0,0,.484-2.3,1.567,1.567,0,0,0-2.212-.461Z" transform="translate(210.211 52.944)"/><path class="c" d="M164.477,44.264a1.613,1.613,0,0,0-.576,2.3,1.636,1.636,0,0,0,2.189.6,1.613,1.613,0,0,0-1.613-2.788Z" transform="translate(213.027 57.656)"/><path class="c" d="M166.5,47.979a1.59,1.59,0,0,0-.714,2.143,1.613,1.613,0,0,0,2.166.691,1.592,1.592,0,1,0-1.452-2.834Z" transform="translate(215.611 62.351)"/><path class="c" d="M168.378,51.708a1.567,1.567,0,0,0-.807,2.1,1.636,1.636,0,0,0,2.12.806,1.567,1.567,0,0,0,.807-2.1A1.613,1.613,0,0,0,168.378,51.708Z" transform="translate(217.974 67.264)"/><path class="c" d="M170.011,55.525a1.59,1.59,0,0,0-.922,2.051,1.613,1.613,0,0,0,2.028.968,1.636,1.636,0,0,0,.991-2.074A1.659,1.659,0,0,0,170.011,55.525Z" transform="translate(220.005 72.296)"/><path class="c" d="M171.445,59.441a1.659,1.659,0,0,0-1.083,2,1.6,1.6,0,0,0,3.065-.922,1.567,1.567,0,0,0-1.982-1.083Z" transform="translate(221.728 77.436)"/><path class="c" d="M172.63,63.434a1.636,1.636,0,0,0-1.2,1.936,1.567,1.567,0,0,0,1.913,1.175,1.613,1.613,0,0,0,1.2-1.936A1.59,1.59,0,0,0,172.63,63.434Z" transform="translate(223.147 82.682)"/><path class="c" d="M173.55,67.5a1.59,1.59,0,1,0,1.866,1.29,1.567,1.567,0,0,0-1.866-1.29Z" transform="translate(224.277 87.997)"/><path class="c" d="M174.27,71.6a1.59,1.59,0,0,0-1.383,1.774,1.613,1.613,0,0,0,1.8,1.383,1.592,1.592,0,1,0-.415-3.157Z" transform="translate(225.079 93.368)"/><path class="c" d="M174.747,75.733a1.567,1.567,0,0,0-1.475,1.682,1.636,1.636,0,0,0,1.728,1.5,1.567,1.567,0,0,0,1.475-1.705A1.613,1.613,0,0,0,174.747,75.733Z" transform="translate(225.592 98.773)"/><path class="c" d="M175,79.88a1.567,1.567,0,0,0-1.567,1.613,1.659,1.659,0,0,0,1.636,1.59,1.567,1.567,0,0,0,1.567-1.613A1.613,1.613,0,0,0,175,79.88Z" transform="translate(225.803 104.189)"/><path class="d" d="M111.2,6.913a11.383,11.383,0,0,0-6.913,2.3A14.563,14.563,0,0,0,91.316,0,14.218,14.218,0,0,0,79.356,6.913a11.521,11.521,0,0,0-5.415-1.406c-6.913,0-12.374,6.222-12.374,13.826v.622h0a6.314,6.314,0,0,0-5.922,6.636,6.291,6.291,0,0,0,5.922,6.613h51.018A12.835,12.835,0,0,0,123.3,20.071,12.72,12.72,0,0,0,111.2,6.913Z" transform="translate(72.163 0)"/><path class="d" d="M56.711,109.913a11.521,11.521,0,0,0-6.913,2.3A14.886,14.886,0,0,0,36.341,103a14.54,14.54,0,0,0-12.259,7.166,11.522,11.522,0,0,0-5.553-1.429c-6.913,0-12.7,6.36-12.7,14.195v.645h0a6.913,6.913,0,0,0,0,13.6H58.139a13.227,13.227,0,0,0,10.992-13.48,13.042,13.042,0,0,0-12.42-13.78Z" transform="translate(-0.175 134.344)"/><path class="e" d="M50.619,31.07A7.742,7.742,0,0,0,42.9,38.789v80.835H58.339V38.789a7.742,7.742,0,0,0-7.719-7.719Z" transform="translate(55.551 40.525)"/><path class="f" d="M7.631,39.2v89.661H88.9V39.2a7.95,7.95,0,0,1,7.719-8.134H15.4A7.95,7.95,0,0,0,7.631,39.2Z" transform="translate(9.546 40.525)"/><rect class="a" width="52.677" height="2.65" transform="translate(26.579 81.757)"/><rect class="a" width="24.126" height="1.221" transform="translate(26.579 86.02)"/><rect class="g" width="13.25" height="12.374" transform="translate(77.182 94.569)"/><rect class="h" width="29.956" height="24.103" transform="translate(60.637 141.278)"/><rect class="i" width="13.25" height="12.374" transform="translate(77.182 110.377)"/><rect class="j" width="13.25" height="12.374" transform="translate(77.182 126.184)"/><rect class="k" width="46.893" height="43.805" transform="translate(26.579 94.753)"/><path class="l" d="M22.95,46.415a1.959,1.959,0,0,0-1.175.392,2.512,2.512,0,0,0-2.3-1.567,2.466,2.466,0,0,0-2.051,1.2,1.82,1.82,0,0,0-.922-.23,2.3,2.3,0,0,0-2.143,2.3.207.207,0,0,0,0,.115h0a1.083,1.083,0,0,0-1.014,1.129,1.106,1.106,0,0,0,1.014,1.152h8.779a2.3,2.3,0,0,0,1.843-2.3A2.166,2.166,0,0,0,22.95,46.415Z" transform="translate(16.995 59.007)"/><path class="l" d="M34.82,44.665a1.913,1.913,0,0,0-1.175.415,2.535,2.535,0,0,0-2.3-1.59,2.3,2.3,0,0,0-2.051,1.221,1.936,1.936,0,0,0-.945-.253,2.3,2.3,0,0,0-2.143,2.3h0a1.152,1.152,0,0,0,0,2.3h8.826a2.219,2.219,0,0,0-.207-4.4Z" transform="translate(32.269 56.725)"/><path class="l" d="M29.781,48.678a1.406,1.406,0,0,0-.853.277,1.705,1.705,0,0,0-3.088-.253,1.267,1.267,0,0,0-.668-.184,1.659,1.659,0,0,0-1.521,1.728h0a.83.83,0,0,0,0,1.636h6.314a1.636,1.636,0,0,0-.161-3.249Z" transform="translate(29.543 62.39)"/><path class="m" d="M13.02,79.728H32.883L32.561,44.91Z" transform="translate(16.578 58.577)"/><path class="n" d="M21.823,79.728H41.156L21.5,44.91Z" transform="translate(27.639 58.577)"/><path class="o" d="M21.886,53.936,21.495,56.7l2.028-2.443,1.29,5.715V44.88L18.96,55.457Z" transform="translate(24.326 58.538)"/><path class="l" d="M21.5,44.88V59.973l1.313-5.715,2,2.443-.369-2.765,2.926,1.521Z" transform="translate(27.639 58.538)"/><path class="m" d="M17.7,66.333V55.18L11.55,66.333Z" transform="translate(14.661 71.972)"/><path class="n" d="M14.22,66.333h6.245L14.22,55.18Z" transform="translate(18.143 71.972)"/><path class="m" d="M33.321,71.368V51.32L22.03,71.368Z" transform="translate(28.33 66.937)"/><path class="n" d="M26.93,71.368H38.636L26.93,51.32Z" transform="translate(34.721 66.937)"/><rect class="g" width="29.956" height="24.103" transform="translate(26.211 141.278)"/><path class="p" d="M27.342,65.089a2.3,2.3,0,0,0-1.083.3,2.3,2.3,0,0,0-2.1-1.2,2.443,2.443,0,0,0-1.913.922,2.1,2.1,0,0,0-.853-.184,1.913,1.913,0,0,0-1.982,1.844h0a.876.876,0,1,0,0,1.751h8.157A1.774,1.774,0,1,0,27.342,65Z" transform="translate(23.778 83.723)"/><path class="q" d="M20.946,63.651a1.014,1.014,0,0,0-.6.161,1.29,1.29,0,0,0-2.166-.161,1.06,1.06,0,0,0-.484,0,1.037,1.037,0,0,0-1.06.991h0a.484.484,0,0,0-.507.484.507.507,0,0,0,.507.484h4.424a.968.968,0,0,0,.922-.945.991.991,0,0,0-1.037-1.014Z" transform="translate(20.634 82.35)"/><path class="q" d="M25.932,66.724a1.037,1.037,0,0,0-.6.184A1.267,1.267,0,0,0,24.2,66.24a1.29,1.29,0,0,0-1.037.507,1.106,1.106,0,0,0-1.544.9h0a.484.484,0,1,0,0,.945h4.424a.968.968,0,0,0,.922-.945A1.014,1.014,0,0,0,25.932,66.724Z" transform="translate(27.031 86.398)"/><path class="p" d="M21.556,65.927a2.051,2.051,0,0,0-1.083.3,2.443,2.443,0,0,0-4.01-.277,2.3,2.3,0,0,0-.876-.184,1.936,1.936,0,0,0-1.982,1.843h0a.876.876,0,1,0,0,1.751h8.157a1.774,1.774,0,1,0-.207-3.526Z" transform="translate(16.2 84.821)"/><path class="r" d="M20.673,65.18a4.493,4.493,0,1,0,4.493,4.493,4.609,4.609,0,0,0-4.493-4.493Z" transform="translate(20.7 85.015)"/><rect class="s" width="29.956" height="10.254" transform="translate(26.211 155.126)"/><path class="d" d="M249.391,107.166h0v-1.06c0-13.112-9.517-23.757-21.246-23.757a19.4,19.4,0,0,0-9.217,2.3A24.357,24.357,0,0,0,198.42,72.67a24.956,24.956,0,0,0-22.444,15.623,19.449,19.449,0,0,0-11.637-3.917c-11.522,0-20.739,10.162-20.739,22.721,0,11.66,8.042,21.246,18.435,22.536v.161H249.6a11.522,11.522,0,0,0,0-22.721Z" transform="translate(186.895 94.785)"/><path class="e" d="M150.536,30.16A15.715,15.715,0,0,0,134.89,45.922V198.283h31.27V45.922A15.692,15.692,0,0,0,150.536,30.16Z" transform="translate(175.535 39.338)"/><rect class="t" width="252.438" height="176.234" rx="4.54" transform="translate(104.35 100.099)"/><rect class="a" width="84.361" height="28.597" transform="translate(188.388 276.333)"/><path class="t" d="M184.722,132.33H87.733a13.434,13.434,0,0,0-11.383,6.291l-3.71,5.853H199.815l-3.71-5.853A13.457,13.457,0,0,0,184.722,132.33Z" transform="translate(94.341 172.6)"/><path class="u" d="M286.445,43.72H56.152A10.462,10.462,0,0,0,45.69,54.182V190.136H296.86V54.182A10.462,10.462,0,0,0,286.445,43.72Z" transform="translate(59.19 57.025)"/><rect class="v" width="233.704" height="128.373" transform="translate(113.636 108.648)"/><path class="n" d="M283.194,175.546V47.15l-233.7,128.4Z" transform="translate(64.146 61.498)"/><path class="w" d="M81.93,148.54l84.361-19.218v-9.4H81.93Z" transform="translate(106.458 156.413)"/><rect class="l" width="252.392" height="3.295" transform="translate(104.35 247.253)"/><path class="f" d="M63.453,46.659V198.006h164.62V46.659a16.13,16.13,0,0,1,15.646-16.5H79.076a16.13,16.13,0,0,0-15.623,16.5Z" transform="translate(82.352 39.338)"/><rect class="x" width="135.263" height="2.327" transform="translate(163.548 162.132)"/><rect class="x" width="135.263" height="2.327" transform="translate(163.548 168.699)"/><rect class="x" width="135.263" height="2.327" transform="translate(163.548 175.243)"/><rect class="x" width="135.263" height="2.327" transform="translate(163.548 181.81)"/><rect class="x" width="135.263" height="2.327" transform="translate(163.548 188.378)"/><rect class="x" width="135.263" height="2.327" transform="translate(163.548 194.945)"/><rect class="x" width="135.263" height="2.327" transform="translate(163.548 201.512)"/><rect class="x" width="135.263" height="2.327" transform="translate(163.548 208.08)"/><rect class="x" width="135.263" height="2.327" transform="translate(163.548 214.647)"/><rect class="x" width="135.263" height="2.327" transform="translate(163.548 221.214)"/><rect class="x" width="135.263" height="2.327" transform="translate(163.548 227.782)"/><rect class="y" width="163.883" height="128.581" transform="translate(138.915 60.557)"/><rect class="l" width="141.301" height="3.157" transform="translate(151.98 79.268)"/><rect class="l" width="141.301" height="3.157" transform="translate(151.98 88.209)"/><rect class="l" width="141.301" height="3.157" transform="translate(151.98 97.15)"/><rect class="l" width="141.301" height="3.157" transform="translate(151.98 106.091)"/><rect class="l" width="141.301" height="3.157" transform="translate(151.98 115.031)"/><rect class="l" width="141.301" height="3.157" transform="translate(151.98 123.972)"/><rect class="l" width="141.301" height="3.157" transform="translate(151.98 132.913)"/><rect class="l" width="91.067" height="3.157" transform="translate(151.98 141.854)"/><rect class="l" width="79.176" height="3.157" transform="translate(151.98 150.794)"/><rect class="l" width="79.176" height="3.157" transform="translate(151.98 159.735)"/><rect class="l" width="22.352" height="3.157" transform="translate(151.98 168.676)"/><path class="z" d="M177.678,63.79H123.9a15.139,15.139,0,0,0,0,30.256h40.256a10.047,10.047,0,1,0,0-20.094h-27.1a2.3,2.3,0,0,0,0,4.609h27.1a5.507,5.507,0,0,1,0,10.992H123.9a10.577,10.577,0,0,1,0-21.131h53.783a12.328,12.328,0,0,1,12.305,12.305v2.627a12.3,12.3,0,0,1-12.305,12.213h-9.425v4.609h9.425a16.868,16.868,0,0,0,16.868-16.845V80.658A16.868,16.868,0,0,0,177.678,63.79Z" transform="translate(142.218 83.202)"/><path class="e" d="M52.63,154.353a15.508,15.508,0,0,0,31.016,0V132.9H52.63Z" transform="translate(68.242 173.343)"/><path class="j" d="M98.815,129.912a14.125,14.125,0,0,0-10.6,4.793,19.2,19.2,0,0,0-3.019,10,18.665,18.665,0,0,1-3.549-9.425c-.53-6.913,4.171-10.392.553-16.637a12.6,12.6,0,0,0-7.858-4.954s1.82,3.595,1.2,5.116c-1.89,4.609-3.088,5.6-8.065,10.761S62.43,145.7,62.43,145.7a27.422,27.422,0,0,0-4.609-9.217,6.913,6.913,0,0,0-7.051-2.028,19.541,19.541,0,0,1,2.166,8.71c0,4.609-4.885,13,.323,24.38s16.13,14.01,23.343,14.125c6.153,0,18.965-2.189,23.043-15.093,3.3-10.369-1.521-18.6-2.3-24.933a23.3,23.3,0,0,1,1.475-11.729Z" transform="translate(65.816 148.288)"/><path class="j" d="M71.581,113.53a7.282,7.282,0,0,1-1.774,5c-.853.922-2.489,1.337-2.9,2.3-.853,1.682.461,7.627.461,7.627a12.167,12.167,0,0,1,5.646-3.733c1.567-.6,1.705-3.41.622-6.59a34.151,34.151,0,0,0-2.051-4.609Z" transform="translate(86.483 148.079)"/><path class="j" d="M57.827,116.44a29.028,29.028,0,0,0-2.7,2.673c-1.613,2-2.3,4.1-1.244,5a9.955,9.955,0,0,1,3.226,4.355s2.512-3.963,2.3-5.438c0-.737-1.175-1.521-1.544-2.443a5.761,5.761,0,0,1-.046-4.148Z" transform="translate(69.22 151.874)"/><path class="j" d="M61.052,111.7a15.461,15.461,0,0,0-1.751,1.728c-1.037,1.29-1.452,2.65-.807,3.226a6.521,6.521,0,0,1,2.028,2.811s1.613-2.558,1.5-3.5c0-.484-.737-.991-.991-1.59A3.618,3.618,0,0,1,61.052,111.7Z" transform="translate(75.489 145.692)"/><path class="aa" d="M89.558,135.521a10.208,10.208,0,0,0-5.53,5.277,18.779,18.779,0,0,0-1.406,5.231s-3-.553-5.392-5.392c-1.544-3.111-1.083-6.014-1.475-9.563a31.938,31.938,0,0,0-3.986-8.964,9.794,9.794,0,0,1-3.272,6.36,17.9,17.9,0,0,0-4.609,7.259,37.7,37.7,0,0,0-.853,9.217A7.051,7.051,0,0,1,59.51,143.4a48.187,48.187,0,0,1-4.816-5.692,59.382,59.382,0,0,0-1.82,9.678c0,3.042-.3,6.291,3.341,13.688s12.466,9.655,17.536,9.747c4.309,0,14.771-1.982,17.628-10.346a19.149,19.149,0,0,0-.138-14.563,40.371,40.371,0,0,1-1.682-10.392Z" transform="translate(68.551 159.27)"/><path class="g" d="M77.416,138.82a5.761,5.761,0,0,0-3.157,3.019,11.153,11.153,0,0,0-.807,3s-1.705-.323-3.088-3.088a15.255,15.255,0,0,1-.83-5.461,18.02,18.02,0,0,0-2.3-5.116,5.576,5.576,0,0,1-1.866,3.618,10.462,10.462,0,0,0-2.627,4.148,21.178,21.178,0,0,0-.484,5.254,4.194,4.194,0,0,1-2.028-.9A27.194,27.194,0,0,1,57.6,140a33.9,33.9,0,0,0-1.037,5.53,13.826,13.826,0,0,0,1.913,7.812,11.522,11.522,0,0,0,10,5.553c2.466,0,8.434-1.129,10.07-5.9a10.9,10.9,0,0,0,0-8.319A22.145,22.145,0,0,1,77.416,138.82Z" transform="translate(73.343 171.087)"/><path class="f" d="M95.438,188.244V108.791h-.23l-4.171-3.641-4.194,3.641-4.194-3.641-4.194,3.641-4.194-3.641-4.194,3.641-4.194-3.641-4.148,3.641-4.194-3.641-4.194,3.641-4.194-3.641-4.171,3.641-4.194-3.641-4.194,3.641-4.194-3.641L28.2,108.791,24,105.15l-4.194,3.641v79.453c0,9.793,6.913,17.835,15.531,17.835h75.6C102.42,206.194,95.438,198.037,95.438,188.244Z" transform="translate(25.434 137.149)"/><rect class="x" width="23.112" height="1.475" transform="translate(51.42 288.823)"/><rect class="x" width="23.112" height="1.475" transform="translate(51.42 292.971)"/><rect class="x" width="23.112" height="1.475" transform="translate(51.42 297.141)"/><rect class="x" width="23.112" height="1.475" transform="translate(51.42 301.312)"/><rect class="x" width="23.112" height="1.475" transform="translate(51.42 305.46)"/><rect class="x" width="23.112" height="1.475" transform="translate(51.42 309.631)"/><rect class="x" width="23.112" height="1.475" transform="translate(51.42 313.779)"/><rect class="x" width="23.112" height="1.475" transform="translate(51.42 317.949)"/><rect class="x" width="23.112" height="1.475" transform="translate(51.42 322.097)"/><rect class="x" width="23.112" height="1.475" transform="translate(51.42 326.268)"/><rect class="x" width="23.112" height="1.475" transform="translate(51.42 330.439)"/><rect class="j" width="65.028" height="3.917" transform="translate(50.383 256.194)"/><rect class="k" width="65.028" height="20.808" transform="translate(50.383 263.89)"/><rect class="k" width="8.733" height="8.157" transform="translate(81.215 288.638)"/><rect class="k" width="8.733" height="8.157" transform="translate(81.215 300.321)"/><rect class="k" width="8.733" height="8.157" transform="translate(81.215 312.027)"/><rect class="k" width="8.733" height="8.157" transform="translate(81.215 323.733)"/><rect class="x" width="23.112" height="1.475" transform="translate(92.045 288.731)"/><rect class="x" width="23.112" height="1.475" transform="translate(92.045 292.901)"/><rect class="x" width="23.112" height="1.475" transform="translate(92.321 300.321)"/><rect class="x" width="23.112" height="1.475" transform="translate(92.321 304.469)"/><rect class="x" width="23.112" height="1.475" transform="translate(92.621 311.889)"/><rect class="x" width="23.112" height="1.475" transform="translate(92.621 316.06)"/><rect class="x" width="23.112" height="1.475" transform="translate(92.921 323.48)"/><rect class="x" width="23.112" height="1.475" transform="translate(92.921 327.627)"/><path class="e" d="M186.378,32.75a5.991,5.991,0,0,0-5.968,5.991V97.063h11.959V38.741A6.014,6.014,0,0,0,186.378,32.75Z" transform="translate(234.907 42.716)"/><path class="h" d="M238.77,39.91H150.63a4.01,4.01,0,0,0-4.01,3.987v50.1a4.908,4.908,0,0,0,4.908,4.908h86.32a4.908,4.908,0,0,0,4.908-4.908V43.92a3.986,3.986,0,0,0-3.986-4.01Z" transform="translate(190.834 52.055)"/><path class="h" d="M150.21,78.012,176.41,65.5h-26.2Z" transform="translate(195.517 85.433)"/><path class="f" d="M153.051,39.064V104.23h63.023V39.064a6.153,6.153,0,0,1,5.991-6.314H159.042a6.176,6.176,0,0,0-5.991,6.314Z" transform="translate(199.22 42.716)"/><rect class="a" width="32.79" height="0.853" transform="translate(371.236 119.156)"/><rect class="a" width="32.79" height="0.853" transform="translate(371.236 121.576)"/><rect class="a" width="32.79" height="0.853" transform="translate(371.236 123.972)"/><rect class="a" width="32.79" height="0.853" transform="translate(371.236 126.392)"/><rect class="a" width="32.79" height="0.853" transform="translate(371.236 128.811)"/><rect class="a" width="32.79" height="0.853" transform="translate(371.236 131.231)"/><rect class="a" width="32.79" height="0.853" transform="translate(371.236 133.627)"/><rect class="a" width="32.79" height="0.853" transform="translate(371.236 136.047)"/><rect class="a" width="32.79" height="0.853" transform="translate(371.236 138.466)"/><rect class="a" width="32.79" height="0.853" transform="translate(371.236 140.886)"/><rect class="a" width="32.79" height="0.853" transform="translate(371.236 143.282)"/><rect class="ab" width="9.309" height="6.844" transform="translate(359.553 119.156)"/><rect class="ab" width="9.309" height="6.844" transform="translate(359.553 128.189)"/><rect class="ab" width="9.309" height="6.844" transform="translate(359.553 137.245)"/><rect class="u" width="44.865" height="28.435" transform="translate(359.553 87.61)"/><rect class="v" width="44.796" height="4.401" transform="translate(359.553 111.644)"/><path class="f" d="M165.05,50.136l7.282-4.263L165.05,41.61Z" transform="translate(214.873 54.273)"/><rect class="h" width="41.8" height="0.76" transform="translate(361.097 112.681)"/><path class="f" d="M157.623,49.59a.553.553,0,1,0,.553.553.553.553,0,0,0-.553-.553Z" transform="translate(204.464 64.681)"/><path class="f" d="M158.66,49.59a.542.542,0,0,0,0,1.083.553.553,0,0,0,0-1.083Z" transform="translate(205.847 64.681)"/><path class="f" d="M175.08,49.59a.542.542,0,0,0,0,1.083.553.553,0,0,0,0-1.083Z" transform="translate(227.264 64.681)"/><path class="f" d="M174.389,49.59a.553.553,0,0,0,0,1.083.542.542,0,0,0,0-1.083Z" transform="translate(226.48 64.681)"/><rect class="f" width="4.678" height="0.484" transform="translate(365.36 114.571)"/></g></g></svg>