<?xml version="1.0" encoding="utf-8"?>
<!-- Generator: Adobe Illustrator 23.0.3, SVG Export Plug-In . SVG Version: 6.00 Build 0)  -->
<svg version="1.1" id="Layer_1" xmlns="http://www.w3.org/2000/svg" xmlns:xlink="http://www.w3.org/1999/xlink" x="0px" y="0px"
	 viewBox="0 0 84 84" style="enable-background:new 0 0 84 84;" xml:space="preserve">
<style type="text/css">
	.st0{fill:#3C3C3B;stroke:#FFFFFF;stroke-width:0.5;stroke-miterlimit:10;}
</style>
<g>
	<g>
		<g>
			<path class="st0" d="M32.3,10.3c1.6,1.3,2.7,3.1,3.1,5.2l-4.5-1.8l-1,2.4l6.9,2.8l6.9-2.8l-1-2.4L38,15.6
				c-0.4-2.9-1.8-5.5-4.1-7.3c-2-1.6-4.5-2.5-7-2.5h-0.4v2.6h0.4C28.9,8.5,30.8,9.1,32.3,10.3z"/>
			<path class="st0" d="M51.7,73.7c-1.6-1.3-2.7-3.1-3.1-5.2l4.5,1.8l1-2.4l-6.9-2.8l-6.9,2.8l1,2.4l4.8-1.9
				c0.4,2.9,1.8,5.5,4.1,7.3c2,1.6,4.5,2.5,7,2.5h0.4v-2.6h-0.4C55.1,75.5,53.2,74.9,51.7,73.7z"/>
			<path class="st0" d="M70.4,58.8c-1.9,0-3.6,0.4-5.2,1.2V37.1l2.7,6.7l2.4-1L68.4,38c2.9-0.4,5.5-1.8,7.3-4.1c1.6-2,2.5-4.5,2.5-7
				v-0.4h-2.6v0.4c0,2-0.7,3.9-1.9,5.4c-1.3,1.6-3.1,2.7-5.2,3.1l1.8-4.5l-2.4-1l-2.7,6.7V24c1.6,0.8,3.3,1.2,5.2,1.2
				C76.8,25.2,82,20,82,13.6S76.8,2,70.4,2C64,2,58.8,7.2,58.8,13.6c0,4.5,2.6,8.4,6.3,10.3H18.9c3.7-1.9,6.3-5.8,6.3-10.3
				C25.2,7.2,20,2,13.6,2S2,7.2,2,13.6s5.2,11.6,11.6,11.6c1.9,0,3.6-0.4,5.2-1.2v22.9l-2.7-6.7l-2.4,1l1.9,4.8
				c-2.9,0.4-5.5,1.8-7.3,4.1c-1.6,2-2.5,4.5-2.5,7v0.4h2.6v-0.4c0-2,0.7-3.9,1.9-5.4c1.3-1.6,3.1-2.7,5.2-3.1l-1.8,4.5l2.4,1
				l2.7-6.7V60c-1.6-0.8-3.3-1.2-5.2-1.2C7.2,58.8,2,64,2,70.4C2,76.8,7.2,82,13.6,82s11.6-5.2,11.6-11.6c0-4.5-2.6-8.4-6.3-10.3
				h46.2c-3.7,1.9-6.3,5.8-6.3,10.3C58.8,76.8,64,82,70.4,82C76.8,82,82,76.8,82,70.4C82,64,76.8,58.8,70.4,58.8z M17.5,21.8
				c-1.2,0.6-2.5,0.9-3.9,0.9s-2.7-0.3-3.9-0.9v-1.7c0-2.1,1.7-3.9,3.9-3.9s3.9,1.7,3.9,3.9V21.8z M11,11c0-1.4,1.2-2.6,2.6-2.6
				s2.6,1.2,2.6,2.6s-1.2,2.6-2.6,2.6S11,12.5,11,11z M17.5,78.5c-1.2,0.6-2.5,0.9-3.9,0.9s-2.7-0.3-3.9-0.9v-1.7
				c0-2.1,1.7-3.9,3.9-3.9s3.9,1.7,3.9,3.9V78.5z M11,67.8c0-1.4,1.2-2.6,2.6-2.6s2.6,1.2,2.6,2.6s-1.2,2.6-2.6,2.6S11,69.2,11,67.8
				z M22.6,70.4c0,2.5-1,4.7-2.6,6.3c0-2.2-1.2-4.1-2.8-5.2c1-0.9,1.6-2.2,1.6-3.7c0-2.8-2.3-5.2-5.2-5.2S8.5,65,8.5,67.8
				c0,1.4,0.6,2.7,1.6,3.7c-1.7,1.1-2.8,3.1-2.8,5.2c-1.6-1.6-2.6-3.9-2.6-6.3c0-5,4.1-9,9-9S22.6,65.4,22.6,70.4z M17.2,14.7
				c1-0.9,1.6-2.2,1.6-3.7c0-2.8-2.3-5.2-5.2-5.2S8.5,8.2,8.5,11c0,1.4,0.6,2.7,1.6,3.7c-1.7,1.1-2.8,3.1-2.8,5.2
				c-1.6-1.6-2.6-3.9-2.6-6.3c0-5,4.1-9,9-9s9,4.1,9,9c0,2.5-1,4.7-2.6,6.3C20,17.8,18.9,15.9,17.2,14.7z M62.6,57.5H21.4V36.8h41.3
				V57.5z M62.6,34.3H21.4v-7.7h41.3V34.3z M74.3,21.8c-1.2,0.6-2.5,0.9-3.9,0.9c-1.4,0-2.7-0.3-3.9-0.9v-1.7c0-2.1,1.7-3.9,3.9-3.9
				c2.1,0,3.9,1.7,3.9,3.9V21.8z M67.8,11c0-1.4,1.2-2.6,2.6-2.6c1.4,0,2.6,1.2,2.6,2.6s-1.2,2.6-2.6,2.6C69,13.6,67.8,12.5,67.8,11
				z M63.9,19.9c-1.6-1.6-2.6-3.9-2.6-6.3c0-5,4.1-9,9-9c5,0,9,4.1,9,9c0,2.5-1,4.7-2.6,6.3c0-2.2-1.2-4.1-2.8-5.2
				c1-0.9,1.6-2.2,1.6-3.7c0-2.8-2.3-5.2-5.2-5.2c-2.8,0-5.2,2.3-5.2,5.2c0,1.4,0.6,2.7,1.6,3.7C65.1,15.9,64,17.8,63.9,19.9z
				 M74.3,78.5c-1.2,0.6-2.5,0.9-3.9,0.9c-1.4,0-2.7-0.3-3.9-0.9v-1.7c0-2.1,1.7-3.9,3.9-3.9c2.1,0,3.9,1.7,3.9,3.9V78.5z
				 M67.8,67.8c0-1.4,1.2-2.6,2.6-2.6c1.4,0,2.6,1.2,2.6,2.6s-1.2,2.6-2.6,2.6C69,70.4,67.8,69.2,67.8,67.8z M76.8,76.7
				c0-2.2-1.2-4.1-2.8-5.2c1-0.9,1.6-2.2,1.6-3.7c0-2.8-2.3-5.2-5.2-5.2c-2.8,0-5.2,2.3-5.2,5.2c0,1.4,0.6,2.7,1.6,3.7
				c-1.7,1.1-2.8,3.1-2.8,5.2c-1.6-1.6-2.6-3.9-2.6-6.3c0-5,4.1-9,9-9c5,0,9,4.1,9,9C79.4,72.8,78.4,75.1,76.8,76.7z"/>
			<rect x="23.9" y="29.1" class="st0" width="2.6" height="2.6"/>
			<rect x="29.1" y="29.1" class="st0" width="2.6" height="2.6"/>
			<rect x="34.3" y="29.1" class="st0" width="2.6" height="2.6"/>
			<path class="st0" d="M44.6,39.4H23.9v15.5h20.6V39.4z M42,52.3H26.5V42H42V52.3z"/>
			<rect x="47.2" y="39.4" class="st0" width="12.9" height="2.6"/>
			<rect x="47.2" y="44.6" class="st0" width="12.9" height="2.6"/>
			<rect x="47.2" y="49.7" class="st0" width="12.9" height="2.6"/>
		</g>
	</g>
</g>
</svg>
