<svg xmlns="http://www.w3.org/2000/svg" width="237" height="251" viewBox="0 0 237 251"><defs><style>.a,.b{fill:#fff;}.a{stroke:#f36e24;}.c{fill:#54666f;}.d{fill:#f0f0f0;}.e{fill:#ffa400;}.f{fill:#ffd159;}.g{fill:#758789;}.h{fill:#ff7643;}.i{fill:#254048;}.j{fill:#00d3e8;}.k{opacity:0.2;}.l{opacity:0.3;}.m{fill:#96dc73;}.n{fill:#cfcfd1;}.o{fill:#b1bdbf;}.p{stroke:none;}.q{fill:none;}</style></defs><g transform="translate(-786 -1757)"><g transform="translate(786 1757)"><g class="a"><rect class="p" width="237" height="251" rx="18"/><rect class="q" x="0.5" y="0.5" width="236" height="250" rx="17.5"/></g></g><rect class="b" width="141.905" height="105.591" transform="translate(848.355 1829.982)"/><rect class="b" width="12.69" height="12.69" transform="translate(813.172 1914.344) rotate(180)"/><g transform="translate(7.174 3.166)"><g transform="translate(806.827 1798.834)"><g transform="translate(35.261 140.586)"><path class="c" d="M394.347,387.941H285.026v12.593H394.347Zm-8.4,6.3a2.19,2.19,0,1,1,2.189,2.191,2.19,2.19,0,0,1-2.189-2.191Z" transform="translate(-285.026 -387.941)"/><g transform="translate(3.042)"><rect class="d" width="1.022" height="3.102" transform="translate(102.206)"/><rect class="d" width="0.581" height="1.642" transform="translate(100.725)"/><rect class="d" width="0.585" height="1.642" transform="translate(99.02)"/><rect class="d" width="0.584" height="1.642" transform="translate(97.315)"/><rect class="d" width="0.585" height="1.642" transform="translate(95.611)"/><rect class="d" width="0.586" height="1.642" transform="translate(93.909)"/><rect class="d" width="1.021" height="3.102" transform="translate(91.986)"/><rect class="d" width="0.583" height="1.642" transform="translate(90.503)"/><rect class="d" width="0.588" height="1.642" transform="translate(88.797)"/><rect class="d" width="0.587" height="1.642" transform="translate(87.094)"/><rect class="d" width="0.588" height="1.642" transform="translate(85.391)"/><rect class="d" width="0.585" height="1.642" transform="translate(83.688)"/><rect class="d" width="1.021" height="3.102" transform="translate(81.766)"/><rect class="d" width="0.587" height="1.642" transform="translate(80.28)"/><rect class="d" width="0.584" height="1.642" transform="translate(78.58)"/><rect class="d" width="0.587" height="1.642" transform="translate(76.875)"/><rect class="d" width="0.581" height="1.642" transform="translate(75.171)"/><rect class="d" width="0.581" height="1.642" transform="translate(73.471)"/><rect class="d" width="1.024" height="3.102" transform="translate(71.545)"/><rect class="d" width="0.588" height="1.642" transform="translate(70.06)"/><rect class="d" width="0.586" height="1.642" transform="translate(68.356)"/><rect class="d" width="0.584" height="1.642" transform="translate(66.655)"/><rect class="d" width="0.583" height="1.642" transform="translate(64.952)"/><rect class="d" width="0.584" height="1.642" transform="translate(63.248)"/><rect class="d" width="1.023" height="3.102" transform="translate(61.324)"/><rect class="d" width="0.586" height="1.642" transform="translate(59.841)"/><rect class="d" width="0.584" height="1.642" transform="translate(58.138)"/><rect class="d" width="0.583" height="1.642" transform="translate(56.435)"/><rect class="d" width="0.585" height="1.642" transform="translate(54.73)"/><rect class="d" width="0.585" height="1.642" transform="translate(53.026)"/><rect class="d" width="1.022" height="3.102" transform="translate(51.103)"/><rect class="d" width="0.583" height="1.642" transform="translate(49.621)"/><rect class="d" width="0.581" height="1.642" transform="translate(47.918)"/><rect class="d" width="0.587" height="1.642" transform="translate(46.212)"/><rect class="d" width="0.585" height="1.642" transform="translate(44.509)"/><rect class="d" width="0.584" height="1.642" transform="translate(42.806)"/><rect class="d" width="1.021" height="3.102" transform="translate(40.884)"/><rect class="d" width="0.584" height="1.642" transform="translate(39.399)"/><rect class="d" width="0.585" height="1.642" transform="translate(37.697)"/><rect class="d" width="0.586" height="1.642" transform="translate(35.991)"/><rect class="d" width="0.586" height="1.642" transform="translate(34.289)"/><rect class="d" width="0.584" height="1.642" transform="translate(32.585)"/><rect class="d" width="1.022" height="3.102" transform="translate(30.663)"/><rect class="d" width="0.585" height="1.642" transform="translate(29.178)"/><rect class="d" width="0.587" height="1.642" transform="translate(27.475)"/><rect class="d" width="0.584" height="1.642" transform="translate(25.773)"/><rect class="d" width="0.585" height="1.642" transform="translate(24.067)"/><rect class="d" width="0.585" height="1.642" transform="translate(22.365)"/><rect class="d" width="1.021" height="3.102" transform="translate(20.443)"/><rect class="d" width="0.587" height="1.642" transform="translate(18.958)"/><rect class="d" width="0.586" height="1.642" transform="translate(17.254)"/><rect class="d" width="0.583" height="1.642" transform="translate(15.552)"/><rect class="d" width="0.585" height="1.642" transform="translate(13.847)"/><rect class="d" width="0.585" height="1.642" transform="translate(12.143)"/><rect class="d" width="1.021" height="3.102" transform="translate(10.221)"/><rect class="d" width="1.023" height="3.102"/><rect class="d" width="0.586" height="1.642" transform="translate(8.737)"/><rect class="d" width="0.585" height="1.642" transform="translate(7.034)"/><rect class="d" width="0.585" height="1.642" transform="translate(5.331)"/><rect class="d" width="0.585" height="1.642" transform="translate(3.627)"/><rect class="d" width="0.585" height="1.642" transform="translate(1.924)"/></g></g><g transform="translate(33.9 6.915)"><rect class="e" width="92.31" height="5.597" transform="translate(8.952 0.005)"/><rect class="f" width="92.31" height="2.8" transform="translate(8.952 0.005)"/><rect class="g" width="5.304" height="5.597" transform="translate(3.648 0.005)"/><path class="h" d="M283.667,258.559v-2.676a1.459,1.459,0,0,1,1.46-1.461h2.188v5.6h-2.188a1.459,1.459,0,0,1-1.46-1.461Z" transform="translate(-283.667 -254.417)"/><path class="i" d="M390.158,258.637V255.8l5.43,1.418Z" transform="translate(-283.549 -254.415)"/><path class="d" d="M384.819,260.023v-5.606l5.345,1.387v2.834Z" transform="translate(-283.555 -254.417)"/></g><g transform="translate(36.488 24.769)"><g transform="translate(0 19.032)"><path class="i" d="M388.859,294.016v67.8a2.751,2.751,0,0,1-2.749,2.755H289a2.751,2.751,0,0,1-2.751-2.755v-67.8A2.759,2.759,0,0,1,289,291.263H386.11a2.632,2.632,0,0,1,1.308.344,2.047,2.047,0,0,1,.232.138,2.593,2.593,0,0,1,.923,1.071,2.535,2.535,0,0,1,.285,1.2Z" transform="translate(-286.252 -291.263)"/><rect class="j" width="92.325" height="53.483" transform="translate(5.143 5.534)"/><path class="k" d="M292.766,298.169h90.948v-1.378H291.389v53.483h1.377Z" transform="translate(-286.246 -291.257)"/><path class="g" d="M386.11,364.509H289a2.753,2.753,0,0,1-2.751-2.756v-5.686H388.859v5.686a2.754,2.754,0,0,1-2.749,2.756Z" transform="translate(-286.252 -291.191)"/><g transform="translate(30.645 81.747)"><path class="g" d="M358.183,377.646h-41.32l7.555-4.726h26.207Z" transform="translate(-316.863 -372.92)"/><rect class="c" width="41.319" height="0.901" transform="translate(0 4.726)"/></g><rect class="d" width="22.724" height="9.961" transform="translate(39.942 73.316)"/><rect class="k" width="22.724" height="1.568" transform="translate(39.942 73.316)"/></g><path class="l" d="M377.307,291.263l-.287,5.536-.07,1.377-.027.554-2.63,51.551H300.8l-.647-12.6-2.014-39.5-.066-1.377-.289-5.536Z" transform="translate(-286.239 -272.231)"/><g transform="translate(14.565)"><rect class="b" width="73.479" height="78.049"/><rect class="f" width="73.479" height="4.47"/><g transform="translate(7.451 41.35)"><rect class="f" width="16.389" height="10.988"/><g transform="translate(0 13.781)"><rect class="i" width="16.389" height="1.117"/><g transform="translate(0 1.956)"><rect class="g" width="16.389" height="0.56"/><rect class="g" width="16.389" height="0.56" transform="translate(0 1.677)"/><rect class="g" width="8.195" height="0.559" transform="translate(0 3.355)"/></g></g></g><g transform="translate(28.547 41.35)"><rect class="h" width="16.389" height="10.988"/><g transform="translate(0 13.781)"><rect class="i" width="16.389" height="1.117"/><g transform="translate(0 1.956)"><rect class="g" width="16.389" height="0.56"/><rect class="g" width="16.389" height="0.56" transform="translate(0 1.677)"/><rect class="g" width="2.605" height="0.559" transform="translate(0 3.355)"/></g></g></g><g transform="translate(49.222 41.35)"><rect class="j" width="16.389" height="10.988"/><g transform="translate(0 13.781)"><rect class="i" width="16.389" height="1.117"/><g transform="translate(0 1.956)"><rect class="g" width="16.389" height="0.56"/><rect class="g" width="16.389" height="0.56" transform="translate(0 1.677)"/><rect class="g" width="13.781" height="0.559" transform="translate(0 3.355)"/></g></g></g><g transform="translate(36.216 0.719)"><rect class="d" width="36.145" height="3.03"/><g transform="translate(32.998)"><rect class="j" width="3.146" height="3.03"/><path class="d" d="M370.725,273.575l1.576.91-1.576.908Z" transform="translate(-369.938 -272.969)"/></g></g><rect class="g" width="33.135" height="1.118" transform="translate(1.607 1.676)"/><rect class="m" width="73.479" height="21.979" transform="translate(0 15.095)"/><rect class="j" width="20.927" height="4.098" transform="translate(2.913 7.643)"/><rect class="c" width="44.231" height="4.098" transform="translate(26.94 7.643)"/><g transform="translate(2.409 64.545)"><rect class="c" width="68.664" height="1.677"/><rect class="g" width="68.664" height="0.783" transform="translate(0 3.24)"/><rect class="g" width="68.664" height="0.781" transform="translate(0 6.036)"/><rect class="g" width="25.633" height="0.782" transform="translate(0 8.83)"/></g></g><g transform="translate(20.792 16.386)"><g transform="translate(0.71 0.709)"><path class="d" d="M343.311,308.045H342.17v-.432h.708V306.9h.433Z" transform="translate(-307.692 -289.309)"/><path class="d" d="M340.449,308.044h-1.754v-.432h1.754Zm-3.51,0h-1.754v-.432h1.754Zm-3.5,0h-1.756v-.432h1.756Zm-3.5,0h-1.756v-.432h1.746Zm-3.51,0h-1.754v-.432h1.75Zm-3.509,0h-1.754v-.432h1.754Zm-3.51,0h-1.754v-.432H319.4Zm-3.5,0h-1.754v-.432H315.9Zm-3.5,0h-1.754v-.432h1.754Z" transform="translate(-307.727 -289.308)"/><path class="d" d="M308.874,308.045H307.73V306.9h.434v.711h.71Z" transform="translate(-307.73 -289.309)"/><path class="d" d="M308.164,305.09h-.434v-1.827h.434Zm0-3.654h-.434v-1.828h.434Zm0-3.657h-.434v-1.826h.434Zm0-3.657h-.434V292.3h.434Z" transform="translate(-307.73 -289.325)"/><path class="d" d="M308.164,290.472h-.434v-1.144h1.143v.432h-.71Z" transform="translate(-307.73 -289.328)"/><path class="d" d="M340.451,289.76h-1.756v-.432h1.756Zm-3.512,0h-1.754v-.432h1.754Zm-3.5,0h-1.758v-.432h1.758Zm-3.51,0h-1.756v-.432h1.752Zm-3.51,0h-1.754v-.432h1.756Zm-3.509,0h-1.754v-.432h1.754Zm-3.5,0h-1.756v-.432H319.4Zm-3.51,0h-1.754v-.432h1.754Zm-3.5,0h-1.754v-.432h1.754Z" transform="translate(-307.727 -289.328)"/><path class="d" d="M343.311,290.472h-.434v-.712h-.708v-.432h1.142Z" transform="translate(-307.692 -289.328)"/><path class="d" d="M343.311,305.09h-.434v-1.827h.434Zm0-3.654h-.434v-1.828h.434Zm0-3.657h-.434v-1.826h.434Zm0-3.657h-.434V292.3h.434Z" transform="translate(-307.691 -289.325)"/></g><rect class="d" width="1.854" height="1.852" transform="translate(0 18.302)"/><rect class="d" width="1.852" height="1.853" transform="translate(35.188)"/><rect class="d" width="1.852" height="1.852" transform="translate(35.188 18.302)"/><rect class="d" width="1.852" height="1.851" transform="translate(35.188 8.942)"/><rect class="d" width="1.854" height="1.852" transform="translate(0 9.15)"/><rect class="d" width="1.852" height="1.852" transform="translate(17.592 18.302)"/><rect class="d" width="1.852" height="1.853" transform="translate(17.592)"/><rect class="d" width="1.854" height="1.853"/></g><path class="b" d="M343.31,298.306l7.532,2.209-1.445,1.443,2.819,2.819-2.435,2.436-2.819-2.82-1.445,1.446Z" transform="translate(-286.189 -272.223)"/></g><g transform="translate(136.62 26.788)"><rect class="b" width="36.49" height="44.922"/><rect class="j" width="30.642" height="12.594" transform="translate(2.925 10.512)"/><rect class="c" width="17.643" height="1.29" transform="translate(9.422 4.759)"/><g transform="translate(2.081 26.876)"><g transform="translate(23.405)"><path class="m" d="M420.655,305.576a4.462,4.462,0,1,1-4.462-4.462,4.462,4.462,0,0,1,4.462,4.462Z" transform="translate(-411.731 -301.114)"/><g transform="translate(0.246 11.106)"><rect class="g" width="5.552" height="1.19" transform="translate(1.439)"/><rect class="n" width="8.429" height="0.792" transform="translate(0 4.167)"/><rect class="n" width="8.429" height="0.794" transform="translate(0 2.182)"/></g></g><g transform="translate(11.702)"><path class="h" d="M408.967,305.576a4.463,4.463,0,1,1-4.463-4.462A4.463,4.463,0,0,1,408.967,305.576Z" transform="translate(-400.041 -301.114)"/><g transform="translate(0.25 11.106)"><rect class="g" width="5.549" height="1.19" transform="translate(1.438)"/><rect class="n" width="8.428" height="0.792" transform="translate(0 4.167)"/><rect class="n" width="8.428" height="0.794" transform="translate(0 2.182)"/></g></g><path class="f" d="M397.276,305.576a4.462,4.462,0,1,1-4.46-4.462,4.462,4.462,0,0,1,4.46,4.462Z" transform="translate(-388.352 -301.114)"/><g transform="translate(0.248 11.106)"><rect class="g" width="5.556" height="1.19" transform="translate(1.436)"/><rect class="n" width="8.43" height="0.792" transform="translate(0 4.167)"/><rect class="n" width="8.43" height="0.794" transform="translate(0 2.182)"/></g></g><g transform="translate(14.676 24.411)"><path class="g" d="M401.99,299.18a.528.528,0,1,1-.156-.374.529.529,0,0,1,.156.374Z" transform="translate(-400.933 -298.652)"/><path class="n" d="M405.027,299.18a.528.528,0,1,1-.528-.528.528.528,0,0,1,.528.528Z" transform="translate(-400.93 -298.652)"/><path class="g" d="M408.067,299.18a.531.531,0,1,1-.529-.528.531.531,0,0,1,.529.528Z" transform="translate(-400.926 -298.652)"/></g></g><g transform="translate(7.408 79.513)"><rect class="b" width="38.475" height="48.12"/><g transform="translate(3.681 37.334)"><rect class="f" width="5.6" height="4.358"/><rect class="n" width="5.6" height="1.243" transform="translate(0 5.914)"/><g transform="translate(8.503)"><rect class="j" width="5.604" height="4.358"/><rect class="n" width="5.604" height="1.243" transform="translate(0 5.914)"/></g><g transform="translate(17.01)"><rect class="m" width="5.6" height="4.358"/><rect class="n" width="5.6" height="1.243" transform="translate(0 5.914)"/></g><g transform="translate(25.513)"><rect class="h" width="5.598" height="4.358"/><rect class="n" width="5.598" height="1.243" transform="translate(0 5.914)"/></g></g><g transform="translate(3.268 10.58)"><rect class="f" width="19.184" height="7.571"/><g transform="translate(20.584 0.207)"><rect class="i" width="10.735" height="1.244"/><rect class="g" width="10.735" height="1.244" transform="translate(0 2.903)"/><rect class="g" width="10.735" height="1.245" transform="translate(0 5.806)"/></g></g><g transform="translate(3.268 21.987)"><g transform="translate(0 7.261)"><rect class="c" width="8.71" height="1.242"/><rect class="g" width="8.71" height="1.24" transform="translate(0 2.904)"/></g><rect class="j" width="8.71" height="5.911"/><g transform="translate(11.615)"><g transform="translate(0 7.261)"><rect class="c" width="8.711" height="1.242"/><rect class="g" width="8.711" height="1.24" transform="translate(0 2.904)"/></g><rect class="m" width="8.711" height="5.911"/></g><g transform="translate(23.231)"><g transform="translate(0 7.261)"><rect class="c" width="8.711" height="1.242"/><rect class="g" width="8.711" height="1.24" transform="translate(0 2.904)"/></g><rect class="h" width="8.711" height="5.911"/></g></g><rect class="c" width="26.618" height="2.903" transform="translate(5.929 4.149)"/></g><path class="o" d="M272.538,270.983h-1.5v-9.124a5.187,5.187,0,0,1,4.942-5.39h4.192v1.5h-4.192a3.689,3.689,0,0,0-3.441,3.888Z" transform="translate(-249.781 -247.5)"/><path class="o" d="M295.726,407.625H281.09a5.4,5.4,0,0,1-5.39-5.39V388.481a3.892,3.892,0,0,0-3.888-3.888H255.193a5.4,5.4,0,0,1-5.389-5.39V323.474a5.4,5.4,0,0,1,5.389-5.389h11.974a3.893,3.893,0,0,0,3.888-3.889V294.6h1.5v19.6a5.4,5.4,0,0,1-5.39,5.391H255.2a3.892,3.892,0,0,0-3.887,3.887V379.2a3.892,3.892,0,0,0,3.887,3.888h16.618a5.4,5.4,0,0,1,5.39,5.39v13.758a3.892,3.892,0,0,0,3.884,3.884h14.636Z" transform="translate(-249.804 -247.458)"/><path class="o" d="M289.726,266.946H284.8a5.4,5.4,0,0,1-5.39-5.39V252.9a5.4,5.4,0,0,1,5.39-5.39h4.926v1.5H284.8a3.892,3.892,0,0,0-3.888,3.888v8.657a3.892,3.892,0,0,0,3.888,3.888h4.926Z" transform="translate(-249.771 -247.51)"/><path class="o" d="M394.805,266.946H389.88v-1.5h4.925a3.893,3.893,0,0,0,3.889-3.888V252.9a3.893,3.893,0,0,0-3.889-3.888H389.88v-1.5h4.925a5.4,5.4,0,0,1,5.391,5.39v8.657a5.4,5.4,0,0,1-5.391,5.39Z" transform="translate(-249.649 -247.51)"/><path class="o" d="M395.731,407.529h-4.925v-1.5h4.925a3.893,3.893,0,0,0,3.888-3.888V386.347a3.893,3.893,0,0,0-3.888-3.888h-4.925v-1.5h4.925a5.4,5.4,0,0,1,5.39,5.39v15.8A5.4,5.4,0,0,1,395.731,407.529Z" transform="translate(-249.648 -247.363)"/><path class="o" d="M409.286,395.072H400.36v-1.5h8.926a3.893,3.893,0,0,0,3.889-3.887v-57.9a5.4,5.4,0,0,1,5.39-5.39h7.387a3.893,3.893,0,0,0,3.888-3.888V311.713h1.5V322.5a5.4,5.4,0,0,1-5.39,5.39h-7.387a3.892,3.892,0,0,0-3.888,3.888v57.908a5.4,5.4,0,0,1-5.391,5.386Z" transform="translate(-249.638 -247.439)"/><g transform="translate(6.301 26.267)"><path class="o" d="M271.223,290.231c-6.569,0-11.012-2.974-15.054-8.152l-.071-.089.071-.094c4.045-5.179,8.484-8.148,15.054-8.148s11.006,2.969,15.053,8.148l.071.094-.071.089C282.229,287.257,277.79,290.231,271.223,290.231Zm-14.745-8.241c3.989,5.05,8.309,7.945,14.745,7.945s10.755-2.9,14.744-7.945c-3.989-5.055-8.309-7.945-14.744-7.945s-10.756,2.89-14.745,7.945Z" transform="translate(-256.098 -273.748)"/><g transform="translate(7.497 0.123)"><path class="o" d="M271.674,274.464a7.5,7.5,0,1,1-7.5,7.5A7.5,7.5,0,0,1,271.674,274.464Zm0-.593a8.092,8.092,0,1,0,8.1,8.094,8.092,8.092,0,0,0-8.1-8.094Z" transform="translate(-263.587 -273.871)"/></g><path class="o" d="M275.391,281.959a3.718,3.718,0,1,1-1.089-2.634A3.718,3.718,0,0,1,275.391,281.959Z" transform="translate(-256.085 -273.743)"/></g></g></g></g></svg>