<svg xmlns="http://www.w3.org/2000/svg" width="237" height="251" viewBox="0 0 237 251"><defs><style>.a,.v{fill:none;}.a{stroke:#f36e24;}.b{fill:#54666f;}.c{fill:#cfcfd1;}.d{fill:#ff7643;}.e{fill:#00d3e8;}.f{fill:#f0f0f0;}.g{fill:#ffd159;}.h,.k,.l,.n,.s{fill:#fff;}.h,.o{opacity:0.3;}.i{fill:#254048;}.j{fill:#758789;}.l{opacity:0.7;}.m{fill:#a6a6a8;}.n{opacity:0.5;}.p{fill:#d5d1d1;}.q{fill:#75dfe5;}.q,.r{opacity:0.4;}.r{fill:#00bec8;}.s{opacity:0.2;}.t{fill:#b1bdbf;}.u{stroke:none;}</style></defs><g transform="translate(-233 -2062)"><g class="a" transform="translate(233 2062)"><rect class="u" width="237" height="251" rx="18"/><rect class="v" x="0.5" y="0.5" width="236" height="250" rx="17.5"/></g><g transform="translate(2.805 2.664)"><g transform="translate(297.195 2146.135)"><rect class="b" width="74.529" height="87.424" transform="translate(0 0)"/><rect class="c" width="74.529" height="6.785" transform="translate(0 0)"/><g transform="translate(4.233 14.171)"><rect class="d" width="8.222" height="1.595"/><rect class="d" width="16.722" height="1.595" transform="translate(11.513)"/><g transform="translate(0 57.484)"><rect class="e" width="9.595" height="1.597"/><rect class="e" width="19.738" height="1.597" transform="translate(12.883)"/></g><g transform="translate(6.305 63.871)"><rect class="f" width="11.236" height="1.597"/><rect class="f" width="7.402" height="1.597" transform="translate(14.526)"/></g><g transform="translate(6.305 6.387)"><rect class="f" width="16.446" height="1.597"/><rect class="f" width="16.86" height="1.597" transform="translate(19.735)"/></g><g transform="translate(6.305 12.774)"><rect class="f" width="15.624" height="1.598"/><rect class="f" width="12.884" height="1.598" transform="translate(18.914)"/><rect class="f" width="8.221" height="1.598" transform="translate(35.087)"/><rect class="e" width="10.691" height="1.598" transform="translate(46.599)"/></g><g transform="translate(6.305 19.161)"><rect class="d" width="9.867" height="1.596"/><rect class="f" width="23.575" height="1.596" transform="translate(13.157)"/><rect class="f" width="7.402" height="1.596" transform="translate(40.019)"/><rect class="f" width="9.045" height="1.596" transform="translate(50.711)"/></g><rect class="f" width="18.915" height="1.597" transform="translate(6.305 31.935)"/><g transform="translate(6.305 38.323)"><rect class="f" width="21.243" height="1.597"/><rect class="f" width="14.805" height="1.597" transform="translate(24.531)"/><rect class="f" width="10.279" height="1.597" transform="translate(42.624)"/></g><g transform="translate(6.305 44.71)"><rect class="f" width="11.925" height="1.596"/><rect class="f" width="25.356" height="1.596" transform="translate(15.212)"/></g><g transform="translate(0 25.548)"><rect class="e" width="12.611" height="1.596"/><rect class="e" width="7.678" height="1.596" transform="translate(15.897)"/></g><g transform="translate(6.305 51.097)"><rect class="d" width="9.867" height="1.597"/><rect class="f" width="16.171" height="1.597" transform="translate(13.157)"/></g></g></g><g transform="translate(380.077 2141.274)"><path class="g" d="M185.65,86.018a12.168,12.168,0,1,0-20.036,0c-.01,0,.8,1.008,1.132,1.4,3.284,3.913,3.652,8.674,4.43,12.62h8.913c.779-3.946,1.15-8.707,4.432-12.62C184.842,87.027,185.662,86.018,185.65,86.018Z" transform="translate(-151.814 -56.7)"/><path class="h" d="M170.768,86.05c-.22-.468-.765-1.679-.757-1.677a12.919,12.919,0,0,1-.395-7.469,12.771,12.771,0,0,1,7.672-8.917c-.307-.024-.614-.046-.928-.046a11.449,11.449,0,0,0-9.431,17.945c-.008,0,.76.949,1.068,1.315,2.933,3.5,3.4,7.714,4.061,11.313C172.322,94.652,172.763,90.283,170.768,86.05Z" transform="translate(-151.864 -56.734)"/><path class="i" d="M177.578,110.688h-3.3l-2.184-1.824h7.668Z" transform="translate(-152.11 -58.136)"/><path class="j" d="M179.739,102.388h-7.668l-.622-1.178h8.913Z" transform="translate(-152.088 -57.874)"/><rect class="c" width="7.668" height="6.214" transform="translate(19.983 44.514)"/><g transform="translate(19.498 45.065)"><path class="j" d="M171.831,104.084a39.321,39.321,0,0,1,4.011-.736,34.881,34.881,0,0,1,4.063-.348.313.313,0,0,1,.083.615,34.587,34.587,0,0,1-4.013.737,39.827,39.827,0,0,1-4.064.352.315.315,0,0,1-.321-.305.309.309,0,0,1,.24-.316Z" transform="translate(-171.591 -103)"/><path class="j" d="M171.832,105.85a40.417,40.417,0,0,1,4.011-.736,35.521,35.521,0,0,1,4.066-.35.312.312,0,0,1,.083.614,34.585,34.585,0,0,1-4.013.737,39.285,39.285,0,0,1-4.064.352.314.314,0,0,1-.083-.618Z" transform="translate(-171.591 -103.06)"/><path class="j" d="M171.831,107.62a40.4,40.4,0,0,1,4.011-.735,35.52,35.52,0,0,1,4.066-.353.314.314,0,0,1,.083.617,34.784,34.784,0,0,1-4.013.735,39.29,39.29,0,0,1-4.064.352.313.313,0,0,1-.083-.617Z" transform="translate(-171.591 -103.121)"/></g><g transform="translate(0 0)"><path class="g" d="M176.041,63.172a.62.62,0,0,1-.62-.621V56.958a.621.621,0,0,1,1.243,0v5.593a.622.622,0,0,1-.623.621Z" transform="translate(-152.224 -56.337)"/><path class="g" d="M163.014,68.568a.63.63,0,0,1-.441-.182l-3.952-3.954a.62.62,0,1,1,.876-.879l3.96,3.954a.621.621,0,0,1-.437,1.062Z" transform="translate(-151.642 -56.578)"/><path class="g" d="M157.615,81.6h-5.592a.622.622,0,0,1,0-1.244h5.592a.622.622,0,0,1,0,1.244Z" transform="translate(-151.401 -57.159)"/><path class="g" d="M159.059,98.44a.6.6,0,0,1-.438-.183.619.619,0,0,1,0-.878l3.952-3.953a.621.621,0,1,1,.879.879l-3.96,3.952a.6.6,0,0,1-.433.183Z" transform="translate(-151.642 -57.601)"/><path class="g" d="M192.884,98.439a.606.606,0,0,1-.438-.183l-3.96-3.952a.622.622,0,1,1,.88-.879l3.953,3.953a.621.621,0,0,1,0,.878A.612.612,0,0,1,192.884,98.439Z" transform="translate(-152.665 -57.601)"/><path class="g" d="M199.861,81.6h-5.59a.622.622,0,1,1,0-1.244h5.59a.622.622,0,0,1,0,1.244Z" transform="translate(-152.848 -57.159)"/><path class="g" d="M188.93,68.568a.621.621,0,0,1-.438-1.062l3.96-3.953a.621.621,0,0,1,.878.879l-3.953,3.954A.626.626,0,0,1,188.93,68.568Z" transform="translate(-152.665 -56.577)"/></g></g><g transform="translate(280.722 2134.766)"><rect class="j" width="36.386" height="19.852" transform="translate(0 0)"/><path class="k" d="M54.7,58.816l7.554-2.907V57.9l-2.89.952-2.221.773v.066l2.221.773,2.89.951V63.4L54.7,60.491Z" transform="translate(-48.733 -49.813)"/><path class="k" d="M67.158,53.143h1.416L65.612,65.975H64.194Z" transform="translate(-49.058 -49.718)"/><path class="k" d="M77.959,60.491,70.4,63.4V61.405l2.9-.946,2.216-.773V59.62L73.3,58.848,70.4,57.9V55.909l7.555,2.907Z" transform="translate(-49.271 -49.813)"/></g><g transform="translate(319.142 2222.01)"><path class="c" d="M2.738,0h87.1a2.738,2.738,0,0,1,2.738,2.738V34a2.738,2.738,0,0,1-2.738,2.738H2.74A2.74,2.74,0,0,1,0,34V2.738A2.738,2.738,0,0,1,2.738,0Z" transform="translate(0 0)"/><path class="l" d="M91.176,141.276H178.2c.04,0,.079.006.116.006a3.484,3.484,0,0,0-2.247-.682H93.308a3.477,3.477,0,0,0-2.246.682C91.1,141.283,91.137,141.276,91.176,141.276Z" transform="translate(-88.399 -139.959)"/><rect class="m" width="88.269" height="32.634" transform="translate(2.155 2.054)"/><g transform="translate(3.762 3.451)"><g transform="translate(0.169 11.5)"><g transform="translate(0 0)"><path class="f" d="M.984,0H5.861a.984.984,0,0,1,.983.984v3.5a.984.984,0,0,1-.984.985H.983A.983.983,0,0,1,0,4.49V.984A.984.984,0,0,1,.984,0Z" transform="translate(0 0)"/><path class="n" d="M92.669,160.2V156.7a.986.986,0,0,1,.987-.984H98.53a.977.977,0,0,1,.522.168.974.974,0,0,0-.817-.463H93.359a.984.984,0,0,0-.985.984v3.506a.966.966,0,0,0,.465.816.957.957,0,0,1-.171-.521Z" transform="translate(-92.374 -155.417)"/><path class="o" d="M98.932,156.11v3.51a.985.985,0,0,1-.984.984H93.07a.966.966,0,0,1-.522-.169.966.966,0,0,0,.817.463h4.876a.983.983,0,0,0,.984-.984v-3.506a.966.966,0,0,0-.465-.815.94.94,0,0,1,.172.518Z" transform="translate(-92.38 -155.423)"/></g><g transform="translate(7.806 0)"><path class="f" d="M.984,0H5.861a.984.984,0,0,1,.984.984V4.49a.984.984,0,0,1-.984.984H.985A.985.985,0,0,1,0,4.488V.984A.984.984,0,0,1,.984,0Z" transform="translate(0 0)"/><path class="n" d="M100.751,160.2V156.7a.985.985,0,0,1,.984-.984h4.877a.959.959,0,0,1,.52.168.966.966,0,0,0-.815-.463h-4.875a.983.983,0,0,0-.984.984v3.506a.966.966,0,0,0,.462.816A.978.978,0,0,1,100.751,160.2Z" transform="translate(-100.457 -155.417)"/><path class="o" d="M107.013,156.11v3.51a.986.986,0,0,1-.984.984H101.15a.959.959,0,0,1-.519-.169.966.966,0,0,0,.816.463h4.875a.983.983,0,0,0,.986-.984v-3.506a.966.966,0,0,0-.465-.815A.946.946,0,0,1,107.013,156.11Z" transform="translate(-100.463 -155.423)"/></g><g transform="translate(15.608)"><rect class="f" width="6.847" height="5.474" rx="1.019" transform="translate(0 0)"/><path class="n" d="M108.832,160.2V156.7a.983.983,0,0,1,.982-.984h4.879a.955.955,0,0,1,.519.168.966.966,0,0,0-.813-.463H109.52a.983.983,0,0,0-.984.984v3.506a.966.966,0,0,0,.465.816.955.955,0,0,1-.169-.521Z" transform="translate(-108.536 -155.417)"/><path class="o" d="M115.091,156.11v3.51a.983.983,0,0,1-.983.984h-4.876a.966.966,0,0,1-.521-.169.966.966,0,0,0,.815.463H114.4a.983.983,0,0,0,.984-.984v-3.506a.972.972,0,0,0-.465-.815.936.936,0,0,1,.167.518Z" transform="translate(-108.542 -155.423)"/></g><g transform="translate(23.412 0)"><path class="f" d="M.984,0H5.858a.986.986,0,0,1,.986.986v3.5a.984.984,0,0,1-.984.985H.984A.984.984,0,0,1,0,4.49V.984A.984.984,0,0,1,.984,0Z" transform="translate(0 0)"/><path class="n" d="M116.913,160.2V156.7a.983.983,0,0,1,.984-.984h4.873a.966.966,0,0,1,.522.168.972.972,0,0,0-.816-.463H117.6a.985.985,0,0,0-.986.984v3.506a.966.966,0,0,0,.465.816.954.954,0,0,1-.168-.521Z" transform="translate(-116.617 -155.417)"/><path class="o" d="M123.174,156.11v3.51a.986.986,0,0,1-.984.984h-4.877a.951.951,0,0,1-.519-.169.966.966,0,0,0,.815.463h4.874a.983.983,0,0,0,.984-.984v-3.506a.966.966,0,0,0-.462-.815A.966.966,0,0,1,123.174,156.11Z" transform="translate(-116.623 -155.423)"/></g><g transform="translate(31.215 0)"><path class="f" d="M.984,0H5.861a.984.984,0,0,1,.983.984v3.5a.984.984,0,0,1-.984.985H.985A.985.985,0,0,1,0,4.489V.984A.984.984,0,0,1,.984,0Z" transform="translate(0.003 0)"/><path class="n" d="M124.99,160.2V156.7a.986.986,0,0,1,.984-.984h4.877a.955.955,0,0,1,.519.168.966.966,0,0,0-.814-.463H125.68a.983.983,0,0,0-.984.984v3.506a.966.966,0,0,0,.462.816A.978.978,0,0,1,124.99,160.2Z" transform="translate(-124.696 -155.417)"/><path class="o" d="M131.255,156.11v3.51a.986.986,0,0,1-.984.984h-4.879a.966.966,0,0,1-.519-.169.966.966,0,0,0,.816.463h4.875a.982.982,0,0,0,.985-.984v-3.506a.966.966,0,0,0-.465-.815A.954.954,0,0,1,131.255,156.11Z" transform="translate(-124.702 -155.423)"/></g><g transform="translate(39.02 0)"><rect class="f" width="6.846" height="5.474" rx="1.019" transform="translate(0 0)"/><path class="n" d="M133.072,160.2V156.7a.986.986,0,0,1,.987-.984h4.876a.966.966,0,0,1,.52.168.966.966,0,0,0-.813-.463h-4.876a.983.983,0,0,0-.984.984v3.506a.966.966,0,0,0,.465.816A.966.966,0,0,1,133.072,160.2Z" transform="translate(-132.778 -155.417)"/><path class="o" d="M139.337,156.11v3.51a.985.985,0,0,1-.984.984h-4.878a.957.957,0,0,1-.521-.169.966.966,0,0,0,.814.463h4.879a.983.983,0,0,0,.983-.984v-3.506a.966.966,0,0,0-.465-.815.939.939,0,0,1,.171.518Z" transform="translate(-132.784 -155.423)"/></g><g transform="translate(46.825 0)"><path class="f" d="M.984,0H5.862a.984.984,0,0,1,.984.984V4.49a.984.984,0,0,1-.984.984H.987A.987.987,0,0,1,0,4.487V.984A.984.984,0,0,1,.984,0Z" transform="translate(0 0)"/><path class="n" d="M141.156,160.2V156.7a.984.984,0,0,1,.984-.984h4.877a.966.966,0,0,1,.52.168.966.966,0,0,0-.816-.463h-4.876a.984.984,0,0,0-.984.984v3.506a.966.966,0,0,0,.465.816.966.966,0,0,1-.169-.521Z" transform="translate(-140.86 -155.417)"/><path class="o" d="M147.416,156.11v3.51a.985.985,0,0,1-.984.984h-4.876a.949.949,0,0,1-.52-.169.966.966,0,0,0,.814.463h4.876a.984.984,0,0,0,.987-.984v-3.506a.973.973,0,0,0-.465-.815.96.96,0,0,1,.168.518Z" transform="translate(-140.866 -155.423)"/></g><g transform="translate(54.629 0)"><rect class="f" width="6.844" height="5.474" rx="1.019" transform="translate(0 0)"/><path class="n" d="M149.236,160.2V156.7a.985.985,0,0,1,.983-.984H155.1a.953.953,0,0,1,.52.168.966.966,0,0,0-.813-.463h-4.877a.983.983,0,0,0-.984.984v3.506a.966.966,0,0,0,.465.816.949.949,0,0,1-.171-.521Z" transform="translate(-148.941 -155.417)"/><path class="o" d="M155.5,156.11v3.51a.984.984,0,0,1-.984.984h-4.875a.966.966,0,0,1-.522-.169.966.966,0,0,0,.816.463h4.877a.982.982,0,0,0,.984-.984v-3.506a.966.966,0,0,0-.465-.815.939.939,0,0,1,.17.518Z" transform="translate(-148.947 -155.423)"/></g><g transform="translate(62.431 0)"><path class="f" d="M.984,0H5.859a.987.987,0,0,1,.988.987v3.5a.984.984,0,0,1-.984.985H.984A.984.984,0,0,1,0,4.489V.984A.984.984,0,0,1,.984,0Z" transform="translate(0 0)"/><path class="n" d="M157.318,160.2V156.7a.983.983,0,0,1,.984-.984h4.88a.966.966,0,0,1,.521.168.966.966,0,0,0-.814-.463h-4.876a.986.986,0,0,0-.987.984v3.506a.966.966,0,0,0,.465.816A.966.966,0,0,1,157.318,160.2Z" transform="translate(-157.02 -155.417)"/><path class="o" d="M163.58,156.11v3.51a.986.986,0,0,1-.984.984h-4.879a.959.959,0,0,1-.52-.169.966.966,0,0,0,.816.463h4.876a.984.984,0,0,0,.984-.984v-3.506a.966.966,0,0,0-.465-.815A.955.955,0,0,1,163.58,156.11Z" transform="translate(-157.026 -155.423)"/></g><g transform="translate(70.236 0)"><path class="f" d="M.984,0H5.862a.984.984,0,0,1,.984.984v3.5a.984.984,0,0,1-.984.985H.987A.987.987,0,0,1,0,4.486V.984A.984.984,0,0,1,.984,0Z" transform="translate(0 0)"/><path class="n" d="M165.4,160.2V156.7a.984.984,0,0,1,.984-.984h4.876a.966.966,0,0,1,.52.168.966.966,0,0,0-.817-.463h-4.874a.985.985,0,0,0-.985.984v3.506a.966.966,0,0,0,.464.816A.977.977,0,0,1,165.4,160.2Z" transform="translate(-165.102 -155.417)"/><path class="o" d="M171.659,156.11v3.51a.986.986,0,0,1-.985.984H165.8a.953.953,0,0,1-.519-.169.966.966,0,0,0,.815.463h4.874a.984.984,0,0,0,.988-.984v-3.506a.973.973,0,0,0-.465-.815A.966.966,0,0,1,171.659,156.11Z" transform="translate(-165.108 -155.423)"/></g><g transform="translate(78.038)"><path class="f" d="M.984,0H5.861a.985.985,0,0,1,.985.985v3.5a.984.984,0,0,1-.985.985H.984A.984.984,0,0,1,0,4.489V.984A.984.984,0,0,1,.984,0Z" transform="translate(0.003 0)"/><path class="n" d="M173.477,160.2V156.7a.987.987,0,0,1,.988-.984h4.873a.973.973,0,0,1,.522.168.973.973,0,0,0-.816-.463h-4.879a.983.983,0,0,0-.985.984v3.506a.966.966,0,0,0,.465.816A.95.95,0,0,1,173.477,160.2Z" transform="translate(-173.18 -155.417)"/><path class="o" d="M179.74,156.11v3.51a.985.985,0,0,1-.983.984h-4.875a.975.975,0,0,1-.523-.169.966.966,0,0,0,.818.463h4.876a.982.982,0,0,0,.984-.984v-3.506a.966.966,0,0,0-.465-.815A.945.945,0,0,1,179.74,156.11Z" transform="translate(-173.186 -155.423)"/></g></g><g transform="translate(0.084 5.067)"><g transform="translate(11.87)"><path class="f" d="M110.438,154.232h-4.873a.987.987,0,0,1-.988-.986V149.74a.986.986,0,0,1,.988-.984h4.874a.985.985,0,0,1,.985.984v3.506a.986.986,0,0,1-.986.986Z" transform="translate(-104.577 -148.756)"/><path class="n" d="M104.874,153.541v-3.508a.982.982,0,0,1,.983-.984h4.875a.966.966,0,0,1,.521.169.973.973,0,0,0-.815-.463h-4.873a.986.986,0,0,0-.988.984v3.506a.966.966,0,0,0,.465.815.945.945,0,0,1-.168-.52Z" transform="translate(-104.577 -148.756)"/><path class="o" d="M111.135,149.449v3.509a.985.985,0,0,1-.984.984h-4.878a.986.986,0,0,1-.52-.168.972.972,0,0,0,.817.465h4.874a.986.986,0,0,0,.985-.986v-3.506a.972.972,0,0,0-.464-.817A.966.966,0,0,1,111.135,149.449Z" transform="translate(-104.583 -148.762)"/></g><g transform="translate(19.633)"><path class="f" d="M.986,0H5.858a.986.986,0,0,1,.987.986v3.5a.986.986,0,0,1-.987.986H.984A.984.984,0,0,1,0,4.492V.986A.986.986,0,0,1,.986,0Z" transform="translate(0 0)"/><path class="n" d="M112.912,153.541v-3.508a.982.982,0,0,1,.984-.984h4.873a.972.972,0,0,1,.522.169.977.977,0,0,0-.816-.463H113.6a.986.986,0,0,0-.987.984v3.506a.966.966,0,0,0,.465.815.945.945,0,0,1-.168-.52Z" transform="translate(-112.615 -148.756)"/><path class="o" d="M119.174,149.448v3.509a.985.985,0,0,1-.983.984h-4.877a.977.977,0,0,1-.519-.168.966.966,0,0,0,.815.465h4.874a.984.984,0,0,0,.979-.991v-3.506a.974.974,0,0,0-.462-.817A.985.985,0,0,1,119.174,149.448Z" transform="translate(-112.621 -148.762)"/></g><g transform="translate(27.395 0)"><path class="f" d="M.986,0H5.859a.987.987,0,0,1,.987.987v3.5a.984.984,0,0,1-.983.984H.984A.984.984,0,0,1,0,4.492V.986A.986.986,0,0,1,.986,0Z" transform="translate(0 0)"/><path class="n" d="M120.949,153.541v-3.508a.983.983,0,0,1,.984-.984h4.876a.977.977,0,0,1,.521.169.98.98,0,0,0-.815-.463H121.64a.985.985,0,0,0-.987.984v3.506a.966.966,0,0,0,.466.815.947.947,0,0,1-.17-.52Z" transform="translate(-120.653 -148.756)"/><path class="o" d="M127.212,149.449v3.509a.986.986,0,0,1-.985.984h-4.878a.979.979,0,0,1-.519-.168.966.966,0,0,0,.816.465h4.876a.985.985,0,0,0,.983-.986v-3.506a.972.972,0,0,0-.464-.817A.966.966,0,0,1,127.212,149.449Z" transform="translate(-120.659 -148.762)"/></g><g transform="translate(35.161 0)"><path class="f" d="M134.552,154.232h-4.873a.984.984,0,0,1-.985-.986V149.74a.983.983,0,0,1,.985-.984h4.873a.985.985,0,0,1,.988.984v3.506a.986.986,0,0,1-.988.986Z" transform="translate(-128.694 -148.756)"/><path class="n" d="M128.99,153.541v-3.508a.984.984,0,0,1,.984-.984h4.877a.965.965,0,0,1,.519.169.966.966,0,0,0-.816-.463H129.68a.983.983,0,0,0-.985.984v3.506a.966.966,0,0,0,.463.815A.966.966,0,0,1,128.99,153.541Z" transform="translate(-128.694 -148.756)"/><path class="o" d="M135.249,149.449v3.509a.984.984,0,0,1-.984.984h-4.877a.982.982,0,0,1-.519-.168.966.966,0,0,0,.816.465h4.873a.986.986,0,0,0,.988-.986v-3.506a.977.977,0,0,0-.465-.817.986.986,0,0,1,.168.52Z" transform="translate(-128.7 -148.762)"/></g><g transform="translate(42.923 0)"><path class="f" d="M.986,0H5.863a.984.984,0,0,1,.984.984V4.492a.984.984,0,0,1-.984.984H.987A.987.987,0,0,1,0,4.489V.986A.986.986,0,0,1,.986,0Z" transform="translate(0 0)"/><path class="n" d="M137.027,153.541v-3.508a.984.984,0,0,1,.983-.984h4.879a.966.966,0,0,1,.519.169.966.966,0,0,0-.815-.463h-4.876a.982.982,0,0,0-.984.984v3.506a.966.966,0,0,0,.464.815.954.954,0,0,1-.169-.52Z" transform="translate(-136.732 -148.756)"/><path class="o" d="M143.288,149.449v3.509a.985.985,0,0,1-.984.984h-4.879a.966.966,0,0,1-.517-.168.966.966,0,0,0,.814.465H142.6a.987.987,0,0,0,.987-.986v-3.506a.977.977,0,0,0-.465-.817A.986.986,0,0,1,143.288,149.449Z" transform="translate(-136.738 -148.762)"/></g><g transform="translate(50.687 0)"><path class="f" d="M.986,0H5.861a.984.984,0,0,1,.983.984V4.492a.984.984,0,0,1-.983.984H.986A.986.986,0,0,1,0,4.49V.986A.986.986,0,0,1,.986,0Z" transform="translate(0 0)"/><path class="n" d="M145.066,153.541v-3.508a.984.984,0,0,1,.984-.984h4.876a.959.959,0,0,1,.52.169.966.966,0,0,0-.815-.463h-4.875a.982.982,0,0,0-.984.984v3.506a.966.966,0,0,0,.463.815A.966.966,0,0,1,145.066,153.541Z" transform="translate(-144.771 -148.756)"/><path class="o" d="M151.325,149.449v3.509a.984.984,0,0,1-.982.984h-4.878a.983.983,0,0,1-.52-.168.966.966,0,0,0,.816.465h4.875a.985.985,0,0,0,.986-.986v-3.506a.974.974,0,0,0-.465-.817.986.986,0,0,1,.168.52Z" transform="translate(-144.777 -148.762)"/></g><g transform="translate(58.45)"><path class="f" d="M.986,0H5.862a.984.984,0,0,1,.984.984V4.492a.984.984,0,0,1-.984.984H.987A.987.987,0,0,1,0,4.489V.986A.986.986,0,0,1,.986,0Z" transform="translate(0 0)"/><path class="n" d="M153.1,153.541v-3.508a.984.984,0,0,1,.984-.984h4.877a.966.966,0,0,1,.519.169.966.966,0,0,0-.816-.463h-4.874a.983.983,0,0,0-.984.984v3.506a.966.966,0,0,0,.463.815.977.977,0,0,1-.168-.52Z" transform="translate(-152.809 -148.756)"/><path class="o" d="M159.364,149.448v3.509a.986.986,0,0,1-.984.984H153.5a.975.975,0,0,1-.519-.168.966.966,0,0,0,.815.465h4.874a.985.985,0,0,0,.99-.991v-3.506a.976.976,0,0,0-.464-.817.986.986,0,0,1,.165.524Z" transform="translate(-152.815 -148.762)"/></g><g transform="translate(66.541)"><path class="f" d="M.986,0H5.861a.984.984,0,0,1,.984.984V4.492a.984.984,0,0,1-.983.984H.986A.986.986,0,0,1,0,4.49V.986A.986.986,0,0,1,.986,0Z" transform="translate(0 0)"/><path class="n" d="M161.482,153.541v-3.508a.985.985,0,0,1,.985-.984h4.876a.959.959,0,0,1,.52.169.966.966,0,0,0-.815-.463h-4.875a.982.982,0,0,0-.984.984v3.506a.966.966,0,0,0,.462.815A.966.966,0,0,1,161.482,153.541Z" transform="translate(-161.188 -148.756)"/><path class="o" d="M167.742,149.449v3.509a.983.983,0,0,1-.982.984h-4.878a.982.982,0,0,1-.519-.168.966.966,0,0,0,.816.465h4.875a.985.985,0,0,0,.986-.986v-3.506a.974.974,0,0,0-.465-.817.976.976,0,0,1,.166.52Z" transform="translate(-161.194 -148.762)"/></g><path class="f" d="M.986,0H9.967a.985.985,0,0,1,.985.985V4.492a.984.984,0,0,1-.983.984H.985A.985.985,0,0,1,0,4.492V.986A.986.986,0,0,1,.986,0Z" transform="translate(0 0)"/><path class="n" d="M92.583,153.541v-3.508a.983.983,0,0,1,.985-.984h8.981a.979.979,0,0,1,.522.169.977.977,0,0,0-.816-.463H93.274a.985.985,0,0,0-.986.984v3.506a.966.966,0,0,0,.465.815.939.939,0,0,1-.171-.52Z" transform="translate(-92.286 -148.756)"/><path class="o" d="M102.951,149.449v3.509a.986.986,0,0,1-.984.984H92.982a.98.98,0,0,1-.52-.168.966.966,0,0,0,.815.465h8.981a.986.986,0,0,0,.984-.986v-3.506a.976.976,0,0,0-.462-.817.986.986,0,0,1,.17.52Z" transform="translate(-92.292 -148.762)"/><g transform="translate(73.931)"><path class="f" d="M.985,0H9.966a.987.987,0,0,1,.987.987v3.5a.984.984,0,0,1-.984.984H.985A.985.985,0,0,1,0,4.492V.985A.985.985,0,0,1,.985,0Z" transform="translate(0.001 0)"/><path class="n" d="M169.137,153.541v-3.508a.983.983,0,0,1,.985-.984H179.1a.966.966,0,0,1,.521.169.977.977,0,0,0-.816-.463h-8.981a.985.985,0,0,0-.987.984v3.506a.966.966,0,0,0,.465.815A.939.939,0,0,1,169.137,153.541Z" transform="translate(-168.84 -148.756)"/><path class="o" d="M179.506,149.449v3.509a.986.986,0,0,1-.984.984h-8.981a.98.98,0,0,1-.519-.168.966.966,0,0,0,.815.465h8.981a.985.985,0,0,0,.985-.986v-3.506a.977.977,0,0,0-.463-.817A.986.986,0,0,1,179.506,149.449Z" transform="translate(-168.846 -148.762)"/></g></g><g transform="translate(0.084 17.932)"><g transform="translate(11.869)"><path class="f" d="M.986,0H5.859a.988.988,0,0,1,.988.988v3.5a.984.984,0,0,1-.984.984H.984A.984.984,0,0,1,0,4.492V.986A.986.986,0,0,1,.986,0Z" transform="translate(0 0)"/><path class="n" d="M104.874,166.863v-3.509a.982.982,0,0,1,.983-.984h4.875a.966.966,0,0,1,.521.169.972.972,0,0,0-.815-.463h-4.873a.986.986,0,0,0-.988.984v3.506a.966.966,0,0,0,.465.815A.944.944,0,0,1,104.874,166.863Z" transform="translate(-104.576 -162.077)"/><path class="o" d="M111.135,162.771v3.508a.985.985,0,0,1-.984.984h-4.878a.966.966,0,0,1-.52-.168.972.972,0,0,0,.817.465h4.874a.986.986,0,0,0,.985-.986v-3.5a.966.966,0,0,0-.464-.815.959.959,0,0,1,.169.515Z" transform="translate(-104.582 -162.083)"/></g><g transform="translate(19.633 0)"><path class="f" d="M.984,0H5.858a.986.986,0,0,1,.987.986V4.492a.984.984,0,0,1-.984.984H.984A.984.984,0,0,1,0,4.492V.984A.984.984,0,0,1,.984,0Z" transform="translate(0 0)"/><path class="n" d="M112.912,166.863v-3.509a.983.983,0,0,1,.984-.984h4.873a.972.972,0,0,1,.522.169.975.975,0,0,0-.816-.463H113.6a.986.986,0,0,0-.987.984v3.506a.966.966,0,0,0,.465.815A.944.944,0,0,1,112.912,166.863Z" transform="translate(-112.615 -162.077)"/><path class="o" d="M119.174,162.771v3.508a.985.985,0,0,1-.983.984h-4.877a.966.966,0,0,1-.519-.168.966.966,0,0,0,.815.465h4.874a.984.984,0,0,0,.984-.986v-3.5a.966.966,0,0,0-.462-.815A.973.973,0,0,1,119.174,162.771Z" transform="translate(-112.621 -162.083)"/></g><g transform="translate(27.395)"><path class="f" d="M.986,0H5.859a.987.987,0,0,1,.987.987v3.5a.984.984,0,0,1-.984.984H.984A.984.984,0,0,1,0,4.493V.986A.986.986,0,0,1,.986,0Z" transform="translate(0 0)"/><path class="n" d="M120.949,166.863v-3.509a.984.984,0,0,1,.984-.984h4.876a.976.976,0,0,1,.521.169.977.977,0,0,0-.815-.463H121.64a.986.986,0,0,0-.987.984v3.506a.966.966,0,0,0,.466.815.947.947,0,0,1-.17-.519Z" transform="translate(-120.653 -162.077)"/><path class="o" d="M127.212,162.771v3.508a.986.986,0,0,1-.985.984h-4.878a.966.966,0,0,1-.519-.168.966.966,0,0,0,.816.465h4.876a.985.985,0,0,0,.983-.986v-3.5a.966.966,0,0,0-.464-.815.96.96,0,0,1,.17.515Z" transform="translate(-120.659 -162.083)"/></g><g transform="translate(35.161 0)"><path class="f" d="M.986,0H5.861a.985.985,0,0,1,.985.985V4.492a.984.984,0,0,1-.985.984H.988A.988.988,0,0,1,0,4.489V.986A.986.986,0,0,1,.986,0Z" transform="translate(0 0)"/><path class="n" d="M128.99,166.863v-3.509a.985.985,0,0,1,.984-.984h4.877a.966.966,0,0,1,.519.169.966.966,0,0,0-.816-.463H129.68a.984.984,0,0,0-.985.984v3.506a.966.966,0,0,0,.463.815A.966.966,0,0,1,128.99,166.863Z" transform="translate(-128.694 -162.077)"/><path class="o" d="M135.249,162.771v3.508a.984.984,0,0,1-.984.984h-4.877a.966.966,0,0,1-.519-.168.966.966,0,0,0,.816.465h4.873a.986.986,0,0,0,.988-.986v-3.5a.973.973,0,0,0-.465-.815A.974.974,0,0,1,135.249,162.771Z" transform="translate(-128.7 -162.083)"/></g><g transform="translate(42.923 0)"><path class="f" d="M.986,0H5.863a.984.984,0,0,1,.984.984V4.492a.984.984,0,0,1-.984.984H.987A.987.987,0,0,1,0,4.489V.986A.986.986,0,0,1,.986,0Z" transform="translate(0 0)"/><path class="n" d="M137.027,166.863v-3.509a.985.985,0,0,1,.983-.984h4.879a.966.966,0,0,1,.519.169.966.966,0,0,0-.815-.463h-4.876a.983.983,0,0,0-.984.984v3.506a.966.966,0,0,0,.464.815A.953.953,0,0,1,137.027,166.863Z" transform="translate(-136.732 -162.077)"/><path class="o" d="M143.288,162.771v3.508a.985.985,0,0,1-.984.984h-4.879a.954.954,0,0,1-.517-.168.966.966,0,0,0,.814.465H142.6a.987.987,0,0,0,.987-.986v-3.5a.973.973,0,0,0-.465-.815.975.975,0,0,1,.168.515Z" transform="translate(-136.738 -162.083)"/></g><g transform="translate(50.687 0)"><path class="f" d="M.986,0H5.861a.984.984,0,0,1,.983.984V4.492a.984.984,0,0,1-.984.984H.986A.986.986,0,0,1,0,4.49V.986A.986.986,0,0,1,.986,0Z" transform="translate(0 0)"/><path class="n" d="M145.066,166.863v-3.509a.985.985,0,0,1,.984-.984h4.876a.959.959,0,0,1,.52.169.966.966,0,0,0-.815-.463h-4.875a.983.983,0,0,0-.984.984v3.506a.966.966,0,0,0,.463.815A.966.966,0,0,1,145.066,166.863Z" transform="translate(-144.771 -162.077)"/><path class="o" d="M151.325,162.771v3.508a.984.984,0,0,1-.982.984h-4.878a.966.966,0,0,1-.52-.168.966.966,0,0,0,.816.465h4.875a.985.985,0,0,0,.986-.986v-3.5a.966.966,0,0,0-.465-.815.975.975,0,0,1,.168.515Z" transform="translate(-144.777 -162.083)"/></g><g transform="translate(58.45 0)"><path class="f" d="M.987,0H5.862a.984.984,0,0,1,.984.984V4.492a.984.984,0,0,1-.984.984H.984A.984.984,0,0,1,0,4.492V.987A.987.987,0,0,1,.987,0Z"/><path class="n" d="M153.1,166.863v-3.509a.984.984,0,0,1,.984-.984h4.877a.966.966,0,0,1,.519.169.966.966,0,0,0-.816-.463h-4.874a.984.984,0,0,0-.984.984v3.506a.966.966,0,0,0,.463.815.977.977,0,0,1-.168-.519Z" transform="translate(-152.809 -162.077)"/><path class="o" d="M159.364,162.771v3.508a.986.986,0,0,1-.984.984H153.5a.958.958,0,0,1-.519-.168.966.966,0,0,0,.815.465h4.874a.985.985,0,0,0,.987-.986v-3.5a.973.973,0,0,0-.465-.815A.975.975,0,0,1,159.364,162.771Z" transform="translate(-152.815 -162.083)"/></g><g transform="translate(66.541 0)"><path class="f" d="M.986,0H5.861a.984.984,0,0,1,.984.984V4.492a.984.984,0,0,1-.984.984H.984A.984.984,0,0,1,0,4.492V.986A.986.986,0,0,1,.986,0Z" transform="translate(0 0)"/><path class="n" d="M161.482,166.863v-3.509a.985.985,0,0,1,.985-.984h4.876a.959.959,0,0,1,.52.169.966.966,0,0,0-.815-.463h-4.875a.983.983,0,0,0-.984.984v3.506a.966.966,0,0,0,.462.815A.966.966,0,0,1,161.482,166.863Z" transform="translate(-161.188 -162.077)"/><path class="o" d="M167.742,162.771v3.508a.983.983,0,0,1-.982.984h-4.878a.966.966,0,0,1-.519-.168.966.966,0,0,0,.816.465h4.875a.985.985,0,0,0,.986-.986v-3.5a.966.966,0,0,0-.465-.815A.966.966,0,0,1,167.742,162.771Z" transform="translate(-161.194 -162.083)"/></g><g transform="translate(0 0)"><path class="f" d="M.984,0H9.965a.985.985,0,0,1,.985.985V4.492a.984.984,0,0,1-.982.984H.987A.984.984,0,0,1,0,4.492V.984A.984.984,0,0,1,.984,0Z" transform="translate(0)"/><path class="n" d="M92.583,166.863v-3.509a.981.981,0,0,1,.985-.981h8.981a.955.955,0,0,1,.522.169.972.972,0,0,0-.816-.466H93.274a.985.985,0,0,0-.986.984v3.508a.966.966,0,0,0,.465.813.938.938,0,0,1-.171-.519Z" transform="translate(-92.286 -162.077)"/><path class="o" d="M102.951,162.774v3.508a.983.983,0,0,1-.984.981H92.982a.948.948,0,0,1-.52-.168.966.966,0,0,0,.815.465h8.981a.986.986,0,0,0,.984-.984v-3.5a.966.966,0,0,0-.462-.813.971.971,0,0,1,.17.516Z" transform="translate(-92.292 -162.083)"/></g><g transform="translate(73.931)"><path class="f" d="M.984,0H9.965a.984.984,0,0,1,.984.984v3.5a.987.987,0,0,1-.984.987H.985A.985.985,0,0,1,0,4.492V.984A.984.984,0,0,1,.984,0Z" transform="translate(0.001 0)"/><path class="n" d="M169.137,166.863v-3.509a.981.981,0,0,1,.985-.981H179.1a.946.946,0,0,1,.521.169.972.972,0,0,0-.816-.465h-8.981a.986.986,0,0,0-.987.984v3.508a.966.966,0,0,0,.465.813A.938.938,0,0,1,169.137,166.863Z" transform="translate(-168.84 -162.077)"/><path class="o" d="M179.506,162.774v3.508a.983.983,0,0,1-.984.981h-8.981a.948.948,0,0,1-.519-.168.966.966,0,0,0,.815.465h8.981a.985.985,0,0,0,.985-.984v-3.5a.966.966,0,0,0-.463-.813.971.971,0,0,1,.165.516Z" transform="translate(-168.846 -162.083)"/></g></g><g transform="translate(0.084)"><g transform="translate(0 0)"><path class="f" d="M.983,0H5.859a.985.985,0,0,1,.985.985V3.123a.983.983,0,0,1-.983.983H.984A.984.984,0,0,1,0,3.122V.983A.983.983,0,0,1,.983,0Z" transform="translate(0)"/><path class="n" d="M92.582,146.926v-2.139a.981.981,0,0,1,.985-.982h4.873a.958.958,0,0,1,.522.169.976.976,0,0,0-.816-.465H93.272a.985.985,0,0,0-.986.983v2.14a.966.966,0,0,0,.465.812.941.941,0,0,1-.169-.519Z" transform="translate(-92.286 -143.509)"/><path class="o" d="M98.843,144.2v2.14a.982.982,0,0,1-.984.981H92.982a.948.948,0,0,1-.52-.168.966.966,0,0,0,.815.464h4.875a.983.983,0,0,0,.983-.983V144.5a.966.966,0,0,0-.462-.813A.966.966,0,0,1,98.843,144.2Z" transform="translate(-92.292 -143.515)"/></g><g transform="translate(7.805 0)"><path class="f" d="M.983,0H5.86a.984.984,0,0,1,.985.984V3.123a.983.983,0,0,1-.984.983H.984A.984.984,0,0,1,0,3.123V.983A.983.983,0,0,1,.983,0Z" transform="translate(0 0)"/><path class="n" d="M100.662,146.926v-2.139a.983.983,0,0,1,.984-.982h4.878a.938.938,0,0,1,.519.169.966.966,0,0,0-.813-.465h-4.877a.982.982,0,0,0-.984.983v2.14a.96.96,0,0,0,.465.812A.951.951,0,0,1,100.662,146.926Z" transform="translate(-100.368 -143.509)"/><path class="o" d="M106.924,144.2v2.14a.981.981,0,0,1-.984.981h-4.875a.957.957,0,0,1-.522-.168.966.966,0,0,0,.816.465h4.877a.984.984,0,0,0,.984-.983V144.5a.966.966,0,0,0-.465-.813.942.942,0,0,1,.17.519Z" transform="translate(-100.374 -143.515)"/></g><g transform="translate(15.607 0)"><path class="f" d="M.983,0H5.862a.985.985,0,0,1,.985.985V3.123a.983.983,0,0,1-.984.983H.983A.983.983,0,0,1,0,3.123V.983A.983.983,0,0,1,.983,0Z"/><path class="n" d="M108.743,146.926v-2.139a.982.982,0,0,1,.986-.982H114.6a.952.952,0,0,1,.521.169.966.966,0,0,0-.814-.465h-4.879a.983.983,0,0,0-.984.983v2.14a.966.966,0,0,0,.465.812A.957.957,0,0,1,108.743,146.926Z" transform="translate(-108.447 -143.509)"/><path class="o" d="M115.006,144.2v2.14a.982.982,0,0,1-.983.981h-4.879a.951.951,0,0,1-.521-.168.966.966,0,0,0,.814.465h4.879a.984.984,0,0,0,.984-.983V144.5a.966.966,0,0,0-.465-.813A.942.942,0,0,1,115.006,144.2Z" transform="translate(-108.453 -143.515)"/></g><g transform="translate(23.412 0)"><path class="f" d="M.987,0H5.862a.985.985,0,0,1,.985.985V3.123a.983.983,0,0,1-.984.983H.987A.987.987,0,0,1,0,3.119V.987A.987.987,0,0,1,.987,0Z"/><path class="n" d="M116.825,146.926v-2.139a.981.981,0,0,1,.983-.982h4.877a.946.946,0,0,1,.519.169.966.966,0,0,0-.815-.465h-4.875a.984.984,0,0,0-.985.983v2.14a.966.966,0,0,0,.464.812.966.966,0,0,1-.167-.519Z" transform="translate(-116.529 -143.509)"/><path class="o" d="M123.085,144.2v2.14a.982.982,0,0,1-.984.981h-4.876a.95.95,0,0,1-.52-.168.966.966,0,0,0,.815.465H122.4a.985.985,0,0,0,.987-.983V144.5a.966.966,0,0,0-.465-.813A.966.966,0,0,1,123.085,144.2Z" transform="translate(-116.535 -143.515)"/></g><g transform="translate(31.217 0)"><path class="f" d="M.983,0H5.86a.984.984,0,0,1,.985.984V3.123a.983.983,0,0,1-.984.983H.985A.985.985,0,0,1,0,3.122V.983A.983.983,0,0,1,.983,0Z" transform="translate(0 0)"/><path class="n" d="M124.9,146.926v-2.139a.983.983,0,0,1,.984-.982h4.878a.934.934,0,0,1,.517.169.966.966,0,0,0-.812-.465h-4.877a.982.982,0,0,0-.984.983v2.14a.96.96,0,0,0,.465.812.943.943,0,0,1-.171-.519Z" transform="translate(-124.61 -143.509)"/><path class="o" d="M131.166,144.2v2.14a.981.981,0,0,1-.984.981h-4.875a.96.96,0,0,1-.522-.168.972.972,0,0,0,.816.465h4.877a.984.984,0,0,0,.984-.983V144.5a.966.966,0,0,0-.465-.813A.942.942,0,0,1,131.166,144.2Z" transform="translate(-124.616 -143.515)"/></g><g transform="translate(39.019 0)"><path class="f" d="M.983,0H5.859a.987.987,0,0,1,.987.987V3.123a.983.983,0,0,1-.983.983H.984A.984.984,0,0,1,0,3.122V.983A.983.983,0,0,1,.983,0Z"/><path class="n" d="M132.989,146.926v-2.139a.981.981,0,0,1,.984-.982h4.875a.952.952,0,0,1,.521.169.972.972,0,0,0-.814-.465H133.68a.985.985,0,0,0-.988.983v2.14a.966.966,0,0,0,.465.812.955.955,0,0,1-.168-.519Z" transform="translate(-132.689 -143.509)"/><path class="o" d="M139.248,144.2v2.14a.982.982,0,0,1-.984.981h-4.883a.95.95,0,0,1-.519-.168.966.966,0,0,0,.816.465h4.875a.985.985,0,0,0,.984-.983V144.5a.966.966,0,0,0-.465-.813.95.95,0,0,1,.175.519Z" transform="translate(-132.695 -143.515)"/></g><g transform="translate(46.824 0)"><path class="f" d="M.983,0H5.862a.984.984,0,0,1,.984.984V3.123a.983.983,0,0,1-.983.983H.983A.983.983,0,0,1,0,3.123V.983A.983.983,0,0,1,.983,0Z"/><path class="n" d="M141.068,146.926v-2.139a.981.981,0,0,1,.984-.982h4.876a.943.943,0,0,1,.52.169.966.966,0,0,0-.813-.465h-4.879a.984.984,0,0,0-.984.983v2.14a.966.966,0,0,0,.467.812A.95.95,0,0,1,141.068,146.926Z" transform="translate(-140.771 -143.509)"/><path class="o" d="M147.328,144.2v2.14a.98.98,0,0,1-.984.981h-4.876a.95.95,0,0,1-.52-.168.966.966,0,0,0,.813.465h4.879a.984.984,0,0,0,.984-.983V144.5a.966.966,0,0,0-.465-.813.941.941,0,0,1,.169.519Z" transform="translate(-140.777 -143.515)"/></g><g transform="translate(54.628)"><path class="f" d="M.983,0H5.86a.984.984,0,0,1,.984.984V3.123a.983.983,0,0,1-.983.983H.983A.983.983,0,0,1,0,3.123V.983A.983.983,0,0,1,.983,0Z" transform="translate(0 0)"/><path class="n" d="M149.147,146.926v-2.139a.983.983,0,0,1,.987-.982h4.875a.954.954,0,0,1,.521.169.975.975,0,0,0-.816-.465h-4.876a.982.982,0,0,0-.985.983v2.14a.966.966,0,0,0,.465.812.943.943,0,0,1-.171-.519Z" transform="translate(-148.852 -143.509)"/><path class="o" d="M155.41,144.2v2.14a.982.982,0,0,1-.984.981h-4.877a.966.966,0,0,1-.522-.168.971.971,0,0,0,.817.465h4.876a.983.983,0,0,0,.984-.983V144.5a.959.959,0,0,0-.465-.813.943.943,0,0,1,.172.519Z" transform="translate(-148.858 -143.515)"/></g><g transform="translate(62.434 0)"><path class="f" d="M.983,0H5.86a.983.983,0,0,1,.984.983v2.14a.983.983,0,0,1-.983.983H.985A.985.985,0,0,1,0,3.121V.983A.983.983,0,0,1,.983,0Z" transform="translate(0 0)"/><path class="n" d="M157.229,146.926v-2.139a.983.983,0,0,1,.984-.982h4.879a.951.951,0,0,1,.519.169.972.972,0,0,0-.816-.465h-4.875a.982.982,0,0,0-.984.983v2.14a.966.966,0,0,0,.462.812.966.966,0,0,1-.168-.519Z" transform="translate(-156.935 -143.509)"/><path class="o" d="M163.491,144.2v2.14a.982.982,0,0,1-.984.981h-4.879a.95.95,0,0,1-.519-.168.966.966,0,0,0,.816.465H162.8a.983.983,0,0,0,.985-.983V144.5a.966.966,0,0,0-.465-.813.957.957,0,0,1,.172.519Z" transform="translate(-156.941 -143.515)"/></g><g transform="translate(70.236 0)"><path class="f" d="M.983,0h4.88a.984.984,0,0,1,.984.984V3.123a.983.983,0,0,1-.984.983H.984A.984.984,0,0,1,0,3.122V.983A.983.983,0,0,1,.983,0Z"/><path class="n" d="M165.31,146.926v-2.139a.981.981,0,0,1,.984-.982h4.877a.946.946,0,0,1,.519.169.966.966,0,0,0-.813-.465H166a.983.983,0,0,0-.984.983v2.14a.96.96,0,0,0,.467.812.936.936,0,0,1-.172-.519Z" transform="translate(-165.014 -143.509)"/><path class="o" d="M171.574,144.2v2.14a.981.981,0,0,1-.984.981h-4.876a.959.959,0,0,1-.521-.168.966.966,0,0,0,.815.465h4.878a.984.984,0,0,0,.984-.983V144.5a.966.966,0,0,0-.465-.813A.947.947,0,0,1,171.574,144.2Z" transform="translate(-165.02 -143.515)"/></g><g transform="translate(78.039)"><path class="f" d="M178.955,147.615h-4.873a.984.984,0,0,1-.987-.983v-2.14a.984.984,0,0,1,.987-.983h4.873a.984.984,0,0,1,.985.983v2.14A.984.984,0,0,1,178.955,147.615Z" transform="translate(-173.093 -143.509)"/><path class="n" d="M173.389,146.926v-2.139a.98.98,0,0,1,.984-.982h4.875a.954.954,0,0,1,.521.169.975.975,0,0,0-.816-.465H174.08a.984.984,0,0,0-.987.983v2.14a.966.966,0,0,0,.465.812.947.947,0,0,1-.168-.519Z" transform="translate(-173.093 -143.509)"/><path class="o" d="M179.652,144.2v2.14a.982.982,0,0,1-.984.981h-4.876a.948.948,0,0,1-.52-.168.966.966,0,0,0,.816.465h4.873a.984.984,0,0,0,.985-.983V144.5a.966.966,0,0,0-.463-.813.971.971,0,0,1,.168.519Z" transform="translate(-173.099 -143.515)"/></g></g><g transform="translate(0 24.369)"><g transform="translate(0 0)"><path class="f" d="M.984,0H5.862a.984.984,0,0,1,.984.984v3.5a.984.984,0,0,1-.984.985H.981A.981.981,0,0,1,0,4.492V.984A.984.984,0,0,1,.984,0Z" transform="translate(0)"/><path class="n" d="M92.49,173.53v-3.506a.984.984,0,0,1,.984-.984h4.877a.936.936,0,0,1,.519.169.966.966,0,0,0-.813-.463H93.183a.981.981,0,0,0-.984.981v3.509a.966.966,0,0,0,.466.815A.966.966,0,0,1,92.49,173.53Z" transform="translate(-92.199 -168.742)"/><path class="o" d="M98.754,169.435v3.509a.982.982,0,0,1-.984.983H92.9a.95.95,0,0,1-.521-.17.966.966,0,0,0,.815.465h4.878a.985.985,0,0,0,.985-.983v-3.509a.966.966,0,0,0-.466-.813.94.94,0,0,1,.168.519Z" transform="translate(-92.205 -168.748)"/></g><g transform="translate(7.801)"><path class="f" d="M106.14,174.215h-4.875a.985.985,0,0,1-.988-.983v-3.509a.983.983,0,0,1,.988-.981h4.872a.982.982,0,0,1,.985.981v3.509A.984.984,0,0,1,106.14,174.215Z" transform="translate(-100.277 -168.742)"/><path class="n" d="M100.576,173.53v-3.506a.983.983,0,0,1,.985-.984h4.874a.952.952,0,0,1,.522.169.972.972,0,0,0-.817-.463h-4.875a.983.983,0,0,0-.988.981v3.509a.966.966,0,0,0,.465.815A.966.966,0,0,1,100.576,173.53Z" transform="translate(-100.277 -168.742)"/><path class="o" d="M106.837,169.435v3.509a.984.984,0,0,1-.984.983h-4.877a.944.944,0,0,1-.519-.17.959.959,0,0,0,.817.464h4.872a.984.984,0,0,0,.985-.983v-3.509a.966.966,0,0,0-.462-.813A.979.979,0,0,1,106.837,169.435Z" transform="translate(-100.283 -168.748)"/></g><g transform="translate(15.609 0)"><path class="f" d="M.984,0H5.861a.985.985,0,0,1,.985.985V4.492a.981.981,0,0,1-.982.982H.981A.981.981,0,0,1,0,4.492V.984A.984.984,0,0,1,.984,0Z" transform="translate(0)"/><path class="n" d="M108.656,173.53v-3.506a.985.985,0,0,1,.985-.984h4.878a.935.935,0,0,1,.518.169.966.966,0,0,0-.815-.463h-4.875a.981.981,0,0,0-.984.981v3.509a.966.966,0,0,0,.464.815A.98.98,0,0,1,108.656,173.53Z" transform="translate(-108.362 -168.742)"/><path class="o" d="M114.918,169.435v3.509a.985.985,0,0,1-.984.983h-4.879a.944.944,0,0,1-.519-.17.966.966,0,0,0,.816.465h4.875a.984.984,0,0,0,.986-.983v-3.509a.966.966,0,0,0-.465-.813A.957.957,0,0,1,114.918,169.435Z" transform="translate(-108.368 -168.748)"/></g><g transform="translate(23.411 0)"><path class="f" d="M.984,0H37.351a.985.985,0,0,1,.989.985v3.5a.985.985,0,0,1-.985.985H.981A.981.981,0,0,1,0,4.492V.984A.984.984,0,0,1,.984,0Z" transform="translate(0 0)"/><path class="n" d="M116.736,173.53v-3.506a.985.985,0,0,1,.986-.984h36.365a.948.948,0,0,1,.521.169.973.973,0,0,0-.816-.463H117.425a.983.983,0,0,0-.985.981v3.509a.966.966,0,0,0,.467.815A.957.957,0,0,1,116.736,173.53Z" transform="translate(-116.44 -168.742)"/><path class="o" d="M154.489,169.435v3.509a.984.984,0,0,1-.983.983H117.138a.945.945,0,0,1-.521-.17.966.966,0,0,0,.814.465H153.8a.983.983,0,0,0,.984-.983v-3.509a.966.966,0,0,0-.465-.813.943.943,0,0,1,.171.519Z" transform="translate(-116.446 -168.748)"/></g><g transform="translate(62.518 0)"><path class="f" d="M.984,0H5.861a.983.983,0,0,1,.983.983V4.492a.981.981,0,0,1-.981.982H.981A.981.981,0,0,1,0,4.492V.984A.984.984,0,0,1,.984,0Z" transform="translate(0)"/><path class="n" d="M157.229,173.53v-3.506a.985.985,0,0,1,.984-.984h4.879a.943.943,0,0,1,.519.169.966.966,0,0,0-.816-.463h-4.875a.981.981,0,0,0-.984.981v3.509a.966.966,0,0,0,.462.815A.978.978,0,0,1,157.229,173.53Z" transform="translate(-156.935 -168.742)"/><path class="o" d="M163.491,169.434v3.509a.984.984,0,0,1-.982.979H157.63a.944.944,0,0,1-.519-.17.966.966,0,0,0,.816.465H162.8a.983.983,0,0,0,.985-.983v-3.509a.966.966,0,0,0-.465-.813A.957.957,0,0,1,163.491,169.434Z" transform="translate(-156.941 -168.748)"/></g><g transform="translate(70.32 0)"><path class="f" d="M.984,0H5.863a.984.984,0,0,1,.984.984V4.492a.981.981,0,0,1-.981.982H.984A.984.984,0,0,1,0,4.49V.984A.984.984,0,0,1,.984,0Z"/><path class="n" d="M165.31,173.53v-3.506a.984.984,0,0,1,.984-.984h4.877a.938.938,0,0,1,.519.169.966.966,0,0,0-.813-.463H166a.981.981,0,0,0-.984.981v3.509a.966.966,0,0,0,.467.815A.95.95,0,0,1,165.31,173.53Z" transform="translate(-165.014 -168.742)"/><path class="o" d="M171.574,169.435v3.509a.983.983,0,0,1-.984.983h-4.876a.953.953,0,0,1-.521-.17.966.966,0,0,0,.815.465h4.878a.984.984,0,0,0,.984-.983v-3.509a.966.966,0,0,0-.465-.813.947.947,0,0,1,.168.519Z" transform="translate(-165.02 -168.748)"/></g><g transform="translate(78.123 0)"><path class="f" d="M178.955,174.215h-4.873a.984.984,0,0,1-.987-.983v-3.509a.982.982,0,0,1,.987-.981h4.873a.982.982,0,0,1,.985.981v3.509A.984.984,0,0,1,178.955,174.215Z" transform="translate(-173.093 -168.742)"/><path class="n" d="M173.389,173.53v-3.506a.982.982,0,0,1,.984-.984h4.875a.947.947,0,0,1,.521.169.966.966,0,0,0-.816-.463H174.08a.982.982,0,0,0-.987.981v3.509a.966.966,0,0,0,.465.815A.966.966,0,0,1,173.389,173.53Z" transform="translate(-173.093 -168.742)"/><path class="o" d="M179.652,169.435v3.509a.985.985,0,0,1-.984.983h-4.876a.942.942,0,0,1-.52-.17.958.958,0,0,0,.816.465h4.873a.984.984,0,0,0,.985-.983v-3.509a.966.966,0,0,0-.463-.813A.972.972,0,0,1,179.652,169.435Z" transform="translate(-173.099 -168.748)"/></g></g></g></g><path class="p" d="M136.267,138.936H134.9v-7.62a4.8,4.8,0,0,1,4.79-4.792h30.856a3.426,3.426,0,0,0,3.423-3.423V110.753h1.37V123.1a4.8,4.8,0,0,1-4.793,4.792H139.688a3.425,3.425,0,0,0-3.422,3.423Z" transform="translate(229.242 2083.073)"/><g transform="translate(346.374 2116.688)"><path class="i" d="M155.5,32.194c-1.418.4-16.645,2.956-19.909,3.618-2.577.521-8.167,1.223-10,2.21s-8.4,4.7-8.581,5.671.933,1.4,1.449,1.3,6.529-5.231,8.134-5.926,28.449-3.38,29.338-3.5Z" transform="translate(-116.519 -30.923)"/><path class="i" d="M116.932,32.194c1.418.4,16.645,2.956,19.912,3.618,2.575.521,8.164,1.223,10,2.21s8.4,4.7,8.582,5.671-.931,1.4-1.449,1.3-6.529-5.231-8.134-5.926-28.448-3.38-29.338-3.5Z" transform="translate(-116.502 -30.923)"/><path class="q" d="M151.357,32.624c1.636.438,3.548,1.01,3.586,3.435a19.567,19.567,0,0,1-1.009,6.166,4.522,4.522,0,0,1-3.025,2.539,24.735,24.735,0,0,1-6.277,0,4.419,4.419,0,0,1-3.662-2.8,20.791,20.791,0,0,1-1.455-4.857,3.43,3.43,0,0,1,1.977-3.811C144.3,32.214,150.73,32.457,151.357,32.624Z" transform="translate(-117.288 -30.933)"/><path class="r" d="M141.423,42.41a21.043,21.043,0,0,1-1.459-4.856,3.433,3.433,0,0,1,1.984-3.81c2.8-1.084,9.229-.841,9.86-.671a6.81,6.81,0,0,1,2.511,1.062,5.449,5.449,0,0,0-2.963-1.516c-.628-.167-7.059-.409-9.862.676a3.43,3.43,0,0,0-1.977,3.811,20.791,20.791,0,0,0,1.455,4.857,4.727,4.727,0,0,0,1.255,1.778A5.167,5.167,0,0,1,141.423,42.41Z" transform="translate(-117.288 -30.933)"/><path class="q" d="M121.909,32.624c-1.636.438-3.548,1.01-3.587,3.435a19.6,19.6,0,0,0,1.009,6.166,4.522,4.522,0,0,0,3.026,2.539,24.76,24.76,0,0,0,6.277,0,4.416,4.416,0,0,0,3.659-2.8,20.692,20.692,0,0,0,1.455-4.857,3.43,3.43,0,0,0-1.978-3.811C128.967,32.214,122.539,32.457,121.909,32.624Z" transform="translate(-116.564 -30.933)"/><path class="r" d="M119.78,42.673a19.691,19.691,0,0,1-1.009-6.165c.039-2.426,1.951-2.994,3.586-3.434.629-.17,7.06-.412,9.862.671a3.139,3.139,0,0,1,.846.483,2.978,2.978,0,0,0-1.3-.937c-2.8-1.082-9.231-.839-9.861-.676-1.636.438-3.548,1.01-3.587,3.435a19.6,19.6,0,0,0,1.009,6.166,4.329,4.329,0,0,0,1.135,1.539,4.023,4.023,0,0,1-.686-1.083Z" transform="translate(-116.564 -30.933)"/><path class="b" d="M142.242,31.336c-1.039.258-4.925,1.57-6.032,1.57s-4.995-1.312-6.034-1.57c-3.324-.821-10.607-.521-13.671.785v3.4c.676.3,1.271,5.416,1.866,7.023a4.523,4.523,0,0,0,2.468,2.614,16.628,16.628,0,0,0,8.7.229,4.657,4.657,0,0,0,3.1-1.867c1.232-1.772,1.682-7.172,3.573-7.172s2.335,5.4,3.566,7.172a4.662,4.662,0,0,0,3.1,1.867,16.64,16.64,0,0,0,8.7-.224,4.523,4.523,0,0,0,2.465-2.614c.6-1.607,1.195-6.723,1.866-7.023v-3.4C152.849,30.814,145.569,30.513,142.242,31.336Zm-8.556,5.716a20.692,20.692,0,0,1-1.455,4.857,4.416,4.416,0,0,1-3.658,2.8,24.76,24.76,0,0,1-6.277,0,4.522,4.522,0,0,1-3.026-2.539A19.6,19.6,0,0,1,118.26,36c.039-2.425,1.951-2.994,3.587-3.435.631-.167,7.059-.409,9.861.676A3.43,3.43,0,0,1,133.686,37.052Zm19.463,5.118a4.522,4.522,0,0,1-3.025,2.539,24.735,24.735,0,0,1-6.277,0,4.419,4.419,0,0,1-3.662-2.8,20.791,20.791,0,0,1-1.455-4.857,3.43,3.43,0,0,1,1.977-3.811c2.8-1.082,9.234-.839,9.862-.676,1.636.438,3.548,1.01,3.586,3.435a19.567,19.567,0,0,1-1.005,6.17Z" transform="translate(-116.502 -30.878)"/><path class="s" d="M142.242,31.476c-1.039.257-4.925,1.569-6.032,1.569s-4.995-1.312-6.034-1.569c-3.324-.823-10.607-.523-13.671.785,0,0,10.347-1.159,13.671-.337,1.039.257,4.93,1.569,6.034,1.569s4.993-1.312,6.032-1.569c3.324-.821,13.67.337,13.67.337C152.849,30.952,145.569,30.653,142.242,31.476Z" transform="translate(-116.502 -30.883)"/></g><path class="t" d="M40.931,24.851A11.334,11.334,0,1,0,52.266,36.185,11.334,11.334,0,0,0,40.931,24.851ZM31.568,36.184A9.356,9.356,0,0,1,47.04,29.1l-3.927,3.928a3.077,3.077,0,0,0-1.449-1.22,2.72,2.72,0,0,1,.755-1.82,2.887,2.887,0,0,1,2.008-.9,2.987,2.987,0,0,0-3.059,2.64,1.862,1.862,0,0,0-.869,0,2.991,2.991,0,0,0-3.061-2.64,2.887,2.887,0,0,1,2.011.9,2.751,2.751,0,0,1,.754,1.82,3.914,3.914,0,0,0-2.125,2.682h-.511c-.048.176-.088.357-.124.542l-1.193-1.394V31.414a.316.316,0,1,0-.633,0v2.344a.318.318,0,0,0,.075.2l1.5,1.753a.323.323,0,0,0,.142.09c-.019.23-.034.464-.034.7,0,.155,0,.307.014.458l-1.823.676a.3.3,0,0,0-.176.163L34.451,39.7a.319.319,0,1,0,.579.265l.809-1.778,1.545-.572a7.325,7.325,0,0,0,.193.944l-3.735,3.735A9.321,9.321,0,0,1,31.568,36.184ZM44.323,34.6l1.287-1.288v.32l-1.192,1.394C44.391,34.883,44.358,34.742,44.323,34.6ZM40.931,45.549a9.315,9.315,0,0,1-5.651-1.9L36.427,42.5v.476a.317.317,0,1,0,.633,0V41.866l1.421-1.42A3.231,3.231,0,0,0,40.5,41.781a2.889,2.889,0,0,0,.43.037,2.94,2.94,0,0,0,.442-.038A3.353,3.353,0,0,0,43.552,40.2l1.251.893v1.88a.317.317,0,0,0,.634,0V40.93a.313.313,0,0,0-.134-.256l-1.433-1.025a6.712,6.712,0,0,0,.608-2.038l1.545.573.809,1.778a.319.319,0,0,0,.579-.265L46.542,37.8a.305.305,0,0,0-.178-.163l-1.823-.676c.009-.151.014-.3.014-.458,0-.24-.014-.472-.034-.7a.316.316,0,0,0,.144-.088l1.5-1.756a.313.313,0,0,0,.075-.2V32.683l2.15-2.149a9.358,9.358,0,0,1-7.461,15.014Z" transform="translate(243.472 2197.077)"/><path class="t" d="M117.623,51.016h-5.556a5.275,5.275,0,0,1-5.269-5.269V30.605a5.275,5.275,0,0,1,5.269-5.269h5.556v1.449h-5.556a3.824,3.824,0,0,0-3.82,3.82V45.747a3.825,3.825,0,0,0,3.82,3.82h5.556Z" transform="translate(230.204 2086)"/><path class="t" d="M160.878,51.016h-5.556V49.567h5.556a3.825,3.825,0,0,0,3.82-3.82V30.605a3.824,3.824,0,0,0-3.82-3.82h-5.556V25.336h5.556a5.275,5.275,0,0,1,5.269,5.269V45.747a5.275,5.275,0,0,1-5.269,5.269Z" transform="translate(228.542 2086)"/><path class="t" d="M69.428,49.2H67.979V43.153a5.275,5.275,0,0,1,5.269-5.269h32.944v1.449H73.248a3.824,3.824,0,0,0-3.82,3.82Z" transform="translate(231.534 2085.57)"/><path class="t" d="M200.058,106.3l-1.025-1.025a32.964,32.964,0,0,0-23.31-56.274H175V39.02h-8.872V37.571h10.321v9.993a34.414,34.414,0,0,1,23.61,58.74Z" transform="translate(228.172 2085.581)"/><path class="t" d="M40.322,173.105A15.127,15.127,0,0,1,25.2,157.653V86.382a5.274,5.274,0,0,1,5.269-5.268h8.484V64.1A5.034,5.034,0,0,1,43.7,58.828h4.022v1.449H43.7a3.592,3.592,0,0,0-3.3,3.82V82.566H30.468a3.824,3.824,0,0,0-3.82,3.82v71.272a13.7,13.7,0,0,0,13.675,14,14.019,14.019,0,0,0,14-14h1.449A15.469,15.469,0,0,1,40.322,173.105Z" transform="translate(233 2084.853)"/></g></g></svg>