<svg xmlns="http://www.w3.org/2000/svg" xmlns:xlink="http://www.w3.org/1999/xlink" width="237" height="251" viewBox="0 0 237 251"><defs><style>.a,.ah,.h,.s,.w,.z{fill:none;}.a{stroke:#f36e24;}.b{fill:url(#a);}.ab,.c{fill:#fff;}.d{fill:url(#b);}.e{fill:url(#c);}.f{fill:url(#d);}.g{fill:url(#e);}.h,.p{stroke:#1d3289;}.ab,.h,.n,.o,.p,.q,.r,.s,.t,.u,.w,.x,.y{stroke-miterlimit:10;}.h{stroke-dasharray:3;}.i,.q{fill:#ffb620;}.j{fill:url(#f);}.k{fill:url(#g);}.l{fill:url(#h);}.m,.y{fill:#e2443d;}.ac,.n{fill:#d7ddef;stroke:#d7ddef;}.ab,.ac,.n,.o,.p,.q,.r,.s,.t,.u,.w,.x,.y,.z{stroke-width:0.25px;}.af,.o{fill:#225dd9;}.o{stroke:#225dd9;}.aa,.p{fill:#1d3289;}.q{stroke:#ffb620;}.r{fill:#f4b7bc;stroke:#f4b7bc;}.s,.t,.u,.w,.x,.z{stroke:#33354e;}.t,.u,.v{fill:#33354e;}.ac,.u,.w,.z{stroke-linecap:round;}.x{fill:url(#i);}.y{stroke:#e2443d;}.ac,.z{stroke-linejoin:round;}.ab{stroke:#fff;}.ad{fill:url(#j);}.ae{fill:url(#k);}.ag{stroke:none;}</style><linearGradient id="a" x1="0.5" y1="0.021" x2="0.5" y2="1.026" gradientUnits="objectBoundingBox"><stop offset="0" stop-color="#d7ddef"/><stop offset="1" stop-color="#fefefe"/></linearGradient><linearGradient id="b" y1="-0.333" y2="0.995" xlink:href="#a"/><linearGradient id="c" y1="-1.184" y2="0.927" xlink:href="#a"/><linearGradient id="d" y1="-0.368" y2="1.086" xlink:href="#a"/><linearGradient id="e" y1="-0.483" y2="1.814" xlink:href="#a"/><linearGradient id="f" x1="1.629" y1="-3.585" x2="0.174" y2="1.754" gradientUnits="objectBoundingBox"><stop offset="0" stop-color="#1d3289"/><stop offset="1" stop-color="#33354e"/></linearGradient><linearGradient id="g" x1="1.555" y1="-2.211" x2="0.101" y2="1.581" xlink:href="#f"/><linearGradient id="h" x1="1.489" y1="-1.693" x2="0.034" y2="1.583" xlink:href="#f"/><linearGradient id="i" x1="0.939" y1="-0.774" x2="0.234" y2="1.176" xlink:href="#f"/><linearGradient id="j" x1="1.889" y1="-1.221" x2="-0.749" y2="2.111" gradientUnits="objectBoundingBox"><stop offset="0" stop-color="#d7ddef"/><stop offset="1" stop-color="#225dd9"/></linearGradient><linearGradient id="k" x1="0.889" y1="0.15" x2="-0.439" y2="1.609" gradientUnits="objectBoundingBox"><stop offset="0" stop-color="#d7ddef"/><stop offset="0.318" stop-color="#95aee7"/><stop offset="0.846" stop-color="#225dd9"/></linearGradient></defs><g transform="translate(-786 -2389)"><g class="a" transform="translate(786 2389)"><rect class="ag" width="237" height="251" rx="18"/><rect class="ah" x="0.5" y="0.5" width="236" height="250" rx="17.5"/></g><g transform="translate(15.519 13.541)"><g transform="translate(861.482 2522.537)"><path class="b" d="M275.755,292.838a19.153,19.153,0,0,0,4.078-.759,4.63,4.63,0,0,0,2.186-1.3,5.654,5.654,0,0,0,1.066-2.008c.281-.768.576-1.6.946-2.532a7.142,7.142,0,0,1,1.793-2.541,6.554,6.554,0,0,1,2.858-1.349c2.067-.4,4.186.424,5.781,3.114s.731,4.966-.725,6.857a18.254,18.254,0,0,1-2.335,2.732,13.9,13.9,0,0,0-1.086,1.193c-.321.377-.605.72-.825,1.025-.877,1.215,0,2.538,1.038,4.278a15.249,15.249,0,0,1,1.4,2.854,8.855,8.855,0,0,1,.421,3.518,5.17,5.17,0,0,1-.43,1.734,4.348,4.348,0,0,1-.394.693,5.47,5.47,0,0,1-.447.642,7.8,7.8,0,0,1-2.61,1.911c-.991.539-2.049,1.025-3.084,1.5a11.657,11.657,0,0,0-2.7,1.553,4.512,4.512,0,0,0-1.552,4.6,8.748,8.748,0,0,0,1.08,2.706,14.1,14.1,0,0,0,2.207,2.674,6.807,6.807,0,0,1,1.706,2.324,2.9,2.9,0,0,1,.169,2,5.032,5.032,0,0,1-1.062,1.813,13.969,13.969,0,0,1-1.766,1.764,13.121,13.121,0,0,0-1.688,1.683,4.525,4.525,0,0,0-.833,1.691,3.88,3.88,0,0,0,.068,1.915,8.662,8.662,0,0,0,1.242,2.335,2.858,2.858,0,0,1,.526,1.363,3.444,3.444,0,0,1-.111,1.453,7.843,7.843,0,0,1-1.943,3.018,14.27,14.27,0,0,1-18.9,1.8,16.877,16.877,0,0,1-6.227-7.586,15.317,15.317,0,0,1-1.06-3.456,15.891,15.891,0,0,1-.219-4.6,17.146,17.146,0,0,1,1-3.982,18.633,18.633,0,0,1,1.826-3.43,28.57,28.57,0,0,1,2.232-3.009c1.625-1.9,3.13-3.638,4.459-5.482a13.057,13.057,0,0,0,1.559-2.935,11.247,11.247,0,0,0,.846-3.427c.054-.63.091-1.252.116-1.856.052-.6.1-1.177.132-1.745.068-1.135.1-2.216.128-3.245a27.425,27.425,0,0,1,.709-5.457,8.293,8.293,0,0,1,.379-1.153,8.7,8.7,0,0,1,.564-1.04,7.337,7.337,0,0,1,1.6-1.789,7.991,7.991,0,0,1,2.4-1.33A15.539,15.539,0,0,1,275.755,292.838Z" transform="translate(-254.242 -282.249)"/><path class="c" d="M272.181,352l.48.017c.305-4.594.757-9.355,1.374-14.176a24.81,24.81,0,0,1,.641-2.56,22.487,22.487,0,0,1,1-2.386,21.019,21.019,0,0,1,1.2-2.184c.462-.687.946-1.335,1.442-1.944s1.007-1.174,1.523-1.7a21.565,21.565,0,0,1,1.655-1.419,19.093,19.093,0,0,1,3.232-2.06c-.073-.128-.146-.251-.217-.375a16.376,16.376,0,0,0-2.759,1.672,20.57,20.57,0,0,0-2.793,2.427,26.235,26.235,0,0,0-2.5,3.179,23.152,23.152,0,0,0-1.937,3.843,136.776,136.776,0,0,1,4.378-19.609,8.566,8.566,0,0,1,1.442-2.652,14.816,14.816,0,0,1,1.952-2.135,16.582,16.582,0,0,1,4.729-2.685,20.084,20.084,0,0,1,4.587-.952,16.867,16.867,0,0,1,3.127-.035c-.014-.136-.034-.269-.056-.4a19.638,19.638,0,0,0-6.765.648c-.368.1-.743.208-1.122.332q-.538.2-1.084.451a18.223,18.223,0,0,0-2.176,1.167,12.7,12.7,0,0,0-3.772,3.6,98.653,98.653,0,0,1,7-15.963,140.946,140.946,0,0,1,8.266-12.611c-.129-.1-.26-.192-.394-.275q-.772,1.129-1.6,2.272-.415.568-.839,1.145a13.081,13.081,0,0,0-.83,1.182q-.788,1.241-1.629,2.491l-.848,1.251-.776,1.34q-.783,1.34-1.606,2.685c-.521.917-.983,1.892-1.5,2.833l-.765,1.427c-.263.473-.458.99-.7,1.483q-.683,1.5-1.4,3a17.261,17.261,0,0,0,.275-3.317c-.011-1.1-.118-2.188-.185-3.18a34.4,34.4,0,0,0-.927-5.264l-.486.113a33.685,33.685,0,0,1,1.025,6.436,20.373,20.373,0,0,1-.817,7.983l-.659,1.586q-.281.816-.565,1.635c-.364,1.1-.808,2.167-1.14,3.281s-.668,2.23-1.019,3.341-.586,2.26-.9,3.384a129.716,129.716,0,0,0-2.723,13.6,35.721,35.721,0,0,0-1.2-5.155q-.433-1.435-1.036-3.042-.524-1.6-1.2-3.389c-.283-.772-.6-1.532-.855-2.25l-.735-2.044c-.473-1.279-.891-2.373-1.194-3.153q-.126.339-.273.667c.4,1.046.951,2.506,1.539,4.166.612,1.665,1.373,3.547,2,5.45a57.027,57.027,0,0,1,1.825,5.73,21.991,21.991,0,0,1,.6,2.74q.1.664.138,1.306c.032.428.069.848.067,1.261-.17,1.543-.445,3.074-.556,4.579-.441-4.459-2.016-9.028-3.425-13.152-.356-1.025-.78-2.029-1.1-2.971s-.672-1.839-.995-2.666-.63-1.587-.907-2.256c-.252-.662-.473-1.237-.649-1.7l-.352.478c.321.875.851,2.1,1.419,3.547s1.145,3.092,1.842,4.867c.473,1.223.882,2.554,1.36,3.957s.909,2.871,1.277,4.365a31.664,31.664,0,0,1,.914,4.546,22.31,22.31,0,0,1,.242,4.614c-.091,1.3-.218,2.594-.328,3.862Q272.335,350.163,272.181,352Z" transform="translate(-256.67 -282.452)"/></g><g transform="translate(808.157 2538.67)"><g transform="translate(125.141 2.83)"><path class="d" d="M380.918,344.44a35.744,35.744,0,0,1-11.16,9.691,38.933,38.933,0,0,1-6.159,2.716c-1.015.341-2,.653-2.964.907-.984.236-1.937.434-2.851.6a34.784,34.784,0,0,1-5.05.567c-.756.036-1.46.057-2.112.058-.665-.018-1.275-.049-1.824-.085a31.921,31.921,0,0,1-3.437-.385s.39-1.261,1.117-3.247c.184-.49.386-1.029.6-1.611l.671-1.892c.48-1.328,1.043-2.744,1.595-4.31.581-1.513,1.2-3.122,1.84-4.792.686-1.607,1.319-3.346,2.1-4.966a45.72,45.72,0,0,1,12.973-17.622c1.315-1.231,2.786-2.353,4.117-3.485l4.03-3.18c1.33-.992,2.515-1.951,3.641-2.8l1.609-1.2,1.359-1.055c1.678-1.283,2.768-2.031,2.768-2.031a31.68,31.68,0,0,1,1.389,3.168c.2.513.408,1.086.623,1.716.193.623.382,1.3.572,2.034a34.7,34.7,0,0,1,.959,4.991c.112.921.2,1.892.273,2.9.044,1,.039,2.029.014,3.1a38.914,38.914,0,0,1-.764,6.688,35.754,35.754,0,0,1-5.937,13.532Z" transform="translate(-345.358 -306.308)"/><path class="c" d="M386.225,333.375l.213-.75c-1.069.3-2.452.709-4.01,1.247-1.589.515-3.389,1.126-5.212,1.875-.918.372-1.9.744-2.847,1.17-.966.414-1.885.9-2.867,1.365a29.967,29.967,0,0,0-2.852,1.565c-.925.571-1.887,1.141-2.773,1.8.672-.807,1.391-1.576,2.025-2.414l1.93-2.491c.63-.839,1.212-1.716,1.821-2.572.3-.433.609-.856.9-1.3l.839-1.334a18.405,18.405,0,0,1,1.5-2.04,18.95,18.95,0,0,1,1.633-1.839,34.886,34.886,0,0,1,3.657-3.1c1.3-.911,2.556-1.757,3.806-2.5s2.488-1.371,3.547-1.936q-.032-.35-.062-.7a63,63,0,0,0-5.77,3.332c-.987.686-2.074,1.386-3.05,2.189-.5.394-.975.818-1.449,1.252q-.739.638-1.424,1.34A82.63,82.63,0,0,0,384,306.729l-.21-.422h0l-.394.276a82.036,82.036,0,0,1-8.166,20.661c.162-.631.289-1.256.385-1.877a18.348,18.348,0,0,0,.123-1.881,17.679,17.679,0,0,0-.258-3.567,21.57,21.57,0,0,0-1.911-5.86l-.467.374a19.6,19.6,0,0,1,1.292,3.446,17.9,17.9,0,0,1,.714,4.194,15.707,15.707,0,0,1-.369,4.6,17.921,17.921,0,0,1-.709,2.322,15.89,15.89,0,0,1-1.167,2.217l-.833,1.324c-.285.437-.594.857-.889,1.286-.6.85-1.182,1.721-1.807,2.554l-1.915,2.473c-.631.832-1.34,1.6-2.01,2.4a18.035,18.035,0,0,0,1.253-3,25.246,25.246,0,0,0,.72-3.049,20.178,20.178,0,0,0,.254-3,23.007,23.007,0,0,0-.1-2.823,28.906,28.906,0,0,0-.972-4.9,30.262,30.262,0,0,0-1.34-3.505l-.437.407a24.932,24.932,0,0,1,1.5,4.315,23.923,23.923,0,0,1,.752,6.025,21.1,21.1,0,0,1-1.13,6.882,22.569,22.569,0,0,1-1.595,3.369,18.844,18.844,0,0,1-2.384,3.074c-.561.624-1.2,1.174-1.793,1.764s-1.2,1.17-1.825,1.734l-1.9,1.648-.951.824c-.322.269-.658.52-.986.781a17.955,17.955,0,0,0,2.119-3.425,18.616,18.616,0,0,0,1.34-3.6,24.241,24.241,0,0,0,.837-6.849,29.124,29.124,0,0,0-.643-5.281,21.842,21.842,0,0,0-.754-2.645l-.375.6a24.2,24.2,0,0,1,.88,3.872,25.442,25.442,0,0,1,.291,2.978,29.081,29.081,0,0,1-.116,3.433,20.748,20.748,0,0,1-.7,3.7c-.173.631-.371,1.269-.6,1.908q-.374.925-.839,1.85c-.311.615-.653,1.226-1.025,1.829a17.741,17.741,0,0,1-1.284,1.7,21.936,21.936,0,0,1-1.5,1.607,18.855,18.855,0,0,1-1.763,1.394c-1.555,1.147-3.216,2.134-4.846,3.168-.093.295-.146.459-.146.459l.465.079c1.643-1.042,3.317-2.037,4.887-3.192.626-.444,1.272-.837,1.921-1.211.631-.394,1.279-.753,1.938-1.08s1.34-.612,2-.9,1.329-.56,2.006-.8,1.363-.46,2.049-.657q1-.329,2.017-.6c1.34-.369,2.726-.631,4-.921,1.291-.273,2.556-.49,3.757-.668s2.286-.358,3.3-.48c2.013-.259,3.646-.362,4.5-.437l.655-.726c-.4.014-1.48.111-3.07.27s-3.634.424-5.905.813a56.987,56.987,0,0,0-15.021,4.285c.33-.263.669-.516.994-.788l.958-.831L358.726,349c.626-.567,1.224-1.165,1.838-1.746s1.241-1.148,1.807-1.777a25.146,25.146,0,0,1,2.938-2.615,25.648,25.648,0,0,1,3.148-2.173,49.531,49.531,0,0,1,6.573-3.384c2.228-.925,4.335-1.745,6.277-2.391C383.274,334.282,384.922,333.73,386.225,333.375Z" transform="translate(-345.357 -306.307)"/></g><g transform="translate(0 24.523)"><path class="e" d="M206.656,346.655a33.466,33.466,0,0,1,4.418,5.925c.668,1.007,1.245,2.115,1.855,3.123.3.514.577,1.043.855,1.554.289.494.566.988.832,1.476.522,1,1.043,1.886,1.5,2.729.228.423.443.826.646,1.2l.575,1.016c.7,1.255,1.1,2.063,1.1,2.063a20.989,20.989,0,0,1-2.272.631c-.367.084-.774.169-1.222.252q-.661.1-1.432.18a22.634,22.634,0,0,1-3.476.129c-.636-.022-1.3-.062-1.995-.125-.681-.079-1.378-.2-2.1-.331a25.94,25.94,0,0,1-4.452-1.272,22.7,22.7,0,0,1-13.642-14.42,25.977,25.977,0,0,1-1.025-4.515c-.095-.73-.173-1.432-.214-2.116-.024-.7-.027-1.363-.014-2a22.665,22.665,0,0,1,.322-3.463c.079-.512.167-.984.259-1.419.108-.442.216-.845.315-1.206a21.257,21.257,0,0,1,.754-2.233s.788.445,2,1.213l.983.631,1.166.709c.816.5,1.675,1.073,2.641,1.649.473.293.951.6,1.428.913.495.307,1.007.616,1.5.94.972.664,2.049,1.3,3.015,2.025a33.459,33.459,0,0,1,5.677,4.739Z" transform="translate(-186.586 -333.831)"/><g transform="translate(0.003)"><path class="c" d="M202.071,342.675l-.324-.236a20.019,20.019,0,0,0-.651,2.458,19.075,19.075,0,0,0-.284,3.377,14.087,14.087,0,0,0,2.426,7.818,50.169,50.169,0,0,1-5.879-6.155,10.774,10.774,0,0,1-.963-1.406,12.205,12.205,0,0,1-.654-1.517,10.434,10.434,0,0,1-.586-3.08,11.727,11.727,0,0,1,.191-2.882,12.878,12.878,0,0,1,.646-2.411l-.34-.219a12.869,12.869,0,0,0-.2,9.017,50.8,50.8,0,0,1-6.917-13.443l-.284-.164h0s-.042.107-.117.3a51.238,51.238,0,0,0,6.975,13.557,33.146,33.146,0,0,0-8.518-4.692l.006.479c.754.315,1.642.664,2.542,1.081s1.813.906,2.759,1.431a25.106,25.106,0,0,1,2.71,1.836,12.852,12.852,0,0,1,1.248,1.12,12.469,12.469,0,0,1,1.176,1.261,50.616,50.616,0,0,0,5.926,6.2,37.643,37.643,0,0,0-8.179-3.05c-1.3-.367-2.568-.644-3.689-.875-1.1-.247-2.071-.43-2.822-.552l.2.5a76.673,76.673,0,0,1,7.914,1.813,28.217,28.217,0,0,1,9.282,4.438c.906.709,1.855,1.367,2.792,2.035.979.606,1.917,1.281,2.93,1.83a41.7,41.7,0,0,0-10.569-1.488c-1.576-.065-2.982-.079-4.081-.045s-1.835.046-2.11.069l.51.441c.585-.018,1.706-.085,3.1-.079.7,0,1.454.024,2.286.04s1.71.049,2.609.117a30.129,30.129,0,0,1,11.379,2.617c1.174.617,2.41,1.1,3.626,1.628l.3-.1-.148-.293c-1.207-.519-2.432-1-3.6-1.613a12.758,12.758,0,0,1-1.331-.755,14.853,14.853,0,0,1-1.168-.931,11.817,11.817,0,0,1-1.034-1.018c-.315-.37-.6-.749-.867-1.132s-.515-.772-.742-1.163c-.214-.409-.407-.82-.581-1.228a13.549,13.549,0,0,1-.806-2.43,19.443,19.443,0,0,1-.38-2.3,16.906,16.906,0,0,1-.057-2.029,15.835,15.835,0,0,1,.274-2.675l-.3-.371a14.438,14.438,0,0,0-.294,1.841,19.223,19.223,0,0,0,.012,3.608,14.551,14.551,0,0,0,4.186,8.924c-1-.545-1.935-1.215-2.906-1.813-.929-.663-1.87-1.315-2.769-2.019a12.68,12.68,0,0,1-1.887-1.856,15.283,15.283,0,0,1-1.371-2.133,13.99,13.99,0,0,1-1.335-4.55,15.717,15.717,0,0,1,.04-4.117,16.31,16.31,0,0,1,.694-3.014Z" transform="translate(-186.59 -333.83)"/></g></g><g transform="translate(14.544 2.993)"><path class="f" d="M227.911,325.41a29.163,29.163,0,0,1,1.806,11,33.092,33.092,0,0,1-.552,5.087c-.152.8-.315,1.576-.5,2.318-.2.746-.418,1.461-.638,2.142a31.943,31.943,0,0,1-1.431,3.655,27.347,27.347,0,0,1-1.4,2.723,26.932,26.932,0,0,1-1.451,2.286s-.756-.7-1.907-1.906l-2.021-2.151c-.761-.822-1.561-1.744-2.443-2.731q-.649-.742-1.3-1.54c-.447-.528-.906-1.07-1.349-1.63-.867-1.124-1.806-2.286-2.629-3.517a34.01,34.01,0,0,1-6.471-16.824c-.212-1.465-.3-2.957-.4-4.373-.047-.709-.069-1.419-.091-2.115s-.055-1.357-.065-2.015c-.007-1.324-.03-2.545-.017-3.665s.042-2.112.059-2.951c.046-1.668.139-2.692.139-2.692s.979.2,2.61.727a27.186,27.186,0,0,1,2.863,1.085,31.951,31.951,0,0,1,3.511,1.754q.929.536,1.908,1.162c.638.426,1.277.89,1.927,1.383a33.232,33.232,0,0,1,3.819,3.406,29.176,29.176,0,0,1,6.032,9.38Z" transform="translate(-205.039 -306.514)"/><g transform="translate(0.04 0.009)"><path class="c" d="M223.166,317.483l-.379-.452c-.3.8-.66,1.851-1.021,3.074-.379,1.23-.777,2.637-1.095,4.137a33.75,33.75,0,0,0-.886,9.906,91.132,91.132,0,0,0-3.515-9.222,14.065,14.065,0,0,1-.672-1.865,14.706,14.706,0,0,1-.453-1.87,23.136,23.136,0,0,1-.321-3.727,34.556,34.556,0,0,1,.2-3.528c.125-1.118.315-2.172.478-3.087l-.456-.281a29.941,29.941,0,0,0-.311,11.051,94.486,94.486,0,0,0-9.123-15.012l-.361-.084h0s-.011.135-.03.375a93.929,93.929,0,0,1,9.076,14.934,16.867,16.867,0,0,0-9.207-5.142l.018.482a17.892,17.892,0,0,1,2.8.856,15.9,15.9,0,0,1,3.009,1.525,13.48,13.48,0,0,1,2.789,2.34,14.09,14.09,0,0,1,1.182,1.5,12.775,12.775,0,0,1,.934,1.734,90.391,90.391,0,0,1,3.5,9.178,18.42,18.42,0,0,0-7-6.484,25.419,25.419,0,0,0-3.652-1.591,26.379,26.379,0,0,0-2.891-.774l.079.484a22.794,22.794,0,0,1,7.8,3.246,16.062,16.062,0,0,1,6.837,8.992c.354,1.268.661,2.551.979,3.828.265,1.29.587,2.57.806,3.869a19.21,19.21,0,0,0-7.866-8.434,23.262,23.262,0,0,0-5.931-2.476l.255.531a21.721,21.721,0,0,1,2.982,1.091,22.532,22.532,0,0,1,4.424,2.57,16.592,16.592,0,0,1,6.8,10.708c.236,1.5.379,3.008.548,4.514l.273.259.212-.3c-.169-1.514-.309-3.032-.552-4.538a27.928,27.928,0,0,1,1.769-13.163c.673-1.934,1.449-3.692,2.1-5.107s1.267-2.512,1.583-3.1l-.2-.709a53.119,53.119,0,0,0-3.007,6.286,36.405,36.405,0,0,0-2.907,11.776c-.219-1.306-.543-2.592-.809-3.889-.315-1.285-.631-2.573-.984-3.848a26.676,26.676,0,0,1-.215-11.731,56.207,56.207,0,0,1,2.421-8.833Z" transform="translate(-205.09 -306.525)"/></g></g><g transform="translate(126.508)"><path class="g" d="M361.56,319.419a25.016,25.016,0,0,1-2.891,4.846c-.519.762-1.131,1.488-1.669,2.207l-1.655,2.049-1.5,1.822c-.473.557-.889,1.057-1.226,1.476-.691.839-1.15,1.34-1.15,1.34a16.107,16.107,0,0,1-1.067-1.427,14.449,14.449,0,0,1-1.036-1.744,17.59,17.59,0,0,1-1.058-2.4q-.244-.676-.473-1.428c-.136-.5-.251-1.018-.36-1.56a19.83,19.83,0,0,1-.374-3.459,17.282,17.282,0,0,1,6.058-13.623,19.933,19.933,0,0,1,2.819-2.039c.473-.281.938-.545,1.4-.777s.932-.425,1.376-.607a17.622,17.622,0,0,1,2.49-.821,14.539,14.539,0,0,1,1.989-.394A16.05,16.05,0,0,1,365,302.72s-.066.678-.226,1.754c-.086.53-.18,1.173-.275,1.9s-.225,1.516-.347,2.336c-.135.849-.274,1.726-.413,2.6-.173.879-.3,1.82-.519,2.717A25.088,25.088,0,0,1,361.56,319.419Z" transform="translate(-347.091 -302.718)"/><g transform="translate(0.749)"><path class="c" d="M363.209,315.014l.071-.3a15.192,15.192,0,0,0-1.908.282,14.775,14.775,0,0,0-2.443.8,10.843,10.843,0,0,0-4.76,3.972,40.1,40.1,0,0,1,2.589-5.892,8.138,8.138,0,0,1,.7-1.085,9.218,9.218,0,0,1,.862-.9,8.031,8.031,0,0,1,1.971-1.325,9.087,9.087,0,0,1,2.062-.733,9.988,9.988,0,0,1,1.872-.282l.05-.3a9.916,9.916,0,0,0-6.334,2.568,40.744,40.744,0,0,1,7.24-8.853l.026-.247h0l-.242.01a41.061,41.061,0,0,0-7.3,8.923,24.092,24.092,0,0,0,.7-7.3l-.329.147c.01.616.036,1.334.018,2.082s-.083,1.527-.165,2.34a18.271,18.271,0,0,1-.473,2.427,9.694,9.694,0,0,1-.412,1.2,9.385,9.385,0,0,1-.534,1.19,40.473,40.473,0,0,0-2.608,5.937,27.313,27.313,0,0,0-.248-6.585c-.127-1.01-.308-1.97-.479-2.817s-.315-1.563-.452-2.119l-.284.287a53.5,53.5,0,0,1,1.073,6.024,20.668,20.668,0,0,1-.42,7.757c-.236.837-.43,1.687-.63,2.533-.151.857-.357,1.7-.461,2.569a30.1,30.1,0,0,0-1.955-7.812c-.809-2.231-1.638-3.941-1.808-4.3l-.158.48c.183.4.552,1.161.953,2.128.385.964.867,2.158,1.3,3.455a21.941,21.941,0,0,1,1.369,8.706c-.108,1-.113,2-.147,3l.158.187.166-.184c.034-.993.039-1.988.145-2.977a9.847,9.847,0,0,1,4.244-7.038,12.73,12.73,0,0,1,2.905-1.559,12.294,12.294,0,0,1,1.954-.59l.173-.32a13.253,13.253,0,0,0-3.9,1.393,11.21,11.21,0,0,0-5.075,5.48c.1-.858.308-1.7.457-2.551.2-.839.394-1.683.631-2.513a9.6,9.6,0,0,1,4.646-5.683,12.87,12.87,0,0,1,5.192-1.606Z" transform="translate(-348.041 -302.717)"/></g></g></g><path class="h" d="M341.8,259.081c5.587,3.21,11.823,5.57,18.286,5.774s13.172-1.953,17.563-6.635,5.99-12.032,3.064-17.717c-4.315-8.374-15.794-10.325-22.036-17.419a18.377,18.377,0,0,1-.1-23.439c3.448-3.985,8.461-6.283,12.494-9.695s7.172-9.007,4.993-13.786c-1.525-3.348-5.139-5.185-8.5-6.769" transform="translate(588.695 2264.192)"/><g transform="translate(882.502 2404.459)"><path class="i" d="M298.341,132.439c-9.627,0-17.431,7.076-17.431,15.8a14.653,14.653,0,0,0,2.646,8.367,2.413,2.413,0,0,1,.351,2l-1.489,5.558,6.8-1.822a2.353,2.353,0,0,1,1.554.136,18.857,18.857,0,0,0,7.571,1.565c9.628,0,17.432-7.075,17.432-15.8S307.969,132.439,298.341,132.439Z" transform="translate(-280.91 -132.439)"/><g transform="translate(8.803 13.814)"><ellipse class="c" cx="1.989" cy="1.989" rx="1.989" ry="1.989" transform="translate(6.64)"/><path class="c" d="M312.905,151.954a1.989,1.989,0,1,1-1.989-1.989,1.989,1.989,0,0,1,1.989,1.989Z" transform="translate(-295.648 -149.965)"/><ellipse class="c" cx="1.989" cy="1.989" rx="1.989" ry="1.989"/></g></g><g transform="translate(873.357 2531.294)"><path class="j" d="M3.855,0H9.826a3.855,3.855,0,0,1,3.855,3.855V31.9H0V3.855A3.855,3.855,0,0,1,3.855,0Z" transform="translate(0 30.188)"/><path class="k" d="M3.855,0H9.826a3.855,3.855,0,0,1,3.855,3.855V44.912H0V3.855A3.855,3.855,0,0,1,3.855,0Z" transform="translate(18.554 17.174)"/><path class="l" d="M3.855,0H9.826a3.855,3.855,0,0,1,3.855,3.855V51.978H0V3.855A3.855,3.855,0,0,1,3.855,0Z" transform="translate(55.662 10.109)"/><path class="m" d="M3.855,0H9.826a3.855,3.855,0,0,1,3.855,3.855V62.087H0V3.855A3.855,3.855,0,0,1,3.855,0Z" transform="translate(37.109 0)"/></g><g transform="translate(803.678 2424.12)"><path class="n" d="M276.484,206.706l1.763-.976-4.057-7.33-1.762.975a.49.49,0,0,0-.192.667l3.582,6.472A.49.49,0,0,0,276.484,206.706Z" transform="translate(-200.236 -166.072)"/><path class="o" d="M270.708,313.7c-.914,13.934-2.48,29.384-5,46.054H248.84l2.09-46.054Z" transform="translate(-195.293 -190.494)"/><path class="p" d="M256.5,326.089l-2.158,33.666h-5.5l2.09-46.054h5.414Z" transform="translate(-195.293 -190.495)"/><path class="o" d="M254.886,313.7l-.575,6.358a12.246,12.246,0,0,1-2.252,6.03c-2.372,3.31-6.219,9.149-7.409,13.748-1.769,6.81-2.45,19.918-2.45,19.918h-17.34s1.727-21.649,1.021-46.054Z" transform="translate(-190.214 -190.494)"/><path class="q" d="M284.7,235.2s-13.288-20.264-25.581-18.335l13.218,29.585s13.714,7.217,20.287,3.128c5.111-3.18,5.377-19.2,5.242-26.174l-9.976-2.353Z" transform="translate(-197.47 -169.957)"/><path class="r" d="M305.6,217.069a2.579,2.579,0,0,0,1.121-1.4l1.451-4.354a1.876,1.876,0,0,0-.6-2.049l-5.634-4.553a1.4,1.4,0,0,0-2.1.405l-1.449,2.584-.079-.035-1.518-.623a1.837,1.837,0,0,0-2.071.481l-1.8,2.03a1.839,1.839,0,0,0-.107,2.308l2.776,3.783-.631,2.793,9.976,2.353c-.039-2-.11-3.254-.11-3.254Z" transform="translate(-204.53 -167.344)"/><path class="q" d="M262.089,293.162H220.125c-.932-11.185-2.916-23.036-6.729-33.851-3.948-11.207-5.123-19.9-5.245-26a11.9,11.9,0,0,1,10.168-11.965l30.007-4.484A11.926,11.926,0,0,1,261.979,227.7a455.932,455.932,0,0,1,.113,65.461Z" transform="translate(-186.674 -169.956)"/><path class="s" d="M226.176,297.617c-.932-11.185-2.916-23.036-6.729-33.851-3.948-11.207-5.123-19.9-5.245-26" transform="translate(-187.956 -174.412)"/><path class="t" d="M223.2,244.5,208.477,234.02a11.731,11.731,0,0,0-.326,2.957c.124,6.1,1.3,14.788,5.245,26,1.021,2.9,1.907,5.87,2.68,8.883Z" transform="translate(-186.674 -173.617)"/><path class="q" d="M212.6,222.58c-17.787,2.658-27.329,37.564-27.329,37.564s-3.225,20.033-4.1,29.266l8.151,1.412,7.455-25.738s10.107-10.483,15-14.96C223.488,239.408,219.8,221.5,212.6,222.58Z" transform="translate(-180.961 -171.184)"/><path class="r" d="M181.118,307.382c-.136,1.443-.215,2.624-.215,3.422v10.1a3.037,3.037,0,0,0,2.318,2.951l4.767,1.162a3.038,3.038,0,0,0,3.357-1.444l1.555-2.722a3.038,3.038,0,0,0-.128-3.217l-2.335-3.425-1.813-3.178.648-2.237Z" transform="translate(-180.903 -189.156)"/><path class="r" d="M234.047,216.963l7.829-10.12,12.94-3.6,3.735,2.607-9.736,13.367Z" transform="translate(-192.16 -167.098)"/><path class="u" d="M253.674,209.083l4.228,4.6,2.932-4.025Z" transform="translate(-196.317 -168.335)"/><path class="r" d="M260.364,202.629a28.123,28.123,0,0,0-.921-4.943c1.467-1.074.085-2.816-1.064-3.906a5.224,5.224,0,0,1-1.029-1.347,23.565,23.565,0,0,0-3.8-5.305,9,9,0,0,0-4.87-2.373,9.945,9.945,0,0,0-11.734,7.585,9.736,9.736,0,0,0,7.961,11.33,10.365,10.365,0,0,0,4.774-.208C253.763,207.853,260.819,207.463,260.364,202.629Z" transform="translate(-192.74 -163.137)"/><path class="v" d="M264.876,204.569c-.558-2.372-3.941-2.394-3.788.182C261.211,206.839,265.36,206.63,264.876,204.569Z" transform="translate(-197.886 -167.005)"/><path class="v" d="M260.909,195.958a.623.623,0,1,1-.623-.623.623.623,0,0,1,.623.623Z" transform="translate(-197.586 -165.423)"/><path class="w" d="M259.244,193.428a2.56,2.56,0,0,0-1.564,1.822" transform="translate(-197.166 -165.019)"/><path class="w" d="M252.542,204.157a3.088,3.088,0,0,1-3.033-5.253" transform="translate(-195.195 -166.179)"/><path class="x" d="M252.336,187.143a1.669,1.669,0,0,0,.915-1.7,2.963,2.963,0,0,0-2.049-2.331c-2.865-1.182-19.739,1.435-14.385,7.787a2.7,2.7,0,0,0-1.927,2.41c-.3,2.238,1.768,7.083,6.25,8.895a.709.709,0,0,1,.31,1.093l-1.718,2.22,7.528-4.858h0a3.458,3.458,0,0,1-1.266-1.279,2.808,2.808,0,0,1,.656-3.88,2.138,2.138,0,0,1,.964-.281c1.909,0,3.153,2.406,4.212,2.406s1.246-3.054-.56-3.831C249.552,193.055,247.787,189.508,252.336,187.143Z" transform="translate(-192.332 -162.776)"/><path class="n" d="M289.621,205.033l1.918,2.637a.473.473,0,0,0,.635.117l1.465-.954a.478.478,0,0,0,.132-.129l3.561-5.237a.473.473,0,0,0,.006-.519l-.087-.134a.473.473,0,0,0-.616-.158l-6.857,3.686a.473.473,0,0,0-.158.689Z" transform="translate(-203.913 -166.539)"/><path class="n" d="M294.844,207.39l8.844,7.488a.57.57,0,0,0,.832-.1l2.733-3.832a.57.57,0,0,0-.084-.755l-6.083-5.454a4.633,4.633,0,0,0-2.606-1.158l-.973-.1Z" transform="translate(-205.037 -167.146)"/><path class="y" d="M275.509,192.044l18.663-10.032,6.1,11.025-18.708,10.057a2.113,2.113,0,0,1-2.849-.838l-4.057-7.33a2.114,2.114,0,0,1,.848-2.882Z" transform="translate(-200.707 -162.601)"/><path class="n" d="M310.483,158.992c1.734,4.78-6.857,15.856-11,18.144l6.1,11.025c4.146-2.279,18.1-3.626,21.212.394Z" transform="translate(-206.021 -157.725)"/><path class="t" d="M314.665,157.769,331.12,187.58a.743.743,0,0,1-.277,1l-.046.027a.744.744,0,0,1-1.025-.284l-16.454-29.81a.744.744,0,0,1,.277-1l.046-.027a.743.743,0,0,1,1.024.284Z" transform="translate(-208.931 -157.385)"/><path class="r" d="M307.571,209.264l-5.634-4.553a1.4,1.4,0,0,0-2.1.405l-1.452,2.59c-.027-.013-.05-.03-.079-.041l-1.518-.623a1.837,1.837,0,0,0-2.071.481l-1.8,2.03a1.839,1.839,0,0,0-.107,2.308l2.59-.772.41-.649h1.954a1.435,1.435,0,0,0,.495-.091l.709,1.728a2.192,2.192,0,0,0,.732.935l.93.683a2.2,2.2,0,0,0,1.3.426h2.349a2.2,2.2,0,0,0,1.491-.583l2.4-2.221A1.876,1.876,0,0,0,307.571,209.264Z" transform="translate(-204.53 -167.343)"/><path class="w" d="M253.141,208.546c2.409,2.588,5.851,3.515,8.176,2.849" transform="translate(-196.204 -168.221)"/><path class="w" d="M192.959,320.851a3.038,3.038,0,0,0-.128-3.217l-2.335-3.425-1.813-3.178.648-2.237-8.151-1.412" transform="translate(-180.962 -189.156)"/><path class="w" d="M223.343,293.161h41.965a455.922,455.922,0,0,0-.113-65.461,11.926,11.926,0,0,0-13.653-10.835" transform="translate(-189.892 -169.955)"/><path class="w" d="M258.971,321.767a12.247,12.247,0,0,1-2.252,6.03c-2.372,3.31-6.219,9.149-7.409,13.748-1.769,6.81-2.45,19.918-2.45,19.918" transform="translate(-194.874 -192.203)"/><path class="w" d="M200.976,268.436s10.107-10.483,15-14.96a23.111,23.111,0,0,0,7.467-15.115" transform="translate(-185.155 -174.536)"/><path class="w" d="M296.7,212.039h1.954a1.435,1.435,0,0,0,.495-.091l.709,1.729a2.193,2.193,0,0,0,.732.935l.93.683a2.2,2.2,0,0,0,1.3.426h2.349a2.2,2.2,0,0,0,1.491-.583" transform="translate(-205.431 -168.942)"/><path class="w" d="M304.556,224.568l-9.976-2.353-3.878,17.2" transform="translate(-204.16 -171.117)"/><path class="w" d="M310.483,158.992c1.734,4.78-6.857,15.856-11,18.144l6.1,11.025" transform="translate(-206.021 -157.725)"/><path class="z" d="M329.771,188.359l-16.454-29.81a.744.744,0,0,1,.277-1" transform="translate(-208.931 -157.419)"/><path class="w" d="M300.346,196l-18.708,10.057a2.113,2.113,0,0,1-2.849-.838l-4.057-7.33" transform="translate(-200.777 -165.564)"/><path class="s" d="M228.1,359.755s1.726-21.649,1.021-46.054" transform="translate(-190.9 -190.495)"/><path class="s" d="M255.192,212.4l-6.376,8.755L234.047,218.9" transform="translate(-192.16 -169.038)"/></g><g transform="translate(920.695 2423.408)"><path class="p" d="M330.4,170.569l12.6-12.941-.117,8.784Z" transform="translate(-329.584 -156.723)"/><path class="p" d="M331.32,176.766h9.343l1.823,4.134Z" transform="translate(-329.78 -160.777)"/><path class="p" d="M329.366,168.082l1.84-10.127,4.352-1.475Z" transform="translate(-329.366 -156.48)"/></g><path class="t" d="M342.481,376.069H194.839a1.97,1.97,0,0,1-1.97-1.97h0a1.97,1.97,0,0,1,1.97-1.97H342.481a1.97,1.97,0,0,1,1.97,1.97h0A1.97,1.97,0,0,1,342.481,376.069Z" transform="translate(620.241 2221.25)"/><g transform="translate(924.356 2462.251)"><path class="aa" d="M358.939,211.682a6.524,6.524,0,0,0-7.228,0l-16.7,11.113a2.24,2.24,0,0,0-1,1.865V250.48h42.622V224.658a2.239,2.239,0,0,0-1-1.865Z" transform="translate(-334.012 -206.785)"/><path class="c" d="M376.635,228.02l-17.717,14.062a6.762,6.762,0,0,0-7.189,0L334.013,228.02v.668l17.25,13.695-17.253,11.479v.315h.473l17.369-11.556a6.248,6.248,0,0,1,6.936,0l17.373,11.552h.473v-.315l-17.253-11.474,17.253-13.695Z" transform="translate(-334.011 -210.477)"/><g transform="translate(4.394)"><g transform="translate(0 0)"><path class="ab" d="M352.91,237.367a6.762,6.762,0,0,1,7.189,0l13.32-10.576V211.365l-5.6-5.6h-28.23v21.03Z" transform="translate(-339.586 -205.762)"/></g><path class="s" d="M367.82,205.762H339.586v21.03" transform="translate(-339.586 -205.762)"/><path class="ac" d="M375.408,211.365h5.6l-5.6-5.6Z" transform="translate(-347.174 -205.762)"/></g><g transform="translate(10.929 9.402)"><rect class="ac" width="20.668" height="1.661"/><rect class="ac" width="20.668" height="1.661" transform="translate(0 3.044)"/><rect class="ac" width="20.668" height="1.661" transform="translate(0 6.087)"/><rect class="ac" width="20.668" height="1.661" transform="translate(0 9.13)"/><rect class="ac" width="20.668" height="1.661" transform="translate(0 12.174)"/></g></g><g transform="translate(899.244 2496.632)"><path class="ad" d="M328.387,274.47c-3.271-3.272-8.052-8.58-8.052-15.893a8.684,8.684,0,0,0-.113-1.477,8.286,8.286,0,0,0-14.046-4.353,1.618,1.618,0,0,1-1.34.456l-2.452-.282a.21.21,0,0,0-.192.334l1.527,2.033a1.624,1.624,0,0,1,.289,1.353,8.676,8.676,0,0,0-.225,1.936c-.13,10.362,8.265,19.941,24.044,17.631a1.017,1.017,0,0,0,.56-1.738Z" transform="translate(-302.151 -249.574)"/><path class="ae" d="M333.447,249.57l-17,12.84,8.858,8.461a15.185,15.185,0,0,0,7.5-7.935.917.917,0,0,0-1.076-1.222,17.374,17.374,0,0,0,2.109-4.335.917.917,0,0,0-1.432-1l-.224.169a21.932,21.932,0,0,0,2.707-6.006.918.918,0,0,0-1.442-.972Z" transform="translate(-305.179 -249.383)"/><line class="z" y1="8.851" x2="11.717" transform="translate(11.268 4.177)"/></g><g transform="translate(926.293 2417.156)"><path class="aa" d="M363.055,163.487v-4.739l-26.586-10.2Z" transform="translate(-336.469 -148.549)"/><path class="af" d="M362.206,160.738l.851,2.749-26.586-14.935Z" transform="translate(-336.469 -148.549)"/><path class="af" d="M362.206,160.737l-5.1,11.917-20.638-24.1Zm.851-1.99,4.059-9.49-30.645-.709Z" transform="translate(-336.469 -148.548)"/></g><g transform="translate(800.481 2539.489)"><g transform="translate(139.492)"><path class="aa" d="M378.087,303.757a28.893,28.893,0,0,0-4.281,5.315c-1.726,2.462-3.756,5.424-6.335,8.551-1.565,1.926-3.1,3.735-4.559,5.445-1.434,1.723-2.819,3.324-4.02,4.832a39.336,39.336,0,0,0-5.067,7.309c.788-1.762,1.5-4.821,2.916-8.543a48.371,48.371,0,0,1,2.715-5.956,41.836,41.836,0,0,1,4.183-6.235,33.371,33.371,0,0,1,8.478-7.217C374.743,305.634,376.942,304.689,378.087,303.757Z" transform="translate(-353.826 -303.757)"/></g><g transform="translate(16.542 19.237)"><path class="aa" d="M197.835,328.164c1.066,1.064,3.18,2.268,5.708,4.114a39.632,39.632,0,0,1,8.17,7.746,54.31,54.31,0,0,1,7.015,12.311c1.568,3.718,2.507,6.773,3.433,8.512a49.361,49.361,0,0,0-5.545-7.206c-2.575-3.011-5.7-6.525-8.828-10.574a88.13,88.13,0,0,1-6.073-9.106A34.334,34.334,0,0,0,197.835,328.164Z" transform="translate(-197.835 -328.164)"/></g><g transform="translate(0 36.242)"><path class="aa" d="M177.238,349.739a6.465,6.465,0,0,0,1.97,2.484,20.771,20.771,0,0,1,3.1,3.3c1.139,1.622,1.986,3.343,2.916,4.813a8.475,8.475,0,0,0,2.647,3.034c-.771-.374-2.286-.43-4.144-1.055a11.876,11.876,0,0,1-2.884-1.4,10.347,10.347,0,0,1-2.618-2.563,8.34,8.34,0,0,1-1.349-5.272C176.961,351.525,177.38,350.38,177.238,349.739Z" transform="translate(-176.848 -349.739)"/></g><g transform="translate(163.238 40.691)"><path class="aa" d="M398.4,355.383a12.388,12.388,0,0,0-1.487,2.927,10.514,10.514,0,0,1-3.1,4.035A15.6,15.6,0,0,1,388,364.889a20.708,20.708,0,0,0-4.047,1.044,13.98,13.98,0,0,0,2.7-3.125,21.578,21.578,0,0,1,4.188-4.433C393.716,356.215,397.393,356.279,398.4,355.383Z" transform="translate(-383.954 -355.383)"/></g></g><path class="z" d="M327.686,274.178a15.185,15.185,0,0,0,7.5-7.935.917.917,0,0,0-1.076-1.222" transform="translate(591.685 2243.943)"/></g></g></svg>