<svg xmlns="http://www.w3.org/2000/svg" viewBox="0 0 34.742 25.092">
    <defs>
        <style>
            .cls-1{fill:#104d80}
        </style>
    </defs>
    <g id="noun_Email_429221">
        <path id="Path_7774" d="M79.312 26.051L69.523 35.3l9.789 9.246a3.825 3.825 0 0 0 .046-.56V26.61a3.814 3.814 0 0 0-.046-.559z" class="cls-1" data-name="Path 7774" transform="translate(-44.615 -22.75)"/>
        <path id="Path_7775" d="M25.9 32.483l14.357-13.558a3.855 3.855 0 0 0-2.988-1.425H10.247a3.858 3.858 0 0 0-2.989 1.425l14.356 13.559a3.2 3.2 0 0 0 4.286-.001z" class="cls-1" data-name="Path 7775" transform="translate(-6.386 -17.5)"/>
        <path id="Path_7776" d="M5.046 26.049a3.879 3.879 0 0 0-.046.56v17.372a3.879 3.879 0 0 0 .046.56l9.789-9.247z" class="cls-1" data-name="Path 7776" transform="translate(-5 -22.749)"/>
        <path id="Path_7777" d="M27.227 55.951a5.116 5.116 0 0 1-6.938 0l-2.662-2.514-10.368 9.794a3.856 3.856 0 0 0 2.988 1.425h27.022a3.856 3.856 0 0 0 2.988-1.425l-10.368-9.794z" class="cls-1" data-name="Path 7777" transform="translate(-6.387 -39.564)"/>
    </g>
</svg>
