<?xml version="1.0" encoding="utf-8"?>
<!-- Generator: Adobe Illustrator 23.0.3, SVG Export Plug-In . SVG Version: 6.00 Build 0)  -->
<svg version="1.1" id="Layer_1" xmlns="http://www.w3.org/2000/svg" xmlns:xlink="http://www.w3.org/1999/xlink" x="0px" y="0px"
	 viewBox="0 0 84 84" style="enable-background:new 0 0 84 84;" xml:space="preserve">
<style type="text/css">
	.st0{fill:#3C3C3B;stroke:#FFFFFF;stroke-width:0.5;stroke-miterlimit:10;}
</style>
<path class="st0" d="M80.2,33.1L68.3,26c0,0,0-0.1,0-0.1V3.2c0-0.7-0.5-1.2-1.2-1.2h-5.2c-0.7,0-1.2,0.5-1.2,1.2s0.5,1.2,1.2,1.2h4
	v20.2l-10.6-6.3h5.4c0.7,0,1.2-0.5,1.2-1.2c0-0.7-0.5-1.2-1.2-1.2h-9.2c-0.1,0-0.1,0-0.2,0l-4.5-2.7h13.8c0.7,0,1.2-0.5,1.2-1.2
	c0-0.7-0.5-1.2-1.2-1.2H43.1c0,0-0.1,0-0.1,0l-6-3.6c-0.6-0.3-1.3-0.1-1.6,0.4L35,8.3H23c-0.7,0-1.2,0.5-1.2,1.2v12.6
	c0,0.7,0.5,1.2,1.2,1.2h3l-8.1,13.5V4.4h38.6c0.7,0,1.2-0.5,1.2-1.2S57.1,2,56.4,2H16.7c-0.7,0-1.2,0.5-1.2,1.2v37.5L4.2,59.5
	c-0.3,0.6-0.2,1.3,0.4,1.6l34.6,20.8c0.3,0.2,0.6,0.2,0.9,0.1l13.8-3.5c0.3-0.1,0.6-0.3,0.7-0.5l7.9-13.1h4.5c0.7,0,1.2-0.5,1.2-1.2
	v-8.3l12.3-20.6C80.9,34.2,80.8,33.5,80.2,33.1z M27.4,20.9h-3.2V10.7h9.4L27.4,20.9C27.4,20.9,27.4,20.9,27.4,20.9z M42.3,79
	l3.1-5.2l5.2,3.1l-0.9,0.2L42.3,79z M65.9,62.5H64l1.9-3.2V62.5z M53.2,75.7l-7.6-4.6c-0.6-0.3-1.3-0.2-1.6,0.4l-4.6,7.6L6.9,59.7
	L36.8,9.8L78,34.6L53.2,75.7z"/>
<path class="st0" d="M44.8,23.5l8.6,5.2c0.2,0.1,0.4,0.2,0.6,0.2c0.4,0,0.8-0.2,1-0.6c0.3-0.6,0.2-1.3-0.4-1.6l-8.6-5.2
	c-0.6-0.3-1.3-0.2-1.6,0.4C44.1,22.4,44.3,23.2,44.8,23.5z"/>
<path class="st0" d="M57.8,31.3l11.9,7.1c0.6,0.4,1.4,0.1,1.7-0.5c0.2-0.5,0-1.2-0.5-1.5L59,29.3c-0.6-0.3-1.3-0.2-1.6,0.4
	C57.1,30.2,57.2,30.9,57.8,31.3z"/>
<path class="st0" d="M33.4,25.4l9.7,5.8c0.2,0.1,0.4,0.2,0.6,0.2c0.4,0,0.8-0.2,1-0.6c0.3-0.6,0.2-1.3-0.4-1.6l-9.7-5.8
	c-0.6-0.3-1.3-0.2-1.6,0.4S32.8,25.1,33.4,25.4z"/>
<path class="st0" d="M67,42.9l-18.4-11c-0.6-0.3-1.3-0.2-1.6,0.4c-0.3,0.6-0.2,1.3,0.4,1.6l18.4,11c0.6,0.4,1.4,0.1,1.7-0.5
	C67.7,43.8,67.5,43.2,67,42.9z"/>
<path class="st0" d="M63.8,48.3L31.4,28.8c-0.6-0.3-1.3-0.2-1.6,0.4c-0.3,0.6-0.2,1.3,0.4,1.6l32.4,19.5c0.6,0.4,1.4,0.1,1.7-0.5
	C64.5,49.2,64.3,48.6,63.8,48.3z"/>
<path class="st0" d="M60.5,53.7L35.7,38.8c-0.6-0.3-1.3-0.2-1.6,0.4c-0.3,0.6-0.2,1.3,0.4,1.6l24.8,14.9c0.6,0.4,1.4,0.1,1.7-0.5
	C61.2,54.6,61,54,60.5,53.7z"/>
<path class="st0" d="M23.7,41.6l19.4,11.7c0.2,0.1,0.4,0.2,0.6,0.2c0.4,0,0.8-0.2,1-0.6c0.3-0.6,0.2-1.3-0.4-1.6L24.9,39.6
	c-0.6-0.3-1.3-0.2-1.6,0.4C22.9,40.6,23.1,41.3,23.7,41.6z"/>
<path class="st0" d="M57.3,59.1l-8.6-5.2c-0.6-0.3-1.3-0.2-1.6,0.4c-0.3,0.6-0.2,1.3,0.4,1.6l8.6,5.2c0.6,0.4,1.4,0.1,1.7-0.5
	C58,60,57.8,59.4,57.3,59.1z"/>
<path class="st0" d="M20.4,47l7.6,4.5c0.2,0.1,0.4,0.2,0.6,0.2c0.4,0,0.8-0.2,1-0.6c0.3-0.6,0.2-1.3-0.4-1.6L21.6,45
	c-0.6-0.3-1.3-0.2-1.6,0.4C19.7,46,19.9,46.7,20.4,47z"/>
<path class="st0" d="M54,64.5L33.5,52.1c-0.6-0.3-1.3-0.2-1.6,0.4c-0.3,0.6-0.2,1.3,0.4,1.6l20.5,12.3c0.6,0.4,1.4,0.1,1.7-0.5
	C54.8,65.4,54.6,64.8,54,64.5z"/>
<path class="st0" d="M50.8,69.9L18.4,50.4c-0.6-0.3-1.3-0.2-1.6,0.4c-0.3,0.6-0.2,1.3,0.4,1.6l32.4,19.5c0.6,0.4,1.4,0.1,1.7-0.5
	C51.5,70.8,51.3,70.2,50.8,69.9z"/>
<path class="st0" d="M28.1,63.6l-13-7.8c-0.6-0.3-1.3-0.2-1.6,0.4c-0.3,0.6-0.2,1.3,0.4,1.6l13,7.8c0.2,0.1,0.4,0.2,0.6,0.2
	c0.4,0,0.8-0.2,1-0.6C28.9,64.7,28.7,63.9,28.1,63.6z"/>
<path class="st0" d="M40,70.7l-7.6-4.5c-0.6-0.3-1.3-0.2-1.6,0.4c-0.3,0.6-0.2,1.3,0.4,1.6l7.6,4.5c0.6,0.4,1.4,0.1,1.7-0.5
	C40.7,71.7,40.5,71,40,70.7z"/>
</svg>
