<svg xmlns="http://www.w3.org/2000/svg" width="373.318" height="361.466" viewBox="0 0 373.318 361.466"><defs><style>.a{fill:#fff;}.b{fill:#ffffe8;}.c{fill:#dbeaf3;}.d{fill:#2e637d;}.e{fill:#357893;}.f{fill:#8ecaee;}.g{opacity:0.56;}.h{fill:#7fb3d4;}.i{fill:#404143;}.j{fill:#fec661;}.k{fill:#676b6c;}.l{fill:#e0e1e2;}.m{fill:#db5240;}.n{fill:#6a5753;}.o{fill:#fcb762;}.p{fill:#b64433;}.q{fill:#fff7c1;}.r{fill:#f2c593;}.s{fill:#e1d5db;}.t{fill:#73605a;}.u{fill:#7ec0ea;}.v{fill:#fbfbfb;}.w{fill:#2d4762;}.x{fill:#c4e9fb;}.y{fill:#343537;}.z{fill:#ffc650;}.aa{fill:#ffd283;}.ab{opacity:0.39;}.ac{fill:#fcb650;}.ad{fill:#f9a346;}.ae{fill:#f78f37;}.af{fill:#aedef5;}.ag{fill:#c5e9f7;}.ah{fill:#addcf6;}.ai{fill:#eef8f9;}.aj{fill:#d1edf9;}.ak{fill:#d6eefa;}.al{fill:#d5edf7;}.am{fill:#8ec0f3;}.an{fill:#aee0f9;}.ao{fill:#90b9f1;}.ap{fill:#c0c2c4;}.aq{opacity:0.32;}.ar{fill:#ffed67;}.as{fill:#4788a1;}</style></defs><g transform="translate(-770.682 -3216)"><path class="a" d="M198.77-39.448c84.707,0,99.6,102.469,99.6,187.176A153.376,153.376,0,0,1,144.99,301.1c-84.707,0-203.567-108.079-203.567-192.786S114.063-39.448,198.77-39.448Z" transform="translate(837.577 3276.361)"/><g transform="translate(198.682 2449.834)"><path class="b" d="M350.957,96.06a6.6,6.6,0,0,1-6.6,6.6,6.6,6.6,0,0,1,6.577,6.087h0a6.616,6.616,0,0,1,6.587-6.087,6.606,6.606,0,0,1-6.568-6.6Z" transform="translate(505.248 690.531)"/><path class="b" d="M80.866,144.54a6.616,6.616,0,0,1-6.606,6.606,6.606,6.606,0,0,1,6.587,6.077h0a6.587,6.587,0,0,1,6.626-6.077A6.606,6.606,0,0,1,80.866,144.54Z" transform="translate(515.617 688.67)"/><path class="b" d="M399.722,154.5a5.2,5.2,0,0,1-5.2,5.2,5.2,5.2,0,0,1,5.183,4.808h0A5.2,5.2,0,0,1,404.9,159.7,5.212,5.212,0,0,1,399.722,154.5Z" transform="translate(503.323 688.288)"/><path class="b" d="M332.662,81.37a5.212,5.212,0,0,1-5.2,5.212,5.2,5.2,0,0,1,5.183,4.808h0a5.2,5.2,0,0,1,5.193-4.808,5.212,5.212,0,0,1-5.174-5.212Z" transform="translate(505.897 691.095)"/><path class="b" d="M151.792,74.82a5.2,5.2,0,0,1-5.2,5.2,5.212,5.212,0,0,1,5.193,4.808h0a5.212,5.212,0,0,1,5.193-4.808A5.212,5.212,0,0,1,151.792,74.82Z" transform="translate(512.841 691.346)"/><path class="b" d="M97.046,106.68A2.616,2.616,0,0,1,94.43,109.3a2.616,2.616,0,0,1,2.606,2.4h0a2.616,2.616,0,0,1,2.606-2.4A2.616,2.616,0,0,1,97.046,106.68Z" transform="translate(514.843 690.123)"/><path class="b" d="M427.526,160.37a2.606,2.606,0,0,1-2.606,2.616,2.616,2.616,0,0,1,2.606,2.4h0a2.616,2.616,0,0,1,2.606-2.4A2.616,2.616,0,0,1,427.526,160.37Z" transform="translate(502.156 688.063)"/><path class="b" d="M197.9,77.86a2.606,2.606,0,0,1-2.616,2.606A2.616,2.616,0,0,1,197.9,82.88h0a2.616,2.616,0,0,1,2.606-2.414A2.606,2.606,0,0,1,197.9,77.86Z" transform="translate(510.971 691.23)"/><path class="b" d="M301.9,83a2.606,2.606,0,0,1-2.606,2.616,2.616,2.616,0,0,1,2.606,2.4h0a2.616,2.616,0,0,1,2.606-2.4A2.616,2.616,0,0,1,301.9,83Z" transform="translate(506.978 691.032)"/><path class="b" d="M409.366,126a2.606,2.606,0,0,1-2.606,2.616,2.616,2.616,0,0,1,2.606,2.4h0a2.615,2.615,0,0,1,2.606-2.4A2.616,2.616,0,0,1,409.366,126Z" transform="translate(502.853 689.382)"/><path class="c" d="M180.025,130.738H105.49a10.934,10.934,0,0,1,10.77-9.193,10.78,10.78,0,0,1,3.212.49,10.644,10.644,0,0,1,2.991,1.452,15.84,15.84,0,0,1,.356-2.039,17.79,17.79,0,0,1,34.618.231c.087.375.154.769.221,1.154l.26-.308a12.559,12.559,0,0,1,22.108,8.212Z" transform="translate(514.417 690.077)"/><path class="b" d="M152.185,111.9a17.78,17.78,0,0,1-28.675,9.558,17.771,17.771,0,0,1,28.675-9.549Z" transform="translate(513.726 690.081)"/><path class="b" d="M119.47,122.579A12.6,12.6,0,0,1,108.489,129a11.99,11.99,0,0,1-2.289-.212,10.9,10.9,0,0,1,10.058-6.731A10.78,10.78,0,0,1,119.47,122.579Z" transform="translate(514.39 689.533)"/><path class="b" d="M158.27,118.47a17.808,17.808,0,0,1,1.231,3.616A12.271,12.271,0,0,1,158.27,118.47Z" transform="translate(512.391 689.671)"/><path class="b" d="M180.194,124.562A12.578,12.578,0,0,1,160,122.936a12.559,12.559,0,0,1,20.194,1.625Z" transform="translate(512.325 689.666)"/><path class="c" d="M435.327,196.833H363.11a10.1,10.1,0,0,1,.692-2.414,10.578,10.578,0,0,1,9.78-6.491,10.4,10.4,0,0,1,6.01,1.875,16.54,16.54,0,0,1,.346-1.923,17.232,17.232,0,0,1,32.4-3.289,16.961,16.961,0,0,1,1.192,3.51c.087.365.154.74.212,1.115l.26-.3a12.184,12.184,0,0,1,21.367,7.962Z" transform="translate(504.529 687.515)"/><path class="b" d="M408.37,178.571a17.251,17.251,0,0,1-27.8,9.26,17.242,17.242,0,0,1,27.8-9.26Z" transform="translate(503.858 687.517)"/><path class="b" d="M376.687,188.922a12.184,12.184,0,0,1-10.645,6.231,11.971,11.971,0,0,1-2.212-.2,10.578,10.578,0,0,1,9.78-6.491A10.714,10.714,0,0,1,376.687,188.922Z" transform="translate(504.501 686.984)"/><path class="b" d="M414.26,184.94a16.965,16.965,0,0,1,1.192,3.51,11.837,11.837,0,0,1-1.192-3.51Z" transform="translate(502.565 687.12)"/><path class="b" d="M435.521,190.85A12.184,12.184,0,0,1,416,189.273a12.174,12.174,0,0,1,19.53,1.577Z" transform="translate(502.498 687.113)"/><path class="c" d="M131.259,191.683H81.13A7.039,7.039,0,0,1,81.6,190a7.328,7.328,0,0,1,10.943-3.2,11.114,11.114,0,0,1,.24-1.375,11.962,11.962,0,0,1,22.483-2.279,11.25,11.25,0,0,1,.827,2.443c.058.25.115.51.154.769l.173-.2a8.462,8.462,0,0,1,14.838,5.529Z" transform="translate(515.353 687.453)"/><path class="b" d="M112.54,179a11.962,11.962,0,0,1-19.29,6.424A11.962,11.962,0,0,1,112.54,179Z" transform="translate(514.888 687.453)"/><path class="b" d="M90.553,186.187a8.491,8.491,0,0,1-7.395,4.327,8.186,8.186,0,0,1-1.539-.144A7.337,7.337,0,0,1,90.553,186.187Z" transform="translate(515.334 687.084)"/><path class="b" d="M116.63,183.42a11.251,11.251,0,0,1,.827,2.442A8.519,8.519,0,0,1,116.63,183.42Z" transform="translate(513.991 687.178)"/><path class="b" d="M131.4,187.53a8.472,8.472,0,0,1-13.568-1.1,8.443,8.443,0,0,1,13.568,1.1Z" transform="translate(513.944 687.174)"/><path class="a" d="M401.883,352.526a23.643,23.643,0,0,1-2.942-.125,1.569,1.569,0,1,1,.279-3.125,31.588,31.588,0,0,0,4.471.058,1.57,1.57,0,1,1,.183,3.135Q402.892,352.526,401.883,352.526Zm6.558-.692a1.567,1.567,0,0,1-.327-3.106,28.747,28.747,0,0,0,4.279-1.26,1.569,1.569,0,1,1,1.115,2.933,32.327,32.327,0,0,1-4.741,1.4,1.926,1.926,0,0,1-.337.029Zm-14-.2a1.619,1.619,0,0,1-.365,0,33.18,33.18,0,0,1-4.7-1.539,1.567,1.567,0,1,1,1.2-2.885,29.963,29.963,0,0,0,4.241,1.394,1.567,1.567,0,0,1-.375,3.087Zm22.771-3.087a1.567,1.567,0,0,1-.779-2.885,30.056,30.056,0,0,0,3.712-2.481,1.567,1.567,0,1,1,1.923,2.462,32.43,32.43,0,0,1-4.1,2.75,1.614,1.614,0,0,1-.76.154Zm-31.435-.462a1.587,1.587,0,0,1-.817-.221,32.837,32.837,0,0,1-4.02-2.885,1.567,1.567,0,1,1,2.01-2.4,30,30,0,0,0,3.635,2.587,1.577,1.577,0,0,1,.529,2.164,1.558,1.558,0,0,1-1.337.721Zm38.811-5.327a1.529,1.529,0,0,1-1.077-.423,1.567,1.567,0,0,1-.067-2.221,29.525,29.525,0,0,0,2.808-3.471,1.568,1.568,0,1,1,2.577,1.789,32.838,32.838,0,0,1-3.106,3.846,1.549,1.549,0,0,1-1.135.442Zm-46.023-.673a1.558,1.558,0,0,1-1.173-.529,33.768,33.768,0,0,1-2.991-3.923,1.571,1.571,0,1,1,2.635-1.712,29.518,29.518,0,0,0,2.7,3.548,1.577,1.577,0,0,1-.125,2.221,1.6,1.6,0,0,1-1.048.356Zm51.35-7.039a1.586,1.586,0,0,1-.683-.163,1.558,1.558,0,0,1-.721-2.1,30.341,30.341,0,0,0,1.644-4.154,1.571,1.571,0,0,1,2.991.962,31.518,31.518,0,0,1-1.818,4.6,1.577,1.577,0,0,1-1.414.818Zm-56.447-.827a1.577,1.577,0,0,1-1.433-.962,33.053,33.053,0,0,1-1.683-4.645,1.568,1.568,0,0,1,3.019-.846,30.843,30.843,0,0,0,1.519,4.2,1.558,1.558,0,0,1-1.423,2.212Zm59.235-8.135h-.231a1.577,1.577,0,0,1-1.318-1.789,29.871,29.871,0,0,0,.327-4.452,1.587,1.587,0,0,1,.895-1.423,1.567,1.567,0,0,1-1.019-1.327,29.649,29.649,0,0,0-.741-4.4,1.57,1.57,0,1,1,3.048-.75,31.941,31.941,0,0,1,.818,4.866,1.683,1.683,0,0,0,.144,3.039,32.481,32.481,0,0,1-.376,4.927,1.558,1.558,0,0,1-1.548,1.275Zm-61.774-.933a1.577,1.577,0,0,1-1.558-1.385,34.131,34.131,0,0,1-.241-3.971v-.962a1.548,1.548,0,0,1,1.616-1.529,1.567,1.567,0,0,1,1.519,1.615v.865a29.8,29.8,0,0,0,.212,3.6,1.567,1.567,0,0,1-1.366,1.75Zm.279-9.376h-.279a1.567,1.567,0,0,1-1.269-1.827,32.926,32.926,0,0,1,1.24-4.808,1.571,1.571,0,1,1,2.971,1.019,30.31,30.31,0,0,0-1.125,4.318,1.567,1.567,0,0,1-1.529,1.3Zm59.447-6.4a1.577,1.577,0,0,1-1.452-.962,29.177,29.177,0,0,0-2.019-3.981,1.568,1.568,0,0,1,2.683-1.625,32.564,32.564,0,0,1,2.241,4.395,1.568,1.568,0,0,1-.846,2.048,1.52,1.52,0,0,1-.6.125Zm-56.408-2.462a1.52,1.52,0,0,1-.721-.183,1.567,1.567,0,0,1-.663-2.116,32.5,32.5,0,0,1,2.616-4.193,1.568,1.568,0,1,1,2.529,1.856,30.766,30.766,0,0,0-2.366,3.789,1.567,1.567,0,0,1-1.385.846Zm51.543-5.548a1.6,1.6,0,0,1-1.212-.558,28.845,28.845,0,0,0-3.116-3.2,1.57,1.57,0,0,1,2.077-2.356,34.242,34.242,0,0,1,3.452,3.539,1.577,1.577,0,0,1-.2,2.212,1.51,1.51,0,0,1-.991.365Zm-45.984-2.01a1.548,1.548,0,0,1-1.106-.462,1.567,1.567,0,0,1,0-2.221,33.086,33.086,0,0,1,3.769-3.221,1.57,1.57,0,0,1,1.875,2.519,28.843,28.843,0,0,0-3.385,2.885,1.577,1.577,0,0,1-1.144.5Zm38.945-4.2a1.519,1.519,0,0,1-.846-.25,29.157,29.157,0,0,0-3.923-2.125,1.578,1.578,0,0,1,1.279-2.885,32.682,32.682,0,0,1,4.346,2.356,1.567,1.567,0,0,1-.856,2.885Zm-31.4-1.414a1.567,1.567,0,0,1-.731-2.952,32.579,32.579,0,0,1,4.529-1.971,1.586,1.586,0,1,1,1.029,3,30.308,30.308,0,0,0-4.1,1.779A1.528,1.528,0,0,1,387.353,293.732Zm22.848-2.462a1.527,1.527,0,0,1-.413-.058,29.444,29.444,0,0,0-4.385-.856,1.569,1.569,0,0,1,.375-3.116,31.992,31.992,0,0,1,4.808.962,1.567,1.567,0,0,1-.423,3.077Zm-13.982-.606a1.567,1.567,0,0,1-.288-3.116,32.363,32.363,0,0,1,4.914-.519,1.568,1.568,0,1,1,.1,3.135,29.873,29.873,0,0,0-4.443.471Z" transform="translate(504.297 683.201)"/><path class="d" d="M425.224,308.586l-2.087,10.962C421.06,330.5,412.8,339.636,401.02,343.993l-.26.1a6.109,6.109,0,0,1-1.164.308,6.608,6.608,0,0,1-3.347-.308,6.433,6.433,0,0,1-2.385-1.49c-.51-.51-1.01-1.029-1.481-1.567a37.843,37.843,0,0,1-3.625-4.722,31.282,31.282,0,0,1-4.779-22.973l2.3-12.136,2.048.394c2.712.51,5.231-.76,5.625-2.837l.394-2.048,13.607,2.577,5.52,1.058,4.952.962.962.183-.394,2.058a3.232,3.232,0,0,0,.539,2.4,5.558,5.558,0,0,0,3.664,2.289Z" transform="translate(503.747 682.829)"/><path class="e" d="M413.665,300.428l-21.04,40.705A37.853,37.853,0,0,1,389,336.411l19.146-37.041Z" transform="translate(503.535 682.727)"/><path class="e" d="M420.073,306.083l-19.886,38.465a6.606,6.606,0,0,1-3.346-.308l22.117-42.83.962.183-.394,2.058a3.231,3.231,0,0,0,.548,2.433Z" transform="translate(503.234 682.649)"/><path class="f" d="M415.321,305.621l-18.367-3.491c-.529,2.818-3.7,4.577-7.068,3.943l-1.673,8.837c-1.606,8.414,1.414,17.242,8.2,24.04h0a4,4,0,0,0,4.116.885l.231-.077c9.722-3.606,16.492-11.078,18.2-20.069l1.481-7.808C417.081,311.237,414.782,308.438,415.321,305.621Z" transform="translate(503.581 682.621)"/><g class="g" transform="translate(891.355 984.751)"><path class="h" d="M389.655,316.756l1.683-8.847c3.366.644,6.529-1.125,7.068-3.933l16.9,3.2a4.254,4.254,0,0,1,0-1.558l-18.367-3.491c-.529,2.818-3.7,4.577-7.068,3.943l-1.673,8.837c-1.442,7.577.875,15.492,6.308,21.963a25.964,25.964,0,0,1-4.846-20.117Z" transform="translate(-387.774 -302.13)"/></g><path class="a" d="M93.389,260.669a26.439,26.439,0,0,1-4.1-.317,1.577,1.577,0,1,1,.49-3.106,23.165,23.165,0,0,0,4.395.269,1.568,1.568,0,1,1,.106,3.135Zm5.5-.625a1.567,1.567,0,0,1-.346-3.1,22.783,22.783,0,0,0,4.164-1.394,1.578,1.578,0,1,1,1.279,2.885,25.657,25.657,0,0,1-4.741,1.587,1.545,1.545,0,0,1-.356.019Zm-13.9-.856a1.48,1.48,0,0,1-.538-.1,26.308,26.308,0,0,1-4.52-2.154,1.577,1.577,0,0,1,1.625-2.692,23.448,23.448,0,0,0,3.962,1.923,1.567,1.567,0,0,1-.529,3.039Zm22.406-2.943a1.6,1.6,0,0,1-1.289-.673,1.567,1.567,0,0,1,.385-2.183,23.2,23.2,0,0,0,3.346-2.885,1.571,1.571,0,0,1,2.26,2.183,27.121,27.121,0,0,1-3.846,3.25,1.6,1.6,0,0,1-.856.308Zm-30.464-1.923a1.558,1.558,0,0,1-1.048-.4,26.117,26.117,0,0,1-3.375-3.693,1.581,1.581,0,1,1,2.51-1.923,23.137,23.137,0,0,0,2.971,3.25,1.567,1.567,0,0,1,.106,2.212,1.539,1.539,0,0,1-1.125.6Zm36.964-4.808a1.577,1.577,0,0,1-1.317-2.423,22.5,22.5,0,0,0,2.039-3.9,1.567,1.567,0,1,1,2.885,1.183A26.24,26.24,0,0,1,115.2,248.8a1.568,1.568,0,0,1-1.26.712Zm-42.59-2.625A1.577,1.577,0,0,1,69.9,246a26.22,26.22,0,0,1-1.75-4.693,1.572,1.572,0,1,1,3.039-.808,22.4,22.4,0,0,0,1.539,4.125,1.587,1.587,0,0,1-1.414,2.26Zm46.1-6.049a1.567,1.567,0,0,1-1.539-1.866,23.847,23.847,0,0,0,.413-4.385,24.565,24.565,0,0,0-.212-3.145,1.567,1.567,0,0,1,3.106-.423,26.579,26.579,0,0,1-.231,8.549,1.567,1.567,0,0,1-1.5,1.269Zm-48.475-3.01a1.548,1.548,0,0,1-1.558-1.462c0-.587-.067-1.192-.067-1.789a25.466,25.466,0,0,1,.2-3.2,1.57,1.57,0,0,1,3.115.387,22.853,22.853,0,0,0-.173,2.818v1.577a1.567,1.567,0,0,1-1.4,1.673Zm1.154-9.28a1.741,1.741,0,0,1-.49-.077,1.567,1.567,0,0,1-.962-1.981,25.965,25.965,0,0,1,2.01-4.587,1.567,1.567,0,0,1,2.693,1.5,22.049,22.049,0,0,0-1.76,4.029,1.577,1.577,0,0,1-1.491,1.125Zm46.494-.327a1.577,1.577,0,0,1-1.491-1.067,22.7,22.7,0,0,0-1.817-4A1.57,1.57,0,1,1,116,221.589a25.591,25.591,0,0,1,2.067,4.558,1.567,1.567,0,0,1-.962,1.991,1.519,1.519,0,0,1-.519.077Zm-41.946-7.847a1.548,1.548,0,0,1-1.01-.375,1.567,1.567,0,0,1-.192-2.212A26.6,26.6,0,0,1,77,214.3a1.567,1.567,0,1,1,1.923,2.433,23.193,23.193,0,0,0-3.135,3.087,1.6,1.6,0,0,1-1.154.567Zm37.272-.269a1.567,1.567,0,0,1-1.183-.539,23.2,23.2,0,0,0-3.183-3.038,1.567,1.567,0,1,1,1.923-2.462,26.124,26.124,0,0,1,3.625,3.443,1.577,1.577,0,0,1-1.192,2.6ZM81.917,214.5a1.567,1.567,0,0,1-.74-2.952,25.9,25.9,0,0,1,4.625-1.923,1.577,1.577,0,0,1,.914,3.01,23.08,23.08,0,0,0-4.068,1.673A1.529,1.529,0,0,1,81.917,214.5Zm22.636-.163a1.5,1.5,0,0,1-.721-.173,22.737,22.737,0,0,0-4.087-1.616,1.572,1.572,0,1,1,.875-3.019,26.111,26.111,0,0,1,4.645,1.846,1.567,1.567,0,0,1-.712,2.962ZM90.86,211.781a1.567,1.567,0,0,1-.154-3.125,26.224,26.224,0,0,1,4.991,0,1.568,1.568,0,0,1-.269,3.125,23.243,23.243,0,0,0-4.4,0Z" transform="translate(515.883 686.213)"/><path class="i" d="M350.6,216.41H137.67c-7.616,0-13.79,5.625-13.79,12.568V375.644H364.4V228.978C364.4,222.035,358.216,216.41,350.6,216.41Z" transform="translate(513.712 685.911)"/><path class="a" d="M129,371.03V229.173c0-4.231,3.991-7.693,8.895-7.693H350.8c4.9,0,8.895,3.452,8.895,7.693V371.03Z" transform="translate(513.516 685.717)"/><path class="j" d="M132.6,367.632V229.313c0-2.269,2.471-4.183,5.4-4.183h212.93c2.933,0,5.4,1.923,5.4,4.183V367.632Z" transform="translate(513.377 685.576)"/><path class="c" d="M186.849,371.192a25.829,25.829,0,0,1-17.1-6.395,26.637,26.637,0,0,1-10.28,2.077c-14.991,0-26.877-12.626-26.492-28.07s12.741-27.743,27.55-27.743a26.457,26.457,0,0,1,5.395.558,30.676,30.676,0,0,1,29.281-22.377,29.145,29.145,0,0,1,6.549.731,21.983,21.983,0,0,1,21.636-19.828,20.866,20.866,0,0,1,4.375.462l3.366-79.987H266.99l3.6,86.1a15.58,15.58,0,0,1,5.2-.9,16.347,16.347,0,0,1,16.1,15.828,13.559,13.559,0,0,1,8.106,8.308,27.643,27.643,0,0,1,2.962-.154,30.771,30.771,0,0,1,25.3,13.713,25.809,25.809,0,0,1,11.03-2.452c14.818,0,27.175,12.4,27.56,27.743s-11.539,28.069-26.492,28.069a27,27,0,0,1-20.309-9.28,29.434,29.434,0,0,1-16.348,4.972,29.868,29.868,0,0,1-13.155-3.058,33.656,33.656,0,0,1-20.848,7.231,34.157,34.157,0,0,1-25.415-11.424H243.1a34.233,34.233,0,0,1-25.483,11.424A33.244,33.244,0,0,1,204.8,364.2a26.781,26.781,0,0,1-17.953,6.991Z" transform="translate(513.363 686.901)"/><path class="a" d="M339.57,315.772a21.636,21.636,0,0,0-12.674,4.077A26.348,26.348,0,0,0,303.2,304.463a25.279,25.279,0,0,0-6.731.9v-.9a8.943,8.943,0,0,0-8.819-8.943H287.2a12.5,12.5,0,0,0,.433-3.26,11.837,11.837,0,0,0-11.684-11.847,11.434,11.434,0,0,0-9.28,4.808l-3.683-90.151h-27.6l-3.375,82a16.751,16.751,0,0,0-8.443-2.25,17.53,17.53,0,0,0-17.309,17.53,18.273,18.273,0,0,0,.49,4.327,24.934,24.934,0,0,0-11.366-2.731c-13.29,0-24.4,10.376-25.906,23.723a21.656,21.656,0,0,0-8.8-1.856c-12.4,0-22.713,10.366-23.021,23.2s9.616,23.435,22.117,23.435a22.232,22.232,0,0,0,11.107-2.981,21.79,21.79,0,0,0,16.251,7.289,22.415,22.415,0,0,0,16.973-7.885,29.147,29.147,0,0,0,13.751,3.442,29.935,29.935,0,0,0,23.406-11.4h5.2a29.81,29.81,0,0,0,23.377,11.414,29.435,29.435,0,0,0,20.3-8.135,25.589,25.589,0,0,0,13.665,3.962,25.213,25.213,0,0,0,17.213-6.779,22.954,22.954,0,0,0,19.444,11.087c12.5,0,22.444-10.52,22.117-23.435S351.984,315.772,339.57,315.772Zm-72.121-15.52h-.125v-.163Z" transform="translate(513.183 686.731)"/><path class="c" d="M237.832,357.886a16.5,16.5,0,0,1-.644,4.606,16.886,16.886,0,0,1-33.137-4.606,16.686,16.686,0,0,1,1.356-6.626,16.015,16.015,0,0,1,1.2-2.317,16.9,16.9,0,0,1,27.743-1.317c.192.25.375.5.548.76A16.781,16.781,0,0,1,237.832,357.886Z" transform="translate(510.634 681.129)"/><path class="a" d="M234.275,347.626a16.9,16.9,0,0,1-25.54,7.01,16.6,16.6,0,0,1-3.443-3.375c-.115-.144-.221-.279-.317-.423a16.664,16.664,0,0,1-2.885-6.6,16.906,16.906,0,0,1,3.991,4.116c.125.192.26.385.385.587a16.9,16.9,0,0,1,27.743-1.317Z" transform="translate(510.71 681.129)"/><path class="c" d="M208.022,357.886a16.886,16.886,0,1,1-2.943-9.53c.125.192.26.385.385.586a16.779,16.779,0,0,1,2.241,5.693A16.48,16.48,0,0,1,208.022,357.886Z" transform="translate(511.778 681.129)"/><path class="a" d="M205.119,348.357a18.043,18.043,0,0,1-1.135,2.481,16.876,16.876,0,0,1-28.695,1.308,16.886,16.886,0,0,1,29.81-3.789Z" transform="translate(511.739 681.129)"/><path class="c" d="M281.469,351.493a22.819,22.819,0,0,1-43.061,10.578h0a22.743,22.743,0,0,1-2.568-10.52,24.232,24.232,0,0,1,.279-3.568h0a22.819,22.819,0,0,1,45.35,3.577Z" transform="translate(509.414 681.598)"/><path class="a" d="M277.747,338.94a22.809,22.809,0,0,1-40.917,6.029,22.819,22.819,0,0,1,40.917-6.029Z" transform="translate(509.376 681.602)"/><path class="k" d="M138.987,360.25H121.524a3.144,3.144,0,0,0-3.144,3.145v8.029h23.752v-8.029a3.135,3.135,0,0,0-3.144-3.145Z" transform="translate(513.924 680.39)"/><path class="k" d="M166.817,360.25H149.354a3.135,3.135,0,0,0-3.144,3.144v8.03h23.752v-8.03a3.135,3.135,0,0,0-3.145-3.144Z" transform="translate(512.854 680.39)"/><path class="k" d="M194.647,360.25H177.184a3.135,3.135,0,0,0-3.144,3.144v8.03h23.752v-8.03a3.144,3.144,0,0,0-3.144-3.144Z" transform="translate(511.786 680.39)"/><path class="k" d="M284.595,360.25h-77.4a3.135,3.135,0,0,0-3.144,3.144v8.03h83.66v-8.03a3.145,3.145,0,0,0-3.116-3.145Z" transform="translate(510.634 680.39)"/><path class="k" d="M319.737,360.25H302.274a3.135,3.135,0,0,0-3.144,3.145v8.029h23.752v-8.029a3.135,3.135,0,0,0-3.145-3.145Z" transform="translate(506.984 680.39)"/><path class="k" d="M347.567,360.25H330.1a3.135,3.135,0,0,0-3.144,3.144v8.03h23.752v-8.03a3.135,3.135,0,0,0-3.144-3.144Z" transform="translate(505.916 680.39)"/><path class="k" d="M375.4,360.25H357.935a3.135,3.135,0,0,0-3.144,3.145v8.029h23.752v-8.029A3.144,3.144,0,0,0,375.4,360.25Z" transform="translate(504.848 680.39)"/><path class="l" d="M110.842,364.61H375.93a6.472,6.472,0,0,1,6.472,6.472v10.251H104.37V371.043A6.472,6.472,0,0,1,110.842,364.61Z" transform="translate(514.461 680.222)"/><path class="m" d="M288.944,206l2.212,2.308.423.462,8.837,9.443a9.491,9.491,0,0,1,2.115,8.837l-6.972,26.56a1.548,1.548,0,0,1-1.452,1.2H291.05a1.5,1.5,0,0,1-1.442-1.212l-3.481-15.155-.058-.212a5.548,5.548,0,0,0-1.221-2.289,4.972,4.972,0,0,0-2.087-1.423L270,230.04Z" transform="translate(508.103 686.311)"/><path class="m" d="M220.838,206.5l1.837,2.327,16.934,21.463L228.069,234.5l-1.308.481a5.558,5.558,0,0,0-3.4,3.971l-.231,1.01-.4,1.683-2.981,12.5a1.567,1.567,0,0,1-1.462,1.24h-3.048a1.49,1.49,0,0,1-1.442-1.173l-6.731-26.454a9.616,9.616,0,0,1,2.192-8.876l7.481-8.039.192-.2Z" transform="translate(510.53 686.292)"/><path class="n" d="M274.371,248.672l-41.792.337a1.779,1.779,0,0,1-1.606-1.5L226.81,230.6l53.495-.423-4.27,16.973a1.808,1.808,0,0,1-1.664,1.519Z" transform="translate(509.761 685.383)"/><path class="o" d="M222.5,210.39l16.924,21.463-11.539,4.212A136.094,136.094,0,0,1,222.5,210.39Z" transform="translate(509.926 686.142)"/><path class="p" d="M217.342,210.683l3.895-4.183,1.837,2.327,16.934,21.463L228.467,234.5l-1.308.481a5.558,5.558,0,0,0-3.4,3.971l-.231,1.01-.4,1.683a144.972,144.972,0,0,1-5.991-30.772Z" transform="translate(510.133 686.292)"/><path class="p" d="M288.944,206l2.212,2.308.423.462a148.5,148.5,0,0,1-5.51,29.483,5.548,5.548,0,0,0-1.221-2.289,4.972,4.972,0,0,0-2.087-1.423L270,230.04Z" transform="translate(508.103 686.311)"/><path class="q" d="M279.876,232.021a1.866,1.866,0,0,1-1.587,1.4l-26.473.2-23.636.192a1.818,1.818,0,0,1-1.577-1.375c-4.3-12.2-19.559-64.7,14.011-119.375q1.7-2.769,3.568-5.548,3.846-5.683,8.414-11.357a1.539,1.539,0,0,1,2.529,0q4.529,5.6,8.3,11.212c1.24,1.837,2.414,3.683,3.539,5.52C300.022,167.025,284.3,219.741,279.876,232.021Z" transform="translate(510.045 690.552)"/><path class="r" d="M228.6,182.118h4.433c0,2,2,2.337,3,2.385.837,0,2.019-.192,2.019-1.192,0-1.856-9.135-1.067-9.135-7.145,0-3.52,3.327-5.116,5.664-5.116,2,0,4.02.635,4.981,2.423l.231-2h4.1v5.981h-4.327a2.779,2.779,0,0,0-3.048-2.76c-.692,0-1.644.423-1.644,1.26,0,2.452,9.433,1.875,9.433,7.472,0,3.721-3.481,5.049-6.308,5.049a6.4,6.4,0,0,1-4.981-2.192l-.26,1.837H228.6Z" transform="translate(509.691 691.023)"/><path class="r" d="M260.546,171.49v5.3h-4.125v-2.116h-3.846v3.289H257.1v3.164h-4.529v3.846h3.846V182.76h4.125v5.375H246.18v-3.164h1.5V174.634h-1.5V171.49Z" transform="translate(509.017 691.005)"/><path class="r" d="M262.1,179.715c0-5.145,3.433-8.655,8.366-8.655,5.827,0,8.549,3.5,8.549,8.856s-3,8.654-8.385,8.654C265.648,188.552,262.1,185.667,262.1,179.715Zm10.962.163c0-2.885-.789-5.183-2.625-5.183-1.452,0-2.452,2.067-2.452,5.02,0,3.116,1.115,5.1,2.645,5.1S273.062,182.83,273.062,179.878Z" transform="translate(508.406 691.022)"/><path class="a" d="M236.041,156.719c-1.356,5.193-4.683,8.828-7.433,8.106s-3.846-5.51-2.5-10.712,4.693-8.828,7.433-8.106S237.406,151.516,236.041,156.719Z" transform="translate(509.81 688.617)"/><g transform="translate(730.724 852.471)"><path class="s" d="M285.523,164.57c-1.462,35.214-18.184,63.188-38.465,63.351-10.241.077-19.511-6.962-26.329-18.463a130.189,130.189,0,0,0,5.933,25.627,1.8,1.8,0,0,0,1.577,1.385l23.636-.192,26.464-.2a1.865,1.865,0,0,0,1.6-1.4A143.317,143.317,0,0,0,285.523,164.57Z" transform="translate(-220.73 -164.57)"/></g><path class="m" d="M267.808,112.876a38.964,38.964,0,0,1-13.164,2.394,38.464,38.464,0,0,1-13.184-2.2q1.7-2.769,3.568-5.548,3.847-5.683,8.414-11.357a1.539,1.539,0,0,1,2.529,0q4.529,5.6,8.3,11.212C265.51,109.193,266.683,111.04,267.808,112.876Z" transform="translate(509.199 690.552)"/><path class="m" d="M256.8,214.694l-.144,33.051V254.6a1.337,1.337,0,0,1-1.135,1.452h-4.722a1.3,1.3,0,0,1-1.125-1.433V252.7l.163-37.965a1.337,1.337,0,0,1,1.135-1.442h4.722A1.3,1.3,0,0,1,256.8,214.694Z" transform="translate(508.884 686.031)"/><ellipse class="t" cx="14.03" cy="13.79" rx="14.03" ry="13.79" transform="translate(745.469 837.418) rotate(-66.58)"/><path class="u" d="M264.168,140.8a9.722,9.722,0,0,1-9.616,9.693,9.433,9.433,0,0,1-9.462-9.568,9.712,9.712,0,0,1,9.616-9.693,9.433,9.433,0,0,1,9.462,9.568Z" transform="translate(509.059 689.181)"/><path class="c" d="M257.56,298.846a28.329,28.329,0,0,1,28.329,28.329,27.894,27.894,0,0,1-.394,4.693A28.32,28.32,0,1,0,233,313.058,28.31,28.31,0,0,1,257.56,298.846Z" transform="translate(509.523 683.107)"/><path class="c" d="M328.329,328.034a19.357,19.357,0,0,1,19.1,22.579,19.367,19.367,0,1,0-35.907-12.838A19.377,19.377,0,0,1,328.329,328.034Z" transform="translate(506.509 681.873)"/><path class="c" d="M167.62,328.575a17.924,17.924,0,0,1,26.31,7.587,17.934,17.934,0,1,0-34.253,8.549A17.925,17.925,0,0,1,167.62,328.575Z" transform="translate(512.398 681.957)"/><path class="a" d="M204.332,274.866c-.135-.163-.288-.327-.433-.49L188.975,257.6c-.135-.144-.269-.317-.4-.481-.962-1.106-2.183-2.606-3.952-1.481l-.106.077a.962.962,0,0,0-.3.365,1.567,1.567,0,0,0-.4.769,2.183,2.183,0,0,0,.077,1.24,2.633,2.633,0,0,0,.49.769c.125.154.25.308.385.452l-4.087,12.049-4.241,3.77a1.608,1.608,0,0,0-.346.365,2.26,2.26,0,0,0,0,2.885,3.846,3.846,0,0,0,4.577,5.222,2.25,2.25,0,0,0,3.183.087l3.193,3.606c.837.962,1.875,2.106,3.135,2.173h.115a2.452,2.452,0,0,0,1.683-.731c1.923-1.789.24-3.721-.9-5l-3.183-3.577.308-.269,12.386-2.654a2.885,2.885,0,0,0,2.346,1.231,2.01,2.01,0,0,0,1.683-1.221A2.365,2.365,0,0,0,204.332,274.866Zm-19.694,5.52c-.135.115-.288.289-.471.471s-.288.308-.452.462a1.115,1.115,0,0,0-.529.462c-.712.548-1.01.365-1.106.308h0a1.84,1.84,0,0,1-.279-.269,1.094,1.094,0,0,0-.221-.288l-.24-.3-1.51-1.721-.413-.414a14.413,14.413,0,0,1-1.106-1.154,1.135,1.135,0,0,0-.375-.481c-.154-.25-.356-.635-.24-.779l3.846-3.394,4.9,5.52Zm-6.462.567a2.009,2.009,0,0,1-.346-.644l.577.673c.144.173.3.346.442.529a2.315,2.315,0,0,1-.692-.539Zm8.28.5,2.01,2.25c.087.106.24.25.423.433.664.664,2.058,2.048,1.923,2.808a.48.48,0,0,1-.279.365c-.7.4-2.077-1.365-2.664-2.125-.173-.221-.317-.413-.423-.538l-2.048-2.289Zm16.261-5.481a3.38,3.38,0,0,1-.3.173v-.058l-.087-.115-6.981-7.847-8.5-9.549a.635.635,0,0,0-.163-.2l-.519-.577c-.173-.2-.183-.269-.135-.452a4.7,4.7,0,0,1,1.356,1.366c.125.163.231.308.308.394l14.636,16.463c0,.048.106.106.183.183Zm-3.558-.5L188.2,277.809l-1.664-1.923c-1.279-1.433-2.548-2.885-3.846-4.289l3.616-10.578ZM184.5,256.49Zm-.154,0a.5.5,0,0,0-.067.144.531.531,0,0,1-.135-.144Z" transform="translate(511.728 684.421)"/><path class="a" d="M334.038,279.1v-4.529h-2.721a11.54,11.54,0,0,0-1.75-4.241l1.923-1.923-3.212-3.2-1.923,1.923a11.541,11.541,0,0,0-4.241-1.75V262.66h-4.529v2.721a11.54,11.54,0,0,0-4.241,1.75l-1.923-1.923-3.2,3.2,1.923,1.923a11.674,11.674,0,0,0-1.76,4.241H305.67V279.1h2.712a11.675,11.675,0,0,0,1.76,4.241l-1.923,1.923,3.2,3.2,1.923-1.923a11.54,11.54,0,0,0,4.241,1.75v2.721h4.529V288.3a11.54,11.54,0,0,0,4.241-1.75l1.923,1.923,3.212-3.2-1.923-1.923a11.54,11.54,0,0,0,1.75-4.241Zm-14.184,5.77a3.349,3.349,0,1,1,0,.038Z" transform="translate(506.734 684.136)"/><ellipse class="a" cx="6.25" cy="6.25" rx="6.25" ry="6.25" transform="translate(820.336 954.72)"/><path class="a" d="M354.374,290.711V287.4h-1.981a8.443,8.443,0,0,0-1.279-3.087l1.4-1.4-2.337-2.337-1.4,1.4a8.51,8.51,0,0,0-3.087-1.279V278.71h-3.308V280.7a8.442,8.442,0,0,0-3.087,1.279l-1.4-1.4-2.337,2.337,1.4,1.4a8.3,8.3,0,0,0-1.289,3.087H333.69v3.308h1.981a8.3,8.3,0,0,0,1.289,3.087l-1.4,1.4,2.337,2.337,1.4-1.4a8.442,8.442,0,0,0,3.087,1.279v1.981h3.308v-1.981a8.511,8.511,0,0,0,3.087-1.279l1.4,1.4,2.337-2.337-1.4-1.4a8.443,8.443,0,0,0,1.279-3.087Z" transform="translate(505.658 683.52)"/><path class="v" d="M169.64,254.618V245.57a15.386,15.386,0,0,0-.25-4.452,5.433,5.433,0,0,0-5.077-3.741c-5.193,0-10.424-.192-15.607,0-3.433.125-5.424,2.644-5.452,5.943,0,2.644-.423,5.693.125,8.3.74,3.539,3.846,4.25,6.952,4.25s6.462-.067,9.683,0a4.808,4.808,0,0,1,3.846,1.923c.875,1.058,1.673,2.548,3.193,2.644C170.217,260.638,169.64,256.638,169.64,254.618Zm-2.087,2.885c-.308.837-.5.644-1.058.269-1.039-.712-1.587-2.173-2.644-2.952a5.866,5.866,0,0,0-3.471-1.029c-2.587-.058-5.174,0-7.76,0-2.221,0-5.693.644-6.924-1.75a7.3,7.3,0,0,1-.356-3.289V244.5a7.3,7.3,0,0,1,.356-3.289c.731-1.414,2.106-1.721,3.539-1.75,5.02-.1,10.058,0,15.078,0,3.731.231,3.241,3.981,3.241,6.645v9.549a6.25,6.25,0,0,1,0,1.837Z" transform="translate(512.974 685.11)"/><path class="v" d="M162.9,243.71H149.152a.962.962,0,0,0,0,1.923H162.9a.962.962,0,0,0,0-1.923Z" transform="translate(512.779 684.863)"/><path class="v" d="M159.22,247.53H149.152a.962.962,0,1,0,0,1.923H159.22a.962.962,0,1,0,0-1.923Z" transform="translate(512.779 684.717)"/><path class="v" d="M163.236,247.53h-1.154a.962.962,0,1,0,0,1.923h1.154a.962.962,0,1,0,0-1.923Z" transform="translate(512.282 684.717)"/><path class="v" d="M157.341,262.035c-1.644-.962-4.193-.529-5.991-.529h-6.481a1.311,1.311,0,0,0-.279,0c-4.808.673-3.616,6.991-3.616,10.578,0,1.394-.442,3.568.452,4.7,1.731,2.192,3.193-.558,4.356-1.548,1.587-1.366,4.635-.75,6.539-.75s4.02.346,5.52-.894c1.769-1.462,1.423-3.779,1.423-5.827S159.544,263.295,157.341,262.035Zm-.154,8.443c-.231,2.2-2.1,1.981-3.741,1.981H148.1a4.712,4.712,0,0,0-3.923,1.519c-.144.163-1.154,1.519-1.173,1.51s.048-1.741.048-1.991v-4.808c0-1.74-.577-4.875,1.817-5.1h9.01c1.606,0,3.116,0,3.308,2.077a25.96,25.96,0,0,1,.038,4.808Z" transform="translate(513.061 684.184)"/><path class="v" d="M155.338,266.1h-9.183a.644.644,0,0,0,0,1.289h9.183a.644.644,0,0,0,0-1.289Z" transform="translate(512.882 684.004)"/><path class="v" d="M155.436,268.64H148.7a.644.644,0,1,0,0,1.289h6.731a.644.644,0,0,0,0-1.289Z" transform="translate(512.783 683.906)"/><path class="v" d="M147.044,268.64h-.769a.644.644,0,1,0,0,1.289h.769a.644.644,0,0,0,0-1.289Z" transform="translate(512.877 683.906)"/><path class="a" d="M338.536,261.655a1.048,1.048,0,0,1-1.029-.885,6.731,6.731,0,0,0-7.645-5.587,1.046,1.046,0,1,1-.317-2.068,8.789,8.789,0,0,1,10.02,7.356,1.048,1.048,0,0,1-.875,1.2Z" transform="translate(505.852 684.507)"/><path class="a" d="M345.265,260.686a1.394,1.394,0,0,1-1.385-1.183,13.131,13.131,0,0,0-15.386-10.943,1.4,1.4,0,0,1-.5-2.75,15.98,15.98,0,0,1,18.674,13.27,1.394,1.394,0,0,1-1.163,1.6Z" transform="translate(505.92 684.793)"/><path class="a" d="M351.93,259.7a1.741,1.741,0,0,1-1.721-1.481,19.684,19.684,0,0,0-23.021-16.347,1.745,1.745,0,1,1-.625-3.433,23.2,23.2,0,0,1,27.1,19.232,1.76,1.76,0,0,1-1.462,2Z" transform="translate(505.986 685.081)"/><path class="a" d="M156.353,281.816a1.183,1.183,0,0,1-1.183-1.183v-2.356a1.183,1.183,0,0,1,2.356,0v2.356a1.183,1.183,0,0,1-1.173,1.183Z" transform="translate(512.511 683.578)"/><path class="a" d="M156.353,307.843a1.183,1.183,0,0,1-1.183-1.173v-4.3a1.183,1.183,0,1,1,2.356,0v4.3A1.173,1.173,0,0,1,156.353,307.843Zm0-8.6a1.173,1.173,0,0,1-1.183-1.173v-4.3a1.183,1.183,0,0,1,2.356,0v4.3A1.173,1.173,0,0,1,156.353,299.246Zm0-8.587a1.183,1.183,0,0,1-1.183-1.173v-4.3a1.183,1.183,0,0,1,2.356,0v4.3A1.173,1.173,0,0,1,156.353,290.659Z" transform="translate(512.511 683.313)"/><path class="a" d="M156.353,315.515a1.173,1.173,0,0,1-1.183-1.173v-2.385a1.183,1.183,0,0,1,2.356,0v2.356a1.173,1.173,0,0,1-1.173,1.2Z" transform="translate(512.511 682.285)"/><path class="a" d="M200.7,265.549a1.183,1.183,0,0,1-1.183-1.173v-1.24a1.183,1.183,0,1,1,2.356,0v1.24A1.173,1.173,0,0,1,200.7,265.549Zm25.06-4.423H221.05a1.183,1.183,0,0,1,0-2.356h4.712a1.183,1.183,0,0,1,0,2.356Zm-9.414,0h-4.712a1.183,1.183,0,0,1,0-2.356h4.693a1.183,1.183,0,0,1,0,2.356Zm-9.414,0h-4.712a1.183,1.183,0,0,1,0-2.356h4.712a1.183,1.183,0,0,1,0,2.356Z" transform="translate(510.808 684.285)"/><path class="a" d="M303.747,263.426h-4.7a1.183,1.183,0,1,1,0-2.356h4.7a1.183,1.183,0,1,1,0,2.356Zm-9.414,0h-4.75a1.183,1.183,0,0,1,0-2.356h4.712a1.183,1.183,0,0,1,0,2.356Zm-9.414,0h-4.712a1.183,1.183,0,0,1,0-2.356h4.712a1.183,1.183,0,0,1,0,2.356Z" transform="translate(507.753 684.197)"/><path class="m" d="M113.814,382.448a28.031,28.031,0,1,1-35.166-18.271A28.031,28.031,0,0,1,113.814,382.448Z" transform="translate(516.2 680.29)"/><ellipse class="a" cx="22.492" cy="22.492" rx="22.492" ry="22.492" transform="translate(580.375 1049.069) rotate(-0.99)"/><ellipse class="m" cx="17.973" cy="17.973" rx="17.973" ry="17.973" transform="translate(578.929 1078.634) rotate(-62.03)"/><path class="a" d="M99.769,387.646a12.713,12.713,0,1,1-15.944-8.289,12.712,12.712,0,0,1,15.944,8.289Z" transform="translate(515.591 679.68)"/><path class="m" d="M95.1,389.408a7.6,7.6,0,1,1-9.53-4.962,7.6,7.6,0,0,1,9.53,4.962Z" transform="translate(515.386 679.475)"/><rect class="w" width="38.532" height="0.914" transform="translate(605.066 1069.127) rotate(-29.25)"/><path class="w" d="M93.7,384.51l-.808,4.039,3.866,1.414L87.44,391.6Z" transform="translate(515.11 679.459)"/><path class="w" d="M127.776,373.18l-4.587,2.568L120.17,374l4.587-2.567Z" transform="translate(513.854 679.961)"/><path class="w" d="M124.383,366.97l-4.6,2.567-.087,3.491,4.6-2.567Z" transform="translate(513.873 680.132)"/><path class="a" d="M84.067,363.231a1.567,1.567,0,0,1-1.567-1.567v-4.606a1.567,1.567,0,0,1,3.135,0v4.606A1.567,1.567,0,0,1,84.067,363.231Zm0-9.309a1.567,1.567,0,0,1-1.567-1.567v-4.712a1.567,1.567,0,0,1,3.135,0v4.712a1.567,1.567,0,0,1-1.567,1.567Zm0-9.414a1.568,1.568,0,0,1-1.567-1.577v-4.7a1.567,1.567,0,0,1,3.135,0v4.7a1.567,1.567,0,0,1-1.567,1.567Zm0-9.433a1.558,1.558,0,0,1-1.567-1.558,1.587,1.587,0,0,1,1.568-1.587H88.75a1.567,1.567,0,1,1,0,3.135H84.067Zm32.935,0h-4.7a1.567,1.567,0,1,1,0-3.135H117a1.567,1.567,0,0,1,0,3.135Zm-9.414,0h-4.712a1.567,1.567,0,1,1,0-3.135h4.712a1.567,1.567,0,0,1,0,3.135Zm-9.414,0H93.462a1.567,1.567,0,0,1,0-3.135h4.712a1.567,1.567,0,0,1,0,3.135Z" transform="translate(515.3 681.477)"/><rect class="a" width="40.84" height="23.733" transform="translate(836.458 860.474) rotate(-33.5)"/><path class="x" d="M330.69,172.02l23.569-1.375,10.482-21.165-8.02,24.887Z" transform="translate(505.774 688.48)"/><path class="a" d="M316.937,212.9a1.567,1.567,0,0,1-1.567-1.567v-4.7a1.567,1.567,0,1,1,3.135,0v4.7A1.567,1.567,0,0,1,316.937,212.9Zm0-9.414h-.067a1.567,1.567,0,0,1-1.5-1.635,25.274,25.274,0,0,1,.692-4.952,1.567,1.567,0,0,1,3.048.721,23.863,23.863,0,0,0-.606,4.366,1.567,1.567,0,0,1-1.567,1.5Zm2.173-9.106a1.558,1.558,0,0,1-1.433-2.212,25.9,25.9,0,0,1,2.5-4.337,1.567,1.567,0,0,1,2.529,1.817,22.48,22.48,0,0,0-2.2,3.846A1.558,1.558,0,0,1,319.111,194.375Zm5.424-7.616a1.567,1.567,0,0,1-1.077-2.712,25.966,25.966,0,0,1,3.933-3.077,1.57,1.57,0,1,1,1.692,2.644,22.535,22.535,0,0,0-3.462,2.712A1.6,1.6,0,0,1,324.534,186.759Z" transform="translate(506.362 687.281)"/><path class="i" d="M86.948,233.573l-3.087-6.26a5.963,5.963,0,0,1,10.674-5.318l3.116,6.26,2.548-1.269-3.125-6.26a8.8,8.8,0,0,0-15.751,7.856l3.116,6.26Z" transform="translate(515.38 685.933)"/><path class="y" d="M98.769,227.795l-3.039-6.1a7.174,7.174,0,0,0-12.838,6.395l3.039,6.1,1.087-.539-3.087-6.26a5.963,5.963,0,1,1,10.674-5.318l3.116,6.26Z" transform="translate(515.31 685.854)"/><path class="z" d="M105.608,227.916l5.27,10.578a3.846,3.846,0,0,1-1.712,5.106l-17.155,8.549a3.8,3.8,0,0,1-5.1-1.712l-5.27-10.578a3.847,3.847,0,0,1,1.7-5.106L100.5,226.2a3.679,3.679,0,0,1,.962-.327,3.987,3.987,0,0,1,1.433,0,3.846,3.846,0,0,1,2.712,2.039Z" transform="translate(515.347 685.55)"/><path class="aa" d="M97.379,228,93.33,251.723l-.962.51a3.847,3.847,0,0,1-3.039.154l3.789-22.242Z" transform="translate(515.038 685.466)"/><path class="aa" d="M103.564,225.908l-3.846,22.781-1.567.779,4.02-23.55a3.992,3.992,0,0,1,1.394-.01Z" transform="translate(514.7 685.549)"/><g class="ab" transform="translate(603.089 911.591)"><path class="ac" d="M103.665,226.05a3.847,3.847,0,0,1,.817,1.1l5.279,10.578a3.847,3.847,0,0,1-1.712,5.106l-17.165,8.549a3.779,3.779,0,0,1-2.885.2,3.954,3.954,0,0,0,1.24.769,3.847,3.847,0,0,0,3.039-.154l17.155-8.549a3.846,3.846,0,0,0,1.712-5.106l-5.27-10.578A3.847,3.847,0,0,0,103.665,226.05Z" transform="translate(-88 -226.05)"/></g><path class="ad" d="M98.192,235.491a3.144,3.144,0,1,0-3.76,4.4,2.3,2.3,0,0,1,1.423,1.135l2.01,4.039a.6.6,0,0,0,.808.269l1.519-.75a.606.606,0,0,0,.269-.808L98.4,239.76a2.193,2.193,0,0,1-.087-1.741,3.116,3.116,0,0,0-.125-2.529Z" transform="translate(514.926 685.246)"/><path class="ae" d="M98.528,244.731l-2.01-4a2.269,2.269,0,0,0-1.375-1.125,3.144,3.144,0,0,1-.808-5.625,3.212,3.212,0,0,0-.683.337,3.144,3.144,0,0,0,.779,5.635,2.3,2.3,0,0,1,1.423,1.087l2.01,4.039a.6.6,0,0,0,.808.269l.712-.346a.615.615,0,0,1-.856-.269Z" transform="translate(514.926 685.237)"/><path class="af" d="M433.622,362.83l-9.212-1.5,4.779,5.414Z" transform="translate(502.175 680.349)"/><path class="ag" d="M433.813,362.89,429.38,366.8l4.231.385Z" transform="translate(501.985 680.289)"/><path class="ah" d="M442.613,372.86l1.058,10.126-5.481-6.212Z" transform="translate(501.647 679.906)"/><path class="ag" d="M442.613,372.841l-4.423,3.914.019-4.385Z" transform="translate(501.647 679.924)"/><path class="ai" d="M433.778,367.36l4.452.462-.192,4.356-4.308-.346Z" transform="translate(501.818 680.118)"/><path class="aj" d="M442.614,372.667,438.4,367.84l-.192,4.356Z" transform="translate(501.645 680.099)"/><path class="ak" d="M433.982,362.89l4.25,4.76-4.452-.462Z" transform="translate(501.816 680.289)"/><path class="al" d="M429.38,366.96l4.241,4.8-.01-4.414Z" transform="translate(501.985 680.133)"/><path class="al" d="M438.04,372.354l-.019,4.385-4.231-4.789Z" transform="translate(501.815 679.941)"/><path class="am" d="M424.306,361.33l4.779,5.414L421.7,381.812Z" transform="translate(502.28 680.349)"/><path class="an" d="M429.085,366.96l8.472,9.587L421.7,382.029Z" transform="translate(502.28 680.133)"/><path class="ao" d="M437.557,376.93l5.481,6.212-21.338-.731Z" transform="translate(502.28 679.75)"/><path class="b" d="M433.034,368.376a1.809,1.809,0,1,0-2.712,2.394h0a1.808,1.808,0,1,0,2.7-2.394Z" transform="translate(501.966 680.101)"/><path class="b" d="M442.874,379.536a1.809,1.809,0,1,0-2.712,2.394h0a1.808,1.808,0,1,0,2.7-2.394Z" transform="translate(501.588 679.673)"/><path class="af" d="M413.441,374.977l-3.481-.577,1.808,2.058Z" transform="translate(502.73 679.847)"/><path class="ag" d="M413.513,375l-1.673,1.481,1.606.144Z" transform="translate(502.659 679.824)"/><path class="ah" d="M416.853,378.77l.4,3.837-2.077-2.356Z" transform="translate(502.53 679.68)"/><path class="ag" d="M416.853,378.763l-1.673,1.481.01-1.654Z" transform="translate(502.53 679.686)"/><path class="ai" d="M413.509,376.69l1.683.173-.067,1.654-1.635-.135Z" transform="translate(502.595 679.759)"/><path class="aj" d="M416.854,378.7l-1.6-1.827-.067,1.654Z" transform="translate(502.529 679.753)"/><path class="ak" d="M413.577,375l1.616,1.8-1.683-.173Z" transform="translate(502.595 679.824)"/><path class="al" d="M411.84,376.54l1.606,1.817v-1.673Z" transform="translate(502.659 679.765)"/><path class="al" d="M415.126,378.584l-.01,1.654-1.606-1.808Z" transform="translate(502.595 679.692)"/><path class="am" d="M409.92,374.4l1.808,2.058-2.8,5.7Z" transform="translate(502.77 679.847)"/><path class="an" d="M411.728,376.54l3.212,3.625-6.01,2.077Z" transform="translate(502.77 679.765)"/><path class="ao" d="M414.94,380.31l2.077,2.356-8.087-.279Z" transform="translate(502.77 679.62)"/><path class="b" d="M413.221,377.069a.683.683,0,1,0-1.019.9h0a.712.712,0,0,1,.962.1A.721.721,0,0,1,413.221,377.069Z" transform="translate(502.652 679.754)"/><path class="b" d="M416.96,381.308a.721.721,0,0,1-1.01-.058.7.7,0,0,1,0,.962h0a.712.712,0,0,1,.962.1.7.7,0,0,1,.048-1Z" transform="translate(502.5 679.584)"/><path class="f" d="M93.81,296.937h0a2,2,0,0,1-2-2v-3.846a2,2,0,0,1,2-1.991h0a1.991,1.991,0,0,1,2.029,1.952V294.9a2,2,0,0,1-2.029,2.039Z" transform="translate(514.942 683.121)"/><path class="f" d="M99.971,296.792h0a2,2,0,0,1-1.971-2v-7.481a1.991,1.991,0,0,1,1.991-1.991h0a2,2,0,0,1,2,1.991v7.481a2,2,0,0,1-2.019,2Z" transform="translate(514.705 683.266)"/><path class="f" d="M106.14,296.636h0a2,2,0,0,1-2-2V283.251a2,2,0,0,1,2-1.99h0a1.991,1.991,0,0,1,1.991,1.991v11.385a2,2,0,0,1-1.991,2Z" transform="translate(514.469 683.422)"/><path class="f" d="M112.3,296.5h0a2,2,0,0,1-1.991-2V279.78a2,2,0,0,1,1.991-2h0a2,2,0,0,1,2,2V294.5a2,2,0,0,1-2,2Z" transform="translate(514.233 683.556)"/><path class="d" d="M97.8,291.665a8.078,8.078,0,0,0-14.511,6.895A8.078,8.078,0,1,1,97.8,291.665Z" transform="translate(515.316 683.23)"/><path class="d" d="M95.285,283.046a12.6,12.6,0,0,0-12.5,21.723h0L81.9,306.8l-6.674,15.386a1.375,1.375,0,0,0,.712,1.808l2.346,1.019a1.375,1.375,0,0,0,1.808-.712l6.674-15.386.885-2.039h0a12.6,12.6,0,0,0,7.578-23.858Zm4.481,15.684a10.491,10.491,0,1,1,.162-8.053A10.491,10.491,0,0,1,99.766,298.73Z" transform="translate(515.584 683.396)"/><path class="a" d="M97.8,291.665a8.078,8.078,0,0,0-14.511,6.895A8.078,8.078,0,1,1,97.8,291.665Z" transform="translate(515.316 683.23)"/><path class="ap" d="M97.8,291.665a8.078,8.078,0,0,0-14.511,6.895A8.078,8.078,0,1,1,97.8,291.665Z" transform="translate(515.316 683.23)"/><path class="ap" d="M87.507,307.468l-3.846-1.692a1.231,1.231,0,0,0-1.635.644h0a1.221,1.221,0,0,0,.644,1.625l3.846,1.692a1.24,1.24,0,0,0,1.635-.644h0A1.241,1.241,0,0,0,87.507,307.468Z" transform="translate(515.322 682.485)"/><g class="aq" transform="translate(572 989.799)"><path class="a" d="M65.282,319.314l1.923.481.279-1.144a4.963,4.963,0,0,0,1.923-.289l.615,1.01,1.673-1.01-.606-1.01a5.01,5.01,0,0,0,1.183-1.6l1.144.279.471-1.923-1.135-.279a5.231,5.231,0,0,0-.3-1.971l.962-.606-.962-1.683-.962.606a5.126,5.126,0,0,0-1.6-1.173l.288-1.144-1.923-.481-.288,1.144a4.99,4.99,0,0,0-1.923.3l-.606-.962-1.683.962.606,1.01a4.9,4.9,0,0,0-1.183,1.6l-1.144-.288-.471,1.923,1.144.289A4.991,4.991,0,0,0,63,315.275l-.962.606.9,1.712,1.01-.606a5.01,5.01,0,0,0,1.6,1.183Zm-.962-6.558a4.777,4.777,0,1,1,0,.029Z" transform="translate(-55.896 -307.38)"/><path class="a" d="M67.2,316.367a2.7,2.7,0,1,1,3.279-1.971A2.7,2.7,0,0,1,67.2,316.367Z" transform="translate(-56.034 -307.521)"/><path class="a" d="M58.411,326.655,59.8,327l.2-.827a3.761,3.761,0,0,0,1.433-.212l.442.731,1.231-.74-.442-.731a3.616,3.616,0,0,0,.865-1.164l.827.2.346-1.385-.827-.2a3.731,3.731,0,0,0-.221-1.433l.74-.442-.721-1.221-.731.442a3.847,3.847,0,0,0-1.164-.865l.2-.827-1.4-.327-.212.827a3.989,3.989,0,0,0-1.433.212l-.442-.731-1.221.74.442.731a3.721,3.721,0,0,0-.865,1.164l-.827-.2-.356,1.385.837.212a3.606,3.606,0,0,0,.212,1.433l-.731.442.731,1.221.74-.442a3.617,3.617,0,0,0,1.164.865Z" transform="translate(-55.67 -307.788)"/></g><g class="aq" transform="translate(683.663 877.011)"><path class="a" d="M185.425,202.774l1.769,1.856,1.106-1.067a6.654,6.654,0,0,0,2.375,1.058v1.539l2.568.058v-1.539a6.471,6.471,0,0,0,2.414-.962l1.067,1.115,1.846-1.769-1.058-1.115a6.511,6.511,0,0,0,1.058-2.375H200.1l.067-2.558h-1.539a6.731,6.731,0,0,0-.962-2.423l1.106-1.058-1.76-1.856-1.115,1.058a6.635,6.635,0,0,0-2.375-1.048v-1.539l-2.558-.058v1.539a6.51,6.51,0,0,0-2.423.962l-1.058-1.115-1.856,1.769,1.058,1.115a6.519,6.519,0,0,0-1.048,2.366H184.1l-.058,2.568h1.529a6.49,6.49,0,0,0,.962,2.414Zm3.539-7.914a4.568,4.568,0,1,1-1.417,3.2,4.568,4.568,0,0,1,1.417-3.2Z" transform="translate(-172.26 -190.09)"/><path class="a" d="M189.741,200.762a3.529,3.529,0,1,1,4.991.125A3.529,3.529,0,0,1,189.741,200.762Z" transform="translate(-172.442 -190.271)"/><path class="a" d="M172.771,206.043l1.289,1.356.817-.769a4.72,4.72,0,0,0,1.731.76v1.125l1.865.048v-1.125a4.7,4.7,0,0,0,1.769-.683l.769.817,1.356-1.289-.779-.817a4.74,4.74,0,0,0,.769-1.731h1.125v-1.866h-1.115a4.866,4.866,0,0,0-.683-1.769l.808-.769-1.25-1.375-.808.779a4.742,4.742,0,0,0-1.731-.769V196.84h-1.875v1.115a4.809,4.809,0,0,0-1.769.683l-.769-.808-1.337,1.269.769.808a4.808,4.808,0,0,0-.76,1.731h-1.125l-.048,1.875h1.125a4.809,4.809,0,0,0,.683,1.769Z" transform="translate(-171.79 -190.349)"/></g><path class="m" d="M210.038,161.474a20.194,20.194,0,1,1-20.194-20.194v20.194Z" transform="translate(511.954 688.795)"/><path class="d" d="M214.764,158.794H194.57V138.6A20.194,20.194,0,0,1,214.764,158.794Z" transform="translate(510.998 688.898)"/><path class="ar" d="M189.922,141.31V161.5l-18.982-6.828A20.194,20.194,0,0,1,189.922,141.31Z" transform="translate(511.905 688.794)"/><path class="q" d="M210.508,162.28a20.194,20.194,0,0,1-28.848,18.2l8.712-18.2Z" transform="translate(511.493 687.989)"/><path class="a" d="M158.027,210.738a1.567,1.567,0,0,1-1.567-1.567v-4.712a1.567,1.567,0,1,1,3.135,0v4.712a1.567,1.567,0,0,1-1.567,1.568Zm0-9.414a1.567,1.567,0,0,1-1.567-1.567v-4.712a1.567,1.567,0,1,1,3.135,0v4.731a1.567,1.567,0,0,1-1.567,1.548Zm0-9.414a1.567,1.567,0,0,1-1.567-1.577v-4.7a1.567,1.567,0,1,1,3.135,0v4.7a1.567,1.567,0,0,1-1.567,1.577Zm0-9.424a1.567,1.567,0,0,1-1.567-1.567v-4.7a1.567,1.567,0,0,1,3.135,0v4.7a1.567,1.567,0,0,1-1.567,1.548Zm0-9.414a1.567,1.567,0,0,1-1.567-1.567V170.7a1.577,1.577,0,0,1,1.567-1.577h3.846a1.577,1.577,0,0,1,0,3.144h-2.519A1.577,1.577,0,0,1,158.027,173.072Zm9.289-.808H166.6a1.577,1.577,0,1,1,0-3.144h.683a1.577,1.577,0,0,1,0,3.144Z" transform="translate(512.461 687.727)"/><path class="a" d="M332.9,153.368v-.087a6.414,6.414,0,0,0-6.25-6.395,6.338,6.338,0,0,0-3.846,1.241,6.739,6.739,0,0,0,.077-1.087,6.366,6.366,0,0,0-12.713-.365,6.876,6.876,0,0,0-4.01-.894,6.953,6.953,0,0,0-6.366,6.529,7.1,7.1,0,0,0,.135,1.76,3.972,3.972,0,0,0,3.895,3.173h25.137A3.971,3.971,0,0,0,332.9,153.368Z" transform="translate(506.96 688.814)"/><path class="as" d="M318.844,154.341V147.35H314.69v6.991h-3.27l5.347,6.827,5.347-6.827Z" transform="translate(506.512 688.562)"/><path class="a" d="M414.624,254.2a3.269,3.269,0,1,0,0-4.625,3.221,3.221,0,0,0-.962,2.51l-8.01,1.712a3.76,3.76,0,1,0-1.308,4.606l5.673,5.722a4.279,4.279,0,1,0,.962-.962l-5.674-5.77a3.722,3.722,0,0,0,.673-2.394l8.068-1.673A3.249,3.249,0,0,0,414.624,254.2Z" transform="translate(503.172 684.675)"/></g></g></svg>