<svg xmlns="http://www.w3.org/2000/svg" width="391.534" height="383.102" viewBox="0 0 391.534 383.102"><defs><style>.a{fill:#fff;}.b,.e,.j,.l,.m,.n,.p,.r,.s,.v,.w{fill:none;}.b,.e,.l,.n{stroke:#fff;}.b,.e,.m,.n,.p,.w{stroke-miterlimit:10;}.b{stroke-width:1.212px;}.c{fill:#edbc32;}.d{fill:#599cd5;}.e{stroke-width:0.995px;}.f{fill:#9d7feb;}.g{fill:#36438f;}.h{fill:#5e67de;}.i{fill:#f2f2ed;}.j{stroke:#312220;stroke-width:0.974px;}.j,.l,.r,.s,.v{stroke-linecap:round;stroke-linejoin:round;}.k{fill:#f1cd4c;}.l{stroke-width:1.583px;}.m{stroke:#edbc32;}.m,.n{stroke-width:1.035px;}.o{fill:#74c2ef;}.p{stroke:#599cd5;stroke-width:1.372px;}.q{fill:#ebb3a2;}.r{stroke:#07090f;stroke-width:0.642px;}.s{stroke:#ebb3a2;stroke-width:22.665px;}.t{fill:#d39181;}.u{fill:#242233;}.v{stroke:#000;stroke-width:0.562px;}.w{stroke:#5e67de;stroke-width:1.295px;}</style></defs><g transform="translate(-221 -3622.143)"><path class="a" d="M198.77-39.448c84.707,0,99.6,102.469,99.6,187.176A153.376,153.376,0,0,1,144.99,301.1c-84.707,0-203.567-108.079-203.567-192.786S114.063-39.448,198.77-39.448Z" transform="translate(279.577 3703.486)"/><g transform="translate(135.541 3669.753)"><g transform="translate(88.384 -46.753)"><g transform="translate(0 0)"><circle class="b" cx="134.84" cy="134.84" r="134.84" transform="translate(0 190.694) rotate(-45)"/><path class="a" d="M228.448,45.548a2.68,2.68,0,1,0-2.228,3.066,2.68,2.68,0,0,0,2.228-3.066Z" transform="translate(-135.72 17.181)"/><path class="c" d="M642.827,306.531A2.68,2.68,0,1,0,640.6,309.6,2.68,2.68,0,0,0,642.827,306.531Z" transform="translate(-271.815 -68.534)"/><path class="c" d="M109.416,185.4a2.68,2.68,0,1,0-2.229,3.066A2.68,2.68,0,0,0,109.416,185.4Z" transform="translate(-96.625 -28.751)"/><path class="b" d="M149.141,351.262a6.164,6.164,0,1,0,3.071,8.159,6.164,6.164,0,0,0-3.071-8.159Z" transform="translate(-108.561 -83.788)"/><circle class="b" cx="6.164" cy="6.164" r="6.164" transform="translate(340.743 109.923) rotate(-52.423)"/></g><g transform="translate(13.439 72.589)"><g transform="translate(0 14.502)"><rect class="d" width="50.32" height="21.195"/><path class="d" d="M182.851,105.553v11.428l-10.357-10.358Z" transform="translate(-132.53 -90.36)"/><g transform="translate(7.988 8.033)"><line class="e" x2="23.82"/><line class="e" x2="5.18" transform="translate(28.226)"/><g transform="translate(0 4.65)"><line class="e" x2="7.255"/><line class="e" x2="9.284" transform="translate(10.983)"/><line class="e" x2="9.041" transform="translate(24.095)"/></g></g></g><g transform="translate(252.705)"><circle class="f" cx="17.491" cy="17.491" r="17.491"/><g transform="translate(9.312 8.425)"><g transform="translate(5.276)"><path class="a" d="M511.107,89.042c2.872.05,5.78.089,8.421-.094.836-.058,1.559-1.387.543-1.806a1.88,1.88,0,0,0,1.047-.91.9.9,0,0,0-.509-1.186c1,.246,1.389-1.334.612-1.844a2.328,2.328,0,0,0,.84-1.347,1.35,1.35,0,0,0-.6-1.394,2.181,2.181,0,0,0-1.036-.179l-3.583-.026a8.267,8.267,0,0,0-.529-5.548c-.286-.495-1.054-1.087-1.665-.707-.572.357-.413,1.244-.385,1.8A6.313,6.313,0,0,1,511,81.564S511.134,86.516,511.107,89.042Z" transform="translate(-511 -73.881)"/></g><rect class="a" width="4.341" height="7.472" transform="translate(0 7.683)"/></g></g><g transform="translate(286.236 81.613)"><circle class="d" cx="27.196" cy="27.196" r="27.196" transform="translate(0 53.075) rotate(-77.362)"/><path class="a" d="M587.283,223.652l-4.644-1.776a2.087,2.087,0,0,1-.775-3.415,2.026,2.026,0,0,1,1.5-.592h1.821a2.05,2.05,0,0,1,2,1.5,1.868,1.868,0,0,0,2.321,1.276,1.833,1.833,0,0,0,1.276-2.322,5.789,5.789,0,0,0-4.644-4.144v-1.545a1.867,1.867,0,1,0-3.734,0v1.594a5.932,5.932,0,0,0-3.142,1.594,5.808,5.808,0,0,0,2.049,9.515l4.644,1.776a2.091,2.091,0,0,1-.729,4.052h-1.821a2.05,2.05,0,0,1-2-1.5,1.873,1.873,0,1,0-3.6,1.047,5.794,5.794,0,0,0,4.6,4.144V236.4a1.867,1.867,0,1,0,3.734,0v-1.548a5.837,5.837,0,0,0,1.142-11.2Z" transform="translate(-551.813 -192.029)"/></g></g></g><g transform="translate(85.459 63.326)"><g transform="translate(133.597)"><rect class="g" width="123.478" height="216.118" rx="29.061" transform="translate(132.012 216.118) rotate(180)"/><rect class="h" width="123.478" height="216.118" rx="29.061" transform="translate(123.478 216.118) rotate(180)"/><rect class="i" width="111.549" height="203.057" rx="20.007" transform="translate(117.513 210.205) rotate(180)"/><path class="h" d="M3.626,0H44.113A3.626,3.626,0,0,1,47.74,3.626V9.546H0V3.626A3.626,3.626,0,0,1,3.626,0Z" transform="translate(85.152 13.747) rotate(180)"/><line class="j" x2="15.288" transform="translate(53.735 7.665)"/><g transform="translate(15.416 30.773)"><g transform="translate(0 70.458)"><rect class="h" width="90.469" height="21.311"/><g transform="translate(16.418 5.048)"><path class="c" d="M340.193,275.417l1.364,3.633,3.876.175-3.033,2.418,1.032,3.74-3.238-2.137-3.238,2.137,1.032-3.74-3.033-2.418,3.876-.175Z" transform="translate(-334.954 -275.417)"/><path class="c" d="M363.6,275.417l1.364,3.633,3.876.175-3.033,2.418,1.032,3.74-3.238-2.137-3.238,2.137,1.031-3.74-3.033-2.418,3.876-.175Z" transform="translate(-342.641 -275.417)"/><path class="c" d="M387,275.417l1.364,3.633,3.876.175-3.033,2.418,1.031,3.74-3.238-2.137-3.238,2.137,1.032-3.74-3.033-2.418,3.876-.175Z" transform="translate(-350.329 -275.417)"/><path class="c" d="M410.409,275.417l1.361,3.633,3.876.175-3.033,2.418,1.032,3.74-3.238-2.137-3.238,2.137,1.032-3.74-3.033-2.418,3.876-.175Z" transform="translate(-358.014 -275.417)"/></g></g><g transform="translate(0.641)"><rect class="d" width="89.828" height="57.672"/><g transform="translate(23.36 9.222)"><g transform="translate(0 5.193)"><path class="i" d="M382.161,188.839a2.365,2.365,0,0,0-1.813-.84H353.714l-.225-1.539a2.366,2.366,0,0,0-2.366-2.011h-3.694a1.183,1.183,0,1,0,0,2.367h3.715l3.242,21.653a2.366,2.366,0,0,0,2.366,2.015h22.623a1.183,1.183,0,0,0,0-2.367H356.734l-.533-3.549h22.173a2.367,2.367,0,0,0,2.367-1.976l1.964-11.832a2.367,2.367,0,0,0-.545-1.92ZM378.375,202.2H355.894l-1.822-11.832h26.279Z" transform="translate(-346.246 -184.449)"/><path class="i" d="M364.477,226.734a2.367,2.367,0,1,1-2.366,2.366,2.366,2.366,0,0,1,2.366-2.366Z" transform="translate(-351.457 -198.337)"/><path class="i" d="M387.382,226.734a2.367,2.367,0,1,1-2.367,2.367A2.367,2.367,0,0,1,387.382,226.734Z" transform="translate(-358.979 -198.337)"/></g><g transform="translate(26.077 0)"><circle class="k" cx="6.165" cy="6.165" r="6.165" transform="translate(0 8.719) rotate(-45)"/><path class="l" d="M393.975,189.278l2.307,1.686,2.746-3.487" transform="translate(-387.999 -180.251)"/></g></g></g><g transform="translate(2.49 107.109)"><rect class="m" width="43.833" height="46.685"/><path class="n" d="M349.633,347.078H326.7a4.144,4.144,0,0,1-4.145-4.145h0a4.145,4.145,0,0,1,4.145-4.145h22.933a4.145,4.145,0,0,1,4.145,4.145h0a4.144,4.144,0,0,1-4.145,4.144Z" transform="translate(-316.954 -327.834)"/><line class="n" x2="31.222" transform="translate(5.602 27.604)"/><line class="n" x2="11.587" transform="translate(5.602 33.039)"/><line class="n" x2="23.174" transform="translate(5.602 38.146)"/></g></g><g transform="translate(77.124 137.621)"><rect class="d" width="129.005" height="78.596" rx="10.149"/><g transform="translate(9.147 10.295)"><g transform="translate(2.032)"><g transform="translate(87.647)"><circle class="g" cx="6.537" cy="6.537" r="6.537"/><circle class="o" cx="6.537" cy="6.537" r="6.537" transform="translate(6.536)"/></g><rect class="i" width="71.549" height="3.691" transform="translate(0 4.691)"/></g><g transform="translate(2.032 41.437)"><rect class="g" width="23.874" height="3.691"/><rect class="g" width="23.874" height="3.691" transform="translate(27.771)"/><rect class="g" width="51.494" height="3.691" transform="translate(55.763)"/><rect class="g" width="42.441" height="3.691" transform="translate(0 10.373)"/><rect class="g" width="13.067" height="3.691" transform="translate(46.092 10.373)"/></g><g transform="translate(0 17.571)"><rect class="o" width="22.121" height="14.386" rx="3.465" transform="translate(2.032)"/><path class="p" d="M429.156,376H416.015v-6.7h13.141a3.35,3.35,0,0,1,3.349,3.349h0A3.35,3.35,0,0,1,429.156,376Z" transform="translate(-416.015 -365.459)"/><line class="p" x2="9.393" transform="translate(16.49 7.192)"/></g></g></g></g><g transform="translate(57.929 6.336)"><g transform="translate(0 80.841)"><g transform="translate(0 102.459)"><path class="q" d="M190.713,417.087l8.965-16.889-11.445-.658-8.97,18.619h8.861Z" transform="translate(-176.319 -399.54)"/><g transform="translate(0 12.317)"><path class="h" d="M178.238,420.157s10.043,3.743,14.132-2.277l18.187,10.437H174.879Z" transform="translate(-174.879 -417.88)"/><rect class="a" width="35.679" height="3.267" transform="translate(0 10.437)"/></g></g><path class="g" d="M222.678,246.979l9.412,45.331a17.373,17.373,0,0,1-1.7,11.478L198.973,358.05l-20.745-.788s32.261-64.887,33.051-65.429-1.634-44.861-1.634-44.861Z" transform="translate(-175.979 -246.972)"/><g transform="translate(15.625 0.009)"><g transform="translate(26.783 102.122)"><path class="q" d="M254.824,416.926l-5.352-17.217-11.445-.658L243.374,418h8.861Z" transform="translate(-238.027 -399.051)"/><g transform="translate(0 12.645)"><path class="h" d="M240.691,420.157s10.043,3.743,14.132-2.277l18.187,10.437H238.027Z" transform="translate(-238.027 -417.88)"/><rect class="a" width="34.984" height="3.267" transform="translate(0 10.437)"/></g></g><path class="g" d="M242.42,357.055l-23.343-110.07H202.3s-9.057,1.545-.424,34.979,20.29,76.088,20.29,76.088Z" transform="translate(-198.145 -246.985)"/><g transform="translate(10.805 17.212)"><path class="r" d="M245.27,320.488l-8.35-41.167,3.35-6.706" transform="translate(-221.686 -272.615)"/><line class="r" x2="7.902" y2="29.52" transform="translate(0 44.75)"/></g></g></g><g transform="translate(5.877 34.324)"><g transform="translate(23.694 2.504)"><g transform="translate(11.632 1.477)"><path class="s" d="M236.232,202.173l18.087,24.646,20.2-15.586" transform="translate(-236.232 -189.722)"/><g transform="translate(31.476)"><g transform="translate(0.299 7.209)"><path class="q" d="M288.623,201.291l11.8,3.442s1.41,8.09-8.778,10.8c-.582.154-3.273-.935-3.735-1.343l-3.915-5.162a2.2,2.2,0,0,1,.13-2.815Z" transform="translate(-283.546 -196.641)"/><path class="q" d="M289.653,200.537l4.172-5.479a1.707,1.707,0,0,1,2.383-.361h0a1.741,1.741,0,0,1,.251,2.343l-3.854,6.01Z" transform="translate(-285.552 -194.367)"/><path class="q" d="M297.164,207.366l5.014-4.948a1.624,1.624,0,0,1,2.312-.159h0a1.731,1.731,0,0,1-.08,2.307l-4.784,5.492Z" transform="translate(-288.018 -196.824)"/><path class="q" d="M294.289,202.481l4.737-4.68a1.664,1.664,0,0,1,2.383-.067h0a1.788,1.788,0,0,1-.025,2.381l-4.486,5.252Z" transform="translate(-287.074 -195.318)"/></g><g transform="translate(2.329)"><path class="g" d="M302.877,183.633l1.88.122v12.329l-6.591,10.321-2-.163,3.536-12.966Z" transform="translate(-289.72 -183.633)"/><path class="g" d="M289.575,200.807,295.082,206a1.244,1.244,0,0,0,1.954-.017l11.995-14.971a1.034,1.034,0,0,0-.011-1.282l-5.776-5.528a1.034,1.034,0,0,0-1.624.014l-12.057,15.05A1.245,1.245,0,0,0,289.575,200.807Z" transform="translate(-287.466 -183.692)"/><path class="i" d="M286.845,200.626l5.507,5.193a1.244,1.244,0,0,0,1.953-.017L306.3,190.83a1.035,1.035,0,0,0-.011-1.282l-5.779-5.529a1.035,1.035,0,0,0-1.625.015l-12.057,15.05A1.244,1.244,0,0,0,286.845,200.626Z" transform="translate(-286.569 -183.633)"/></g><path class="q" d="M285.119,209.464a4.768,4.768,0,0,1-1.973-4.548,14.416,14.416,0,0,1,2.107-5.894c.576-1.081,1.242-1.6,2.179-1.472h0a1.778,1.778,0,0,1,1.483,1.97l-1.056,2.342s1.162,2.969-1.271,7.471Z" transform="translate(-283.101 -188.197)"/></g></g><path class="f" d="M245.146,197.283,236.6,184.611c-3.569-4.049-9.374-4.118-13.66-.837h0a10.275,10.275,0,0,0-1.449,14.968l7.366,10.045Z" transform="translate(-218.911 -181.433)"/></g><g transform="translate(10.177)"><path class="f" d="M213.6,177.705s-9.548.554-14.815,4.24l2.335,42.284H229.3l2.968-33.429a12.336,12.336,0,0,0-6.1-10.929l-3.2-1.716Z" transform="translate(-198.784 -177.705)"/><path class="r" d="M247.423,196.46a64.031,64.031,0,0,1-.131,10.666" transform="translate(-214.716 -183.865)"/></g><g transform="translate(0 1.946)"><g transform="translate(0.085 13.009)"><path class="s" d="M197.848,199.975l-14.091,27.131,19.418,18.142" transform="translate(-183.757 -199.975)"/><g transform="translate(14.113 38.74)"><path class="q" d="M208.39,259.846c.894-1.708,4.271-2.328,5.049-2.158a46.279,46.279,0,0,1,6.524,2.007,2.1,2.1,0,0,1,1.576,2.168h0a1.828,1.828,0,0,1-2.189,1.555l-2.283-.369s-1.809,2.426-7.067-.955Z" transform="translate(-205.96 -257.661)"/><path class="q" d="M218.917,263.063l-6.529,9.317a10.569,10.569,0,0,1-7.559-5.4c-.289-.541.585-2.672.948-3.186l5.82-6.07Z" transform="translate(-204.772 -257.682)"/><path class="q" d="M222.3,264.457l6.021,3.607a1.74,1.74,0,0,1,.635,2.372h0a1.776,1.776,0,0,1-2.345.52l-6.524-3.224Z" transform="translate(-209.801 -259.893)"/><path class="q" d="M216.437,272.8l5.579,4.518a1.655,1.655,0,0,1,.423,2.324h0a1.763,1.763,0,0,1-2.345.18l-6.1-4.223Z" transform="translate(-207.8 -262.633)"/><path class="q" d="M213.848,275.417l3.849,4.5a1.376,1.376,0,0,1-.021,1.993h0a1.592,1.592,0,0,1-2-.459l-4.338-4.4Z" transform="translate(-206.929 -263.493)"/><path class="q" d="M221.119,269.32l5.276,4.269a1.7,1.7,0,0,1,.336,2.406h0a1.822,1.822,0,0,1-2.418.245l-5.827-3.95Z" transform="translate(-209.276 -261.49)"/></g></g><path class="f" d="M202.864,206.626l6.917-11.848a10.275,10.275,0,0,0-4.953-13.112h0a10.275,10.275,0,0,0-14.063,5.329l-7.135,10.357Z" transform="translate(-183.63 -180.603)"/><path class="r" d="M208.128,212.083l1.982,1.056,6.224-11.848" transform="translate(-191.676 -187.398)"/></g></g><g transform="translate(22.482)"><path class="g" d="M247.273,153.069s3.442,10.119.262,16.836l-12.719-5.565Z" transform="translate(-217.046 -135.29)"/><path class="q" d="M235.4,161.6l-5.328,14.063-9.405-5.139a1.41,1.41,0,0,1-.6-1.826l8.222-17.848Z" transform="translate(-212.162 -134.562)"/><path class="t" d="M238.568,172l-2.383-6.926,4.048,2.532Z" transform="translate(-217.496 -139.232)"/><path class="q" d="M244.177,132.644s5.181,1.522,4.663,8.209c0,0-.429,4.841-1.1,11.8-.357,3.679-4.918,5.924-8.4,4.7a13.512,13.512,0,0,1-5.565-3.565l-2.715-3.236c-6.17-8.852,1.922-20.837,12.365-18.121Q243.793,132.529,244.177,132.644Z" transform="translate(-215.107 -128.383)"/><path class="q" d="M256.289,154.248l1.976,3.326a.537.537,0,0,1-.423.883l-2.433-.036Z" transform="translate(-223.81 -135.677)"/><g transform="translate(28.214 14.298)"><path class="u" d="M252.466,147.909s1.938-.187,1.858.5c0,0-.067.466-1.755.6s-2.106.037-2.2-.4S251.566,147.936,252.466,147.909Z" transform="translate(-250.368 -147.885)"/><path class="u" d="M253.777,153.716a.75.75,0,1,0,.948-.51A.764.764,0,0,0,253.777,153.716Z" transform="translate(-251.478 -149.622)"/><path class="v" d="M251.613,161.276A2.744,2.744,0,0,0,254,162.422" transform="translate(-250.777 -152.283)"/></g><path class="g" d="M233.016,141.928s-1.177-16.537,11.979-8.274c0,0-3.906-10.029-16.827-6.178-2.706.806-6.184,4.164-7,6.867-1.314,4.375.708,8.491,3.828,16l5.334-4.863A19.9,19.9,0,0,1,233.016,141.928Z" transform="translate(-212.431 -126.595)"/><path class="g" d="M227.554,126.768s-15.741-1.293-19.2,24.512l16.165,7.816s.9-14.195,4.42-17.114l1.845-5.6Z" transform="translate(-208.356 -126.648)"/><path class="g" d="M249.92,134.874a15.475,15.475,0,0,1-12.4,7.857l-6.227-8.744,9.812-6.556S247.526,129.235,249.92,134.874Z" transform="translate(-215.888 -126.87)"/><g transform="translate(14.793 13.691)"><path class="q" d="M230.456,149.828a3.559,3.559,0,1,0,4.2-2.772,3.559,3.559,0,0,0-4.2,2.772Z" transform="translate(-230.383 -146.982)"/><path class="v" d="M236.244,152.553s.518-2.528-1.981-2.624" transform="translate(-231.657 -147.95)"/></g><path class="q" d="M220.332,179.523s4.55,6.489,10.055,6.129a1.269,1.269,0,0,0,1.161-1.384,10.136,10.136,0,0,0-1.587-3.788Z" transform="translate(-212.289 -143.978)"/></g></g><line class="w" x2="391.534" transform="translate(0 216.114)"/></g></g></g></svg>