<svg xmlns="http://www.w3.org/2000/svg" width="356.943" height="340.552" viewBox="0 0 356.943 340.552"><defs><style>.a{fill:#fff;}.b{fill:#f05a38;}.c{fill:#90b23d;}.d{fill:#84a43e;}.e{fill:#9dc43b;}.f{fill:#e4e7ec;}.g{fill:#f2f2f2;}.h{fill:#3c596d;}.i{fill:#ccd3d5;}.j{fill:#ffcd3f;}.k{fill:#6490cb;}.l{fill:#304960;}.m{fill:#f9a71b;}.n{fill:#fbbe19;}</style></defs><g transform="translate(-735 -4050)"><path class="a" d="M198.77-39.448c84.707,0,99.6,102.469,99.6,187.176A153.376,153.376,0,0,1,144.99,301.1c-84.707,0-203.567-108.079-203.567-192.786S114.063-39.448,198.77-39.448Z" transform="translate(793.577 4089.448)"/><g transform="translate(150.824 3972.635)"><g transform="translate(843.126 196.358)"><rect class="b" width="58.874" height="58.874"/><g transform="translate(8.152 13.935)"><path class="a" d="M824.068,196.789l-.926-3.949h-9.855v2.031h8.247l5.036,21.479h22.595l4.863-19.561Zm27.361,2.032-1.674,6.73H826.123l-1.578-6.73Zm-3.853,15.5h-19.4l-1.578-6.73H849.25Z" transform="translate(-813.287 -192.84)"/><g transform="translate(28.026 26.892)"><path class="a" d="M839.786,215.216a3.179,3.179,0,1,0,3.178,3.178,3.179,3.179,0,0,0-3.178-3.178Z" transform="translate(-836.606 -215.216)"/></g><g transform="translate(14.831 26.892)"><path class="a" d="M828.782,215.216a3.179,3.179,0,1,0,3.2,3.179,3.179,3.179,0,0,0-3.2-3.179Z" transform="translate(-825.627 -215.216)"/></g></g></g><g transform="translate(756.986 106.365)"><g transform="translate(0 0)"><g transform="translate(0)"><rect class="c" width="82.31" height="46.295" transform="matrix(0.882, -0.471, 0.471, 0.882, 0, 38.807)"/><g transform="translate(8.076 8.076)"><path class="d" d="M756.309,175.606,741.55,148a2.345,2.345,0,0,0,.961-3.173l59.371-31.739a2.345,2.345,0,0,0,3.173.961l14.758,27.609a2.345,2.345,0,0,0-.961,3.173l-59.371,31.739A2.344,2.344,0,0,0,756.309,175.606Z" transform="translate(-741.55 -113.085)"/></g></g><g transform="translate(38.715 29.1)"><path class="c" d="M782.1,137.777c3,5.6,2.487,11.717-1.148,13.66-3.606,1.923-8.971-1.046-11.966-6.65-2.979-5.573-2.471-11.687,1.133-13.613C773.752,129.231,779.119,132.2,782.1,137.777Z" transform="translate(-767.043 -130.579)"/></g><g transform="translate(21.313 24.139)"><g transform="translate(0 23.477)"><path class="c" d="M759.966,148.055a3.931,3.931,0,1,1-2.335-1.9A3.937,3.937,0,0,1,759.966,148.055Z" transform="translate(-752.564 -145.985)"/></g><g transform="translate(43.912)"><path class="c" d="M796.5,128.521a3.931,3.931,0,1,1-2.336-1.9A3.937,3.937,0,0,1,796.5,128.521Z" transform="translate(-789.101 -126.451)"/></g></g></g><g transform="translate(0.711 17.571)"><g transform="translate(0 0)"><rect class="e" width="82.31" height="46.296" transform="translate(0 24.554) rotate(-17.356)"/><g transform="translate(7.152 7.151)"><path class="c" d="M750.711,179.836l-9.338-29.881a2.344,2.344,0,0,0,1.538-2.936l64.255-20.083a2.345,2.345,0,0,0,2.936,1.538l9.339,29.881a2.344,2.344,0,0,0-1.538,2.936l-64.255,20.083A2.345,2.345,0,0,0,750.711,179.836Z" transform="translate(-741.373 -126.936)"/></g></g><g transform="translate(38.317 23.187)"><path class="e" d="M782.278,149.233c1.9,6.064.254,11.975-3.68,13.2-3.9,1.219-8.617-2.7-10.512-8.773-1.886-6.031-.24-11.941,3.658-13.161C775.677,139.277,780.4,143.2,782.278,149.233Z" transform="translate(-767.304 -140.278)"/></g><g transform="translate(18.484 23.005)"><g transform="translate(0 14.855)"><path class="e" d="M758.492,155.237a3.931,3.931,0,1,1-1.938-2.308A3.936,3.936,0,0,1,758.492,155.237Z" transform="translate(-750.802 -152.487)"/></g><g transform="translate(47.529)"><path class="e" d="M798.039,142.878a3.931,3.931,0,1,1-1.938-2.308,3.936,3.936,0,0,1,1.938,2.308Z" transform="translate(-790.349 -140.127)"/></g></g></g></g><g transform="translate(843.121 267.512)"><path class="f" d="M845.244,307.006h-1.876V250.332a8.016,8.016,0,0,0-8.007-8.007H806.5v-1.876h28.856a9.894,9.894,0,0,1,9.883,9.883Z" transform="translate(-806.5 -240.449)"/></g><g transform="translate(677.388 170.247)"><g transform="translate(0 21.887)"><rect class="g" width="171.532" height="114.501"/></g><g transform="translate(0.01)"><rect class="h" width="171.53" height="21.887"/></g><g transform="translate(18.282 95.887)"><path class="b" d="M683.812,250.317h0a11.014,11.014,0,0,0,11.014,11.014h32.053a11.012,11.012,0,0,0,11.012-11.014h0A11.013,11.013,0,0,0,726.878,239.3H694.826a11.014,11.014,0,0,0-11.014,11.014Z" transform="translate(-683.812 -239.303)"/><g transform="translate(11.71 6.063)"><g transform="translate(0 0.55)"><path class="a" d="M698.253,252.671a3.344,3.344,0,0,0,2.542-1.111l.981,1.006a4.7,4.7,0,0,1-8.219-3.057,4.631,4.631,0,0,1,4.846-4.7,4.543,4.543,0,0,1,3.5,1.55l-.961,1.059a3.339,3.339,0,0,0-2.568-1.111,3.091,3.091,0,0,0-3.226,3.142,3.142,3.142,0,0,0,3.107,3.22Z" transform="translate(-693.556 -244.806)"/></g><g transform="translate(9.875 0.224)"><path class="a" d="M703.214,254.108h-1.442v-9.574h1.442Z" transform="translate(-701.772 -244.534)"/></g><g transform="translate(13.226)"><path class="a" d="M704.56,245.265a.917.917,0,1,1,.917.917.917.917,0,0,1-.917-.917Zm1.627,8.878h-1.442v-6.865h1.442Z" transform="translate(-704.56 -244.348)"/></g><g transform="translate(16.489 2.822)"><path class="a" d="M710.773,253.772a3.417,3.417,0,0,1-3.5-3.523,3.523,3.523,0,0,1,3.7-3.549,3.565,3.565,0,0,1,2.62,1.071l-.851,1.047a2.743,2.743,0,0,0-1.8-.775,2.154,2.154,0,0,0-2.232,2.148,2.239,2.239,0,0,0,2.284,2.265,2.516,2.516,0,0,0,1.812-.877l.852.93A3.953,3.953,0,0,1,710.773,253.772Z" transform="translate(-707.276 -246.696)"/></g><g transform="translate(24.377 0.224)"><path class="a" d="M715.281,254.108h-1.442v-9.574h1.442v5.626l2.787-2.917h1.853l-2.606,2.723,2.8,4.142h-1.757l-2.043-3-1.044,1.058Z" transform="translate(-713.839 -244.534)"/></g></g></g><g transform="translate(59.161 97.379)"><g transform="translate(10.823 10.705)"><path class="h" d="M750.17,256.36l-6.4,3.419,6.25,6.25-6.61,6.61-6.25-6.25-3.419,6.4-6.906-23.341Z" transform="translate(-726.831 -249.452)"/></g><g transform="translate(11.302)"><path class="h" d="M728.4,248.423a1.173,1.173,0,0,1-1.173-1.174v-5.492a1.174,1.174,0,1,1,2.347,0v5.492a1.173,1.173,0,0,1-1.174,1.174Z" transform="translate(-727.23 -240.544)"/></g><g transform="translate(3.251 3.561)"><path class="h" d="M724.746,249.38l-3.9-3.9a1.174,1.174,0,0,1,1.66-1.66l3.9,3.9a1.174,1.174,0,1,1-1.66,1.66Z" transform="translate(-720.53 -243.507)"/></g><g transform="translate(0 11.726)"><path class="h" d="M724.478,252.649h-5.516a1.174,1.174,0,0,1,0-2.347h5.516a1.174,1.174,0,1,1,0,2.347Z" transform="translate(-717.826 -250.302)"/></g><g transform="translate(3.459 15.932)"><path class="h" d="M721.048,259.677a1.174,1.174,0,0,1,0-1.661l3.9-3.9a1.174,1.174,0,0,1,1.66,1.66l-3.9,3.9a1.174,1.174,0,0,1-1.66,0Z" transform="translate(-720.704 -253.801)"/></g><g transform="translate(15.596 3.249)"><path class="h" d="M731.147,249.177a1.172,1.172,0,0,1,0-1.66l3.9-3.9a1.174,1.174,0,1,1,1.66,1.66l-3.9,3.9a1.174,1.174,0,0,1-1.66,0Z" transform="translate(-730.802 -243.248)"/></g></g><g transform="translate(100.745 86.441)"><rect class="f" width="59.873" height="3.359"/><g transform="translate(0 10.339)"><rect class="f" width="59.873" height="3.359"/></g><g transform="translate(0 20.679)"><rect class="f" width="59.873" height="3.359"/></g><g transform="translate(0 31.018)"><rect class="f" width="59.873" height="3.359"/></g></g><g transform="translate(10.768 30.721)"><rect class="f" width="149.704" height="42.623"/><g transform="translate(15.964 14.309)"><path class="h" d="M697.845,210.991l-7-7,7-7,1.818,1.818-5.182,5.182,5.182,5.182Z" transform="translate(-690.843 -196.987)"/><g transform="translate(108.955)"><path class="h" d="M783.318,210.991l-1.818-1.818,5.182-5.182-5.182-5.185,1.818-1.818,7,7Z" transform="translate(-781.5 -196.987)"/></g></g></g><g transform="translate(55.684 41.693)"><rect class="i" width="35.719" height="3.36"/><g transform="translate(0 8.66)"><rect class="i" width="59.873" height="3.359"/></g><g transform="translate(0 17.32)"><rect class="i" width="59.873" height="3.359"/></g></g><g transform="translate(12.63 7.209)"><g transform="translate(0 0)"><path class="j" d="M686.575,169.261a3.726,3.726,0,1,1-1.085-2.646,3.733,3.733,0,0,1,1.085,2.646Z" transform="translate(-679.109 -165.517)"/></g><g transform="translate(11.086 0)"><path class="b" d="M695.8,169.261a3.726,3.726,0,1,1-1.085-2.646A3.733,3.733,0,0,1,695.8,169.261Z" transform="translate(-688.333 -165.517)"/></g><g transform="translate(22.171)"><path class="k" d="M705.023,169.261a3.726,3.726,0,1,1-1.085-2.646,3.733,3.733,0,0,1,1.085,2.646Z" transform="translate(-697.557 -165.517)"/></g></g></g><g transform="translate(864.538 324.873)"><g transform="translate(0 0)"><path class="g" d="M857.138,304.567l.024,20.142a16.409,16.409,0,0,1-32.817.041l-.025-20.143a16.41,16.41,0,1,1,32.819-.04Z" transform="translate(-824.32 -288.177)"/><g transform="translate(2.978 2.931)"><path class="f" d="M856.639,304.074l.024,20.142a16.411,16.411,0,0,1-29.864,9.415,16.407,16.407,0,0,0,25.784-13.486L852.557,300a16.466,16.466,0,0,0-2.953-9.389,16.44,16.44,0,0,1,7.034,13.459Z" transform="translate(-826.798 -290.615)"/></g><g transform="translate(14.158 9.228)"><path class="l" d="M840.6,298.056l.007,6.259a2.249,2.249,0,1,1-4.5,0l-.007-6.259a2.249,2.249,0,0,1,4.5-.006Z" transform="translate(-836.1 -295.855)"/></g></g></g><g transform="translate(625.06 193.006)"><path class="k" d="M669.663,186.886c17.447,25.746-10.425,53.618-36.169,36.175a11.235,11.235,0,0,1-2.992-2.993c-17.446-25.745,10.425-53.615,36.175-36.175a11.235,11.235,0,0,1,2.987,2.993Z" transform="translate(-625.06 -178.456)"/><g transform="translate(7.102 7.098)"><path class="a" d="M648.888,184.362a17.919,17.919,0,1,0,17.921,17.921,17.919,17.919,0,0,0-17.921-17.921Zm9.719,17.186a31.088,31.088,0,0,0-.924-7.034h5.7a16.332,16.332,0,0,1,1.923,7.034Zm-2.467,8.507h-6.515v-7.034h7.512a29.028,29.028,0,0,1-1,7.033Zm-15.5-7.034h7.509v7.034H641.64a29.025,29.025,0,0,1-1-7.036Zm1-8.507h6.51v7.034h-7.509a29.143,29.143,0,0,1,1-7.036Zm15.5,7.034h-7.513v-7.034h6.545a29.708,29.708,0,0,1,.967,7.033Zm-7.513-8.507v-7.127c2.524.446,4.735,3.164,6.095,7.127Zm-1.472-7.123v7.123h-6.046c1.372-3.926,3.57-6.664,6.046-7.124Zm0,25.609v7.118c-2.477-.46-4.676-3.2-6.049-7.118Zm1.472,7.118v-7.118h6.051c-1.374,3.923-3.574,6.661-6.051,7.117Zm12.86-25.6h-5.226a16.189,16.189,0,0,0-3.667-6.512,16.509,16.509,0,0,1,8.893,6.506Zm-18.3-6.514a16.186,16.186,0,0,0-3.669,6.514h-5.227a16.512,16.512,0,0,1,8.9-6.52Zm-9.79,7.986h5.7a31.142,31.142,0,0,0-.926,7.034h-6.692a16.344,16.344,0,0,1,1.92-7.04Zm4.773,8.507a31,31,0,0,0,.923,7.034H634.4a16.327,16.327,0,0,1-1.923-7.034Zm-3.877,8.507h5.223a16.153,16.153,0,0,0,3.67,6.51,16.5,16.5,0,0,1-8.893-6.516Zm18.3,6.509a16.158,16.158,0,0,0,3.669-6.509h5.223a16.511,16.511,0,0,1-8.891,6.5Zm9.786-7.981h-5.692a31.084,31.084,0,0,0,.923-7.034H665.3a16.345,16.345,0,0,1-1.922,7.028Z" transform="translate(-630.97 -184.362)"/></g></g><g transform="translate(632.58 317.083)"><g transform="translate(0 1.033)"><g transform="translate(0 39.811)"><rect class="m" width="78.041" height="19.906"/></g><g transform="translate(5.793)"><rect class="m" width="78.041" height="19.906"/></g><g transform="translate(14.559 19.906)"><rect class="n" width="78.041" height="19.906"/></g></g><g transform="translate(70.491 0)"><g transform="translate(0)"><g transform="translate(0)"><circle class="j" cx="27.582" cy="27.582" r="27.582" transform="translate(0 53.675) rotate(-76.7)"/></g></g><g transform="translate(14.452 14.471)"><path class="m" d="M739.42,312.433a18.713,18.713,0,1,1-18.7-18.7,18.713,18.713,0,0,1,18.7,18.7Z" transform="translate(-701.995 -293.736)"/></g><g transform="translate(24.905 20.394)"><path class="j" d="M718.273,324.215v-2.25a13.369,13.369,0,0,1-7.581-3.365l2.25-2.68a10.669,10.669,0,0,0,5.331,2.68v-5.978c-3.9-.93-6.718-2.2-6.718-6.209,0-3.749,2.931-6.009,6.718-6.21v-1.54h1.971v1.572a12.889,12.889,0,0,1,6.409,2.31l-2,2.836a9.94,9.94,0,0,0-4.406-1.788v5.793h.093c3.958.929,6.871,2.3,6.871,6.37,0,3.887-3.113,6.05-6.964,6.239v2.22Zm-2.959-18.166c0,1.692,1.221,2.232,2.959,2.788v-5.331c-1.562.141-2.954.964-2.954,2.543Zm8.134,10c0-1.782-1.362-2.341-3.2-2.9V318.7c1.659-.172,3.209-1,3.209-2.65Z" transform="translate(-710.692 -298.664)"/></g></g></g></g></g></svg>