<svg xmlns="http://www.w3.org/2000/svg" xmlns:xlink="http://www.w3.org/1999/xlink" width="390.829" height="390.829" viewBox="0 0 390.829 390.829"><defs><style>.a{fill:#e6edff;}.b{fill:#fff;}.c,.i{fill:#d8e3ff;}.c{opacity:0.14;}.d{fill:#13b6a1;}.e{fill:#0ca68f;}.f,.h{fill:#6daffd;}.g{fill:#f9faff;}.h{opacity:0.05;}.j{fill:#fdb602;}.k{fill:#ffa400;}.l{fill:#fc7874;}.m{fill:#fe9592;}.n{fill:#0a4484;}.o{clip-path:url(#a);}.p{fill:#4f94f9;}.q{fill:#4f81ef;}.r{fill:none;stroke:#231f20;stroke-miterlimit:10;}.s{fill:#f0f4ff;}</style><clipPath id="a"><circle class="a" cx="59.27" cy="59.27" r="59.27"/></clipPath></defs><g transform="translate(-192.21 -4436)"><path class="b" d="M198.77-39.448c84.707,0,99.6,102.469,99.6,187.176A153.376,153.376,0,0,1,144.99,301.1c-84.707,0-203.567-108.079-203.567-192.786S114.063-39.448,198.77-39.448Z" transform="translate(256.577 4508.722)"/><g transform="translate(-345.965 4339.21)"><circle class="c" cx="138.178" cy="138.178" r="138.178" transform="translate(538.175 292.204) rotate(-45)"/><g transform="translate(580.183 168.136)"><path class="d" d="M650.875,420.093s-11.2-25.028-50.9-40.354c11.708,44.233,43.269,58.061,43.269,58.061Z" transform="translate(-599.97 -258.736)"/><path class="d" d="M677.48,385.039s-5.091-32.749-36.143-73.812c-5.6,55.656,17.14,82.692,17.14,82.692Z" transform="translate(-612.932 -236.798)"/><path class="e" d="M686.74,408.269l3.839-1.794s-1.715-11.026-9.219-28.3A83.658,83.658,0,0,0,686.74,408.269Z" transform="translate(-626.03 -258.234)"/><path class="d" d="M711.62,386.274s5.547-26.852-17.7-62.5c-16.363,42.73,1.156,72.4,1.156,72.4Z" transform="translate(-627.815 -240.816)"/><path class="e" d="M641.275,314.123S664.7,371.7,672.312,399.645C672.312,399.645,644.234,324.308,641.275,314.123Z" transform="translate(-613.196 -237.726)"/><path class="e" d="M599.97,382.926s45.572,42.27,64.285,64.377C664.255,447.305,606.958,390.906,599.97,382.926Z" transform="translate(-599.97 -259.756)"/><path class="e" d="M697.965,327.816s4.143,47.119,3.962,70.6C701.926,398.412,697.245,340.978,697.965,327.816Z" transform="translate(-631.324 -242.11)"/><path class="d" d="M885.312,514.576S921.326,486.9,963.8,489.612c-29.157,35.263-78.971,44.242-78.971,44.242Z" transform="translate(-691.182 -293.857)"/><path class="e" d="M885.512,518l-.054,2.183,4.674,5.532s13.918-8.655,29.352-25.6A139.858,139.858,0,0,0,885.512,518Z" transform="translate(-691.383 -297.278)"/><path class="d" d="M872.42,473.767s30.526-40.034,75.921-64.318c-18.225,52.885-62.384,80.34-62.384,80.34Z" transform="translate(-687.208 -268.249)"/><path class="d" d="M868.425,442.439s6.209-26.707,42.253-49.339c-3.037,45.655-31.374,65.261-31.374,65.261Z" transform="translate(-685.929 -263.014)"/><g transform="translate(175.881 133.363)"><path class="e" d="M953.177,412.52s-39.367,44.421-60.068,62.765C893.109,475.285,945.71,419.364,953.177,412.52Z" transform="translate(-869.714 -402.595)"/><path class="e" d="M905.485,397.92s-30.03,51.2-46.792,73.2C858.694,471.121,899.486,406.079,905.485,397.92Z" transform="translate(-858.694 -397.92)"/><path class="e" d="M958.76,491.6s-53.541,25-81.176,34.825C877.584,526.425,943,496.382,958.76,491.6Z" transform="translate(-864.742 -427.916)"/></g><path class="e" d="M656.289,425.245l5.795-2.708a82.316,82.316,0,0,0-16.146-16.909C650.843,418.765,656.289,425.245,656.289,425.245Z" transform="translate(-614.689 -267.025)"/><path class="f" d="M22.794,0h217.06a22.794,22.794,0,0,1,22.794,22.794v82.412A22.794,22.794,0,0,1,239.855,128H22.794A22.794,22.794,0,0,1,0,105.207V22.794A22.794,22.794,0,0,1,22.794,0Z" transform="translate(204.061 0) rotate(90)"/><rect class="g" width="114.276" height="248.925" rx="20.531" transform="translate(82.921 6.863)"/></g><path class="a" d="M838.774,264.255H779.242a5.528,5.528,0,0,0-5.528,5.528V291.05a5.528,5.528,0,0,0,5.529,5.529H835.01a5.881,5.881,0,0,1,3.681,1.292c2.135,1.712,5.611,4.572,5.611,5.043v-33.13A5.528,5.528,0,0,0,838.774,264.255Z" transform="translate(-75.419 -53.622)"/><path class="c" d="M721.95,222.674v54.112c1.391.1,2.795.15,4.215.15a59.614,59.614,0,0,0,59.614-59.614c0-1.85-.089-3.679-.254-5.486H732.788A10.838,10.838,0,0,0,721.95,222.674Z" transform="translate(-58.845 -36.838)"/><circle class="h" cx="34.431" cy="34.431" r="34.431" transform="translate(749.375 259.237)"/><circle class="h" cx="21.183" cy="21.183" r="21.183" transform="translate(841.023 436.002) rotate(-82.531)"/><circle class="h" cx="10.591" cy="10.591" r="10.591" transform="translate(595.41 175.128)"/><circle class="c" cx="6.223" cy="6.223" r="6.223" transform="translate(676.444 315.366) rotate(-81.738)"/><circle class="c" cx="6.223" cy="6.223" r="6.223" transform="translate(745.595 182.519)"/><path class="c" d="M859.986,536.755V482.643c-1.392-.1-2.8-.15-4.215-.15a59.614,59.614,0,0,0-59.615,59.615c0,1.85.089,3.678.254,5.485h52.734a10.838,10.838,0,0,0,10.841-10.838Z" transform="translate(-82.606 -123.502)"/><path class="a" d="M838.774,408.332H779.242a5.528,5.528,0,0,0-5.528,5.528v21.267a5.528,5.528,0,0,0,5.528,5.528H835.01a5.881,5.881,0,0,1,3.681,1.292c2.135,1.712,5.611,4.572,5.611,5.043V413.86A5.528,5.528,0,0,0,838.774,408.332Z" transform="translate(-75.419 -99.756)"/><path class="a" d="M737.725,338.186h59.531a5.529,5.529,0,0,1,5.529,5.529V364.98a5.528,5.528,0,0,1-5.529,5.528H741.488a5.877,5.877,0,0,0-3.681,1.292c-2.135,1.712-5.611,4.572-5.611,5.043V343.715A5.529,5.529,0,0,1,737.725,338.186Z" transform="translate(-62.125 -77.295)"/><path class="a" d="M737.725,478.68h59.531a5.528,5.528,0,0,1,5.529,5.529v21.269a5.528,5.528,0,0,1-5.529,5.528H741.488a5.878,5.878,0,0,0-3.681,1.292c-2.135,1.712-5.611,4.572-5.611,5.043V484.208A5.528,5.528,0,0,1,737.725,478.68Z" transform="translate(-62.125 -122.281)"/><g transform="translate(680.178 218.636)"><rect class="i" width="40.065" height="3.874" transform="translate(28.127)"/><rect class="i" width="40.065" height="3.874" transform="translate(28.127 11.888)"/><rect class="i" width="11.499" height="3.874" transform="translate(0 50.642)"/><rect class="i" width="33.331" height="3.874" transform="translate(15.837 50.642)"/><rect class="i" width="23.377" height="3.874" transform="translate(0 59.648)"/><rect class="i" width="15.136" height="3.874" transform="translate(28.376 59.648)"/><rect class="i" width="11.499" height="3.874" transform="translate(28.127 97.689)"/><rect class="i" width="33.331" height="3.874" transform="translate(43.965 97.689)"/><rect class="i" width="7.608" height="3.874" transform="translate(28.127 106.695)"/><rect class="i" width="32.013" height="3.874" transform="translate(39.626 106.695)"/><rect class="i" width="33.331" height="3.874" transform="translate(13.879 146.545)"/><rect class="i" width="32.013" height="3.874" transform="translate(9.541 155.552)"/></g><g transform="translate(603.757 314.986)"><path class="a" d="M736.459,468.666a50.7,50.7,0,1,1-14.848-36.057A50.905,50.905,0,0,1,736.459,468.666Z" transform="translate(-634.648 -417.76)"/><path class="j" d="M728.165,532.99a50.9,50.9,0,0,1-73.9-1.3c4.049-14,18.978-24.378,36.777-24.378C709.387,507.313,724.686,518.341,728.165,532.99Z" transform="translate(-640.929 -446.435)"/><path class="k" d="M691.234,510.282c18.342,0,33.639,11.025,37.12,25.672q1.646-1.415,3.168-2.964c-3.479-14.649-18.777-25.677-37.122-25.677-12.013,0-22.712,4.733-29.648,12.109A41.538,41.538,0,0,1,691.234,510.282Z" transform="translate(-644.288 -446.435)"/><path class="l" d="M706.286,512.458h0a4.412,4.412,0,0,1-4.412-4.412v-9.163H710.7v9.162A4.412,4.412,0,0,1,706.286,512.458Z" transform="translate(-656.174 -443.736)"/><path class="m" d="M720.751,467.714c-1.02-3.054-4.938-1.134-4.938-1.134s-.048.086-.129.241c-.047-.854-.11-1.364-.11-1.364.129-2.946-1.415-5.506-3.6-7.64a18.239,18.239,0,0,0-24.94-.26c-2.425,2.21-4.2,4.876-4.068,7.9,0,0-.056.449-.1,1.218l-.05-.094s-3.92-1.921-4.938,1.134,1.1,8.518,5.81,8.784h.057c1.564,5.977,5.581,12.1,15.527,11.859,9.946.245,13.964-5.883,15.526-11.86.049,0,.092,0,.142,0C719.65,476.232,721.768,470.768,720.751,467.714Z" transform="translate(-648.41 -428.966)"/><path class="n" d="M681.983,459.554s3.824-.9,4.646-9.441c6.818,12.951,20.441,7.86,20.441,7.86s-11.021,1.131-13.057-5.542c10.279,6.236,17.073-1.636,17.073-1.636s.076,6.622,3.837,8.763c8.626-5.212,9.406-13.8,4.315-16.969,3.281-5.542.792-11.765.792-11.765a15.958,15.958,0,0,1-11.538,2.828c-6.448-1.131-20.928-5.769-26.018,7.579C674.1,439.082,670.857,452.765,681.983,459.554Z" transform="translate(-647.521 -421.943)"/></g><g transform="translate(749.014 175.128)"><circle class="a" cx="59.27" cy="59.27" r="59.27" transform="translate(0)"/><g class="o" transform="translate(0)"><g transform="translate(13.104 24.855)"><path class="n" d="M898.7,343.69s-28.123.027-28.123,19.472c0,0-.322,11.249,16.552,20.089l1.607-10.125s-10.6-3.375-9.642-11.973,14.987-8.589,14.987-8.589Z" transform="translate(-868.552 -279.04)"/><path class="n" d="M960.875,343.69S989,343.716,989,363.162c0,0,.321,11.249-16.553,20.089l-1.607-10.125s10.6-3.375,9.642-11.973-14.987-8.589-14.987-8.589Z" transform="translate(-897.466 -279.04)"/><path class="p" d="M946.146,347.538l-2.47-4.025a6.391,6.391,0,0,0-5.445-3.046H914.5a6.39,6.39,0,0,0-5.444,3.045l-2.47,4.026a16.094,16.094,0,0,0,1.286,16.874c6.107,8.678,18.491,15.107,18.491,15.107s12.387-6.428,18.491-15.107a16.1,16.1,0,0,0,1.292-16.874Z" transform="translate(-879.507 -278.008)"/><path class="q" d="M905.969,350.762l2.47-4.025a6.39,6.39,0,0,1,5.444-3.047h23.731a6.39,6.39,0,0,1,5.444,3.046l2.47,4.025a16.124,16.124,0,0,1,1.734,8.935,16.111,16.111,0,0,0-1.079-12.158l-2.47-4.025a6.39,6.39,0,0,0-5.445-3.046h-23.73a6.39,6.39,0,0,0-5.444,3.045l-2.469,4.026a15.587,15.587,0,0,0-1.723,5.812A13.272,13.272,0,0,1,905.969,350.762Z" transform="translate(-879.544 -278.008)"/><path class="r" d="M899.871,352.523" transform="translate(-877.933 -281.869)"/><rect class="n" width="8.778" height="8.137" rx="4.069" transform="translate(42.471 56.512)"/><g transform="translate(34.463 69.248)"><path class="g" d="M932.279,355.115H920.626a2.33,2.33,0,0,1-2.33-2.33h0a2.33,2.33,0,0,1,2.33-2.33h11.653a2.33,2.33,0,0,1,2.33,2.33h0A2.329,2.329,0,0,1,932.279,355.115Z" transform="translate(-918.296 -350.455)"/><path class="j" d="M948.936,355.115h0a2.33,2.33,0,0,1-2.331-2.33h0a2.33,2.33,0,0,1,2.331-2.33h0a2.33,2.33,0,0,1,2.33,2.33h0A2.33,2.33,0,0,1,948.936,355.115Z" transform="translate(-927.361 -350.455)"/></g><path class="j" d="M990.886,298.183h0V276.166h0a8.518,8.518,0,0,1,8.518,8.517v4.982A8.518,8.518,0,0,1,990.886,298.183Z" transform="translate(-907.076 -257.419)"/><path class="j" d="M876.12,298.183h0V276.166h0a8.518,8.518,0,0,0-8.52,8.521v4.982A8.518,8.518,0,0,0,876.12,298.183Z" transform="translate(-867.6 -257.419)"/><path class="q" d="M950.042,256.293a41.016,41.016,0,0,0-15.051-6.015,90.4,90.4,0,0,0-34.787,0,45.426,45.426,0,0,0-15.05,6.015c-7.719,4.954-7.706,14.863-7.706,22.931S878.664,308.1,917.6,308.1s40.149-20.808,40.149-28.876S958.694,262.522,950.042,256.293Z" transform="translate(-870.753 -248.589)"/><path class="g" d="M947.239,265.059a33.481,33.481,0,0,0-11.928-4.555,74.944,74.944,0,0,0-27.571,0,36.995,36.995,0,0,0-11.928,4.555c-6.118,3.75-6.108,11.25-6.108,17.357s.965,21.856,31.82,21.856,31.82-15.749,31.82-21.856S954.1,269.774,947.239,265.059Z" transform="translate(-874.678 -251.995)"/><path class="s" d="M948.052,265.059a33.479,33.479,0,0,0-11.928-4.555,74.945,74.945,0,0,0-27.571,0,37,37,0,0,0-11.928,4.555,11.152,11.152,0,0,0-4.381,4.977,36.964,36.964,0,0,1,11.919-4.548,74.95,74.95,0,0,1,27.571,0,33.342,33.342,0,0,1,11.928,4.555c6.857,4.714,6.107,11.249,6.107,17.357a20.683,20.683,0,0,1-2.476,10.613c6.526-5.094,6.866-12.008,6.866-15.6C954.158,276.309,954.909,269.774,948.052,265.059Z" transform="translate(-875.491 -251.995)"/><path class="j" d="M918.727,296.2h0a3.127,3.127,0,0,1-3.127-3.127v-6.087a3.127,3.127,0,0,1,3.127-3.127h0a3.127,3.127,0,0,1,3.127,3.127v6.087a3.127,3.127,0,0,1-3.127,3.127Z" transform="translate(-882.97 -259.882)"/><path class="j" d="M947.964,296.2h0a3.127,3.127,0,0,1-3.127-3.127v-6.087a3.127,3.127,0,0,1,3.127-3.127h0a3.127,3.127,0,0,1,3.127,3.127v6.087a3.127,3.127,0,0,1-3.127,3.127Z" transform="translate(-892.331 -259.882)"/></g></g></g></g></g></svg>