<svg xmlns="http://www.w3.org/2000/svg" xmlns:xlink="http://www.w3.org/1999/xlink" width="368" height="340.552" viewBox="0 0 368 340.552"><defs><style>.a,.v{fill:#fff;}.b{fill:url(#a);}.c{fill:#609a3e;}.d{fill:url(#b);}.e{fill:url(#c);}.f{fill:url(#d);}.g{fill:#1a598c;}.h{fill:#2273b5;}.i{fill:#3d96e0;}.j{fill:#4b59c7;}.k{fill:#6f5be0;}.l{fill:#b487fe;}.m{fill:#3788cc;}.n{fill:#c4c4c4;}.o{fill:#b8d6ff;}.p{fill:#ffa347;}.q{fill:#d6d6d6;}.r{fill:url(#e);}.s{fill:url(#f);}.t{fill:#bde1ff;}.u{fill:#4aafff;}.v{opacity:0.73;}.w{fill:url(#g);}.x{fill:url(#h);}.y{fill:url(#i);}.z{fill:url(#j);}.aa{fill:url(#k);}.ab{fill:url(#l);}.ac{fill:#2d3038;}.ad{fill:#eea886;}.ae{fill:#1d3b54;}.af{fill:#122536;}.ag{fill:#172f42;}.ah{fill:#fccca2;}.ai{fill:#e54242;}.aj{fill:#b8b8b8;opacity:0.1;}.ak{fill:#869ac2;opacity:0.3;}.al{fill:#3f444f;}.am{fill:#5c544d;}.an{fill:#1c1e26;}.ao{fill:#20284d;}.ap{fill:#e2d2ca;}.aq{fill:#313d75;}.ar{fill:#c98462;}.as{fill:#de9d7d;}</style><linearGradient id="a" x1="0.5" y1="1.9" x2="0.5" y2="-0.534" gradientUnits="objectBoundingBox"><stop offset="0" stop-color="#d5e4ff"/><stop offset="1" stop-color="#edfffe"/></linearGradient><linearGradient id="b" x1="57.039" y1="-72.227" x2="57.039" y2="-73.353" gradientUnits="objectBoundingBox"><stop offset="0.005" stop-color="#3c6127"/><stop offset="1" stop-color="#639c38"/></linearGradient><linearGradient id="c" x1="39.089" y1="-195.124" x2="39.089" y2="-197.321" xlink:href="#b"/><linearGradient id="d" x1="0.852" y1="1.246" x2="0.231" y2="-0.07" xlink:href="#a"/><linearGradient id="e" x1="0.5" y1="-0.816" x2="0.5" y2="4.536" gradientUnits="objectBoundingBox"><stop offset="0" stop-color="#40d5e6"/><stop offset="1" stop-color="#57f"/></linearGradient><linearGradient id="f" y1="-0.994" y2="1.613" xlink:href="#e"/><linearGradient id="g" x1="0.5" y1="-0.275" x2="0.5" y2="1.992" gradientUnits="objectBoundingBox"><stop offset="0" stop-color="#ffc05c"/><stop offset="1" stop-color="#ff3857"/></linearGradient><linearGradient id="h" y1="0.565" y2="2.832" xlink:href="#g"/><linearGradient id="i" y1="0.004" y2="2.271" xlink:href="#g"/><linearGradient id="j" y1="0.12" y2="2.387" xlink:href="#g"/><linearGradient id="k" x1="0.5" y1="0.173" x2="0.5" y2="1.348" gradientUnits="objectBoundingBox"><stop offset="0" stop-color="#d3dae0"/><stop offset="1" stop-color="#fff"/></linearGradient><linearGradient id="l" x1="-17.203" y1="0.5" x2="-16.189" y2="0.5" gradientUnits="objectBoundingBox"><stop offset="0" stop-color="#ff9f55"/><stop offset="1" stop-color="#ffd255"/></linearGradient></defs><g transform="translate(-776 -4872)"><path class="a" d="M198.77-39.448c84.707,0,99.6,102.469,99.6,187.176A153.376,153.376,0,0,1,144.99,301.1c-84.707,0-203.567-108.079-203.567-192.786S114.063-39.448,198.77-39.448Z" transform="translate(845.633 4911.448)"/><g transform="translate(517.197 4809.942)"><g transform="translate(333.141 100.35)"><path class="b" d="M4.807,0H133.761a4.808,4.808,0,0,1,4.808,4.808V19.739a4.807,4.807,0,0,1-4.807,4.807H4.807A4.807,4.807,0,0,1,0,19.739V4.807A4.807,4.807,0,0,1,4.807,0Z" transform="translate(53.036 206.955)"/><g transform="translate(219.302 20.595)"><path class="c" d="M619.324,184.481c-.662-.229-1.028-.393-1.028-.393a10.744,10.744,0,0,0,1.071-.452c5.179-2.477,14.34-11.118,23.979-37.445,10.346-28.254,26.338-19.27,26.338-19.27-8.343,3.964-6.816,22.739-19.3,44.362C639.6,189.954,623.516,185.928,619.324,184.481Z" transform="translate(-618.296 -125.564)"/><g transform="translate(0 17.194)"><path class="d" d="M619.324,188.337c-.662-.229-1.028-.393-1.028-.393a10.74,10.74,0,0,0,1.071-.453c8-2.062,17.877-7.106,22.9-17.116,3.843-7.65,9.674-23.6,9.73-23.761l.771.278c-.06.163-5.908,16.16-9.767,23.851C637.8,181.089,627.558,186.26,619.324,188.337Z" transform="translate(-618.296 -146.614)"/></g></g><g transform="translate(220.596 43.688)"><path class="c" d="M657.363,194.811c-25.684,13.976-36.606-6.5-37.431-8.145l-.051-.105c.765.124,1.521.215,2.261.261,19.767,1.44,31.549-21.352,45.43-29.65,14.4-8.613,25.375,2.181,25.375,2.181C679.3,154.839,684.1,180.253,657.363,194.811Z" transform="translate(-619.881 -153.836)"/><g transform="translate(0 10.317)"><path class="e" d="M637.729,193.3c-6.423.268-12.648-1.724-17.8-4.329l-.051-.105c.765.124,1.521.215,2.261.261a34.667,34.667,0,0,0,15.551,3.355c7.106-.3,13.251-3.4,18.27-9.2,15.909-18.422,21.237-16.826,21.46-16.745l-.138.386-.124.39h-.014c-.31-.063-5.612-.8-20.565,16.509C651.411,189.806,645.067,193,637.729,193.3Z" transform="translate(-619.881 -166.467)"/></g></g><rect class="f" width="244.642" height="220.569" rx="12.053" transform="translate(0)"/><g transform="translate(12.81 117.331)"><path class="a" d="M405.377,271.551a20.552,20.552,0,1,0-38.646-14q-.236.654-.427,1.307a20.553,20.553,0,0,0,39.073,12.69Zm-24.571,7.489a15.393,15.393,0,0,1-9.557-18.753q.142-.49.32-.98a15.408,15.408,0,1,1,9.238,19.736Z" transform="translate(-365.496 -243.994)"/><g transform="translate(9.343 0.008)"><path class="g" d="M379.742,251.64l-2.807-4.311a20.584,20.584,0,0,1,23.837,1l-3.159,4.061A15.43,15.43,0,0,0,379.742,251.64Z" transform="translate(-376.935 -244.004)"/></g><g transform="translate(0.808 3.335)"><path class="h" d="M371.428,261.033l-4.943-1.425q.191-.653.427-1.307a20.461,20.461,0,0,1,8.109-10.225l2.807,4.311a15.339,15.339,0,0,0-6.079,7.665C371.63,260.377,371.523,260.7,371.428,261.033Z" transform="translate(-366.485 -248.077)"/></g><g transform="translate(0.001 14.867)"><path class="i" d="M365.5,268.168a20.459,20.459,0,0,1,.8-5.973l4.943,1.425a15.308,15.308,0,0,0-.6,4.478Z" transform="translate(-365.498 -262.195)"/></g></g><g transform="translate(69.589 117.332)"><path class="a" d="M475.761,268.355a20.552,20.552,0,1,0-40.393-7.608q-.128.683-.21,1.362a20.552,20.552,0,0,0,40.6,6.246Zm-23.046,11.339a15.4,15.4,0,0,1-12.448-16.974q.061-.509.158-1.021a15.408,15.408,0,1,1,12.29,18Z" transform="translate(-435.008 -243.996)"/><g transform="translate(6.722 0.006)"><path class="j" d="M446.7,253.159l-3.463-3.8a20.584,20.584,0,0,1,23.688-2.846l-2.464,4.516a15.43,15.43,0,0,0-17.76,2.134Z" transform="translate(-443.237 -244.003)"/></g><g transform="translate(0.151 5.358)"><path class="k" d="M440.3,263.921l-5.108-.611q.082-.679.211-1.362a20.456,20.456,0,0,1,6.36-11.394l3.463,3.8a15.344,15.344,0,0,0-4.769,8.541Q440.361,263.416,440.3,263.921Z" transform="translate(-435.193 -250.555)"/></g><g transform="translate(0.004 18.113)"><path class="l" d="M435.324,272.2a20.5,20.5,0,0,1-.163-6.025l5.108.611a15.335,15.335,0,0,0,.123,4.517Z" transform="translate(-435.012 -266.171)"/></g></g><g transform="translate(126.37 117.332)"><path class="a" d="M534.733,246.408A20.552,20.552,0,0,0,515.426,282.7q.613.326,1.237.607a20.553,20.553,0,0,0,18.07-36.895Zm3.949,25.381a15.389,15.389,0,0,1-19.913,6.82q-.468-.211-.928-.455a15.408,15.408,0,1,1,20.841-6.365Z" transform="translate(-504.523 -243.996)"/><g transform="translate(0.007 5.773)"><path class="g" d="M511.111,272.351l-4.663,2.17a20.584,20.584,0,0,1,4.347-23.458l3.574,3.7a15.43,15.43,0,0,0-3.258,17.588Z" transform="translate(-504.531 -251.063)"/></g><g transform="translate(1.924 27.061)"><path class="h" d="M519.2,284.678l-2.106,4.693c-.416-.187-.829-.39-1.237-.607a20.458,20.458,0,0,1-8.979-9.469l4.663-2.17a15.337,15.337,0,0,0,6.731,7.1Q518.733,284.468,519.2,284.678Z" transform="translate(-506.878 -277.125)"/></g><g transform="translate(12.139 34.614)"><path class="m" d="M525.184,292.7a20.483,20.483,0,0,1-5.8-1.639l2.107-4.693a15.347,15.347,0,0,0,4.348,1.23Z" transform="translate(-519.385 -286.372)"/></g></g><rect class="n" width="41.115" height="3.171" transform="translate(12.81 168.21)"/><rect class="n" width="30.768" height="3.171" transform="translate(12.81 174.949)"/><rect class="n" width="22.672" height="3.171" transform="translate(69.59 168.21)"/><rect class="n" width="33.652" height="3.171" transform="translate(69.59 174.949)"/><rect class="n" width="25.198" height="3.171" transform="translate(130.099 168.21)"/><rect class="n" width="29.186" height="3.171" transform="translate(130.099 174.949)"/><rect class="o" width="29.898" height="3" transform="translate(193.881 33.481)"/><rect class="o" width="34.364" height="3" transform="translate(193.881 42.766)"/><rect class="o" width="17.78" height="3" transform="translate(193.828 52.002)"/><rect class="o" width="27.393" height="3" transform="translate(193.828 61.236)"/><rect class="a" width="130.827" height="3.069" transform="translate(12.81 190.097)"/><rect class="a" width="141.361" height="3.069" transform="translate(12.81 197.256)"/><rect class="a" width="91.724" height="3.068" transform="translate(12.81 204.416)"/><rect class="p" width="68.12" height="3.069" transform="translate(12.81 190.097)"/><rect class="p" width="73.606" height="3.069" transform="translate(12.81 197.256)"/><rect class="p" width="47.76" height="3.068" transform="translate(12.81 204.416)"/><rect class="q" width="26.649" height="3.284" transform="translate(31.923 89.892)"/><rect class="q" width="39.579" height="3.284" transform="translate(25.457 84.045)"/><circle class="r" cx="6.881" cy="6.881" r="6.881" transform="translate(38.426 32.098)"/><path class="s" d="M414.883,172.735v13.086a30.271,30.271,0,0,1-24.946,0V172.735a12.473,12.473,0,1,1,24.946,0Z" transform="translate(-357.163 -111.325)"/><rect class="a" width="64.092" height="4.131" transform="translate(88.307 28.803)"/><rect class="a" width="24.907" height="4.131" transform="translate(159.285 28.803)"/><rect class="a" width="30.096" height="4.131" transform="translate(88.307 19.394)"/><g transform="translate(88.705 44.904)"><rect class="t" width="0.537" height="48.962"/><g transform="translate(13.641)"><rect class="t" width="0.537" height="48.962"/></g><g transform="translate(27.282)"><rect class="t" width="0.537" height="48.962"/></g><g transform="translate(40.923)"><rect class="t" width="0.538" height="48.962"/></g><g transform="translate(54.564)"><rect class="t" width="0.538" height="48.962"/></g><g transform="translate(68.206)"><rect class="t" width="0.537" height="48.962"/></g><g transform="translate(81.847)"><rect class="t" width="0.538" height="48.962"/></g><g transform="translate(95.488)"><rect class="t" width="0.538" height="48.962"/></g></g><path class="u" d="M458.74,189.26l9.291-9.29,4.521,4.522,9.883-9.883,7.833,7.832,10.024-10.021,6.868,6.867L524.646,161.8l13.105,13.105,7.936-7.937,8.541,8.541v29.967H458.74Z" transform="translate(-369.767 -111.607)"/><path class="k" d="M458.74,195.706l7.427-7.427,4.693,4.693,5.434-5.433,10.237,10.237,12.8-12.8,4.59,4.591,13.206-13.206,12.06,12.061L554.206,163.4v42.363H458.74Z" transform="translate(-369.767 -111.9)"/><rect class="t" width="5.716" height="1.211" transform="translate(88.705 40.778)"/><rect class="t" width="3.913" height="1.211" transform="translate(102.346 40.778)"/><rect class="t" width="4.832" height="1.211" transform="translate(115.986 40.778)"/><rect class="t" width="3.6" height="1.211" transform="translate(129.628 40.778)"/><rect class="t" width="3.007" height="1.211" transform="translate(143.269 40.778)"/><rect class="t" width="5.842" height="1.211" transform="translate(156.911 40.778)"/><rect class="t" width="4.072" height="1.211" transform="translate(170.551 40.778)"/><rect class="t" width="2.571" height="1.211" transform="translate(184.192 40.778)"/><path class="v" d="M7.236,0H69.165A7.236,7.236,0,0,1,76.4,7.236V96.13a7.235,7.235,0,0,1-7.235,7.235H7.236A7.236,7.236,0,0,1,0,96.129V7.236A7.236,7.236,0,0,1,7.236,0Z" transform="translate(191.859 109.961)"/><g transform="translate(209.911 126.87)"><rect class="q" width="2.25" height="69.547"/><rect class="q" width="2.25" height="69.547" transform="translate(12.682)"/><rect class="q" width="2.25" height="69.547" transform="translate(25.364)"/><rect class="q" width="2.25" height="69.547" transform="translate(38.047)"/></g><rect class="w" width="4.228" height="28.228" transform="translate(208.923 161.643)"/><rect class="x" width="4.228" height="28.228" transform="translate(221.605 137.915)"/><rect class="y" width="4.227" height="28.228" transform="translate(234.288 153.768)"/><rect class="z" width="4.227" height="28.228" transform="translate(246.97 150.495)"/><g transform="translate(14.246 16.017)"><path class="aa" d="M398.255,181.946a30.978,30.978,0,1,1,12.811-2.763,30.727,30.727,0,0,1-12.811,2.763Zm0-60.358a29.367,29.367,0,1,0,28.7,23.161,29.361,29.361,0,0,0-28.7-23.161Z" transform="translate(-367.254 -119.959)"/></g></g><g transform="translate(258.802 200.695)"><path class="k" d="M300.676,285.283s5.741-13.008-.92-11.93a24.261,24.261,0,0,0-4.595,5.692c-1.763,2.893-5.428,10.548-5.292,13.138s1.977,4.519,3.966,8.678c0,0,4.134,7.718,4.308,8.648l4.37-2.269s-3.7-7.38-6.312-13.867Z" transform="translate(-264.493 -232.374)"/><rect class="ab" width="89.237" height="15.171" transform="translate(90.518 76.93) rotate(170.336)"/><rect class="ac" width="4.767" height="11.515" transform="translate(94.911 74.328) rotate(170.337)"/><path class="ad" d="M343.489,420.029h1.083s-.36-4.091.642-4.132,3.49,3.328,4.974,3.851,9.1.962,9.148-.442-2.928-1.965-3.85-2.369-5.415-4.774-6.218-5.3-2.171-4.147-2.171-4.147l-4.255-.189s-.24,3.389-.5,5.182a15.973,15.973,0,0,0-.176,1.681C342.126,415.7,343.489,420.029,343.489,420.029Z" transform="translate(-274.074 -256.924)"/><path class="ad" d="M309.974,419.106h.9V415.3c.752.063,3.28,2.455,4.063,3.147s1.854.661,5.146.87,3.6-1.763,3.084-2.433-2.205-.965-3.084-1.384-4.336-4.323-5.259-5.245-1.485-3.567-1.485-3.567l-3.85.336a23.516,23.516,0,0,1-.414,4.447h0v.015c-.038.173-.082.342-.124.509C308.38,414.1,309.974,419.106,309.974,419.106Z" transform="translate(-267.966 -256.81)"/><path class="ae" d="M324.081,315.593a38.609,38.609,0,0,1,1.584,4.31c.128.87,3.535,9.1,4.52,14.657.59,3.323,2.218,13.727,2.351,15.05.226,2.264,1.291,7.262,1.456,9.574.092,1.293,6.459,21.135,8,31.5a19.1,19.1,0,0,1-6.413-.185,108.522,108.522,0,0,1-8.693-25.893,104.443,104.443,0,0,0-4.97-17.791c-1.449-3.767-9.65-14.436-10.507-15.635s-6.219-7.823-1.143-15S324.081,315.593,324.081,315.593Z" transform="translate(-267.835 -239.617)"/><path class="ae" d="M304.552,345.7c.465,3.089-.024,7.148-.994,18.445s1.7,24.974,1.7,24.974a13.6,13.6,0,0,0,7.214,0c-.089-.795,0-27.534,0-29.916s.685-5.088.86-7.823a55.719,55.719,0,0,1,1.96-8.808c.293-1.051.595-2.107.889-3.131h0c.163-.572.327-1.136.484-1.682,1.374-4.765,3.222-23.167,3.222-23.167s-10.241-8.25-15.228-.483-2.426,13.412-2.25,14.383S304.087,342.61,304.552,345.7Z" transform="translate(-266.641 -239.241)"/><path class="af" d="M310.414,333.213c.082.176,5.183,11.5,6.5,13.468.293-1.051.595-2.107.889-3.131h0S310.585,333.462,310.414,333.213Z" transform="translate(-268.257 -243.351)"/><path class="ag" d="M309.974,420.015h.9v-3.808c.752.063,3.28,2.455,4.063,3.147s1.854.661,5.146.87,3.6-1.763,3.084-2.433-2.205-.965-3.084-1.384c-3.524.188-7.824-4.767-9.889-4.757-1.1.006-1.086.613-1.12.728h0v.015c-.038.173-.082.342-.124.509C308.38,415.011,309.974,420.015,309.974,420.015Z" transform="translate(-267.966 -257.72)"/><path class="ag" d="M343.489,421.164h1.083s-.36-4.091.642-4.132,3.49,3.328,4.974,3.851,9.1.962,9.148-.442-2.928-1.965-3.85-2.369c-3.143-.007-8.256-3.468-9.841-4.166a5.726,5.726,0,0,0-3.3-.28,15.94,15.94,0,0,0-.177,1.681C342.126,416.831,343.489,421.164,343.489,421.164Z" transform="translate(-274.074 -258.059)"/><path class="ad" d="M314.972,262.656s-1.634,4.324-.363,7.666c0,0-5.992-.39-6.219-1.09s.245-7.177-.583-9.092S314.972,262.656,314.972,262.656Z" transform="translate(-267.768 -229.878)"/><path class="k" d="M313.985,270.808s3.541,1.259,5.141,1.609,4.947,1.935,4.675,7.9a124.675,124.675,0,0,1-1.634,13.712,54.1,54.1,0,0,0,.454,12.267,44.885,44.885,0,0,1-18.476,0s1.77-5.411,1.725-6.81-5.9-12.919-6.174-14.738-1.453-9.841,1.225-11.614,4.858-1.539,5.992-2.331S312.33,270.238,313.985,270.808Z" transform="translate(-266.203 -231.826)"/><path class="k" d="M300.257,316.925a49.633,49.633,0,0,0,26.044.016,35.881,35.881,0,0,1-2.387-6.411h0a38.39,38.39,0,0,1-.894-4.3h0a38.953,38.953,0,0,1,.359-13.951c-1.674-13.777-22.521-17.888-24.192-13.522s3.236,23.135,3.485,24.75S300.257,316.925,300.257,316.925Z" transform="translate(-266.137 -233.07)"/><path class="ad" d="M308.961,241.986c2.409-.826,8.92-1.706,10.588,8.288s-1.965,10.167-5.7,9.884-9.571-7.03-10.017-9.081S302.087,244.344,308.961,241.986Z" transform="translate(-266.979 -226.555)"/><path class="ah" d="M318.062,245.646s-1.99,4.256-4.6,5.738c0,0-1.634,4.522-5.174,6.35,0,0-9.393-6.222-3.942-13.616S317.447,242.612,318.062,245.646Z" transform="translate(-266.834 -226.376)"/><path class="ad" d="M315.643,251.847a1.227,1.227,0,0,0-2.25.06c-.631,1.426,1.634,3.94,2.257,3.8S316.444,253.82,315.643,251.847Z" transform="translate(-268.782 -228.313)"/><path class="ah" d="M303.348,246.1c-.205-.32-6.425-3.2-7.719,2.817s5.01,13.012,6.114,16.02-.5,10.058-.5,10.058,3.793-3.584,4.94-7.337C307.443,263.54,307.867,253.149,303.348,246.1Z" transform="translate(-265.517 -227.217)"/><path class="ai" d="M304.734,246.064a6.28,6.28,0,0,1,2.149,3.883,4.664,4.664,0,0,0-.408-2.986A1.715,1.715,0,0,0,304.734,246.064Z" transform="translate(-267.216 -227.384)"/><path class="ae" d="M328.344,313.491a38.321,38.321,0,0,1-.894-4.3h0s-.956-2.034-1.277-3.005-2.724-12.916-2.724-12.916S320.909,304.485,328.344,313.491Z" transform="translate(-270.568 -236.034)"/><path class="ad" d="M341.955,318.876a14.029,14.029,0,0,0,2.476,2.042c.6.187,1.771-.842,6.064-1.161.377-.028,1.041.311.885.81a6.716,6.716,0,0,1-2.825,2.061c-.8.207-4.574,1.706-6.414.97a7.543,7.543,0,0,1-3.09-3.076Z" transform="translate(-273.502 -240.725)"/><path class="k" d="M324.186,273.293s4.966,1.968,5.26,8.871.564,10.507.833,11.572.785,5.348,2.035,7.923c1.213,2.5,9.171,10.413,9.171,10.413l-3.851,3.621s-11.095-11.132-11.769-13.167-3.447-16.2-3.668-18.588C322.019,282.013,319.48,273.436,324.186,273.293Z" transform="translate(-270.261 -232.375)"/><circle class="aj" cx="47.03" cy="47.03" r="47.03" transform="translate(90.027 91.413) rotate(-76.376)"/><path class="ak" d="M400.516,248.015s60.074-7.446,72.043,55.956h0a46.3,46.3,0,0,0-72.043-55.956Z" transform="translate(-284.762 -225.538)"/><path class="al" d="M426.16,225.121a55.217,55.217,0,1,0,55.217,55.217A55.217,55.217,0,0,0,426.16,225.121Zm0,101.439a46.224,46.224,0,1,1,46.224-46.224A46.225,46.225,0,0,1,426.16,326.56Z" transform="translate(-279.345 -223.551)"/></g><g transform="translate(554.436 214.87)"><g transform="translate(58.747 138.215)"><path class="am" d="M692.658,410.155s.448,3.022.5,3.48,4.988-.268,4.988-.268l.4-3.6S693.275,409.729,692.658,410.155Z" transform="translate(-692.658 -409.765)"/></g><g transform="translate(50.642 141.496)"><path class="an" d="M691.293,413.987a13.181,13.181,0,0,1-3.074,2.618c-1.51.795-3.886,1.109-4.779,1.933-.645.593-2.35,3.15,3.927,3.1s9.3.362,9.974-.618-.973-7.235-.973-7.235A13.648,13.648,0,0,1,691.293,413.987Z" transform="translate(-682.735 -413.781)"/></g><g transform="translate(23.413 138.215)"><path class="am" d="M649.4,410.155s.449,3.022.506,3.48,4.987-.268,4.987-.268l.4-3.6S650.017,409.729,649.4,410.155Z" transform="translate(-649.4 -409.765)"/></g><g transform="translate(12.409 141.496)"><path class="an" d="M647.385,413.987a13.192,13.192,0,0,1-3.074,2.618c-1.511.795-7.072,1.447-7.966,2.271-.645.593-1.715,2.984,7.114,2.759,6.274-.158,9.3.362,9.974-.618s-.972-7.235-.972-7.235S651.06,414.337,647.385,413.987Z" transform="translate(-635.928 -413.781)"/></g><g transform="translate(43.353 60.488)"><path class="ao" d="M687.454,314.606s2.624,7.509,2.279,13.98,1.357,13.551,2.053,20.31c.777,7.535,3.952,25.375,4.067,29.405s-.49,16.9-.49,16.9l-6.356.142s-5.339-31.189-6.721-34.371-8.24-25.869-8.471-28.415S687.454,314.606,687.454,314.606Z" transform="translate(-673.811 -314.606)"/></g><g transform="translate(22.557 59.621)"><path class="ao" d="M656.069,315.748s-3.493,17.735-3.953,21.7-.768,19.165-1,21.641-1.536,32.389-2.765,36.067h8.127s6.237-21.748,6.237-32.037,4.819-22.369,7.931-29.16,10.233-6.95,12.145-19.546C682.791,314.412,658.656,311.753,656.069,315.748Z" transform="translate(-648.352 -313.544)"/></g><g transform="translate(35.379 0.649)"><path class="ad" d="M675.458,241.912s-6.406-2.3-9.36,2.392-2.669,14.1.559,15.255,8.08.552,9.733-2.387,3.146-7.188,3.075-10.027S677.14,242.732,675.458,241.912Z" transform="translate(-664.049 -241.347)"/></g><g transform="translate(38.878 12.887)"><path class="ad" d="M668.518,262.016a4.986,4.986,0,0,1-.17,2.414c-.427.8,8.059.817,8.059.817a52.086,52.086,0,0,1,1.994-7.994C679.708,253.591,668.518,262.016,668.518,262.016Z" transform="translate(-668.333 -256.33)"/></g><g transform="translate(36.122)"><path class="ah" d="M677.783,254.363s-.586.93-2.975.572-5.309-3.424-6.306-3.757-1.008-.9-1.008-.9l-.625.879-1.062.064s.968-2.74-.49-3.857,1.514-8.87,9.181-6.289c0,0,5.888,1.563,5.674,4.789S679.1,252.756,677.783,254.363Z" transform="translate(-664.959 -240.553)"/></g><g transform="translate(38.39 18.652)"><path class="ap" d="M667.736,265.627s.027-1.522.743-1.668,7.908-.812,8.786-.479v1.773S675.572,266.257,667.736,265.627Z" transform="translate(-667.736 -263.388)"/></g><g transform="translate(38.628 7.369)"><path class="ad" d="M668.215,250.75c.134-.542,1.563-2.087,2.11-.432s-.827,3.882-1.592,3.692S667.875,252.122,668.215,250.75Z" transform="translate(-668.027 -249.574)"/></g><g transform="translate(11.718 20.518)"><path class="aq" d="M661.754,266.045s-3.942,1.366-8.508,3.234c0,0-5.252,1.889-5.822,7.476-.3,2.966-3.58,18.705-4.194,20.036s-7.885,22.726-8.141,23.17,5.933,2.918,6.343,2.722,7.04-19.513,7.705-20.944c0,0,3.816-11.582,3.921-13.308,0,0,.109,4.921.314,6.3s-3.394,28.2-3.292,28.939,16.354,1.679,22.858.989a82.278,82.278,0,0,0,11.752-2.132s-5.117-21.165-4.96-23.511c.342-5.112,2.116-14.742,2.116-14.742l5.3,9.63-6.788,16.82,1.552,5.112s12.614-18.36,13.024-20.036-.618-3.814-1.284-5.195-5.039-11.892-6.063-13.372-2.754-7.405-6.938-9.055a67.458,67.458,0,0,0-9.369-2.508Z" transform="translate(-635.082 -265.672)"/></g><g transform="translate(0 57.191)"><path class="n" d="M650.453,337.876l-29.717-7.339,5.316-19.967,29.718,7.339Z" transform="translate(-620.736 -310.57)"/></g><g transform="translate(7.923 79.172)"><path class="ar" d="M631.651,337.48s-.849,1.322-1.159,1.7.762.613,1.225.232S631.651,337.48,631.651,337.48Z" transform="translate(-630.436 -337.48)"/></g><g transform="translate(9.092 74.361)"><path class="as" d="M638.1,340.916a3.165,3.165,0,0,0,.61-.827s.15-.6.283-1.025a2.811,2.811,0,0,1,.117-.321,5.721,5.721,0,0,0,.68-1.739c.131-.817.5-4.478.5-4.478l-2.3-.559-1.848-.376s-4,3.839-4.209,4.585a1.728,1.728,0,0,0-.048.216,7.109,7.109,0,0,0,.057,1.527c-.007.127.012,1.4.321,1.639a1.326,1.326,0,0,0,1.22.283,3.154,3.154,0,0,0,1.589.572,1.973,1.973,0,0,0,1.665.3S637.6,341.228,638.1,340.916Z" transform="translate(-631.867 -331.591)"/></g><g transform="translate(11.725 58.203)"><path class="aq" d="M647.677,314.134s-5.274,15.384-6.244,17a17.757,17.757,0,0,1-6.343-2.722l5.791-16.6Z" transform="translate(-635.091 -311.809)"/></g></g></g></g></svg>