<?xml version="1.0" encoding="UTF-8"?> <!-- Generator: Adobe Illustrator 23.0.1, SVG Export Plug-In . SVG Version: 6.00 Build 0) --> <svg xmlns="http://www.w3.org/2000/svg" xmlns:xlink="http://www.w3.org/1999/xlink" id="Layer_1" x="0px" y="0px" viewBox="0 0 32 32" style="enable-background:new 0 0 32 32;" xml:space="preserve"> <style type="text/css"> .st0{fill:#139BD0;} </style> <g> <path class="st0" d="M16,1C7.7,1,1,7.7,1,16c0,8.3,6.7,15,15,15c8.3,0,15-6.7,15-15C31,7.7,24.3,1,16,1z M23.4,11.7 c-0.7,3.3-1.4,6.5-2.1,9.8c-0.2,0.8-0.7,1-1.3,0.5c-1.1-0.8-2.1-1.6-3.2-2.4c-0.2,0.1-0.3,0-0.3,0c-0.6,0.6-1.2,1.1-1.7,1.7 c-0.2,0.2-0.4,0.3-0.7,0.3c-0.2,0-0.3-0.1-0.4-0.3c-0.4-1.3-0.9-2.7-1.3-4c0-0.1-0.1-0.2-0.2-0.2c-1-0.3-2-0.6-3.1-1 C8.9,16,8.8,16,8.6,15.9c-0.2-0.1-0.2-0.4-0.1-0.5C8.8,15.1,9,15,9.2,14.9c1.3-0.5,2.5-1,3.8-1.5c3.2-1.2,6.4-2.5,9.6-3.7 c0.6-0.2,1.1,0.1,1,0.8C23.6,10.9,23.5,11.3,23.4,11.7z"></path> <path class="st0" d="M20.6,12.1c-0.1,0-0.2,0.1-0.4,0.2c-2.4,1.5-4.8,3-7.2,4.5c-0.1,0.1-0.2,0.2-0.1,0.3c0.2,0.5,0.3,1,0.5,1.5 c0.2,0.6,0.5,1.3,0.7,2l0.1-0.1c0.1-0.7,0.1-1.5,0.2-2.2c0-0.2,0.1-0.3,0.2-0.4c1-0.9,2-1.8,2.9-2.7c1.1-1,2.2-2,3.3-2.9 c0.1-0.1,0.1-0.2,0.1-0.2C20.8,12.1,20.7,12,20.6,12.1z"></path> </g> </svg> 