<?xml version="1.0" encoding="UTF-8"?> <!-- Generator: Adobe Illustrator 23.0.1, SVG Export Plug-In . SVG Version: 6.00 Build 0) --> <svg xmlns:sketch="http://www.bohemiancoding.com/sketch/ns" xmlns="http://www.w3.org/2000/svg" xmlns:xlink="http://www.w3.org/1999/xlink" id="Layer_1" x="0px" y="0px" viewBox="0 0 32 32" style="enable-background:new 0 0 32 32;" xml:space="preserve"> <style type="text/css"> .st0{fill-rule:evenodd;clip-rule:evenodd;fill:#57BB63;} </style> <title></title> <g id="flat"> <g> <path class="st0" d="M16,9.2c-3.8,0-6.9,3.1-6.9,6.8c0,1.5,0.5,2.9,1.3,4l-0.9,2.5l2.6-0.8c1.1,0.7,2.4,1.1,3.8,1.1 c3.8,0,6.9-3.1,6.9-6.8S19.8,9.2,16,9.2z M20.1,19.1C20,19.5,19.2,20,18.8,20c-0.4,0-0.4,0.3-2.4-0.5s-3.3-2.9-3.4-3 c-0.1-0.2-0.8-1.1-0.8-2.1s0.5-1.5,0.7-1.7c0.1-0.2,0.3-0.2,0.5-0.2c0.2,0,0.3,0,0.4,0c0.1,0,0.2-0.1,0.4,0.3 c0.1,0.4,0.5,1.4,0.6,1.5c0,0.1,0.1,0.2,0,0.3c-0.1,0.1-0.1,0.2-0.2,0.3c-0.1,0.1-0.2,0.2-0.3,0.3c-0.1,0.1-0.2,0.2-0.1,0.4 c0.1,0.2,0.5,0.9,1.1,1.4c0.8,0.7,1.4,0.9,1.6,1c0.2,0.1,0.3,0.1,0.4,0c0.1-0.2,0.5-0.6,0.6-0.8c0.2-0.2,0.3-0.2,0.5-0.1 c0.2,0,1.2,0.5,1.4,0.6c0.2,0.1,0.3,0.1,0.4,0.2C20.2,18,20.2,18.4,20.1,19.1z"></path> <path class="st0" d="M16,1C7.7,1,1,7.7,1,16s6.7,15,15,15s15-6.7,15-15S24.3,1,16,1z M16,24.1c-1.4,0-2.8-0.4-3.9-1l-4.5,1.4 L9,20.2C8.3,19,7.9,17.5,7.9,16c0-4.5,3.7-8.1,8.2-8.1s8.2,3.6,8.2,8.1S20.5,24.1,16,24.1z"></path> </g> </g> </svg> 