<?xml version="1.0" encoding="UTF-8"?> <!-- Generator: Adobe Illustrator 23.0.1, SVG Export Plug-In . SVG Version: 6.00 Build 0) --> <svg xmlns:sketch="http://www.bohemiancoding.com/sketch/ns" xmlns="http://www.w3.org/2000/svg" xmlns:xlink="http://www.w3.org/1999/xlink" id="Layer_1" x="0px" y="0px" viewBox="0 0 32 32" style="enable-background:new 0 0 32 32;" xml:space="preserve"> <style type="text/css"> .st0{fill-rule:evenodd;clip-rule:evenodd;fill:#346DA6;} </style> <title></title> <g id="flat"> <path class="st0" d="M16,1C7.7,1,1,7.7,1,16c0,8.3,6.7,15,15,15s15-6.7,15-15C31,7.7,24.3,1,16,1z M11.9,22.9H9.1v-9.1h2.8V22.9z M10.5,12L10.5,12C9.6,12,9,11.3,9,10.5c0-0.8,0.6-1.4,1.5-1.4c0.9,0,1.4,0.6,1.4,1.4C11.9,11.3,11.4,12,10.5,12z M22.9,22.9h-2.8 v-5.2c0-1.3-0.7-1.9-1.8-1.9c-0.9,0-1.4,0.6-1.6,1.1c-0.1,0.2-0.1,0.5-0.1,0.8v5.2h-2.8c0,0,0-8.3,0-9.2h2.8l0,1.2 c0.4-0.6,1.1-1.6,2.8-1.6c2,0,3.6,1.3,3.6,4.2V22.9z"></path> </g> </svg> 