<svg xmlns="http://www.w3.org/2000/svg" width="416.952" height="361" viewBox="0 0 416.952 361"><defs><style>.a{fill:#ffdf22;}.a,.aa,.ab,.ac,.ad,.ae,.b,.d,.f,.g,.h,.i,.k,.l,.n,.o,.p,.q,.r,.t,.u,.v,.w,.x,.y,.z{fill-rule:evenodd;}.ag,.b{fill:#666;}.c{fill:#033;}.d{fill:#f0f5f5;}.e{fill:#0a89c0;}.f{fill:#fcd200;}.g{fill:#dcb60d;}.ai,.h{fill:#e5e5e5;}.i,.j{fill:#333;}.k{fill:#fff;}.l{fill:#0a80bb;}.m{fill:#91e2f9;}.n{fill:#f3f7f7;}.o{fill:#e9f2f2;}.p{fill:#dce9e9;}.q{fill:#cb98ff;}.r{fill:#b66fff;}.s,.u{fill:#fafbfb;}.t{fill:#35cdf4;}.v{fill:#88765b;}.w{fill:#ffd481;}.x{fill:#630;}.y{fill:#4d4d4d;}.z{fill:#ffd482;}.aa{fill:#6666cb;}.ab{fill:#4e4ec3;}.ac{fill:#f60;}.ad{fill:#b97500;}.ae{fill:#db5800;}.af{fill:#b2b2b2;}.ah{fill:#1a1a1a;}</style></defs><path class="a" d="M151.6,118.269A22.079,22.079,0,1,0,129.52,96.189,22.079,22.079,0,0,0,151.6,118.269Z" transform="translate(74.745 42.768)"/><path class="b" d="M139.725,84.984l4.652-3.154,3.675.757,9.463,14.446-9.053,6.072L139,88.659l.741-3.675Zm2.886-.678a1.151,1.151,0,0,0-.331,1.577,1.167,1.167,0,1,0,.331-1.577Z" transform="translate(80.216 47.223)"/><path class="b" d="M135.255,83.833c1.025-.82,2.807-1.94,3.974-1.577s1.719,2.381,2.681,2.981,2.318-.158,3.343-.394a1.577,1.577,0,0,1,2.05,1.009l-.142.11a1.088,1.088,0,0,1-.615.189h0a.852.852,0,0,0-.331-.473,1.214,1.214,0,0,0-.789,0c-.394.095-.8.252-1.2.363a3.154,3.154,0,0,1-2.744,0A5.583,5.583,0,0,1,140,84.274c-.221-.347-.647-.994-1.057-1.136a3.482,3.482,0,0,0-1.861.473,10.868,10.868,0,0,0-1.325.9,3.8,3.8,0,0,0-1.041,1.151,3.47,3.47,0,0,0-.268.71,5.062,5.062,0,0,0-.189,2.9,4.384,4.384,0,0,0,2.366,2.555,6.892,6.892,0,0,0,4.574.237,12.128,12.128,0,0,0,2.681-1.088h0l.442.678.489-.3a11.987,11.987,0,0,1-3.422,1.482,7.586,7.586,0,0,1-5.11-.284A5.157,5.157,0,0,1,133.5,89.51a5.709,5.709,0,0,1,.173-3.375,3.927,3.927,0,0,1,1.577-2.3Z" transform="translate(76.943 47.429)"/><path class="a" d="M244.189,209.159a22.079,22.079,0,1,0-22.079-22.079,22.079,22.079,0,0,0,22.079,22.079Z" transform="translate(128.178 95.22)"/><path class="b" d="M240.843,170.453a12.475,12.475,0,0,1,12.475,12.491h-2.713a9.762,9.762,0,1,0-9.762,9.762v2.713a12.491,12.491,0,1,1,0-24.965Zm0,4.211-.773,7.349v.205h0l-5.252,1.2,5.394.331a1.072,1.072,0,0,0,.631.205,1.025,1.025,0,0,0,1.025-1.025.994.994,0,0,0-.284-.725V182Z" transform="translate(131.524 98.362)"/><path class="a" d="M239.219,105.219A22.079,22.079,0,1,0,217.14,83.139a22.079,22.079,0,0,0,22.079,22.079Z" transform="translate(125.31 35.237)"/><path class="b" d="M235.273,74.431h6.088v5.141h-5.252a8.06,8.06,0,0,1,1.719.11c1.451.173,1.577.442,1.577.741a2.808,2.808,0,0,1-.442.9.568.568,0,0,0,0,.773c.252.3.82.678,1.246,1.167a5.251,5.251,0,0,1,.8,1.356c.11.237.142.284-1.214.3a2.113,2.113,0,0,1-4.132,0h-5.993c-2.366,0-2.539-.284-2.728-.473s-.379-.363-.489-.268-.095.457-.173.615-.221,0-.9-.3l-.158-.095v.142a2.113,2.113,0,1,1-3.154-1.8,3.564,3.564,0,0,0-.678-.095c-.284,0-.5-.095-.3-.347a3.359,3.359,0,0,1,1.4-.883,14.785,14.785,0,0,1,1.482-.221c.284-.095.268-.331.678-.946s1.262-1.577,1.7-2.129.489-.584.473-.647-.079-.095-.252,0a1.719,1.719,0,0,1-.568,0c-.142,0-.189-.252-.205-.5a1.152,1.152,0,0,1,.158-.741.726.726,0,0,1,.741,0c.315.095.662.3,1.025.379a3.029,3.029,0,0,0,.5,0,3.154,3.154,0,0,1,.852-.394c.678-.221,1.814-.5,2.492-.71s.867-.363.946-.694,0-.867.126-1.419.3-1.1.363-1.482,0-.536-.142-.615a2,2,0,0,0-.442,0,.3.3,0,0,1-.237-.284,3.45,3.45,0,0,1,0-.442c0-.11-.095-.142-.126-.252a2.161,2.161,0,0,1,0-.442c0-.11,0-.158-.3-.173a5.808,5.808,0,0,1-.8,0,1.657,1.657,0,0,0,1.309-.678.852.852,0,0,1,1.435.426c.126.426,0,1.12.173,1.577a7.929,7.929,0,0,1,.536,1.467,17.176,17.176,0,0,1,.284,3.154,23.909,23.909,0,0,1-.095,3.028c-.11.662-.3.82-.82.867a9.778,9.778,0,0,1-2.255-.11c-.867-.11-1.735-.3-2.208-.331s-.584.126-.52.994.284,2.492.363,3.312,0,.883-.173.9a3.06,3.06,0,0,1-.852,0c-.221,0-.237-.142-.126-.221s.347-.142.331-1.009-.252-2.508-.315-3.548,0-1.451.757-1.735,1.956-.473,2.6-.678.694-.473,0-.457a25.726,25.726,0,0,0-2.618.41h-.268c-.173.095-.473.189-.662.284a.409.409,0,0,0-.268.379,1.451,1.451,0,0,1-.079.9c-.189.552-.662,1.451-.915,1.987a1.2,1.2,0,0,0-.079,1.23,19.693,19.693,0,0,0,.883,1.94c.252.489.331.552.946.568a13.562,13.562,0,0,0,2.571-.142c.789-.158,1.214-.426,1.419-.883a1.814,1.814,0,0,0-.173-1.577,9.023,9.023,0,0,0-1.277-1.467c-.284-.331-.158-.41,1.246-.426h3.028V74.431Zm5.63,7.444v.93l14.951-.473L240.9,81.875Zm1.5-3.848,10.693.347L242.4,78.7Zm-.347-3.28,10.677.347-10.677.331Zm-5.283-2.965v.946l15.282-.473-15.282-.473Zm-2.334-1.893v.946l15.266-.473Z" transform="translate(127.537 39.688)"/><path class="a" d="M206.4,84.479A22.079,22.079,0,1,0,184.32,62.4,22.079,22.079,0,0,0,206.4,84.479Z" transform="translate(106.369 23.268)"/><path class="b" d="M214.127,57.958l-.379.347h0l.379-.284Zm-.142-3.58a1.94,1.94,0,0,0,.174-1.735c-.473-.915-2.034-1.167-4.2-.852l-.284.773-3.517-1.8,5.252-2.886-.457,1.246c3.044,0,5.3.694,6.024,2.334s-.252,3.832-2.4,6.024a10.646,10.646,0,0,0-.6-3.154Zm-13.2-2.728a36.07,36.07,0,0,1,3.738-1.372h0c-1.025.457-2.05.994-3.154,1.577-6.308,3.643-10.551,8.39-9.289,10.6l.11.173a2.287,2.287,0,0,0,1.23.8,12.033,12.033,0,0,0,1.64,2.318c-2.728,0-4.731-.82-5.394-2.334-1.4-3.154,3.58-8.469,11.118-11.781Z" transform="translate(109.318 27.631)"/><path class="b" d="M212.048,57.757Zm0-.284a.442.442,0,0,1,0,.142A.442.442,0,0,0,212.048,57.473ZM208.894,65.6l-.11.11Zm.174-.158-.11.095Zm.158-.158v0Zm.173-.173-.079.079Zm-2.933-.9a9.652,9.652,0,0,1,2.224,1.5,9.967,9.967,0,0,1-5.378,2.429,12.806,12.806,0,0,0,3.154-3.927Zm1.451-5.914h0a12.837,12.837,0,0,1-1.072,5.11,11.039,11.039,0,0,1,2.476,1.672,9.825,9.825,0,0,0,2.7-6.782Zm-10.188,5.914a13.027,13.027,0,0,0,3.154,3.927,9.746,9.746,0,0,1-5.883-2.9c.142.158.315.315.473.473a10.015,10.015,0,0,1,2.224-1.5Zm3.9-1.893a10.882,10.882,0,0,0-3.454.725,11.891,11.891,0,0,1-.994-4.731h4.558V62.33Zm0,5.252V63.2a10,10,0,0,0-3.154.647,12.112,12.112,0,0,0,3.154,3.722Zm.883-4.369v4.416a11.876,11.876,0,0,0,3.154-3.769A9.841,9.841,0,0,0,202.507,63.2Zm0-4.9h4.51a11.638,11.638,0,0,1-.994,4.731,10.755,10.755,0,0,0-3.517-.725Zm0-4.022v3.154h4.479a12.1,12.1,0,0,0-.962-3.864,10.756,10.756,0,0,1-3.517.725Zm8.69-1.861a6.308,6.308,0,0,0-1.1,0,9.936,9.936,0,0,1,1.924,5.047h-4.085a13,13,0,0,0-1.041-4.227l.662-.347-.962-.489h-.079a.673.673,0,0,1,0-.11l-1.624-.836c.268.394.52.82.757,1.246a9.842,9.842,0,0,1-3.154.647V51.448l-.883.442v1.577a9.462,9.462,0,0,1-2.129-.347l-.994.631a10.756,10.756,0,0,0,3.154.6V57.5h-4.416A12.081,12.081,0,0,1,198,54.114c-.426.268-.836.568-1.23.852a12.381,12.381,0,0,0-.426,2.539h-2.492c-.268.268-.536.552-.789.852H196.4a12.821,12.821,0,0,0,1.057,5.11,11.039,11.039,0,0,0-2.476,1.672l.11.126a9.92,9.92,0,0,1-2.823-6.072,10.166,10.166,0,0,0-.725,1.167A10.8,10.8,0,1,0,211.2,52.474Zm-9.052-4.921a10.882,10.882,0,0,1,5.473,1.482l-.93.5a10.046,10.046,0,0,0-3.375-1.025,12.223,12.223,0,0,1,1.845,1.877l-.8.426a11.4,11.4,0,0,0-1.814-1.782v1.246l-.883.3v-1.5a12.5,12.5,0,0,0-2.239,2.429h0c-.489.221-.994.442-1.482.694a12.617,12.617,0,0,1,3.028-3.659,9.747,9.747,0,0,0-5.883,2.9l.473-.473a9.463,9.463,0,0,0,2.034,1.4l-.946.489a11.2,11.2,0,0,1-1.719-1.262l.11-.126a10,10,0,0,0-2.35,3.959l-1.151.962a10.819,10.819,0,0,1,10.614-8.816Z" transform="translate(110.53 27.406)"/><rect class="c" width="51.587" height="11.686" rx="1.76" transform="translate(216.267 180.814)"/><path class="d" d="M139.477,115.44h29.239v9.179H139.477a1.577,1.577,0,0,1-1.577-1.577v-6.119A1.577,1.577,0,0,1,139.477,115.44Z" transform="translate(79.581 66.619)"/><path class="d" d="M165.964,116.95a2.949,2.949,0,0,1,.41,3.864l1.782,1.577-.568.615-1.782-1.577a2.965,2.965,0,1,1,.158-4.479Zm-.52.552a2.037,2.037,0,1,0,0-.016Z" transform="translate(92.9 67.033)"/><rect class="e" width="49.142" height="11.182" transform="translate(233.378 160.974)"/><path class="f" d="M149.64,106.113h2.886l.9-2.823.883,2.823h2.886l-2.334,1.719.883,2.791-2.318-1.735-2.334,1.735.9-2.791Z" transform="translate(86.356 59.608)"/><path class="g" d="M149.64,105.08l3.785,1.183-.9-1.183Z" transform="translate(86.356 60.641)"/><path class="g" d="M152.04,107.3l.883-1.183-.883-2.823Z" transform="translate(87.741 59.608)"/><path class="g" d="M152.04,106.263l1.435.536,2.334-1.719Z" transform="translate(87.741 60.641)"/><path class="g" d="M152.04,107.423l2.318,1.735-.883-2.791-1.435-.536Z" transform="translate(87.741 61.074)"/><path class="f" d="M154.358,109.158l-.883-2.791-1.435-.536Z" transform="translate(87.741 61.074)"/><path class="g" d="M151.459,106.366l-.9,2.791,2.334-3.328Z" transform="translate(86.887 61.074)"/><path class="f" d="M155.41,106.113h2.87l.9-2.823.9,2.823h2.87l-2.334,1.719.883,2.791-2.318-1.735-2.318,1.735.883-2.791Z" transform="translate(89.686 59.608)"/><path class="g" d="M155.41,105.08l3.769,1.183-.9-1.183Z" transform="translate(89.686 60.641)"/><path class="g" d="M157.8,107.3l.9-1.183-.9-2.823Z" transform="translate(91.065 59.608)"/><path class="g" d="M157.8,106.263l1.435.536,2.334-1.719Z" transform="translate(91.065 60.641)"/><path class="g" d="M157.8,107.423l2.318,1.735-.883-2.791-1.435-.536Z" transform="translate(91.065 61.074)"/><path class="f" d="M160.118,109.158l-.883-2.791-1.435-.536Z" transform="translate(91.065 61.074)"/><path class="g" d="M157.213,106.366l-.883,2.791,2.318-3.328Z" transform="translate(90.217 61.074)"/><path class="f" d="M161.17,106.113h2.886l.883-2.823.9,2.823h2.886l-2.35,1.719.9,2.791-2.334-1.735-2.318,1.735.883-2.791Z" transform="translate(93.01 59.608)"/><path class="g" d="M161.17,105.08l3.769,1.183-.883-1.183Z" transform="translate(93.01 60.641)"/><path class="g" d="M163.56,107.3l.9-1.183-.9-2.823Z" transform="translate(94.389 59.608)"/><path class="g" d="M163.56,106.263,165,106.8l2.35-1.719Z" transform="translate(94.389 60.641)"/><path class="g" d="M163.56,107.423l2.334,1.735-.9-2.791-1.435-.536Z" transform="translate(94.389 61.074)"/><path class="f" d="M165.894,109.158l-.9-2.791-1.435-.536Z" transform="translate(94.389 61.074)"/><path class="g" d="M162.973,106.366l-.883,2.791,2.318-3.328Z" transform="translate(93.541 61.074)"/><path class="f" d="M166.93,106.113h2.886l.9-2.823.9,2.823h2.87l-2.334,1.719.883,2.791-2.318-1.735-2.334,1.735.9-2.791Z" transform="translate(96.334 59.608)"/><path class="g" d="M166.93,105.08l3.785,1.183-.9-1.183Z" transform="translate(96.334 60.641)"/><path class="g" d="M169.33,107.3l.9-1.183-.9-2.823Z" transform="translate(97.719 59.608)"/><path class="g" d="M169.33,106.263l1.435.536,2.334-1.719Z" transform="translate(97.719 60.641)"/><path class="g" d="M169.33,107.423l2.318,1.735-.883-2.791-1.435-.536Z" transform="translate(97.719 61.074)"/><path class="f" d="M171.648,109.158l-.883-2.791-1.435-.536Z" transform="translate(97.719 61.074)"/><path class="g" d="M168.749,106.366l-.9,2.791,2.334-3.328Z" transform="translate(96.865 61.074)"/><path class="f" d="M172.7,106.113h2.87l.9-2.823.9,2.823h2.87l-2.334,1.719.883,2.791-2.318-1.735-2.318,1.735.883-2.791Z" transform="translate(99.664 59.608)"/><path class="g" d="M172.7,105.08l3.769,1.183-.9-1.183Z" transform="translate(99.664 60.641)"/><path class="g" d="M175.09,107.3l.9-1.183-.9-2.823Z" transform="translate(101.043 59.608)"/><path class="g" d="M175.09,106.263l1.435.536,2.334-1.719Z" transform="translate(101.043 60.641)"/><path class="g" d="M175.09,107.423l2.318,1.735-.883-2.791-1.435-.536Z" transform="translate(101.043 61.074)"/><path class="f" d="M177.408,109.158l-.883-2.791-1.435-.536Z" transform="translate(101.043 61.074)"/><path class="g" d="M174.5,106.366l-.883,2.791,2.318-3.328Z" transform="translate(100.195 61.074)"/><path class="a" d="M170.079,89.939A22.079,22.079,0,1,0,148,67.859a22.079,22.079,0,0,0,22.079,22.079Z" transform="translate(85.41 26.419)"/><path class="b" d="M160.375,55.428a9.21,9.21,0,0,0-2.05,3.359c-.315,1.136.11,1.877-.489,3.06s-2.224,2.823-2.981,3.99-.678,1.861-.173,2.318,1.467.662,1.877,1.1.284,1.151.363,1.577.379.552.41.789-.205.552-.205.789.189.41,0,.9a6.009,6.009,0,0,0-.615,2.239,2.034,2.034,0,0,0,2.176,2.1c1.577,0,4.2-1.167,5.93-.962a4.432,4.432,0,0,1,3.154,2.855c.252.489.426.883.552,1.183l8.895-3.643a8.658,8.658,0,0,1-.41-4.337c0-.205,0-.426,0-.647v-.331a14.2,14.2,0,0,1,.71-2.476A27.472,27.472,0,0,0,179.205,59.1a9.573,9.573,0,0,0-5.6-7.885,16.512,16.512,0,0,0-10-.52c-2.9.694-4.731,1.956-4.652,3.154a2.35,2.35,0,0,0,1.419,1.577Z" transform="translate(89.042 28.946)"/><path class="h" d="M167.314,64.927a6.624,6.624,0,0,1-1.419,2.066,8.91,8.91,0,0,1-4.921,1.577,38.826,38.826,0,0,1-5.062.284,11.512,11.512,0,0,0-2.4-.095.725.725,0,0,0-.426.946,1.135,1.135,0,0,0,1.025.489c.442,0,.883-.095,2.35-.221s3.943-.268,5.741-.52a8.816,8.816,0,0,0,3.8-1.2,6.308,6.308,0,0,0,2.034-2.366c.11-.221.221-.426.315-.647a3.817,3.817,0,0,0,.852.095,4.416,4.416,0,1,0-4.085-4.4A4.479,4.479,0,0,0,167.314,64.927Z" transform="translate(88.317 32.616)"/><path class="a" d="M256.189,135.829a22.079,22.079,0,1,0-22.079-22.079A22.079,22.079,0,0,0,256.189,135.829Z" transform="translate(135.103 52.902)"/><path class="i" d="M242.72,103.09l11.04,7.128-4.51,2.9-11.04-7.144,4.495-2.886Zm0,.71-3.407,2.176,10,6.435,3.406-2.192Z" transform="translate(137.469 59.492)"/><path class="i" d="M259.18,103.09l-11.04,7.128,4.495,2.9,11.04-7.144-4.495-2.886Zm0,.71,3.406,2.176-9.936,6.435-3.407-2.192Z" transform="translate(143.199 59.492)"/><path class="i" d="M242.72,106.76l11.04-7.128-4.51-2.9-11.04,7.128,4.495,2.9Zm0-.71-3.407-2.192,10-6.419,3.406,2.192Z" transform="translate(137.469 55.822)"/><path class="i" d="M259.18,106.76l-11.04-7.128,4.51-2.9,11.04,7.128-4.495,2.9Zm0-.71,3.406-2.192-9.936-6.419-3.407,2.192Z" transform="translate(143.199 55.822)"/><path class="i" d="M243.467,112.251l5.835,3.738,3.5,2.255,3.533-2.255,5.819-3.738,3.517-2.271v.71l-3.517,2.255-5.819,3.753-3.533,2.255-3.5-2.255-5.835-3.753-3.517-2.255v-.71Z" transform="translate(138.473 63.469)"/><rect class="j" width="0.505" height="7.255" transform="translate(378.423 166.904)"/><rect class="j" width="0.505" height="6.923" transform="translate(403.641 167.235)"/><path class="k" d="M247.878,103.324h8L257.451,106l-5.536,5.346L246.364,106l1.577-2.681Zm3.564-7.444h.867V100.2h-.867Zm-2.208,4.921-.741.426L246.333,97.5l.757-.442Zm8.185,14.194-2.161-3.722-.741.426,2.145,3.738Zm-11.04-6.088-3.722,2.161.426.741,3.738-2.161Zm14.194-8.169-3.738,2.161.442.741L261,101.479ZM246.853,102.9l-3.738-2.161-.426.741,3.722,2.161Zm14.194,8.169-3.722-2.161-.442.741,3.738,2.161Zm-12.538.205-2.176,3.722.757.442,2.145-3.738-.741-.426Zm8.169-14.194.757.442-2.161,3.722-.741-.426Zm-10.8,8.737v.852H241.57v-.852Zm16.339,0v.852h-4.305v-.852Zm-10.756,6.45h.867v4.305h-.867Z" transform="translate(139.408 55.332)"/><path class="a" d="M258.459,173.3a22.079,22.079,0,1,0-22.079-22.079A22.079,22.079,0,0,0,258.459,173.3Z" transform="translate(136.413 74.526)"/><path class="b" d="M241.244,138.115a5.788,5.788,0,0,1,5.3,2.681h22.442l-2.35,9.258H250.66l.268.442c1.577,2.4,3.422,2.334,6.545,2.287s7.475-.126,9.652-.142h.931v.789h-.931l-9.636.126c-3.012,0-5.409.173-7.223-2.634a15.771,15.771,0,0,1-1.2-2.366c-.394-.915-.741-1.845-1.088-2.776s-.662-1.687-1.025-2.523a14.575,14.575,0,0,0-1.072-2.019,4.9,4.9,0,0,0-2.334-1.971,6.435,6.435,0,0,0-2.318-.363h-1.2v-.773a10,10,0,0,1,1.214,0Zm23.972,15.6a1.041,1.041,0,0,0-1.057,1.041,1.057,1.057,0,0,0,1.057,1.057,1.041,1.041,0,0,0,1.041-1.057,1.025,1.025,0,0,0-1.041-1.041Zm-10.125,0a1.041,1.041,0,0,0-1.057,1.041,1.057,1.057,0,0,0,1.057,1.057,1.041,1.041,0,0,0,1.041-1.057,1.025,1.025,0,0,0-1.041-1.041Zm-6.608-8.942h2.161l-.8-3.249h-2.807a28.586,28.586,0,0,1,1.451,3.249Zm2.9,0h3.722l.173-3.249h-4.731l.789,3.249Zm4.447,0h3.233l.583-3.249h-3.643Zm3.974,0h3.422l.836-3.249h-3.738l-.583,3.249Zm4.179,0h3.3l.82-3.249h-3.359l-.82,3.249Zm3.154.725h-3.312l-.962,3.832h3.3Zm-4.053,0h-3.375l-.678,3.832h3.028l.978-3.832Zm-4.116,0h-3.154l-.205,3.832h2.665l.678-3.832Zm-3.864,0h-3.5l.93,3.832H254.9Zm-4.258,0H248.8c.52,1.356,1.041,2.713,1.577,3.832H251.8Z" transform="translate(138.519 79.697)"/><path class="l" d="M25.852,0H177.174A21.322,21.322,0,0,1,198.5,21.322V339.611a21.322,21.322,0,0,1-21.322,21.322H25.852A21.322,21.322,0,0,1,4.53,339.611V21.322A21.322,21.322,0,0,1,25.852,0Z" transform="translate(2.614)"/><rect class="m" width="181.05" height="300.767" transform="translate(13.563 30.075)"/><path class="h" d="M52.425,15.485H96.788a2.555,2.555,0,0,0,2.555-2.555V11.463a2.555,2.555,0,0,0-2.555-2.555H52.425a2.555,2.555,0,0,0-2.555,2.555V12.93A2.555,2.555,0,0,0,52.425,15.485ZM138.976,7.82a4.384,4.384,0,1,1-4.369,4.369,4.384,4.384,0,0,1,4.369-4.369Z" transform="translate(28.78 4.513)"/><path class="n" d="M29.523,40.471H.126l13.437-21.4H194.408l11.529,21.543V52.079c0,4.731-6.45,8.469-14.541,8.469s-14.762-3.738-14.762-8.469c0,4.731-6.561,8.5-14.7,8.5s-14.683-3.769-14.714-8.5c0,4.731-6.561,8.5-14.7,8.5s-14.73-3.769-14.746-8.5c0,4.731-6.671,8.516-14.809,8.516S88.317,56.81,88.317,52.079c0,4.731-6.592,8.532-14.746,8.532s-14.762-3.8-14.73-8.532c0,4.731-6.671,8.548-14.777,8.548S29.381,56.81,29.381,52.079c0,4.731-6.608,8.564-14.7,8.564S0,56.81,0,52.079V40.566H117.793l-29.476-.047H58.9Z" transform="translate(0 11.005)"/><path class="o" d="M39.393,19.07c-3.028,6.561-6.308,13.658-9.936,21.4H.06l13.468-21.4Z" transform="translate(0.035 11.005)"/><path class="p" d="M29.381,44.213c0,4.731-6.608,8.564-14.7,8.564S0,48.944,0,44.213V32.7H29.429C29.413,36.517,29.413,40.317,29.381,44.213Z" transform="translate(0 18.871)"/><path class="q" d="M28.636,19.076c-3.028,6.561-6.308,13.658-9.936,21.4H48.129c2.3-7.744,4.432-14.856,6.308-21.417Z" transform="translate(10.792 10.999)"/><path class="r" d="M18.63,44.213c0,4.731,6.592,8.564,14.683,8.564s14.746-3.832,14.777-8.564V32.7H18.677C18.662,36.517,18.662,40.317,18.63,44.213Z" transform="translate(10.751 18.871)"/><path class="o" d="M69.6,19.07c-.867,6.576-1.8,13.7-2.823,21.448H37.36c2.3-7.744,4.432-14.856,6.308-21.417Z" transform="translate(21.56 11.005)"/><path class="p" d="M66.786,44.213c0,4.731-6.592,8.532-14.746,8.532s-14.762-3.8-14.73-8.532V32.7H66.786Z" transform="translate(21.531 18.871)"/><path class="q" d="M58.833,19.087c-.867,6.576-1.8,13.7-2.823,21.448H85.47Q85.044,28.9,84.7,19.04Z" transform="translate(32.323 10.988)"/><path class="r" d="M56,44.219c0,4.731,6.529,8.532,14.667,8.532s14.809-3.8,14.793-8.532v-11.5L56,32.69Z" transform="translate(32.317 18.865)"/><path class="o" d="M100,19.07c1.356,6.592,2.823,13.736,4.4,21.512H74.973q-.426-11.639-.773-21.5Z" transform="translate(42.82 11.005)"/><path class="p" d="M104.124,44.207c0,4.731-6.561,8.5-14.7,8.5s-14.73-3.769-14.746-8.5V32.71h29.429C104.109,36.574,104.124,40.39,104.124,44.207Z" transform="translate(43.097 18.877)"/><path class="q" d="M90.56,19.082c1.356,6.592,2.823,13.736,4.4,21.512H124.4L116.519,19.05Z" transform="translate(52.261 10.994)"/><path class="o" d="M132.659,19.07l11.529,21.543h-29.3L107,19.07Z" transform="translate(61.749 11.005)"/><path class="p" d="M141.3,44.2c0,4.731-6.45,8.469-14.541,8.469S112,48.932,112,44.2V32.72h29.287Z" transform="translate(64.634 18.882)"/><path class="r" d="M93.362,44.2c0,4.731,6.624,8.5,14.777,8.5s14.635-3.769,14.635-8.5V32.72H93.33C93.346,36.568,93.362,40.385,93.362,44.2Z" transform="translate(53.86 18.882)"/><rect class="s" width="48.779" height="48.779" rx="5.92" transform="translate(24.492 98.978)"/><path class="t" d="M33.125,68.62l-14,2.492.11,6.734L28,77.357l-.11,21.512H47.823L47.7,77.357l8.769.489.126-6.734-14-2.492a4.731,4.731,0,1,1-9.463,0Z" transform="translate(11.034 39.6)"/><rect class="s" width="48.779" height="48.779" rx="5.92" transform="translate(24.492 168.812)"/><path class="t" d="M19.635,124.829h-.284v.268c-.095.536-.173,1.435-.221,1.924a2.334,2.334,0,0,0,0,.725.394.394,0,0,0,.252.268,1.861,1.861,0,0,0,.536,0h5.567l24.886-.252a39.861,39.861,0,0,0,5.6-.158h.347a.457.457,0,0,0,.252-.126.379.379,0,0,0,.126-.173,2.523,2.523,0,0,0,.079-.647c0-.457,0-1.262,0-1.7v-.615c0-.063,0,0-.142,0H48.086c-5.6,0-15.219.126-20.644.237s-6.64.221-7.239.268Z" transform="translate(11.024 71.739)"/><path class="t" d="M29.716,122.244a47.748,47.748,0,0,0-6.182,1.262,4.589,4.589,0,0,0-2.76,1.577,7.475,7.475,0,0,0-.789,1.577h0l-.126.347a6.306,6.306,0,0,1-.3.678l4.495-.189c6.86-.221,19.556-.457,25.912-.568,4.9-.095,6.024-.126,6.308-.158a4.2,4.2,0,0,1,0-.473,29.664,29.664,0,0,0-1.009-5.883c-.457-1.356-.978-1.577-1.246-1.577s-.3.095-.615.489a4.053,4.053,0,0,1-2.492,1.4,16.307,16.307,0,0,1-5.741,0,5.914,5.914,0,0,1-3.154-1.577c-.489-.457-.552-.678-1.167-.662a10.55,10.55,0,0,0-3.154.946c-1.451.631-3.154,1.577-4.432,2.05a14.461,14.461,0,0,1-3.58.584Zm8.059-2.145a.836.836,0,1,1-.773.836.8.8,0,0,1,.773-.836Zm2.255-.852a.836.836,0,1,1-.773.836.8.8,0,0,1,.773-.836Zm-4.495,1.829a.8.8,0,0,1,.773.836.789.789,0,1,1-1.577,0,.8.8,0,0,1,.836-.836Z" transform="translate(11.288 68.379)"/><rect class="s" width="48.779" height="48.779" rx="5.92" transform="translate(24.492 238.645)"/><path class="t" d="M29.39,154.32V155c0,.584,0,.584-1.009,6.8s-3,18.689-4.022,24.9-.994,6.308-.978,6.308l.836.11,3.154.473c.773.126.773.126.789.095s0-.095,1.246-4.921,3.58-14.43,4.731-19.241a25.945,25.945,0,0,1,1.2-4.132,24.856,24.856,0,0,1,1.183,4.132c1.2,4.81,3.564,14.415,4.731,19.241s1.23,4.889,1.246,4.921,0,0,.789-.095l3.154-.473.836-.11-.962-6.308c-.962-6.308-2.87-18.689-3.848-24.9s-.994-6.214-1.025-6.8v-.678H35.9l-.5,3.391-.5-3.391Z" transform="translate(13.491 89.057)"/><path class="u" d="M123.019,71.744h36.667c.457,0,.836-.71.836-1.577s-.378-1.577-.836-1.577H51.356c-.473,0-.836.71-.836,1.577s.363,1.577.836,1.577Z" transform="translate(29.155 39.583)"/><path class="u" d="M51.356,77.264h108.33c.457,0,.836-.71.836-1.577s-.379-1.577-.836-1.577H51.356c-.473,0-.836.71-.836,1.577S50.883,77.264,51.356,77.264Z" transform="translate(29.155 42.768)"/><path class="u" d="M51.356,82.784h108.33c.457,0,.836-.71.836-1.577s-.379-1.577-.836-1.577H51.356c-.473,0-.836.71-.836,1.577S50.883,82.784,51.356,82.784Z" transform="translate(29.155 45.954)"/><path class="u" d="M50.962,88.3h58.494c.252,0,.457-.71.457-1.577s-.205-1.577-.457-1.577H50.962c-.237,0-.442.71-.442,1.577S50.725,88.3,50.962,88.3Z" transform="translate(29.155 49.139)"/><path class="u" d="M123.019,115.064h36.667c.457,0,.836-.71.836-1.577s-.378-1.577-.836-1.577H51.356c-.473,0-.836.71-.836,1.577s.363,1.577.836,1.577Z" transform="translate(29.155 64.582)"/><path class="u" d="M50.914,120.584h50.972c.221,0,.394-.71.394-1.577s-.173-1.577-.394-1.577H50.914c-.221,0-.394.71-.394,1.577S50.693,120.584,50.914,120.584Z" transform="translate(29.155 67.768)"/><path class="u" d="M51.356,162.824h108.33c.457,0,.836-.71.836-1.577s-.379-1.577-.836-1.577H51.356c-.473,0-.836.71-.836,1.577S50.883,162.824,51.356,162.824Z" transform="translate(29.155 92.144)"/><path class="u" d="M51.356,168.354h108.33c.457,0,.836-.71.836-1.577s-.379-1.577-.836-1.577H51.356c-.473,0-.836.71-.836,1.577S50.883,168.354,51.356,168.354Z" transform="translate(29.155 95.335)"/><path class="u" d="M50.788,173.874H85.847c.142,0,.268-.71.268-1.577s-.126-1.577-.268-1.577H50.788c-.158,0-.268.71-.268,1.577S50.63,173.874,50.788,173.874Z" transform="translate(29.155 98.521)"/><path class="v" d="M233.564,115.71H206.517c-8.548,0-15.487,8.09-15.487,18.058s6.939,18.073,15.487,18.073h27.047c8.548,0,15.487-8.09,15.487-18.073S242.159,115.71,233.564,115.71Z" transform="translate(110.242 66.775)"/><path class="w" d="M152.927,223.769c-.079,1.167-.173,2.665-.142,3.706a11.621,11.621,0,0,0,.331,2.3,2.176,2.176,0,0,1-.5,2.224,6.829,6.829,0,0,1-4.495,1.009,29.617,29.617,0,0,1-6.513-1.183c-1.577-.5-2.239-.867-2.129-1.341s.915-1.057,1.987-1.672,2.413-1.23,3.3-1.814a3.312,3.312,0,0,0,1.577-2,26.639,26.639,0,0,0,.552-3.154c.142-.946.331-1.577,1.151-1.7a9.463,9.463,0,0,1,3.154.268c.962.189,1.4.363,1.577.867A7.3,7.3,0,0,1,152.927,223.769Z" transform="translate(80.483 127.023)"/><path class="x" d="M156.127,227.876a13.881,13.881,0,0,1,.836,2.7c.158.71.158.71-1.4.694s-4.731-.079-8.327-.11-7.885,0-9.92,0-2.1.079-2.082-.379a2.46,2.46,0,0,1,1.088-2.034,37.5,37.5,0,0,1,4.479-1.577,29.281,29.281,0,0,0,3.722-2.019c.836-.473,1.214-.457,1.088,0s-.773,1.246-.71,1.861.867.994,2.713,1.151a34.6,34.6,0,0,0,6.308-.142C155.512,227.718,155.812,227.356,156.127,227.876Z" transform="translate(78.039 129.729)"/><path class="w" d="M106.052,188.867a22.772,22.772,0,0,1-4.463,1.908,23.81,23.81,0,0,1-3.454.71,2.224,2.224,0,0,0-1.577.757,9.824,9.824,0,0,0-2,2.113c-.221.52.473.52,1.577.836s2.823.946,4.857,1.356a34.161,34.161,0,0,0,5.725.615c1.23,0,1.246-.205,1.214-.583a8.973,8.973,0,0,0-.205-1.277c-.11-.378-.221-.568.252-1.041a30.133,30.133,0,0,0,2.208-2.082,2.791,2.791,0,0,0,.757-2.681,2.981,2.981,0,0,0-2.145-1.924C108.071,187.464,107.3,188.158,106.052,188.867Z" transform="translate(54.543 108.241)"/><path class="x" d="M110.929,194.411a13.64,13.64,0,0,1,.426,2.776c0,.741,0,.741-1.467.489l-8.232-1.262c-3.612-.552-7.744-1.183-9.81-1.451s-2.1-.237-2.019-.678a2.445,2.445,0,0,1,1.372-1.861,39.168,39.168,0,0,1,4.731-.915,28.249,28.249,0,0,0,3.974-1.467c.9-.347,1.277-.284,1.088.11s-.946,1.12-.962,1.735.71,1.1,2.508,1.577a34.772,34.772,0,0,0,6.308.773C110.346,194.175,110.693,193.844,110.929,194.411Z" transform="translate(51.826 109.541)"/><path class="y" d="M151.81,126.419l9.983-.489,5.9,20.644-9.983.489Z" transform="translate(87.608 72.673)"/><path class="z" d="M173.724,140.589a24.266,24.266,0,0,1-3.154-1.908,22.425,22.425,0,0,0-4.589-2.949,19.273,19.273,0,0,0-5.788-1.12,8.375,8.375,0,0,0-3.265.252,5.961,5.961,0,0,0-2.508,1.277,1.577,1.577,0,0,0-.252,1.451c0,.3,0,.3.962.678a19.935,19.935,0,0,1,4.731,2.791,64.459,64.459,0,0,1,5.6,5.583c1.356,1.451,1.829,1.861,3.88,1.577a19.982,19.982,0,0,0,7.192-2.208c1.577-1.088.994-2.366.158-3.312A10.078,10.078,0,0,0,173.724,140.589Z" transform="translate(88.925 77.649)"/><path class="aa" d="M263.984,159.195c.946,5.157,2.933,12.964,2.9,18.72a15.881,15.881,0,0,1-18.925,16.1c-6.308-.978-14.84-4.889-28.64-13.784S186.407,157.46,176.156,151.2s-11.623-4.936-12.4-.789-.946,11.15-3.9,18.783l-.284.725a7.98,7.98,0,0,0-1.246,1.924,140.816,140.816,0,0,1-9.557,14.509,159.067,159.067,0,0,1-20.865,22.537c-6.971,6.308-15.282,12.711-22.521,18.137l-3.769-3.28c-1.009-.883-1.356-1.183-.978-1.735,2.192-1.751,4.731-3.88,7.239-6.308a168.857,168.857,0,0,0,18.137-21.575,141.006,141.006,0,0,0,14.194-23.972,173.828,173.828,0,0,0,7.507-20.723c1.435-4.621,1.861-5.788,2.082-6.308v-.189c.5-1.356.994-2.6,1.467-3.706,1.987-4.731,3.769-6.955,6.734-7.885s7.05-.489,17.206,3.154,26.337,10.724,34.428,14.194a87.252,87.252,0,0,0,11.812,4.731A79.723,79.723,0,0,0,238.8,157.3a31.4,31.4,0,0,0,15.077-2.9c3.864-1.7,6.592-3.564,7.885-3.154S263.038,154.022,263.984,159.195Z" transform="translate(57.995 75.555)"/><path class="ab" d="M165.4,147c-7.775.489-15.519,1.072-20.818,1.782-10.188,1.356-11.245,3.154-11.655,6.308s-.126,7.4,2.586,16.339,7.885,22.521,10.677,35.311a167.961,167.961,0,0,1,3.407,34.885c.11,10.015-.126,18.042-.252,22.079s-.126,4.022.915,4.2a34.133,34.133,0,0,0,5.3.552,17.544,17.544,0,0,0,2.05-.079c.095-.773.189-1.577.3-2.571,1.183-10.03,3.548-30.091,4.384-42.928s.158-18.452-1.041-24.287-2.886-11.939-3.9-15.487c-.789-2.791-1.167-4.022-1.372-4.731-.647-2.05-1.214-3.9-1.577-5.394-1.262-4.558-1.1-6.119-.9-7.192s.473-1.672,2.807-1.687A57.88,57.88,0,0,1,168.93,166c5.851,1.388,13.137,3.659,18.357,5.141s8.374,2.192,9.951,2.539a4.734,4.734,0,0,1,.552.142c3.627.757,7.207,1.419,10.519,1.845q-3.5-2.05-7.586-4.731C189.906,164.033,175.9,154.081,165.4,147Z" transform="translate(76.623 84.832)"/><path class="ac" d="M198.681,128.706a216.553,216.553,0,0,1,3.06-21.606c1.277-5.614,2.744-7.428,5.693-8.847a24.713,24.713,0,0,1,21.165-.221c3.6,1.293,7.885,2.87,10.456,5.015s3.454,4.81,3.154,9.7-1.577,11.939-2.3,18.073a176.811,176.811,0,0,0-.757,18.326,235.832,235.832,0,0,1-1.262,23.846,183.514,183.514,0,0,1-3.47,19.351c-.852,3.769-.852,3.769-1.845,2.413a22.49,22.49,0,0,0-8.784-7.065,137.217,137.217,0,0,0-13.09-5.567c-.347-.142-.994-.394-2.271-.962-1.577-.694-4.1-1.861-6.088-2.713a41.573,41.573,0,0,0-4.116-1.577l-.662-.3-.757-.173c-.741-.173-2.239-.536-3.5-.867s-2.334-.631-3.612-1.025-2.776-.852-3.817-1.183-1.577-.536-2.46-.852-1.893-.741-3.154-1.277l-4.479-1.908-5.268-2.176-4.731-2.019-3.88-1.656-1.4-.584c.268-.379.615-.836.946-1.341a10.313,10.313,0,0,0,.647-1.151l.142-.3c.11-.237.268-.536.442-.883l.079-.189.631-1.372h0c3.959,1.577,10.314,3.785,14.714,5.015a39.571,39.571,0,0,0,8.3,1.577c1.214.079,1.214.079,1.577-.568s1.183-1.956,1.845-3.154l.11-.173h0c.536-.93,1.072-1.893,1.577-2.87a60.166,60.166,0,0,0,5.11-13.91,119.6,119.6,0,0,0,2.066-14.825Z" transform="translate(92.623 55.262)"/><path class="z" d="M184.263,82.6a33.746,33.746,0,0,0-.158,4.447c.095,1.2.489,1.829.473,2.492s-.394,1.341-.378,2.255a9.9,9.9,0,0,0,.915,3.154,18.262,18.262,0,0,1,1.214,3.375c.205,1.057,0,2,.52,2.476s1.577.473,2.618.662a7.649,7.649,0,0,1,3.627,1.577,42.706,42.706,0,0,1,4.637,4.305c.867.915,1.467,1.577,1.908,2a24.334,24.334,0,0,0-1.356,4.447c-.394,1.971-.615,4.432.583,4.968s3.848-.82,5.488-2.681a13.91,13.91,0,0,0,2.681-5.693c.41-1.467.568-2.066,0-3.154a31.543,31.543,0,0,0-2.918-3.785c-.71-.836-1.009-1.23-1.183-1.451h0c-.82-1.151-1.687-2.318-2.366-3.28A5.173,5.173,0,0,1,199.2,95.2c0-1.577.71-3.69.994-5.678a19.272,19.272,0,0,0,0-5.315,7.223,7.223,0,0,0-1.435-3.974,8.248,8.248,0,0,0-4.463-2.523,16.985,16.985,0,0,0-6.024-.173,4.416,4.416,0,0,0-3.28,1.577A7.349,7.349,0,0,0,184.263,82.6Z" transform="translate(106.237 44.638)"/><path class="ad" d="M187.045,73.968a4.51,4.51,0,0,0-3.154.568c-1.2.584-3.6,1.751-3.407,3.69s2.965,4.731,4.353,6.04l1.388,1.372v-.473l.126-1.861c0-.473,0-.473.741.315a10.172,10.172,0,0,0,3.848,2.965,26.811,26.811,0,0,0,4.873.489c1.072.237,1.12,1.1,1.072,1.924a14.188,14.188,0,0,0-.142,2.46c.095.82.442,1.7.647,1.7s.252-.867.52-1.577.725-1.072,1.12-.867a2.208,2.208,0,0,1,.631,2.05,10.913,10.913,0,0,0-.394,3.154,5.078,5.078,0,0,0,1.577,2.334l.457.457V98.24a3.343,3.343,0,0,1,1.23-2.287,15.139,15.139,0,0,0,4.069-3.438,10.708,10.708,0,0,0,.962-6.435,8.911,8.911,0,0,0-1.829-5.015,6.435,6.435,0,0,0-3.044-1.672c-.694-.2-.694-.2-1.577-1.057a14.715,14.715,0,0,0-5.614-3.422A33.308,33.308,0,0,0,187.045,73.968Z" transform="translate(104.15 42.642)"/><path class="ae" d="M212.322,114.1c-.426,1.293-3.958,11.04-6.923,18.61s-5.362,13.121-7.759,16.449a11.04,11.04,0,0,1-7.665,4.936,40.372,40.372,0,0,1-7.885.347c-1.7,0-1.829,0-.095-.095a29.586,29.586,0,0,0,8.406-1.214c3.154-1.041,5.646-3.044,8.39-7.539a133.124,133.124,0,0,0,8.469-18.578C210.114,119.956,212.764,112.827,212.322,114.1Z" transform="translate(104.31 65.763)"/><path class="ae" d="M188.068,157.439c1.829,0,7.6-.347,11.765-2.681s6.75-6.734,9.163-11.592,4.731-10.172,5.835-12.838,1.151-2.649-.158,0-3.911,8.138-5.93,12a49.43,49.43,0,0,1-4.921,7.964,17.806,17.806,0,0,1-4.211,3.943,15.188,15.188,0,0,1-4.29,1.877,31.443,31.443,0,0,1-5.11,1.025C188.368,157.424,186.223,157.518,188.068,157.439Z" transform="translate(108.125 74.062)"/><path class="ae" d="M183.94,128.717c-.158,1.183-.584,5.946-.883,9.463a56.44,56.44,0,0,0-.347,6.419c0,.489.426-.867.647-3.249s.379-5.741.5-8.611S184.1,127.519,183.94,128.717Z" transform="translate(105.44 74.097)"/><path class="y" d="M191.873,223.65a3.627,3.627,0,1,0,3.612,3.627,3.627,3.627,0,0,0-3.612-3.627Z" transform="translate(108.626 129.066)"/><path class="y" d="M203.413,223.65a3.627,3.627,0,1,0,3.612,3.627,3.627,3.627,0,0,0-3.612-3.627Z" transform="translate(115.285 129.066)"/><rect class="af" width="7.05" height="56.775" transform="translate(305.435 271.559)"/><rect class="ag" width="10.425" height="30.391" transform="translate(303.748 321.664)"/><path class="b" d="M234.655,222.37h-55.04a3.154,3.154,0,1,0,0,6.308h55.04a3.154,3.154,0,1,0,0-6.308Z" transform="translate(101.834 128.328)"/><path class="y" d="M227.431,223.87a3.943,3.943,0,1,0,3.927,3.943A3.943,3.943,0,0,0,227.431,223.87Zm-44.032,0a3.888,3.888,0,1,0,.079,0Z" transform="translate(103.553 129.193)"/><path class="v" d="M241.107,167.47h-64a4.069,4.069,0,1,0,0,8.138h64a4.069,4.069,0,1,0,0-8.138Z" transform="translate(99.86 96.645)"/><rect class="ah" width="13.894" height="1.798" transform="translate(301.65 348.9)"/><path class="a" d="M127.229,144.909a22.079,22.079,0,1,0-22.079-22.079A22.079,22.079,0,0,0,127.229,144.909Z" transform="translate(60.681 58.142)"/><path class="b" d="M119.384,106.922l18.436,12.7a1.7,1.7,0,0,1,.442,2.366l-6.576,9.557a1.719,1.719,0,0,1-2.381.442l-18.42-12.617a1.7,1.7,0,0,1-.442-2.381l6.576-9.557a1.7,1.7,0,0,1,2.366-.5Z" transform="translate(63.559 61.543)"/><rect class="ai" width="3.375" height="25.785" transform="matrix(0.567, -0.824, 0.824, 0.567, 178.21, 172.359)"/></svg>