<svg xmlns="http://www.w3.org/2000/svg" width="545.979" height="362" viewBox="0 0 545.979 362"><defs><style>.a,.b{fill:#ffceb6;}.b,.g,.h,.i,.l,.m,.n,.o,.p,.q,.s{fill-rule:evenodd;}.c{fill:#fbfbf5;}.d,.i{fill:#eb5a49;}.e,.g{fill:#ccc;}.f{fill:#86cccc;}.h{fill:#fff;}.j,.q{fill:#29576f;}.k,.l{fill:#f9f9f9;}.m{fill:#ffae3e;}.n{fill:#fed882;}.o{fill:#e35f22;}.p{fill:#fed67d;}.r,.s{fill:#0e3757;}</style></defs><g transform="translate(30)"><g transform="translate(0 0)"><path class="a" d="M322.938,80.834a161.607,161.607,0,1,0,16.153,122.608A161.868,161.868,0,0,0,322.938,80.834Zm18.711,63.936c-10.541,3.066-25.068,4.3-42.339,3.812a200.179,200.179,0,0,0-6.2-60.523,173.456,173.456,0,0,0-16.391-41.054c6.781,1.022,13.382,1.864,19.733,2.5a160.454,160.454,0,0,1,45.193,95.265ZM185.456,283.5q3.484-6.383,6.974-13.781a461.087,461.087,0,0,0,18.775-47.173,392.988,392.988,0,0,0,66.391,6.768c-10.034,24.1-22.5,44.216-36.831,59.591a326.106,326.106,0,0,1-55.31-5.406ZM69.34,242.966c-4.718-20.479-5.457-44.139-2.1-70.023,17.3,9.809,38.026,19.135,60.864,27.324a462.606,462.606,0,0,0-7.321,50.239q-.643,8.157-.855,15.426A324.513,324.513,0,0,1,69.34,242.966Zm50.541,25.113c-.3,19.392,2.115,33.784,7.212,42.95a158.48,158.48,0,0,1-31.5-15.947l.424-.411c-12.373-12.688-21.083-29.317-26.026-49A332.05,332.05,0,0,0,119.9,268.1Zm73.713-240.5a223.574,223.574,0,0,0-13.91,21.809c-11.158,19.727-21.52,43.457-30.146,68.84C127.2,110.472,107.116,101.891,90.6,93.163a198.314,198.314,0,0,1,35.282-48.85,170.634,170.634,0,0,1,35.686-27.845C171.695,20.369,182.467,24.1,193.594,27.581ZM163.885,15.156a113.252,113.252,0,0,1,32.64-12.348l-.039-.174A160.047,160.047,0,0,1,216.123,5.56c-6.248,3.047-13.537,10.046-21.243,20.286C184.107,22.5,173.713,18.91,163.885,15.156ZM239.957,66.07c-.2,22.542-3.085,48.15-8.279,74.317-13.119-2.571-26.694-5.7-40.494-9.391s-27.073-7.758-39.717-12.084c8.594-25.261,18.9-48.85,30-68.5a218.435,218.435,0,0,1,14.212-22.169q10.5,3.214,21.417,6.171c7.263,1.928,14.494,3.734,21.636,5.367a219.438,219.438,0,0,1,1.228,26.289Zm-8.677,76.316c-2.038,10.059-4.416,20.2-7.115,30.268-4.576,17.078-9.378,32.993-14.321,47.565-13.074-2.423-26.521-5.457-40.1-9.1S143,203.4,130.468,198.949c3.008-15.1,6.8-31.283,11.377-48.362,2.7-10.066,5.708-20.035,9-29.767,12.688,4.358,26.058,8.446,39.852,12.148S218.115,139.821,231.279,142.386Zm-82.4-22.227c-3.278,9.783-6.3,19.791-9,29.908-4.5,16.821-8.311,32.993-11.351,48.208-22.947-8.234-43.708-17.618-60.973-27.465a311.706,311.706,0,0,1,7.784-38.026A200.949,200.949,0,0,1,89.7,94.969C106.287,103.755,126.482,112.375,148.883,120.159ZM130.069,200.98c12.5,4.416,25.614,8.5,39.145,12.123s26.926,6.653,39.961,9.069c-8.356,24.425-17.136,44.994-25.891,60.921-10.188-1.883-20.569-4.217-30.949-7s-20.569-5.946-30.306-9.4C122.407,248.52,125.107,226.312,130.069,200.98ZM278.407,227.3c-19.868-.1-42.545-2.359-66.539-6.7,4.975-14.687,9.764-30.6,14.276-47.417,2.706-10.117,5.1-20.3,7.141-30.4,23.294,4.454,45.1,7.07,63.872,7.765a201.371,201.371,0,0,1-6.473,39.929A311.331,311.331,0,0,1,278.407,227.3ZM233.69,140.766C238.9,114.47,241.8,88.74,242,66.076a224,224,0,0,0-1.138-25.839c11.4,2.571,22.561,4.7,33.282,6.376a170.332,170.332,0,0,1,16.988,41.96,198.23,198.23,0,0,1,6.132,59.932C278.613,147.836,256.906,145.22,233.69,140.766ZM272.8,44.351c-10.387-1.671-21.211-3.767-32.19-6.248-1.556-12.714-4.364-22.426-8.26-28.185a157.979,157.979,0,0,1,18.467,7.289l-.109.129A112.4,112.4,0,0,1,272.8,44.351ZM256.694,20.119a158.327,158.327,0,0,1,37.448,27.1c-6.048-.643-12.3-1.472-18.724-2.468a121.426,121.426,0,0,0-18.724-24.631Zm-27.8-11.287c4.5,4.744,7.8,14.893,9.571,28.783-6.884-1.581-13.845-3.317-20.839-5.187s-13.9-3.857-20.646-5.933C205.466,15.356,213.4,8.208,219.664,6.357q2.32.553,4.634,1.163T228.895,8.832ZM190.02,2.211a121.418,121.418,0,0,0-28.61,11.994q-9.153-3.561-17.573-7.283A158.763,158.763,0,0,1,182.9,2.044Q186.465,2.044,190.02,2.211ZM140.688,7.758c5.856,2.642,12.026,5.232,18.454,7.758a173.014,173.014,0,0,0-34.709,27.356A200.08,200.08,0,0,0,88.8,92.179c-15.195-8.208-27.176-16.538-34.748-24.47A160.12,160.12,0,0,1,140.688,7.758ZM28.9,120.332A159.124,159.124,0,0,1,52.841,69.419C60.554,77.4,72.631,85.771,87.884,94a203.113,203.113,0,0,0-14.527,38.257,314.052,314.052,0,0,0-7.713,37.454c-18-10.451-31.958-21.4-40.366-32.029A159.59,159.59,0,0,1,28.9,120.332Zm-4.03,20.08c8.761,10.477,22.735,21.211,40.494,31.457-3.407,25.672-2.828,49.217,1.626,69.727-14.051-8.234-25.679-16.988-33.945-25.781a158.622,158.622,0,0,1-8.176-75.4Zm9.937,80.127c8.427,8.131,19.592,16.185,32.781,23.782,4.384,18.57,12.033,34.517,22.818,47.218a160.344,160.344,0,0,1-55.6-71Zm95.207,91.569.09-.058c-5.65-8.491-8.324-23.32-8.112-43.207,9.642,3.387,19.6,6.486,29.812,9.224s20.4,5.039,30.429,6.916c-9.757,17.355-19.489,28.835-28.635,33.36l.045.1c-4-.752-7.983-1.658-11.93-2.712S133.842,313.452,130.018,312.108Zm26.675,6.871c9-5.386,18.293-16.648,27.729-33.6a331.987,331.987,0,0,0,54.417,5.541c-14.141,14.578-29.985,24.624-47.044,29.426l.167.6c-2.937.161-5.888.251-8.857.251a159.223,159.223,0,0,1-26.411-2.218ZM241.9,290.949c15.118,0,28.745-1.395,40.051-4.217a159.342,159.342,0,0,1-83.881,33.758c15.761-5.592,30.422-15.626,43.547-29.567Zm43.965-7.418c-11.57,3.49-26.039,5.264-42.358,5.374,14.109-15.542,26.353-35.641,36.271-59.578,20.466,0,37.923-2.314,50.779-7.006a159.47,159.47,0,0,1-44.692,61.211ZM337.1,202.915a159.506,159.506,0,0,1-5.528,16.828c-12.6,5-30.21,7.488-50.965,7.553A314.269,314.269,0,0,0,292.657,191a202.8,202.8,0,0,0,6.543-40.4c2.487.071,4.93.116,7.308.116,14.141,0,26.2-1.286,35.352-3.857a158.872,158.872,0,0,1-4.757,56.056Z" transform="translate(-17.635 0)"/><path class="b" d="M456.3,125.432l-.752-.746,2.256-2.25.746.752-2.25,2.25Zm4.5-4.5h0l-.746-.746,2.25-2.25.746.752-2.25,2.25Zm4.5-4.5h0l-.746-.746,2.25-2.25.752.752-2.256,2.25Zm4.5-4.5h0l-.746-.746,2.25-2.25.752.752-2.25,2.25Zm4.5-4.5h0l-.746-.746,2.256-2.25.746.746-2.243,2.256Zm4.5-4.5h0l-.739-.746,2.25-2.25.752.746-2.256,2.25Zm4.5-4.5h0l-.739-.746,2.256-2.256.752.758-2.256,2.25Zm4.5-4.5h0l-.733-.746,2.25-2.25.752.746-2.25,2.25Zm4.5-4.5h0l-.733-.746,2.256-2.25.746.746-2.25,2.256Zm4.5-4.5h0l-.726-.746,2.25-2.256.746.752-2.25,2.256Zm4.5-4.5h0l-.726-.746,2.25-2.256.752.752-2.256,2.25Zm4.5-4.5h0l-.72-.746,2.25-2.25.746.746-2.25,2.256Zm4.5-4.5h0l-.72-.746,2.25-2.25.752.752L510.32,71.44Zm4.5-4.5h0l-.752-.752,2.256-2.243.746.746-2.25,2.25Zm4.5-4.5h0l-.746-.752,2.25-2.25.752.746Zm4.5-4.5h0l-.752-.752,1.44-1.44.778.72Z" transform="translate(-142.737 -29.916)"/><path class="b" d="M558.915,54.229l-4.345-1.061v-.154l6.158-2.661,5.618-3.593-3.593,5.624L560.1,58.548l-.141.039Z" transform="translate(-178.111 -26.704)"/><rect class="a" width="97.533" height="1.061" transform="matrix(0.706, -0.708, 0.708, 0.706, 396.017, 136.371)"/><path class="b" d="M688.282,118.853,683.93,117.8l.032-.154,6.164-2.661,5.618-3.593-3.593,5.624-2.655,6.158-.141.045Z" transform="translate(-224.322 -49.792)"/><rect class="a" width="91.138" height="1.061" transform="translate(261.338 111.594) rotate(-45.11)"/><path class="b" d="M502.822,71.853,498.47,70.8v-.154l6.158-2.661,5.624-3.593-3.6,5.618L504,76.172l-.141.045Z" transform="translate(-178.07 -23.002)"/><rect class="a" width="98.273" height="1.061" transform="translate(328.169 109.892) rotate(-45.05)"/><path class="b" d="M583.582,76.9l-4.352-1.061v-.154l6.2-2.68,5.618-3.593q-1.793,2.815-3.58,5.624L584.8,81.192l-.141.045Z" transform="translate(-186.92 -34.796)"/><path class="b" d="M552.736,140.979l-.746-.752L621.537,70.68l.746.752Z" transform="translate(-177.189 -35.249)"/><path class="b" d="M656.255,69.213l-4.345-1.061.032-.154,6.158-2.655c1.87-1.2,3.754-2.4,5.624-3.593l-3.6,5.618-2.655,6.158-.135.051Z" transform="translate(-212.884 -32.059)"/><rect class="a" width="97.533" height="1.061" transform="translate(328.914 131.558) rotate(-45.01)"/><path class="b" d="M583.945,111.443l-4.345-1.061v-.154l6.158-2.655L591.427,104l-3.6,5.618-2.655,6.158-.141.051Z" transform="translate(-187.052 -47.152)"/><path class="b" d="M423.586,88.332l-.746-.752,2.25-2.25.746.746Zm4.5-4.5h0l-.752-.746,2.25-2.25.752.746Zm4.5-4.5h0l-.746-.752,2.25-2.25.746.752Zm4.5-4.5h0l-.752-.752,2.256-2.25.752.746Zm4.5-4.5h0l-.752-.746,2.25-2.256.752.752-2.25,2.25Zm4.5-4.5h0l-.752-.752,2.25-2.256.746.758-2.2,2.25Zm4.5-4.5h0l-.752-.746,2.256-2.256.746.752-2.25,2.25Zm4.5-4.5h0l-.752-.752,2.256-2.25.746.746-2.211,2.256Zm4.5-4.5h0l-.752-.746,2.256-2.25.746.746Zm4.5-4.5h0l-.752-.746,2.25-2.256.752.752Zm4.5-4.5h0l-.746-.752,2.25-2.25.746.752Zm4.5-4.5h0l-.746-.746,2.25-2.256.752.752-2.211,2.25Zm4.5-4.5h0l-.752-.752,2.25-2.25.752.752Zm4.5-4.5h0l-.746-.752,2.25-2.25.746.752Zm4.5-4.5h0l-.752-.746,2.25-2.25.752.746Zm4.5-4.5h0l-.752-.752,2.256-2.25.746.752Zm4.5-4.5h0l-.752-.746,2.237-2.237.752.746Z" transform="translate(-151.052 -4.773)"/><path class="b" d="M534.485,11.86,530.14,10.8v-.154L536.33,8l5.618-3.593-3.593,5.624L535.7,16.185l-.135.051Z" transform="translate(-189.383 -1.575)"/><path class="b" d="M613.182,131l-.752-.752,2.25-2.25.752.752Zm4.5-4.5h0l-.746-.752,2.243-2.25.752.746Zm4.5-4.5h0l-.746-.758,2.25-2.25.752.752Zm4.5-4.5h0l-.752-.746,2.25-2.25.752.746Zm4.5-4.5h0l-.746-.746,2.288-2.263.746.752-2.25,2.25Zm4.5-4.5h0l-.752-.752,2.295-2.256.752.752-2.25,2.25Zm4.5-4.5h0l-.752-.752L641.721,101l.746.752-2.25,2.25Zm4.5-4.5h0l-.752-.752L646.22,96.5l.746.752-2.243,2.25Zm4.5-4.5h0l-.746-.752L650.72,92l.752.752-2.25,2.243Zm4.5-4.5h0l-.752-.758,2.295-2.25.752.752-2.25,2.256Zm4.5-4.5h0l-.758-.752,2.3-2.256.752.752L658.221,86Zm4.5-4.5h0l-.752-.746,2.295-2.263.746.752-2.25,2.25Zm4.5-4.5h0l-.752-.752L668.717,74l.746.752Z" transform="translate(-198.78 -36.435)"/><path class="b" d="M697.805,70.733l-4.345-1.061v-.148l6.164-2.661,5.618-3.593-3.561,5.611-2.661,6.158-.135.045Z" transform="translate(-227.727 -32.602)"/><rect class="a" width="201.533" height="265.45" transform="translate(145.51 70.557)"/><rect class="c" width="168.013" height="195.774" transform="translate(162.267 99.738)"/><rect class="d" width="63.396" height="63.396" transform="translate(179.518 122.749)"/><rect class="e" width="47.481" height="5.534" transform="translate(249.844 122.749)"/><rect class="e" width="63.396" height="0.572" transform="translate(249.844 129.627)"/><rect class="f" width="29.098" height="4.943" transform="translate(269.943 181.203)"/><rect class="d" width="29.098" height="4.943" transform="translate(269.943 174.505)"/><rect class="e" width="17.458" height="4.943" transform="translate(249.844 181.203)"/><rect class="e" width="17.458" height="4.943" transform="translate(249.844 174.505)"/><rect class="e" width="6.563" height="4.943" transform="translate(249.844 193.64)"/><rect class="e" width="21.552" height="4.943" transform="translate(257.885 193.64)"/><rect class="e" width="21.552" height="4.943" transform="translate(280.915 193.64)"/><path class="g" d="M307.423,307.345H294.33V297.17h13.093Zm-4.692-7.867a1.093,1.093,0,1,0,1.093,1.093,1.093,1.093,0,0,0-1.093-1.093Zm3.214,4.692-1.543-1.234a.36.36,0,0,0-.444,0l-1.742,1.433-2.507-2.507a.315.315,0,0,0-.444,0l-.533.54-.99-.99a.315.315,0,0,0-.444,0l-1.53,1.523V305.9h10.162v-1.71ZM295.2,306.458h11.319v-8.42H295.217Z" transform="translate(-105.144 -106.159)"/><path class="g" d="M331.513,307.345H318.42V297.17h13.093Zm-4.7-7.867a1.093,1.093,0,1,0,1.093,1.093A1.093,1.093,0,0,0,326.815,299.478Zm3.214,4.692-1.53-1.253a.36.36,0,0,0-.444,0l-1.748,1.433-2.5-2.507a.321.321,0,0,0-.45,0l-.534.54-.99-.99a.315.315,0,0,0-.443,0l-1.523,1.523v2.963h10.162v-1.71Zm-10.741,2.288h11.319v-8.42h-11.3Z" transform="translate(-113.75 -106.159)"/><path class="g" d="M355.593,307.345H342.5V297.17h13.093Zm-4.692-7.867a1.093,1.093,0,1,0,1.093,1.093A1.093,1.093,0,0,0,350.9,299.478Zm3.214,4.692-1.523-1.253a.366.366,0,0,0-.45,0L350.4,304.35l-2.507-2.507a.315.315,0,0,0-.443,0l-.534.54-.99-.99a.315.315,0,0,0-.444,0l-1.53,1.523v2.963h10.162v-1.71Zm-10.741,2.288h11.319v-8.42H343.387Z" transform="translate(-122.352 -106.159)"/><path class="g" d="M371.424,300.131a.212.212,0,0,1-.045-.289.206.206,0,0,1,.283-.051l3.638,2.571a1.408,1.408,0,0,1,.3.289.887.887,0,0,1,.173.521.874.874,0,0,1-.161.521,1.194,1.194,0,0,1-.257.251l-3.689,2.622a.2.2,0,0,1-.283-.045.212.212,0,0,1,.045-.289l3.689-2.622a.95.95,0,0,0,.161-.161.418.418,0,0,0,.084-.27.52.52,0,0,0-.1-.289.931.931,0,0,0-.2-.186Z" transform="translate(-132.655 -107.082)"/><path class="g" d="M283.077,299.789a.208.208,0,0,1,.238.341l-3.638,2.571a.766.766,0,0,0-.193.186.482.482,0,0,0-.1.289.425.425,0,0,0,.09.27.642.642,0,0,0,.161.161l3.683,2.622a.212.212,0,0,1,.051.289.206.206,0,0,1-.289.045l-3.689-2.622a1.363,1.363,0,0,1-.257-.251.874.874,0,0,1-.161-.521.894.894,0,0,1,.18-.521,1.234,1.234,0,0,1,.289-.289Z" transform="translate(-99.657 -107.081)"/><path class="h" d="M336.556,247.827h-35.8V213.85h35.8v33.977Zm-33.372-2.43h30.943V216.28H303.183Z" transform="translate(-107.441 -76.394)"/><path class="h" d="M334.77,248.855l-4.172-3.432a1,1,0,0,0-1.215,0l-4.776,3.94-6.845-6.852a.861.861,0,0,0-1.215,0l-1.466,1.466-2.7-2.706a.861.861,0,0,0-1.215,0l-4.178,4.172v8.092h27.78Z" transform="translate(-109.667 -86.1)"/><path class="h" d="M334.815,230.42a2.989,2.989,0,1,0,2.982,2.989,2.989,2.989,0,0,0-2.982-2.989Z" transform="translate(-118.537 -82.314)"/><rect class="e" width="70.878" height="6.28" transform="translate(218.579 109.232)"/><rect class="f" width="33.97" height="6.28" transform="translate(179.518 109.232)"/><rect class="d" width="6.28" height="6.28" transform="translate(306.96 109.232)"/><rect class="d" width="6.28" height="6.28" transform="translate(299.002 109.232)"/><rect class="d" width="6.28" height="6.28" transform="translate(291.045 109.232)"/><rect class="e" width="63.396" height="2.764" transform="translate(249.844 133.014)"/><rect class="e" width="63.396" height="2.764" transform="translate(249.844 138.009)"/><rect class="e" width="31.695" height="2.764" transform="translate(249.844 143.003)"/><rect class="e" width="63.396" height="2.764" transform="translate(249.844 147.991)"/><rect class="e" width="43.83" height="2.764" transform="translate(249.844 152.985)"/><rect class="e" width="63.396" height="2.764" transform="translate(249.844 157.979)"/><rect class="e" width="63.396" height="2.764" transform="translate(249.844 162.967)"/><rect class="e" width="31.695" height="2.764" transform="translate(249.844 167.962)"/><rect class="e" width="41.542" height="2.764" transform="translate(179.518 264.19)"/><rect class="e" width="41.542" height="2.764" transform="translate(179.518 269.184)"/><rect class="e" width="20.774" height="2.764" transform="translate(179.518 274.172)"/><rect class="e" width="41.542" height="2.764" transform="translate(225.605 264.19)"/><rect class="e" width="41.542" height="2.764" transform="translate(225.605 269.184)"/><rect class="e" width="20.774" height="2.764" transform="translate(225.605 274.172)"/><rect class="e" width="41.542" height="2.764" transform="translate(271.691 264.19)"/><rect class="e" width="41.542" height="2.764" transform="translate(271.691 269.184)"/><rect class="e" width="20.774" height="2.764" transform="translate(271.691 274.172)"/><rect class="d" width="10.387" height="6.28" transform="translate(179.518 279.674)"/><rect class="d" width="10.387" height="6.28" transform="translate(225.605 279.674)"/><rect class="d" width="10.387" height="6.28" transform="translate(271.691 279.674)"/><rect class="e" width="41.542" height="41.542" transform="translate(179.518 211.644)"/><rect class="e" width="41.542" height="41.542" transform="translate(225.605 211.644)"/><rect class="f" width="41.542" height="41.542" transform="translate(271.691 211.644)"/><path class="i" d="M422.69,329.27h41.548v41.548H422.69Zm4.416,4.416v32.691h32.717V333.66Z" transform="translate(-150.999 -117.626)"/><path class="h" d="M391.256,369.124h-35.8V335.16h35.8ZM357.89,366.7h30.943V337.583H357.89Z" transform="translate(-126.982 -119.73)"/><path class="h" d="M389.474,370.158l-4.172-3.432a1,1,0,0,0-1.215,0l-4.769,3.927-6.845-6.852a.861.861,0,0,0-1.215,0l-1.466,1.466-2.706-2.706a.861.861,0,0,0-1.215,0l-4.172,4.172v8.092h27.774Z" transform="translate(-129.211 -129.429)"/><path class="h" d="M389.519,351.73a2.989,2.989,0,1,0,2.989,2.989A2.989,2.989,0,0,0,389.519,351.73Z" transform="translate(-138.081 -125.649)"/><path class="h" d="M319.556,369.124h-35.8V335.16h35.8ZM286.19,366.7h30.936V337.583H286.19Z" transform="translate(-101.368 -119.73)"/><path class="h" d="M317.774,370.158l-4.172-3.432a1,1,0,0,0-1.215,0l-4.769,3.927-6.852-6.852a.861.861,0,0,0-1.215,0l-1.459,1.466-2.706-2.706a.861.861,0,0,0-1.215,0L290,366.732v8.092h27.774Z" transform="translate(-103.597 -129.429)"/><path class="h" d="M317.815,351.73a2.989,2.989,0,1,0,2.982,2.989A2.989,2.989,0,0,0,317.815,351.73Z" transform="translate(-112.464 -125.649)"/><rect class="j" width="168.013" height="23.744" transform="translate(162.267 295.506)"/><rect class="j" width="168.013" height="12.418" transform="translate(162.267 87.32)"/><rect class="e" width="41.542" height="2.764" transform="translate(179.518 259.196)"/><rect class="e" width="41.542" height="2.764" transform="translate(225.605 259.196)"/><rect class="e" width="41.542" height="2.764" transform="translate(271.691 259.196)"/><rect class="k" width="41.542" height="1.536" transform="translate(179.518 303.83)"/><rect class="k" width="41.542" height="1.536" transform="translate(179.518 306.606)"/><rect class="k" width="20.774" height="1.536" transform="translate(179.518 309.39)"/><path class="l" d="M281.752,146.6a2.468,2.468,0,1,0-2.462-2.462,2.468,2.468,0,0,0,2.462,2.462Z" transform="translate(-99.772 -50.606)"/><path class="l" d="M295.122,146.6a2.468,2.468,0,1,0-2.462-2.462A2.468,2.468,0,0,0,295.122,146.6Z" transform="translate(-104.548 -50.606)"/><path class="l" d="M308.492,146.6a2.468,2.468,0,1,0-2.462-2.462,2.468,2.468,0,0,0,2.462,2.462Z" transform="translate(-109.324 -50.606)"/><path class="m" d="M535.116,188.091c0,7.437-7.81,13.466-17.445,13.466s-17.438-6.029-17.438-13.466a10.573,10.573,0,0,1,.611-3.542,10.677,10.677,0,0,0-.894,4.255c0,7.475,7.932,13.53,17.721,13.53S535.4,196.28,535.4,188.8a10.677,10.677,0,0,0-.893-4.255A10.573,10.573,0,0,1,535.116,188.091Z" transform="translate(-178.599 -65.927)"/><path class="n" d="M517.828,196.014c9.642,0,17.445-6.048,17.445-13.466s-7.835-13.5-17.445-13.5-17.438,6.055-17.438,13.5S508.225,196.014,517.828,196.014Z" transform="translate(-178.756 -60.39)"/><path class="m" d="M519.922,194.3c7.533,0,13.678-4.641,13.678-10.336s-6.145-10.336-13.678-10.336-13.672,4.641-13.672,10.336S512.395,194.3,519.922,194.3Z" transform="translate(-180.849 -62.026)"/><path class="o" d="M519.918,174.247c7.418,0,13.453,4.461,13.672,10.027v-.309c0-5.708-6.126-10.336-13.678-10.336s-13.672,4.628-13.672,10.336v.309C506.471,178.708,512.513,174.247,519.918,174.247Z" transform="translate(-180.846 -62.026)"/><path class="o" d="M500.059,192.681c.977,6.762,8.491,12.02,17.612,12.02s16.641-5.258,17.618-12.02a9.837,9.837,0,0,0,.109-1.511v3.015c0,7.475-7.932,13.5-17.728,13.5s-17.721-6.055-17.721-13.5V191.17A9.837,9.837,0,0,0,500.059,192.681Z" transform="translate(-178.598 -68.292)"/><path class="o" d="M524.269,177.18l-2.288.321.276,1.7c-2.115.643-3.857,2.057-3.529,4.049.36,2.2,2.751,2.642,4.261,2.751,2.108.18,4.326.36,4.577,1.928.174,1.041-.829,2.089-2.365,2.3a2.693,2.693,0,0,1-3.175-1.652l-2.815.4c.354,1.671,2.237,3.1,5.142,2.95l.3,1.813,2.295-.328-.3-1.813c2.693-.829,3.992-2.655,3.728-4.268s-2.166-2.661-4.66-2.937c-2.359-.219-3.979-.366-4.2-1.716-.167-1.035.861-1.928,2.134-2.115a2.437,2.437,0,0,1,2.764,1.408l2.571-.366c-.321-1.62-1.89-2.757-4.416-2.725Z" transform="translate(-185.292 -63.294)"/><path class="p" d="M524.269,176l-2.288.321.276,1.7c-2.115.643-3.857,2.05-3.529,4.049.36,2.2,2.751,2.642,4.261,2.751,2.108.174,4.326.354,4.577,1.928.174,1.035-.829,2.083-2.365,2.3a2.69,2.69,0,0,1-3.175-1.658l-2.815.4c.354,1.671,2.237,3.111,5.142,2.95l.3,1.813,2.295-.321-.3-1.813c2.693-.836,3.992-2.661,3.728-4.268s-2.166-2.667-4.66-2.944c-2.359-.212-3.979-.366-4.2-1.716-.167-1.035.861-1.928,2.134-2.115a2.437,2.437,0,0,1,2.764,1.408l2.571-.36c-.321-1.62-1.89-2.764-4.416-2.732Z" transform="translate(-185.292 -62.873)"/><path class="m" d="M506.733,262.8c6.7,6.7,5.1,19.174-3.58,27.851s-21.147,10.284-27.851,3.58a13.46,13.46,0,0,1-2.642-3.741,13.64,13.64,0,0,0,3.027,4.647c6.736,6.73,19.347,5.039,28.166-3.786s10.516-21.43,3.779-28.166a13.55,13.55,0,0,0-4.641-3.027,13.6,13.6,0,0,1,3.741,2.642Z" transform="translate(-168.85 -92.938)"/><path class="n" d="M478.049,265.549c8.677-8.677,21.147-10.284,27.851-3.58s5.1,19.174-3.58,27.851-21.147,10.284-27.851,3.58S469.371,274.226,478.049,265.549Z" transform="translate(-168.016 -92.104)"/><path class="m" d="M483.012,270.512c6.8-6.807,16.487-8.15,21.629-3.008s3.8,14.829-3.008,21.636-16.487,8.15-21.629,3.008S476.2,277.312,483.012,270.512Z" transform="translate(-170.357 -94.445)"/><path class="o" d="M483.564,271.064c6.685-6.678,16.14-8.1,21.353-3.278-.09-.1-.18-.193-.276-.283-5.142-5.142-14.829-3.8-21.629,3.008S474.854,287,480,292.147l.283.27C475.465,287.211,476.886,277.749,483.564,271.064Z" transform="translate(-170.356 -94.445)"/><path class="o" d="M478.8,298.082c6.98,5.206,18.486,3.175,26.707-5.046s10.252-19.727,5.02-26.707a13.388,13.388,0,0,0-1.286-1.459l2.719,2.719c6.73,6.736,5.039,19.341-3.779,28.166s-21.436,10.516-28.166,3.779l-2.719-2.712a14.235,14.235,0,0,0,1.5,1.26Z" transform="translate(-170.507 -94.62)"/><path class="o" d="M488.494,276.769l-1.774,2.353,1.78,1.286c-1.343,2.462-1.62,5.322.476,6.826,2.307,1.658,4.859-.1,6.318-1.363,2.057-1.735,4.217-3.574,5.862-2.385,1.086.778,1.125,2.629-.064,4.21-1.067,1.414-2.854,2.237-4.352,1.369l-2.179,2.892c1.826,1.189,4.821.784,7.27-1.928l1.928,1.369,1.774-2.359-1.928-1.369c1.671-3.169,1.2-5.991-.488-7.205s-4.352-.45-6.852,1.556c-2.314,1.928-3.914,3.252-5.329,2.237-1.086-.784-.971-2.52,0-3.857.868-1.151,2.455-1.928,3.76-1.221l2-2.648c-1.742-1.176-4.191-.791-6.428,1.517Z" transform="translate(-173.872 -98.555)"/><path class="p" d="M487.454,275.721l-1.774,2.359,1.78,1.286c-1.343,2.462-1.62,5.322.476,6.826,2.308,1.658,4.853-.1,6.318-1.363,2.057-1.742,4.217-3.574,5.862-2.385,1.086.778,1.125,2.629-.064,4.21-1.067,1.414-2.854,2.237-4.352,1.369l-2.179,2.892c1.825,1.189,4.821.784,7.27-1.928l1.928,1.369L504.494,288l-1.9-1.395c1.671-3.169,1.2-5.991-.488-7.205s-4.352-.45-6.852,1.556c-2.314,1.928-3.914,3.252-5.329,2.23-1.086-.778-.977-2.513,0-3.824.868-1.157,2.455-1.928,3.76-1.221l2-2.655c-1.748-1.17-4.191-.784-6.428,1.523Z" transform="translate(-173.501 -98.183)"/><path class="m" d="M572.617,233.388c1.5,8.086-5.785,16.23-16.236,18.177s-20.189-3.021-21.693-11.107a11.829,11.829,0,0,1-.058-3.979,11.782,11.782,0,0,0-.109,4.814c1.517,8.125,11.371,13.106,22.021,11.12s18.042-10.181,16.532-18.306a11.71,11.71,0,0,0-1.838-4.448A11.779,11.779,0,0,1,572.617,233.388Z" transform="translate(-190.878 -82.042)"/><path class="n" d="M551.017,217.939c10.471-1.928,20.183,3.027,21.693,11.113s-5.785,16.23-16.236,18.177-20.189-3.021-21.693-11.107S540.54,219.893,551.017,217.939Z" transform="translate(-190.971 -77.706)"/><path class="m" d="M553.879,222.9c8.215-1.53,15.812,2.263,16.969,8.472s-4.564,12.476-12.778,14.006-15.806-2.256-16.963-8.465S545.671,224.431,553.879,222.9Z" transform="translate(-193.248 -79.507)"/><path class="o" d="M554.008,223.577c8.06-1.5,15.529,2.128,16.892,8.131a.76.76,0,0,0-.051-.334c-1.157-6.209-8.755-10-16.969-8.472s-13.929,7.8-12.772,14.012a1.552,1.552,0,0,0,.071.334C540.285,231.155,545.947,225.081,554.008,223.577Z" transform="translate(-193.248 -79.507)"/><path class="o" d="M535.033,245.379c2.436,7.154,11.673,11.358,21.6,9.507s17.02-9.089,16.712-16.641a12.2,12.2,0,0,0-.186-1.665l.611,3.278c1.51,8.125-5.888,16.32-16.538,18.306s-20.5-3-22.015-11.12l-.643-3.278a11.227,11.227,0,0,0,.463,1.613Z" transform="translate(-190.966 -84.514)"/><path class="o" d="M558.845,227l-2.43.816.643,1.793c-2.173,1.1-3.773,3.015-3.015,5.142.836,2.32,3.522,2.314,5.187,2.128,2.333-.231,4.776-.488,5.373,1.17.392,1.093-.482,2.436-2.115,2.982-1.459.488-3.143.206-3.786-1.157l-2.982,1c.726,1.748,3.066,2.925,6.171,2.173l.688,1.928,2.423-.816-.688-1.928c2.757-1.453,3.805-3.7,3.214-5.4s-2.9-2.455-5.669-2.25c-2.571.238-4.4.4-4.911-1.016-.4-1.093.54-2.282,1.89-2.732a2.7,2.7,0,0,1,3.291.971l2.745-.951c-.675-1.7-2.616-2.616-5.354-2.07Z" transform="translate(-197.854 -81.092)"/><path class="p" d="M558.619,225.73l-2.43.816.643,1.793c-2.166,1.1-3.767,3.015-3.008,5.142.836,2.32,3.522,2.314,5.187,2.128,2.327-.238,4.776-.488,5.373,1.17.392,1.086-.488,2.43-2.115,2.976-1.466.495-3.143.206-3.786-1.151l-2.982,1c.72,1.748,3.066,2.931,6.164,2.173l.688,1.928,2.43-.81-.688-1.928c2.757-1.446,3.8-3.7,3.214-5.393s-2.892-2.462-5.663-2.256c-2.61.244-4.4.411-4.917-1.016-.392-1.093.54-2.282,1.928-2.732a2.7,2.7,0,0,1,3.284.971l2.732-.913c-.643-1.7-2.61-2.622-5.354-2.076Z" transform="translate(-197.776 -80.638)"/><path class="h" d="M442.015,441.487h27V434.61c0-3.5.778-3.137,1.71-6.093a23.449,23.449,0,0,0,1.016-7.07V400.428a4.146,4.146,0,1,0-8.292,0v-2.61a4.146,4.146,0,0,0-8.292,0v-2.931a4.152,4.152,0,1,0-8.3,0V371.7a4.146,4.146,0,1,0-8.292,0v41.78l-4.5-10.49c-1.928-4.5-11.107-3.754-8.722,1.89l8.041,19.077c4.082,4.082,8.594,8.87,8.594,8.87Z" transform="translate(-151.806 -131.301)"/><path class="j" d="M468.561,441.772h-27a.874.874,0,0,1-.874-.874v-8.292c-.983-1.041-4.846-5.1-8.356-8.6a.811.811,0,0,1-.186-.276L424.1,404.653c-1.247-2.944.206-4.8,1.98-5.554,2.777-1.176,7.025-.135,8.356,2.976l2.8,6.556V371.107a5.026,5.026,0,1,1,10.046,0V390.39a4.949,4.949,0,0,1,3.272-1.247A5.065,5.065,0,0,1,455.5,393.4a4.9,4.9,0,0,1,3.349-1.318,5.052,5.052,0,0,1,4.885,3.979,4.949,4.949,0,0,1,3.407-1.369,5.1,5.1,0,0,1,5.02,5.142v21a24.368,24.368,0,0,1-1.054,7.353,15.164,15.164,0,0,1-.958,2.34,6.194,6.194,0,0,0-.713,3.49v6.878a.874.874,0,0,1-.874.881Zm-26.135-1.755h25.261v-6a7.907,7.907,0,0,1,.893-4.268,13.03,13.03,0,0,0,.855-2.089,22.541,22.541,0,0,0,.971-6.826v-21a3.272,3.272,0,1,0-6.537,0V402.5a.881.881,0,0,1-1.755,0v-5.271a3.272,3.272,0,1,0-6.537,0v5.316a.881.881,0,1,1-1.755,0V394.3a3.272,3.272,0,1,0-6.537,0v8.742a.881.881,0,0,1-1.755,0V371.107a3.272,3.272,0,1,0-6.537,0v43.708a3.329,3.329,0,0,1-2.185,2.86.877.877,0,1,1-.469-1.69,1.729,1.729,0,0,0,.9-1.17v-1.69L432.823,402.8c-.926-2.166-4.069-2.892-6.055-2.05-1.35.572-1.71,1.7-1.054,3.259L433.7,422.92c4.011,4.024,8.446,8.722,8.491,8.774a.887.887,0,0,1,.238.6Z" transform="translate(-151.336 -130.712)"/><rect class="j" width="30.249" height="18.126" transform="translate(289.046 317.887)"/><path class="d" d="M479.939,480.65H449.69v8.941h30.249Z" transform="translate(-160.644 -171.704)"/><path class="q" d="M542.43,449.5v4.39a5.926,5.926,0,0,1-5.907,5.913h0a5.933,5.933,0,0,1-5.913-5.913V449.5Z" transform="translate(-189.551 -160.576)"/><path class="l" d="M532,437.91h10.066V444.7H532Zm1.684,2.455v1.877h1.877v-1.877Zm4.814,0v1.877h1.858v-1.877Z" transform="translate(-190.048 -156.436)"/><path class="j" d="M479.169,461.57V511.8a5.277,5.277,0,0,1-5.271,5.271h-6.845a8.7,8.7,0,0,0-8.632-7.553H372.81v1.748h85.61a6.948,6.948,0,0,1,6.839,5.785H411.215a4.924,4.924,0,0,0,0,9.841h47.2a8.7,8.7,0,0,0,8.665-8.092h6.794a7.026,7.026,0,0,0,7.038-7V461.57ZM458.42,525.159h-47.2a3.175,3.175,0,0,1,0-6.344h54.14A6.955,6.955,0,0,1,458.42,525.159Z" transform="translate(-133.18 -164.888)"/><path class="b" d="M216.221,81.28a6.331,6.331,0,0,1,4.416,1.993,6.055,6.055,0,0,1,.887,1.286,6.717,6.717,0,0,0,.193-1.645V67.749a1.286,1.286,0,0,0-1.286-1.286H200.569a1.286,1.286,0,0,0-1.286,1.286V79.994a1.286,1.286,0,0,0,1.286,1.286ZM200.569,63.52h19.855a4.236,4.236,0,0,1,4.229,4.229V82.887c0,4.5-1.755,5.5-5.341,7.07,0-1.536.264-3.51-.836-4.705a3.259,3.259,0,0,0-2.256-1.035H200.569a4.236,4.236,0,0,1-4.229-4.229V67.749A4.236,4.236,0,0,1,200.569,63.52Z" transform="translate(-80.139 -22.691)"/><path class="b" d="M190.169,74.2h-.72a1.286,1.286,0,0,0-1.286,1.286V90.157a6.678,6.678,0,0,0,.193,1.645,5.842,5.842,0,0,1,.887-1.286,6.331,6.331,0,0,1,4.416-1.993h16.487a1.472,1.472,0,1,1,0,2.944H193.653A3.214,3.214,0,0,0,191.4,92.5c-1.1,1.2-.836,3.162-.836,4.7-3.535-1.549-5.341-2.725-5.341-7.07V75.489a4.236,4.236,0,0,1,4.229-4.229h.72a1.472,1.472,0,0,1,0,2.912Z" transform="translate(-76.167 -25.456)"/><path class="b" d="M207.372,80.935a2.4,2.4,0,1,0-2.372-2.4,2.4,2.4,0,0,0,2.372,2.4Z" transform="translate(-83.233 -27.2)"/><path class="b" d="M217.038,80.935a2.4,2.4,0,1,0-2.4-2.4,2.4,2.4,0,0,0,2.4,2.4Z" transform="translate(-86.676 -27.2)"/><path class="b" d="M226.668,80.935a2.4,2.4,0,1,0-2.4-2.4,2.4,2.4,0,0,0,2.4,2.4Z" transform="translate(-90.117 -27.2)"/><path class="b" d="M136.936,335.013h0a3.214,3.214,0,0,0,0,4.5h0a3.214,3.214,0,0,0,4.532,0h0a3.214,3.214,0,0,0,0-4.5h0A3.214,3.214,0,0,0,136.936,335.013Zm-1.89-1.864h0a5.856,5.856,0,0,1,8.272,0h0a5.849,5.849,0,0,1,0,8.279h0a5.856,5.856,0,0,1-8.272.013h0a5.849,5.849,0,0,1,0-8.279Z" transform="translate(-57.63 -118.401)"/><path class="b" d="M145.759,346.34a1.324,1.324,0,1,1,1.87-1.87l2.77,2.77a1.324,1.324,0,1,1-1.87,1.87Z" transform="translate(-61.915 -122.901)"/><path class="b" d="M144.708,319.178H130.991a.81.81,0,0,0-.585.244h0a.835.835,0,0,0-.244.585V346.2a.849.849,0,0,0,.244.585.823.823,0,0,0,.585.238h13.717a.829.829,0,0,0,.585-.238h0a.816.816,0,0,0,.238-.579V320a.823.823,0,0,0-.823-.823Zm-13.717-2.648h13.717A3.465,3.465,0,0,1,148.179,320v26.193a3.471,3.471,0,0,1-1.016,2.455h0a3.452,3.452,0,0,1-2.449,1.016H130.991a3.452,3.452,0,0,1-2.449-1.016h0a3.458,3.458,0,0,1-1.022-2.449V320a3.458,3.458,0,0,1,1.022-2.449h0A3.458,3.458,0,0,1,131,316.536Z" transform="translate(-55.554 -113.075)"/><path class="b" d="M139.632,361.844a.662.662,0,0,1,0-1.324h4.634a.662.662,0,1,1,0,1.324Z" transform="translate(-59.645 -128.79)"/><path class="b" d="M119.75,347.545l-.932-.051a.643.643,0,0,1-.411-.193.7.7,0,0,1-.206-.437c0-.328-.071-.643-.1-1.035l-.09-.919a9.065,9.065,0,0,1-1.825-.694l-.643.643-.765.707a.726.726,0,0,1-.45.193.643.643,0,0,1-.431-.135l-.778-.643-.784-.643a.643.643,0,0,1-.225-.392.733.733,0,0,1,.084-.476l.521-.906.456-.8a9.507,9.507,0,0,1-1.086-1.62l-.913.116-1.035.135a.694.694,0,0,1-.469-.109.643.643,0,0,1-.283-.354c-.09-.321-.18-.643-.276-.958s-.18-.643-.276-.958a.681.681,0,0,1,.045-.45.714.714,0,0,1,.347-.341l.945-.437L111,336.4v-.713a9.792,9.792,0,0,1,.077-1.234l-.81-.431-.926-.495a.688.688,0,0,1-.321-.354.643.643,0,0,1,0-.45l.328-.945.328-.938a.643.643,0,0,1,.3-.341.765.765,0,0,1,.482-.084l1.022.193.906.167a9.9,9.9,0,0,1,1.17-1.562l-.411-.823c-.167-.328-.321-.643-.463-.932a.681.681,0,0,1-.058-.476.591.591,0,0,1,.244-.379l.81-.578.816-.578a.643.643,0,0,1,.437-.1.694.694,0,0,1,.437.206l.726.752.643.643a9.542,9.542,0,0,1,1.864-.591l.141-.906c.051-.366.109-.707.154-1.035a.752.752,0,0,1,.231-.424.643.643,0,0,1,.418-.167h.289v.566h0v3.6a13.26,13.26,0,0,0-2.391.559l-1.118.489-1.485-1.53-.1-.1a.116.116,0,0,1-.045.032l-.039.032.058.122.958,1.928-.829.893a8.039,8.039,0,0,0-.958,1.286l-.643,1.041-2.1-.392h-.135v.1l.122.064,1.883,1-.154,1.2a7.609,7.609,0,0,0-.071,1.009v.585l.09,1.208-1.928.9-.129.058v.051a.155.155,0,0,0,0,.051h.135l2.115-.27.572,1.073a7.938,7.938,0,0,0,.887,1.324l.778.932-1.061,1.851-.071.122a.115.115,0,0,0,.045.032l.039.032.1-.09,1.568-1.453,1.086.553a13.028,13.028,0,0,0,2.777.739v3.612h0Z" transform="translate(-48.87 -115.679)"/><path class="b" d="M123.3,344.322a4.538,4.538,0,0,1-3.214-7.752h0a4.532,4.532,0,0,1,3.214-1.331Z" transform="translate(-52.423 -119.759)"/><path class="b" d="M675.2,318.695a1.324,1.324,0,0,1-2.648,0V304.824a.076.076,0,0,0,0-.045H659.177v7.546a2.686,2.686,0,0,1-.8,1.928h0a2.725,2.725,0,0,1-1.928.8h-7.533v19.135a.064.064,0,0,0,.064.064h8.17a1.324,1.324,0,0,1,0,2.648h-8.17a2.719,2.719,0,0,1-2.712-2.712V313.694a1.331,1.331,0,0,1,.154-.643h0l.032-.051h0l.039-.045h0l.071-.077h0l10.226-10.233h.431a1.4,1.4,0,0,1,.585-.135h14.636a2.68,2.68,0,0,1,1.928.8h0l.058.077h0l.032.051h0v.032h0v.032h0v.058h0v.032h0v.032h0v.032h0v.032h0v.032h0v.392h0v.032h0v.032h0v.032h0v.032h0v.032h0v.032h0v.032h0v.071h0v.032h0v.315h0v13.942Zm-18.64-6.389V306.63l-5.734,5.74H656.5a.051.051,0,0,0,.045,0h0a.071.071,0,0,0,0-.045Z" transform="translate(-160.869 -108.066)"/><path class="b" d="M667.835,332.515h0a4.795,4.795,0,0,0,0,6.788h0a4.795,4.795,0,0,0,6.788,0h0a4.795,4.795,0,0,0,0-6.788h0a4.8,4.8,0,0,0-6.788,0Zm-1.87-1.87h0a7.43,7.43,0,0,1,10.529,0h0a7.43,7.43,0,0,1,0,10.529h0a7.443,7.443,0,0,1-10.529,0h0a7.43,7.43,0,0,1,0-10.529Z" transform="translate(-167.123 -117.336)"/><path class="b" d="M680.459,347.009a1.324,1.324,0,0,1,1.87-1.87l4.165,4.165a1.324,1.324,0,1,1-1.87,1.87Z" transform="translate(-172.959 -123.172)"/><path class="b" d="M566.039,413.893h18.685a1.324,1.324,0,0,1,0,2.648H566.039Zm-9.275,2.635a1.324,1.324,0,0,1,0-2.648h4.821v2.648Z" transform="translate(-168.421 -127.852)"/><path class="b" d="M555.2,373.45H584a2.944,2.944,0,0,1,2.083.868h0a2.97,2.97,0,0,1,.868,2.089v19.039a2.976,2.976,0,0,1-.868,2.1h0a2.95,2.95,0,0,1-2.089.874H566.227a1.324,1.324,0,0,1,0-2.648h17.747a.309.309,0,0,0,.251-.109h0a.308.308,0,0,0,.09-.225v-19.02a.308.308,0,0,0-.084-.219h0a.308.308,0,0,0-.219-.09H555.2a.315.315,0,0,0-.219.1h0a.309.309,0,0,0-.09.219v19.039a.316.316,0,0,0,.1.225.309.309,0,0,0,.219.09h4.03a1.324,1.324,0,0,1,0,2.648H555.2a2.963,2.963,0,0,1-2.963-2.963V376.413a2.951,2.951,0,0,1,.874-2.089h0A2.976,2.976,0,0,1,555.2,373.45Z" transform="translate(-167.278 -113.409)"/><path class="b" d="M566.42,413.164a1.324,1.324,0,1,1,2.648,0V415.8a1.324,1.324,0,1,1-2.648,0Z" transform="translate(-172.344 -127.123)"/><path class="b" d="M577.633,389.644l-2.925-1.993v4l2.925-2ZM574.2,384.11l6.518,4.448a1.285,1.285,0,0,1,.347,1.832,1.22,1.22,0,0,1-.366.36l-6.569,4.5a1.325,1.325,0,0,1-2.07-1.093h0v-9a1.318,1.318,0,0,1,1.324-1.318,1.286,1.286,0,0,1,.816.283Z" transform="translate(-174.359 -117.12)"/><path class="b" d="M163.711,210.367a1.2,1.2,0,1,1,1.35-1.973s8.317,5.579,8.131,14.617a1.2,1.2,0,0,1-2.385-.045C170.961,215.233,163.711,210.38,163.711,210.367Z" transform="translate(-68.297 -74.37)"/><path class="b" d="M154.909,217.98a1.2,1.2,0,0,1,1.7,1.7l-18,18,12.039,12.039L168,232.359V220.018h-7.771a1.2,1.2,0,0,1,0-2.4h8.96a1.2,1.2,0,0,1,1.2,1.2v14.032a1.176,1.176,0,0,1-.354.848l-18.57,18.57a1.2,1.2,0,0,1-1.7,0l-13.736-13.736a1.2,1.2,0,0,1,0-1.69Z" transform="translate(-58.473 -77.741)"/><path class="b" d="M175.435,227.12a2.629,2.629,0,1,1-1.863.768A2.635,2.635,0,0,1,175.435,227.12Z" transform="translate(-71.73 -81.135)"/><path class="b" d="M162.715,239.472a2.308,2.308,0,1,0-1.636.68,2.314,2.314,0,0,0,1.636-.68Zm-4.4-4.4h0a3.9,3.9,0,1,1-1.145,2.761,3.9,3.9,0,0,1,1.145-2.761Zm-3,10.927c-1.035-1.028-2.288-.559-3.407,0-.321.161-1.286.643-1.62.334s0-.983.3-1.286a1.806,1.806,0,0,1,.983-.482.8.8,0,0,0,.5-1.35.848.848,0,0,0-.656-.244,3.214,3.214,0,0,0-1.928.951,2.444,2.444,0,0,0-.289,3.484c1.028,1.028,2.269.578,3.323.058.36-.18,1.35-.733,1.716-.366s-.2,1.067-.444,1.286a2.186,2.186,0,0,1-1.086.611.855.855,0,0,0-.495.251.778.778,0,0,0,0,1.106.8.8,0,0,0,.739.219,4.081,4.081,0,0,0,1.967-1.067c.938-.938,1.51-2.481.437-3.561Zm-1.286-4.307,1.106,1.1,1.774-1.774a.793.793,0,1,1,1.118,1.125l-1.774,1.774,1.106,1.106,2.173-2.179a.8.8,0,0,1,1.125,1.125l-2.725,2.719a.791.791,0,0,1-1.131,0l-4.454-4.448a.81.81,0,0,1,0-1.138l2.725-2.719a.791.791,0,0,1,1.118,0,.778.778,0,0,1,0,1.118Z" transform="translate(-63.084 -83.569)"/><path class="b" d="M36.538,390.86a7.938,7.938,0,0,0-5.631,2.327l-3.857,3.857a7.938,7.938,0,0,0-2.32,5.631c.064,2.423,2.957,1.8,3,0a4.949,4.949,0,0,1,1.446-3.51l3.857-3.857a4.969,4.969,0,0,1,7.019,7.019l-3.857,3.857a4.93,4.93,0,0,1-3.51,1.478c-1.8.032-2.423,2.925,0,2.989a7.938,7.938,0,0,0,5.631-2.346l3.857-3.857a7.957,7.957,0,0,0-5.624-13.582Z" transform="translate(-38.834 -139.628)"/><path class="b" d="M0,427.438a7.938,7.938,0,0,1,2.327-5.631l3.857-3.857a7.938,7.938,0,0,1,5.631-2.32c2.423.064,1.8,2.963,0,3a4.949,4.949,0,0,0-3.51,1.446l-3.857,3.857a4.968,4.968,0,1,0,7.026,7.026L15.33,427.1a4.975,4.975,0,0,0,1.433-3.516c.039-1.8,2.931-2.423,3,0a7.932,7.932,0,0,1-2.32,5.631l-3.857,3.857A7.964,7.964,0,0,1,0,427.438Z" transform="translate(-30 -148.477)"/><path class="b" d="M14.473,422.789a1.684,1.684,0,1,1-2.378-2.385L29.45,403.05a1.684,1.684,0,0,1,2.378,2.378Z" transform="translate(-34.144 -143.829)"/><path class="b" d="M644.5,231.311a1.577,1.577,0,0,0-2.23,2.23l4.345,4.339-4.345,4.339a1.577,1.577,0,1,0,2.23,2.23l5.457-5.457a1.575,1.575,0,0,0,0-2.23Zm-5.579-2.224a.983.983,0,1,1,1.7.983l-9.584,16.6a.983.983,0,0,1-1.7-.983Zm-13.46,2.224a1.577,1.577,0,0,1,2.23,2.23l-4.339,4.313,4.339,4.339a1.577,1.577,0,0,1-2.23,2.23l-5.457-5.457a1.588,1.588,0,0,1,0-2.23Z" transform="translate(-161.323 -81.662)"/><path class="b" d="M307.5,87.444a1.427,1.427,0,1,1,0,2.847h-4.917a8.478,8.478,0,0,1-2.147-16.673,11.936,11.936,0,0,1,23.519,2.86q0,.578-.058,1.2a6.562,6.562,0,0,1,2.815,1.793,6.486,6.486,0,0,1-4.776,10.882h0a.816.816,0,0,1-.18,0h-7.932a1.421,1.421,0,0,1-1.421-1.421V82.623a1.421,1.421,0,0,1,.926-1.337l-2.68-2.68-2.674,2.68a1.421,1.421,0,0,1-.489,2.757h-2.867a1.421,1.421,0,0,1-1.421-1.421,1.4,1.4,0,0,1,.444-1.028l6-6a1.414,1.414,0,0,1,2.012,0l6.029,6.023a1.427,1.427,0,0,1,0,2.012,1.408,1.408,0,0,1-1.009.418h-1.42V87.5H322.1a3.644,3.644,0,0,0,.154-7.27,2.005,2.005,0,0,1-.3-.058,1.414,1.414,0,0,1-1.054-1.69,9.482,9.482,0,0,0,.161-1,8.353,8.353,0,0,0,.058-1.009,9.089,9.089,0,0,0-18.075-1.421,1.427,1.427,0,0,1-1.253,1.189,5.631,5.631,0,0,0,.791,11.2Z" transform="translate(-115.072 -23.065)"/><path class="b" d="M595.272,317.337a2.571,2.571,0,0,0-3.529-.058l-.058.064a2.539,2.539,0,1,0,3.587,3.593h0a2.571,2.571,0,0,0,0-3.593Zm-1.819-3.689a5.464,5.464,0,0,1,3.857,1.613h0a5.483,5.483,0,0,1,0,7.752h0a5.489,5.489,0,0,1-7.713-7.726l.1-.09a5.464,5.464,0,0,1,3.786-1.523ZM579.6,317.337a2.571,2.571,0,0,0-3.529-.058l-.058.064a2.539,2.539,0,1,0,3.587,3.593h0a2.571,2.571,0,0,0,0-3.593Zm-1.793-3.689a5.464,5.464,0,0,1,3.857,1.613h0a5.476,5.476,0,0,1,0,7.752h0a5.483,5.483,0,1,1-7.713-7.726l.09-.09a5.476,5.476,0,0,1,3.792-1.523Zm29.747-26.353a1.582,1.582,0,0,1,1.8,2.6l-9,6.2v14.854a1.588,1.588,0,0,1-1.588,1.588H573.528a1.575,1.575,0,0,1-1.427-.893l-2.764-4.776a1.588,1.588,0,1,1,2.745-1.588l2.359,4.088h22.773V295.264h0a1.613,1.613,0,0,1,.688-1.286Z" transform="translate(-173.294 -122.53)"/><path class="b" d="M673.371,411.711a1.486,1.486,0,1,1-2.7,1.241c-2.481-5.4-9.3-4.853-14.784-4.416-1.286.1-2.488.2-3.7.219H651.9a15.214,15.214,0,0,1-10.413-4.127,14.334,14.334,0,0,1-4.57-10.226v-.264a14.842,14.842,0,0,1,5.046-11.036,18.152,18.152,0,0,1,23.956,0,14.552,14.552,0,0,1,4.879,13.106,13.816,13.816,0,0,1-.444,2.018,1.488,1.488,0,1,1-2.854-.842,10.384,10.384,0,0,0,.354-1.594,11.187,11.187,0,0,0,.116-1.626,11.891,11.891,0,0,0-4.056-8.838,15.246,15.246,0,0,0-19.977,0,11.911,11.911,0,0,0-4.049,8.838v.219a11.358,11.358,0,0,0,3.638,8.112,12.213,12.213,0,0,0,8.356,3.3h.231c.977,0,2.211-.116,3.522-.225C662.039,405.059,670.022,404.422,673.371,411.711Z" transform="translate(-157.529 -135.244)"/><path class="b" d="M650.787,403.306a2.693,2.693,0,1,0-2.687-2.687A2.693,2.693,0,0,0,650.787,403.306Z" transform="translate(-161.523 -142.15)"/><path class="b" d="M661.653,403.306a2.693,2.693,0,1,0-2.693-2.687A2.693,2.693,0,0,0,661.653,403.306Z" transform="translate(-165.402 -142.15)"/><path class="b" d="M672.507,403.306a2.693,2.693,0,1,0-2.687-2.687,2.693,2.693,0,0,0,2.687,2.687Z" transform="translate(-169.282 -142.15)"/><path class="b" d="M596.757,505.91h28.8a2.944,2.944,0,0,0,2.089-.868h0a2.944,2.944,0,0,0,.868-2.083v-16.6a2.95,2.95,0,0,0-.868-2.089h0a2.969,2.969,0,0,0-1.774-.855v2.944h0v16.609a.3.3,0,0,1-.09.219h0a.308.308,0,0,1-.219.084h-28.8a.309.309,0,0,1-.225-.09h0a.315.315,0,0,1-.084-.219v-16.6h0V483.4a2.97,2.97,0,0,0-2.648,2.944v16.609a2.95,2.95,0,0,0,.874,2.089h0A2.937,2.937,0,0,0,596.757,505.91Z" transform="translate(-152.125 -172.686)"/><path class="b" d="M597.948,508.772a1.319,1.319,0,0,1-1.543-2.14l14.713-10.606a1.318,1.318,0,0,1,1.568,0l14.687,10.586a1.319,1.319,0,1,1-1.543,2.14L611.89,498.707Z" transform="translate(-152.86 -177.104)"/><path class="b" d="M613.513,493.557l12.29-9.275L627.4,486.4l-12.3,9.275Zm-17.136-7.16a1.324,1.324,0,1,1,1.594-2.115l12.29,9.275a1.324,1.324,0,0,1-1.594,2.115Z" transform="translate(-152.857 -172.906)"/><path class="b" d="M642.817,482.722a1.421,1.421,0,1,1-1.71,2.269l-3.452-2.571a1.421,1.421,0,1,1,1.71-2.269Z" transform="translate(-167.589 -171.423)"/><path class="b" d="M596.975,479.984a1.421,1.421,0,0,1-1.71-2.269l15.356-11.57a1.421,1.421,0,0,1,1.735,0l4.229,3.214a1.422,1.422,0,0,1-1.716,2.269l-3.394-2.571Z" transform="translate(-152.446 -166.417)"/><path class="b" d="M634.258,471.042a1.321,1.321,0,0,1-2.616.366l-.437-3.085-5.785,10a1.152,1.152,0,0,1-.219.283,1.324,1.324,0,0,1-1.864,0l-3.034-3.1-3.664,5.939a1.32,1.32,0,0,1-2.256-1.369l4.544-7.392a1.331,1.331,0,0,1,2.07-.244h0l3.008,3.072,4.911-8.51-3.027,1.215a1.32,1.32,0,0,1-.984-2.449l6.518-2.629a1.285,1.285,0,0,1,.315-.1h.7l.09.039h0l.058.032h0l.116.109h0l.058.071h0a1.336,1.336,0,0,1,.225.527v.032h0Z" transform="translate(-159.409 -165.413)"/><path class="r" d="M63.689,495.327,38.28,484.342v-23.6l47.8-20.916,25.511,11.1v23.6Zm-23.57-12.213,23.564,10.207,46.067-20V452.152L86.076,441.868,40.118,461.98Z" transform="translate(-13.675 -157.122)"/><path class="s" d="M111.179,491.67l-46.986,20.4L39.71,501.485v.771l24.483,10.586,46.986-20.4Z" transform="translate(-14.186 -175.641)"/><path class="b" d="M86.587,441.39q-11.808,5.142-23.532,10.284L39.71,461.894l12.258,5.3,12.213,5.29L87.6,462.351l23.583-10.284L98.9,446.725Z" transform="translate(-14.186 -157.679)"/><path class="s" d="M88.737,443.81l-11.383,4.975v.771l8.78-3.857a8.215,8.215,0,0,0,5.721.135l6.518,2.835,6.518,2.828c-1.5.643-1.35,1.768.315,2.487l-18.4,8-9.449,4.1v.765l10.329-4.5,21.9-9.513L99.17,448.309Zm-11.383,4.975-10.432,4.583L45.19,462.855l10.387,4.5,10.368,4.5,11.409-4.962v-.784l-8.838,3.857a8.214,8.214,0,0,0-5.682-.135l-6.486-2.822L49.856,464.2c1.472-.643,1.286-1.748-.347-2.468l18.261-7.983,9.584-4.191Z" transform="translate(-16.143 -158.543)"/><path class="s" d="M112.626,453.638a7.926,7.926,0,0,1,5.528.129c1.613.7,1.748,1.774.309,2.4a7.912,7.912,0,0,1-5.521-.129C111.328,455.341,111.18,454.261,112.626,453.638Z" transform="translate(-39.878 -161.899)"/><path class="s" d="M67.573,473.3a7.932,7.932,0,0,1,5.5.129c1.607.7,1.742,1.768.315,2.391a7.881,7.881,0,0,1-5.5-.135C66.288,474.991,66.146,473.924,67.573,473.3Z" transform="translate(-23.788 -168.925)"/><path class="s" d="M77.9,458.184a22.356,22.356,0,0,1,9.121-1.459,26.509,26.509,0,0,1,9.584,1.928c2.732,1.189,4.21,2.693,4.4,4.165s-.913,2.905-3.342,3.966a22.616,22.616,0,0,1-9.121,1.459,26.445,26.445,0,0,1-9.552-1.928c-2.732-1.183-4.217-2.68-4.422-4.146S75.479,459.257,77.9,458.184Z" transform="translate(-26.629 -163.154)"/><path class="b" d="M84.947,459.866a11.319,11.319,0,0,1,1.645-.347,11.866,11.866,0,0,1,1.723-.1A10.46,10.46,0,0,1,90,459.59a6.66,6.66,0,0,1,1.53.489l-3.381,1.51a1.93,1.93,0,0,0-.347-.116,3.813,3.813,0,0,0-.559-.1,3.122,3.122,0,0,0-.688,0,2.629,2.629,0,0,0-.784.219c-.373.161-.559.334-.553.521s.148.328.424.444a2.379,2.379,0,0,0,.8.186,4.844,4.844,0,0,0,1.028-.045c.4-.051.836-.129,1.331-.231s1.067-.219,1.7-.36a17.567,17.567,0,0,1,2.43-.373,14.1,14.1,0,0,1,1.928,0,7.987,7.987,0,0,1,1.459.231,6.616,6.616,0,0,1,.964.308c.077.032.251.129.533.276a1.883,1.883,0,0,1,.681.643,1.286,1.286,0,0,1,.154.964,2.385,2.385,0,0,1-1.016,1.286l1.928.849-2.95,1.286-1.877-.816-.7.2c-.251.071-.546.141-.881.206s-.694.116-1.086.154a9.87,9.87,0,0,1-1.286.045,11.614,11.614,0,0,1-1.748-.154,6.342,6.342,0,0,1-1.453-.392l-.206-.09,3.734-1.626.354.116a3.384,3.384,0,0,0,.643.109,3.928,3.928,0,0,0,.784,0,2.713,2.713,0,0,0,.861-.225,1.016,1.016,0,0,0,.553-.482c.09-.206-.045-.379-.4-.534a3.266,3.266,0,0,0-1.286-.206,12.151,12.151,0,0,0-2.4.36c-.591.135-1.215.27-1.883.4a16.473,16.473,0,0,1-2.025.276,11.716,11.716,0,0,1-2.07-.032,6.608,6.608,0,0,1-2.005-.527,3.073,3.073,0,0,1-1.138-.842,1.164,1.164,0,0,1-.3-.829,1.434,1.434,0,0,1,.373-.8,4.578,4.578,0,0,1,.823-.733l-1.883-.816,2.944-1.286Z" transform="translate(-28.621 -163.988)"/><path class="s" d="M111.179,458,64.193,478.427,39.71,467.834v.778l24.483,10.6,46.986-20.4Z" transform="translate(-14.186 -163.613)"/><path class="b" d="M111.179,490.47l-46.986,20.4L39.71,500.285v.771l24.483,10.586,46.986-20.4Z" transform="translate(-14.186 -175.212)"/><path class="s" d="M111.179,489.27l-46.986,20.4L39.71,499.085v.771l24.483,10.586,46.986-20.4Z" transform="translate(-14.186 -174.783)"/><path class="b" d="M111.179,488.06,64.193,508.468,39.71,497.881v.771l24.483,10.58,46.986-20.4Z" transform="translate(-14.186 -174.351)"/><path class="s" d="M111.179,486.86,64.2,507.268,39.71,496.675v.778l24.483,10.586,46.986-20.408Z" transform="translate(-14.186 -173.922)"/><path class="b" d="M111.179,485.66,64.193,506.068,39.71,495.475v.771L64.2,506.839l46.98-20.408Z" transform="translate(-14.186 -173.494)"/><path class="s" d="M111.179,484.46l-46.986,20.4L39.71,494.275v.771l24.483,10.593,46.986-20.408Z" transform="translate(-14.186 -173.065)"/><path class="b" d="M111.179,483.26l-46.986,20.4L39.71,493.075v.771l24.483,10.586,46.986-20.4Z" transform="translate(-14.186 -172.636)"/><path class="s" d="M111.179,482.06l-46.986,20.4L39.71,491.875v.771l24.483,10.586,46.986-20.4Z" transform="translate(-14.186 -172.208)"/><path class="b" d="M111.179,480.86l-46.986,20.4L39.71,490.675v.771l24.483,10.586,46.986-20.4Z" transform="translate(-14.186 -171.779)"/><path class="s" d="M111.179,479.66l-46.986,20.4L39.71,489.475v.771l24.483,10.586,46.986-20.4Z" transform="translate(-14.186 -171.35)"/><path class="b" d="M111.179,478.46l-46.986,20.4L39.71,488.275v.771l24.483,10.586,46.986-20.4Z" transform="translate(-14.186 -170.922)"/><path class="s" d="M111.179,477.25,64.193,497.658,39.71,487.065v.778l24.483,10.586,46.986-20.4Z" transform="translate(-14.186 -170.489)"/><path class="b" d="M111.179,476.05,64.193,496.458,39.71,485.865v.771l24.483,10.593,46.986-20.408Z" transform="translate(-14.186 -170.061)"/><path class="s" d="M111.179,474.85l-46.986,20.4L39.71,484.665v.771l24.483,10.593,46.986-20.408Z" transform="translate(-14.186 -169.632)"/><path class="b" d="M111.179,473.65l-46.986,20.4L39.71,483.465v.771l24.483,10.586,46.986-20.4Z" transform="translate(-14.186 -169.203)"/><path class="s" d="M111.179,472.45l-46.986,20.4L39.71,482.265v.771l24.483,10.586,46.986-20.4Z" transform="translate(-14.186 -168.775)"/><path class="b" d="M111.179,471.25,64.193,491.658,39.71,481.065v.771l24.483,10.586,46.986-20.4Z" transform="translate(-14.186 -168.346)"/><path class="s" d="M111.179,470.05l-46.986,20.4L39.71,479.865v.771l24.483,10.593,46.986-20.4Z" transform="translate(-14.186 -167.917)"/><path class="b" d="M111.179,468.84,64.193,489.248,39.71,478.661v.771l24.483,10.586,46.986-20.4Z" transform="translate(-14.186 -167.485)"/><path class="s" d="M111.179,467.64,64.193,488.048,39.71,477.455v.778l24.483,10.586,46.986-20.408Z" transform="translate(-14.186 -167.056)"/><path class="b" d="M111.179,466.44,64.193,486.848,39.71,476.255v.771l24.483,10.593,46.986-20.408Z" transform="translate(-14.186 -166.628)"/><path class="s" d="M111.179,465.24,64.193,485.654l-24.483-10.6v.771l24.483,10.593,46.986-20.408Z" transform="translate(-14.186 -166.199)"/><path class="b" d="M111.179,464,64.193,484.427,39.71,473.841v.771l24.483,10.6,46.986-20.4Z" transform="translate(-14.186 -165.756)"/><path class="s" d="M111.179,462.84l-46.986,20.4L39.71,472.655v.771l24.483,10.586,46.986-20.427Z" transform="translate(-14.186 -165.342)"/><path class="b" d="M111.179,461.64l-46.986,20.4L39.71,471.455v.771l24.483,10.586,46.986-20.4Z" transform="translate(-14.186 -164.913)"/><path class="s" d="M111.179,460.44l-46.986,20.4L39.71,470.255v.771l24.483,10.586,46.986-20.4Z" transform="translate(-14.186 -164.484)"/><path class="b" d="M111.179,459.24,64.193,479.654l-24.483-10.6v.771l24.483,10.586,46.986-20.4Z" transform="translate(-14.186 -164.056)"/><path class="r" d="M115.962,512.376l-25.4-10.985V477.8l47.79-20.916,25.518,11.094v23.6ZM92.4,500.164l23.564,10.188,46.067-19.971V469.17l-23.673-10.284L92.4,479Z" transform="translate(-32.351 -163.213)"/><path class="s" d="M163.463,508.72l-46.986,20.4L92,518.542v.771L116.483,529.9l46.986-20.4Z" transform="translate(-32.865 -181.731)"/><path class="b" d="M138.864,458.44l-23.525,10.284L92,478.951l12.251,5.3,12.213,5.29,23.41-10.175,23.59-10.246-12.29-5.341Z" transform="translate(-32.865 -163.77)"/><path class="s" d="M141.017,460.86l-11.383,4.975v.771l8.78-3.857a8.234,8.234,0,0,0,5.714.135l6.524,2.835,6.511,2.828c-1.491.643-1.35,1.761.315,2.487l-18.4,8-9.449,4.107v.765l10.329-4.5,21.893-9.455-10.413-4.5Zm-11.383,4.975-10.471,4.577L97.47,479.905l10.381,4.5,10.374,4.5,11.409-4.956v-.765l-8.844,3.857a8.163,8.163,0,0,0-5.676-.135l-6.486-2.815-6.5-2.809c1.478-.643,1.324-1.748-.341-2.468l18.261-7.983,9.584-4.191Z" transform="translate(-34.819 -164.634)"/><path class="s" d="M164.9,470.688a7.983,7.983,0,0,1,5.534.122c1.613.707,1.748,1.78.3,2.41a7.861,7.861,0,0,1-5.515-.135C163.607,472.391,163.459,471.311,164.9,470.688Z" transform="translate(-58.553 -167.989)"/><path class="s" d="M119.853,490.351a7.912,7.912,0,0,1,5.5.129c1.613.7,1.748,1.768.321,2.391a7.912,7.912,0,0,1-5.5-.135C118.568,492.041,118.426,490.968,119.853,490.351Z" transform="translate(-42.464 -175.016)"/><path class="s" d="M130.14,475.254a22.407,22.407,0,0,1,9.127-1.459,26.508,26.508,0,0,1,9.584,1.928c2.732,1.189,4.21,2.693,4.4,4.165s-.906,2.905-3.336,3.966a22.574,22.574,0,0,1-9.127,1.453,26.354,26.354,0,0,1-9.552-1.928c-2.725-1.183-4.217-2.68-4.416-4.146S127.73,476.315,130.14,475.254Z" transform="translate(-45.295 -169.252)"/><path class="b" d="M137.224,476.934a11.137,11.137,0,0,1,1.645-.347,11.821,11.821,0,0,1,1.716-.1,10.463,10.463,0,0,1,1.69.174,6.761,6.761,0,0,1,1.53.488l-3.381,1.478a3.269,3.269,0,0,0-.347-.122,5.264,5.264,0,0,0-.559-.1,3.533,3.533,0,0,0-.688,0,2.654,2.654,0,0,0-.784.225c-.373.161-.559.334-.553.514s.148.334.424.45a2.34,2.34,0,0,0,.8.186,5.3,5.3,0,0,0,1.028-.045q.585-.077,1.331-.231l1.7-.36a17.567,17.567,0,0,1,2.43-.373,14.089,14.089,0,0,1,1.928,0A8.644,8.644,0,0,1,148.6,479a7.386,7.386,0,0,1,.964.315c.071.032.251.122.527.276a1.928,1.928,0,0,1,.688.643,1.285,1.285,0,0,1,.154.958,2.4,2.4,0,0,1-1.016,1.285l1.928.848-2.95,1.286-1.838-.842-.7.193a9.038,9.038,0,0,1-.881.206c-.334.064-.694.116-1.086.161a11.376,11.376,0,0,1-1.286.045,11.529,11.529,0,0,1-1.742-.154,6.69,6.69,0,0,1-1.453-.392l-.206-.09,3.734-1.626.354.116a4.061,4.061,0,0,0,.643.109,3.522,3.522,0,0,0,.784,0,2.7,2.7,0,0,0,.861-.219,1.016,1.016,0,0,0,.553-.482c.09-.206-.051-.379-.411-.54a3.342,3.342,0,0,0-1.286-.2,12.084,12.084,0,0,0-2.4.36c-.591.129-1.215.27-1.883.4a16.416,16.416,0,0,1-2.031.276,11.651,11.651,0,0,1-2.063,0,6.8,6.8,0,0,1-2.005-.527,3.021,3.021,0,0,1-1.183-.791,1.163,1.163,0,0,1-.3-.829,1.375,1.375,0,0,1,.373-.8,4.576,4.576,0,0,1,.823-.733l-1.883-.816,2.944-1.286Z" transform="translate(-47.294 -170.096)"/><path class="s" d="M163.463,475.08l-46.986,20.408L92,484.9v.771l24.477,10.573,46.986-20.408Z" transform="translate(-32.865 -169.714)"/><path class="b" d="M163.463,507.52l-46.986,20.4L92,517.335v.778L116.483,528.7l46.986-20.4Z" transform="translate(-32.865 -181.303)"/><path class="s" d="M163.463,506.31l-46.986,20.408L92,516.125v.778l24.483,10.586,46.986-20.4Z" transform="translate(-32.865 -180.871)"/><path class="b" d="M163.463,505.11l-46.986,20.408L92,514.925v.771l24.483,10.593,46.986-20.408Z" transform="translate(-32.865 -180.442)"/><path class="s" d="M163.463,503.91l-46.986,20.4L92,513.725v.771l24.483,10.593,46.986-20.408Z" transform="translate(-32.865 -180.013)"/><path class="b" d="M163.463,502.71l-46.986,20.4L92,512.538v.771L116.483,523.9l46.986-20.4Z" transform="translate(-32.865 -179.584)"/><path class="s" d="M163.463,501.51l-46.986,20.4L92,511.325v.784L116.483,522.7l46.986-20.4Z" transform="translate(-32.865 -179.156)"/><path class="b" d="M163.463,500.31l-46.986,20.4L92,510.125v.771l24.483,10.586,46.986-20.4Z" transform="translate(-32.865 -178.727)"/><path class="s" d="M163.463,499.11l-46.986,20.4L92,508.925v.771l24.483,10.586,46.986-20.4Z" transform="translate(-32.865 -178.298)"/><path class="b" d="M163.463,497.91l-46.986,20.4L92,507.725v.771l24.483,10.586,46.986-20.4Z" transform="translate(-32.865 -177.87)"/><path class="s" d="M163.463,496.7l-46.986,20.408L92,506.534v.771l24.483,10.586,46.986-20.4Z" transform="translate(-32.865 -177.438)"/><path class="b" d="M163.463,495.5l-46.986,20.408L92,505.315v.791l24.483,10.586,46.986-20.408Z" transform="translate(-32.865 -177.009)"/><path class="s" d="M163.463,494.3l-46.986,20.376L92,504.115v.771l24.483,10.593,46.986-20.408Z" transform="translate(-32.865 -176.58)"/><path class="b" d="M163.463,493.1l-46.986,20.4L92,502.915v.771l24.477,10.561,46.986-20.4Z" transform="translate(-32.865 -176.152)"/><path class="s" d="M163.463,491.9l-46.986,20.4L92,501.715v.771l24.483,10.586,46.986-20.4Z" transform="translate(-32.865 -175.723)"/><path class="b" d="M163.463,490.7l-46.986,20.4L92,500.534v.771l24.483,10.586,46.986-20.4Z" transform="translate(-32.865 -175.294)"/><path class="s" d="M163.463,489.5l-46.986,20.4L92,499.315v.791l24.483,10.586,46.986-20.4Z" transform="translate(-32.865 -174.865)"/><path class="b" d="M163.463,488.29l-46.986,20.382L92,498.112v.771l24.483,10.586,46.986-20.4Z" transform="translate(-32.865 -174.433)"/><path class="s" d="M163.463,487.09,116.477,507.5,92,496.911v.771l24.477,10.561,46.986-20.408Z" transform="translate(-32.865 -174.005)"/><path class="b" d="M163.463,485.89,116.477,506.3,92,495.705v.778l24.483,10.586,46.986-20.408Z" transform="translate(-32.865 -173.576)"/><path class="s" d="M163.463,484.69,116.477,505.1,92,494.531v.771l24.483,10.593,46.986-20.408Z" transform="translate(-32.865 -173.147)"/><path class="b" d="M163.463,483.49l-46.986,20.4L92,493.305v.8l24.483,10.593,46.986-20.408Z" transform="translate(-32.865 -172.718)"/><path class="s" d="M163.463,482.29l-46.986,20.382L92,492.105v.771l24.483,10.586,46.986-20.4Z" transform="translate(-32.865 -172.29)"/><path class="b" d="M163.463,481.09l-46.986,20.4L92,490.905v.771l24.477,10.567,46.986-20.4Z" transform="translate(-32.865 -171.861)"/><path class="s" d="M163.463,479.89l-46.986,20.4L92,489.705v.771l24.483,10.586,46.986-20.4Z" transform="translate(-32.865 -171.432)"/><path class="b" d="M163.463,478.69l-46.986,20.4L92,488.531v.771l24.483,10.586,46.986-20.4Z" transform="translate(-32.865 -171.004)"/><path class="s" d="M163.463,477.48l-46.986,20.408L92,487.3v.8l24.483,10.586,46.986-20.4Z" transform="translate(-32.865 -170.572)"/><path class="b" d="M163.463,476.28l-46.986,20.389L92,486.1v.778l24.483,10.586,46.986-20.408Z" transform="translate(-32.865 -170.143)"/><path class="r" d="M99.882,463.567l-25.4-10.991v-23.59l47.79-20.916,25.511,11.094v23.57ZM76.318,451.354l23.564,10.207,46.067-20V420.347l-23.68-10.284L76.293,430.181Z" transform="translate(-26.607 -145.776)"/><path class="s" d="M147.339,459.9l-46.961,20.408L75.87,469.715v.778l24.509,10.586,46.986-20.408Z" transform="translate(-27.103 -164.291)"/><path class="b" d="M122.741,409.62,99.209,419.9,75.87,430.137l12.251,5.3,12.258,5.277,23.4-10.162q11.75-5.1,23.59-10.239l-12.315-5.309Z" transform="translate(-27.103 -146.33)"/><path class="s" d="M124.9,412l-11.383,4.981v.8l8.78-3.857a8.157,8.157,0,0,0,5.714.135l6.524,2.835,6.511,2.815c-1.491.643-1.35,1.761.315,2.487l-18.4,8-9.449,4.107v.758l10.329-4.5,21.893-9.513-10.413-4.5Zm-11.383,4.981-10.471,4.576L81.35,431.077l10.381,4.5,10.368,4.5,11.416-4.962v-.758l-8.844,3.857a8.164,8.164,0,0,0-5.676-.141l-6.486-2.8-6.5-2.847c1.472-.643,1.324-1.748-.341-2.475l18.255-7.977,9.59-4.184Z" transform="translate(-29.061 -147.18)"/><path class="s" d="M148.779,421.869a7.983,7.983,0,0,1,5.534.129c1.613.7,1.748,1.78.3,2.41a7.951,7.951,0,0,1-5.521-.135C147.487,423.573,147.339,422.5,148.779,421.869Z" transform="translate(-52.794 -150.551)"/><path class="s" d="M103.726,441.532a7.932,7.932,0,0,1,5.5.135c1.613.694,1.748,1.768.321,2.385a7.912,7.912,0,0,1-5.5-.129C102.447,443.223,102.306,442.156,103.726,441.532Z" transform="translate(-36.705 -157.577)"/><path class="s" d="M114.047,426.441a22.372,22.372,0,0,1,9.121-1.466,26.617,26.617,0,0,1,9.577,1.941c2.732,1.189,4.21,2.693,4.4,4.165s-.906,2.905-3.342,3.959a22.522,22.522,0,0,1-9.121,1.459,26.5,26.5,0,0,1-9.552-1.928c-2.725-1.176-4.217-2.68-4.416-4.146S111.617,427.5,114.047,426.441Z" transform="translate(-39.544 -151.812)"/><path class="b" d="M121.064,428.136a11.136,11.136,0,0,1,1.645-.341,11.718,11.718,0,0,1,1.716-.1,9.189,9.189,0,0,1,1.69.174,6.758,6.758,0,0,1,1.53.482l-3.381,1.478a3.265,3.265,0,0,0-.354-.116,3.432,3.432,0,0,0-1.241-.09,2.629,2.629,0,0,0-.784.219c-.379.167-.559.341-.553.521s.148.328.418.45a2.571,2.571,0,0,0,.8.186,5.369,5.369,0,0,0,1.035-.045c.392-.051.836-.129,1.324-.231l1.71-.366a17.476,17.476,0,0,1,2.43-.366,13.145,13.145,0,0,1,1.928,0,8.762,8.762,0,0,1,1.459.225,6.254,6.254,0,0,1,.958.309c.077.039.257.129.533.283a1.87,1.87,0,0,1,.681.643,1.286,1.286,0,0,1,.161.964,2.449,2.449,0,0,1-1.022,1.286l1.928.848-2.95,1.286-1.883-.816-.7.2c-.251.071-.546.141-.874.206s-.694.116-1.086.154a9.958,9.958,0,0,1-1.286.051,12.37,12.37,0,0,1-1.742-.161,6.011,6.011,0,0,1-1.459-.392l-.206-.09,3.741-1.626a2.307,2.307,0,0,0,.347.116,3.574,3.574,0,0,0,.611.116,4.584,4.584,0,0,0,.791,0,2.7,2.7,0,0,0,.861-.219,1,1,0,0,0,.553-.488c.09-.2-.051-.379-.411-.534a3.252,3.252,0,0,0-1.286-.2,11.977,11.977,0,0,0-2.391.353c-.591.135-1.215.276-1.89.411a15.035,15.035,0,0,1-2.025.27,11.726,11.726,0,0,1-2.07,0,7.117,7.117,0,0,1-2.005-.527,3.072,3.072,0,0,1-1.183-.791,1.208,1.208,0,0,1-.3-.829,1.466,1.466,0,0,1,.379-.81,4.865,4.865,0,0,1,.823-.733l-1.883-.816,2.944-1.286Z" transform="translate(-41.496 -152.678)"/><path class="s" d="M147.339,426.27l-46.961,20.395L75.87,436.085v.771l24.509,10.586,46.986-20.4Z" transform="translate(-27.103 -152.278)"/><path class="b" d="M147.339,458.7l-46.961,20.408L75.87,468.534v.771l24.509,10.574,46.986-20.408Z" transform="translate(-27.103 -163.863)"/><path class="s" d="M147.339,457.5l-46.961,20.4L75.87,467.315v.791l24.509,10.574,46.986-20.408Z" transform="translate(-27.103 -163.434)"/><path class="b" d="M147.339,456.3l-46.961,20.376L75.87,466.115v.771l24.509,10.586,46.986-20.4Z" transform="translate(-27.103 -163.005)"/><path class="s" d="M147.339,455.1l-46.961,20.4L75.87,464.915v.771l24.509,10.561,46.986-20.4Z" transform="translate(-27.103 -162.577)"/><path class="b" d="M147.339,453.9l-46.961,20.4L75.87,463.715v.771l24.509,10.586,46.986-20.4Z" transform="translate(-27.103 -162.148)"/><path class="s" d="M147.339,452.7l-46.961,20.4L75.87,462.534v.771l24.509,10.567,46.986-20.4Z" transform="translate(-27.103 -161.719)"/><path class="b" d="M147.333,451.5l-46.954,20.4L75.87,461.315v.791l24.509,10.567,46.986-20.4Z" transform="translate(-27.103 -161.291)"/><path class="s" d="M147.339,450.29l-46.961,20.382L75.87,460.105v.778l24.509,10.586,46.98-20.4Z" transform="translate(-27.103 -160.858)"/><path class="b" d="M147.339,449.09,100.379,469.5,75.87,458.905v.771l24.509,10.567,46.986-20.408Z" transform="translate(-27.103 -160.43)"/><path class="s" d="M147.339,447.89l-46.961,20.4L75.87,457.705v.771l24.509,10.593,46.986-20.408Z" transform="translate(-27.103 -160.001)"/><path class="b" d="M147.339,446.69l-46.961,20.4L75.87,456.531v.771l24.509,10.561,46.986-20.4Z" transform="translate(-27.103 -159.572)"/><path class="s" d="M147.339,445.49l-46.961,20.4L75.87,455.305v.8l24.509,10.561,46.986-20.4Z" transform="translate(-27.103 -159.144)"/><path class="b" d="M147.339,444.29l-46.961,20.382L75.87,454.105v.771l24.509,10.586,46.986-20.4Z" transform="translate(-27.103 -158.715)"/><path class="s" d="M147.339,443.09l-46.961,20.4L75.87,452.905v.771l24.509,10.567,46.986-20.4Z" transform="translate(-27.103 -158.286)"/><path class="b" d="M147.339,441.88l-46.961,20.408L75.87,451.7v.771l24.509,10.586,46.986-20.4Z" transform="translate(-27.103 -157.854)"/><path class="s" d="M147.339,440.68l-46.961,20.408L75.87,450.527v.771l24.509,10.561,46.986-20.408Z" transform="translate(-27.103 -157.425)"/><path class="b" d="M147.339,439.48l-46.961,20.408L75.87,449.3v.8l24.509,10.561,46.986-20.408Z" transform="translate(-27.103 -156.997)"/><path class="s" d="M147.339,438.28l-46.961,20.389L75.87,448.1v.771l24.509,10.593,46.986-20.408Z" transform="translate(-27.103 -156.568)"/><path class="b" d="M147.339,437.08l-46.961,20.4L75.87,446.9v.771l24.509,10.574,46.986-20.4Z" transform="translate(-27.103 -156.139)"/><path class="s" d="M147.339,435.88l-46.961,20.4L75.87,445.7v.771l24.509,10.586,46.986-20.4Z" transform="translate(-27.103 -155.711)"/><path class="b" d="M147.339,434.68l-46.961,20.4L75.87,444.527v.771l24.509,10.554,46.986-20.4Z" transform="translate(-27.103 -155.282)"/><path class="s" d="M147.339,433.48l-46.961,20.4L75.87,443.3v.8l24.509,10.554,46.986-20.4Z" transform="translate(-27.103 -154.853)"/><path class="b" d="M147.339,432.28l-46.961,20.389L75.87,442.1v.771l24.509,10.586,46.986-20.4Z" transform="translate(-27.103 -154.425)"/><path class="s" d="M147.339,431.07l-46.961,20.408L75.87,440.891v.771l24.509,10.573,46.986-20.4Z" transform="translate(-27.103 -153.992)"/><path class="b" d="M147.339,429.87l-46.961,20.408L75.87,439.685v.778l24.509,10.586,46.986-20.408Z" transform="translate(-27.103 -153.564)"/><path class="s" d="M147.339,428.67l-46.961,20.4L75.87,438.485v.771l24.509,10.593,46.986-20.408Z" transform="translate(-27.103 -153.135)"/><path class="b" d="M147.339,427.47l-46.961,20.4L75.87,437.285v.771l24.509,10.586,46.986-20.4Z" transform="translate(-27.103 -152.706)"/><path class="o" d="M164.837,512.984l-.9.032h-1.665a35.218,35.218,0,0,1-11.062-1.594c-2.571-.874-5.843-2.61-5.843-5.74V500.54h0a3.908,3.908,0,0,1,0-.392v-5.142h0a3.908,3.908,0,0,1,0-.392v-5.142h0v-5.534h0a3.906,3.906,0,0,1,0-.392V478.4h0a3.908,3.908,0,0,1,0-.392v-5.142h0v-5.534h0a3.908,3.908,0,0,1,0-.392V461.8h0a3.908,3.908,0,0,1,0-.392c0-3.13,3.285-4.866,5.843-5.74a38.269,38.269,0,0,1,22.118-.077c2.571.874,5.849,2.61,5.849,5.74a3.908,3.908,0,0,1,0,.392h0v5.142a3.906,3.906,0,0,1,0,.392h0v5.534h0v5.142a3.906,3.906,0,0,1,0,.392h0v5.142a3.908,3.908,0,0,1,0,.392h0v2.571c.578,0,1.144-.032,1.71-.032s1.131,0,1.71.032V483.86h0v-5.534h0v-.392c0-3.13,3.285-4.866,5.843-5.74a39.157,39.157,0,0,1,22.118,0c2.571.874,5.843,2.61,5.843,5.74v.392h0v5.534h0v5.534h0v5.534h0v5.534h0v5.142c0,3.13-3.285,4.866-5.843,5.74a35.218,35.218,0,0,1-11.062,1.594H197.83l-.9-.032a10.289,10.289,0,0,1-4.988,3.175,39.157,39.157,0,0,1-22.118,0A9.691,9.691,0,0,1,164.837,512.984Z" transform="translate(-51.928 -162.181)"/><path class="m" d="M178.137,472.432c0,2.757-6.518,5-14.565,5s-14.572-2.243-14.572-5V469.61a2.147,2.147,0,0,0,.591,1.408c1.774,2.076,7.36,3.593,13.98,3.593s12.213-1.517,13.98-3.593a2.173,2.173,0,0,0,.585-1.408Z" transform="translate(-53.228 -167.76)"/><path class="m" d="M163.572,457.58c8.047,0,14.565,2.243,14.565,5s-6.518,5-14.565,5-14.572-2.237-14.572-5S155.524,457.58,163.572,457.58Zm-2.892,1.71-3,.373.99.675c-2.005.4-3.535,1.086-2.353,1.9s4.069.855,5.785.8c2.224-.071,4.686-.141,5.425.366.469.315-.084.713-1.408.881a6.428,6.428,0,0,1-3.362-.373l-3.709.456c.919.611,3.465,1.086,6.7.816l1.016.694,3-.366-1.022-.7c2.571-.572,3.265-1.363,2.378-1.967-.758-.521-2.854-.913-6.177-.829-2.712.077-4.416.129-5.078-.321-.45-.315.135-.643,1.286-.81a5.746,5.746,0,0,1,2.982.309l3.381-.418c-.983-.675-3.214-.971-5.843-.8Z" transform="translate(-53.228 -163.463)"/><path class="m" d="M178.137,481.068c0,2.758-6.518,4.994-14.565,4.994S149,483.826,149,481.068V478.24a2.166,2.166,0,0,0,.591,1.414c1.774,2.076,7.36,3.587,13.98,3.587s12.213-1.511,13.98-3.587a2.186,2.186,0,0,0,.585-1.414Z" transform="translate(-53.228 -170.843)"/><path class="m" d="M178.137,489.7c0,2.764-6.518,5-14.565,5S149,492.466,149,489.7V486.88a2.179,2.179,0,0,0,.591,1.414c1.774,2.07,7.36,3.587,13.98,3.587s12.213-1.517,13.98-3.587a2.2,2.2,0,0,0,.585-1.414Z" transform="translate(-53.228 -173.929)"/><path class="m" d="M178.137,498.352c0,1.543-2.038,2.925-5.239,3.857l-.643.174a35.681,35.681,0,0,1-8.684.99c-8.047,0-14.572-2.237-14.572-5V495.55a2.147,2.147,0,0,0,.591,1.408c1.774,2.076,7.36,3.593,13.98,3.593s12.213-1.517,13.98-3.593a2.173,2.173,0,0,0,.585-1.408Z" transform="translate(-53.228 -177.027)"/><path class="m" d="M165.14,511.936h-1.568c-8.047,0-14.572-2.237-14.572-4.994V504.12a2.16,2.16,0,0,0,.591,1.408c1.774,2.076,7.36,3.587,13.98,3.587.823,0,1.633,0,2.417-.064a4.4,4.4,0,0,0-.848,2.571v.263Zm12.984-7.559v0Z" transform="translate(-53.228 -180.088)"/><path class="m" d="M165.14,520.572h-1.568c-8.047,0-14.572-2.237-14.572-5V512.75a2.179,2.179,0,0,0,.591,1.414c1.774,2.07,7.36,3.587,13.98,3.587.527,0,1.054,0,1.568-.032Z" transform="translate(-53.228 -183.171)"/><path class="m" d="M165.14,529.22c-.514,0-1.041.032-1.568.032-8.047,0-14.572-2.237-14.572-5V521.43a2.147,2.147,0,0,0,.591,1.408c1.774,2.076,7.36,3.593,13.98,3.593.527,0,1.054,0,1.568-.032Z" transform="translate(-53.228 -186.272)"/><path class="m" d="M165.153,537.846h-1.581c-8.047,0-14.572-2.237-14.572-4.994V530.03a2.147,2.147,0,0,0,.591,1.408c1.774,2.076,7.36,3.587,13.98,3.587h1.568V537.6C165.14,537.666,165.146,537.756,165.153,537.846Z" transform="translate(-53.228 -189.344)"/><path class="m" d="M236.06,498.331c0,2.764-6.524,5-14.572,5a36,36,0,0,1-8.677-.983l-.643-.18c-3.214-.913-5.239-2.295-5.239-3.857V495.49a2.147,2.147,0,0,0,.591,1.408c1.774,2.076,7.36,3.593,13.974,3.593s12.213-1.517,13.98-3.593a2.147,2.147,0,0,0,.591-1.408Z" transform="translate(-73.922 -177.005)"/><path class="m" d="M221.485,483.5c8.047,0,14.572,2.237,14.572,4.994s-6.524,5-14.572,5-14.565-2.237-14.565-5S213.444,483.5,221.485,483.5Zm-2.886,1.7-3,.373.983.643c-2.005.4-3.529,1.086-2.346,1.928s4.069.855,5.785.8c2.23-.071,4.692-.141,5.431.366.463.315-.09.713-1.408.874a6.338,6.338,0,0,1-3.362-.366l-3.715.456c.926.611,3.471,1.086,6.7.816l1.022.694,3-.366-1.016-.7c2.571-.572,3.259-1.363,2.378-1.967-.765-.521-2.86-.913-6.177-.829-2.712.077-4.422.129-5.078-.321-.456-.315.129-.643,1.286-.81a5.747,5.747,0,0,1,2.982.309l3.381-.411c-.99-.681-3.214-.977-5.843-.8Z" transform="translate(-73.919 -172.722)"/><path class="m" d="M236.057,506.992c0,2.758-6.524,4.994-14.572,4.994h-1.568v-.263a4.358,4.358,0,0,0-.848-2.571c.791.045,1.594.064,2.417.064,6.62,0,12.213-1.51,13.98-3.587a2.16,2.16,0,0,0,.591-1.408v2.822Zm-29.137-2.571v0Z" transform="translate(-73.919 -180.113)"/><path class="m" d="M243.28,515.626c0,2.764-6.524,5-14.572,5H227.14V517.8c.514,0,1.041.032,1.568.032,6.62,0,12.213-1.517,13.98-3.587a2.179,2.179,0,0,0,.591-1.414Z" transform="translate(-81.142 -183.2)"/><path class="m" d="M243.28,524.252c0,2.764-6.524,5-14.572,5-.527,0-1.054,0-1.568-.032V526.4c.514,0,1.041.032,1.568.032,6.62,0,12.213-1.517,13.98-3.593a2.147,2.147,0,0,0,.591-1.408Z" transform="translate(-81.142 -186.272)"/><path class="m" d="M243.276,532.885c0,2.757-6.524,4.994-14.572,4.994H227.13v-2.835H228.7c6.62,0,12.213-1.51,13.98-3.587a2.147,2.147,0,0,0,.591-1.408Z" transform="translate(-81.138 -189.351)"/><path class="m" d="M207.111,522.932c0,2.764-6.524,5-14.565,5S178,525.7,178,522.932V520.11a2.179,2.179,0,0,0,.591,1.414c1.774,2.07,7.36,3.587,13.98,3.587s12.213-1.517,13.98-3.587a2.2,2.2,0,0,0,.585-1.414Z" transform="translate(-63.587 -185.8)"/><path class="m" d="M192.546,508.09c8.041,0,14.565,2.237,14.565,5s-6.524,4.994-14.565,4.994S178,515.848,178,513.091s6.524-5,14.572-5Zm-2.892,1.71-3,.366.983.675c-2.005.4-3.529,1.093-2.346,1.928s4.069.855,5.785.791c2.23-.071,4.692-.141,5.431.366.463.315-.084.72-1.408.881a6.428,6.428,0,0,1-3.362-.373l-3.709.456c.919.643,3.465,1.086,6.7.816l1.016.694,3-.366-1.022-.694c2.571-.578,3.265-1.363,2.378-1.973-.765-.521-2.86-.913-6.177-.829-2.712.077-4.422.129-5.078-.321-.45-.308.135-.643,1.286-.81a5.747,5.747,0,0,1,2.982.309l3.381-.411c-.983-.643-3.214-.977-5.843-.8Z" transform="translate(-63.587 -181.506)"/><path class="m" d="M207.111,531.572c0,2.757-6.524,5-14.565,5s-14.546-2.243-14.546-5V528.75a2.147,2.147,0,0,0,.591,1.408c1.774,2.076,7.36,3.593,13.98,3.593s12.213-1.517,13.98-3.593a2.173,2.173,0,0,0,.585-1.408Z" transform="translate(-63.587 -188.887)"/><path class="m" d="M207.111,540.208c0,2.757-6.524,4.994-14.565,4.994S178,542.966,178,540.208V537.38a2.166,2.166,0,0,0,.591,1.414c1.774,2.076,7.36,3.587,13.98,3.587s12.213-1.51,13.98-3.587a2.186,2.186,0,0,0,.585-1.414Z" transform="translate(-63.587 -191.97)"/><path class="b" d="M309.142,502.05c14.552,0,31.708,14.025,33.848,22.837.039.148-.09,1.671-2.05,2.835-1.2.7-4.146.7-4.146.7H289.441c-1.5,0-5.071-1.343-5.071-4.024C284.37,512.983,290.367,502.05,309.142,502.05Z" transform="translate(-101.586 -179.349)"/><path class="q" d="M343.67,506.828a5.209,5.209,0,0,1,7.424,4.268A49.218,49.218,0,0,0,343.67,506.828Z" transform="translate(-122.77 -180.848)"/><path class="q" d="M347.32,508.995a2.867,2.867,0,0,1,1.678.379,2.9,2.9,0,0,1,1.241,1.286C349.287,510.068,348.316,509.5,347.32,508.995Z" transform="translate(-124.074 -181.826)"/><path class="i" d="M335.78,519.669c-6.216-4.2-12.695-9.879-25.987-9.179-8.594.444-13.9,5.142-17.143,8.562a26.352,26.352,0,0,1-3.4,3.214,7.269,7.269,0,0,1-4.84,1.408c.257-11.139,6.376-21.6,24.747-21.6,13.929,0,30.21,12.855,33.424,21.661a43.247,43.247,0,0,1-6.8-4.062Z" transform="translate(-101.601 -179.356)"/><path class="q" d="M290.481,529.476a27.544,27.544,0,0,0,3.664-3.432c3.169-3.342,8.035-7.578,15.876-7.983,12.669-.643,18.537,4.615,24.836,8.864a39.175,39.175,0,0,0,8.054,4.589,4.351,4.351,0,0,1-1.825,1.928c-1.2.7-4.146.7-4.146.7H289.588c-1.286,0-3.979-.971-4.808-2.88a9.057,9.057,0,0,0,5.7-1.787Z" transform="translate(-101.733 -185.049)"/></g></g></svg>