<?xml version="1.0" encoding="utf-8"?>
<!-- Generator: Adobe Illustrator 23.0.3, SVG Export Plug-In . SVG Version: 6.00 Build 0)  -->
<svg version="1.1" id="Layer_1" xmlns="http://www.w3.org/2000/svg" xmlns:xlink="http://www.w3.org/1999/xlink" x="0px" y="0px"
	 viewBox="0 0 84 84" style="enable-background:new 0 0 84 84;" xml:space="preserve">
<style type="text/css">
	.st0{fill:#3C3C3B;stroke:#FFFFFF;stroke-miterlimit:10;}
</style>
<path class="st0" d="M80.7,39.5c-1.2-1.1-2.9-1.8-4.5-1.9c-1.9-0.1-3.7,0.6-5,1.9l-9,8.9c-0.2-0.3-0.4-0.6-0.6-0.9
	c-1.1-1.3-2.7-2-4.6-2H44.3c-2.4,0-4.7-0.3-6.9-0.9C31.6,43,26.2,44.2,21.5,48c-1.9,1.5-3.3,3.2-4.1,4.4l-2.3-2.2
	c-0.3-0.3-0.7-0.5-1.1-0.5c0,0,0,0,0,0c-0.4,0-0.8,0.2-1.1,0.5l-11,11.4c-0.3,0.3-0.5,0.7-0.4,1.1c0,0.4,0.2,0.8,0.5,1.1l18.6,17.7
	c0.3,0.3,0.7,0.4,1.1,0.4c0.4,0,0.8-0.2,1.1-0.5l10.9-11.2c0.3-0.3,0.5-0.7,0.5-1.2c0-0.4-0.2-0.8-0.5-1.1l-1-0.9l2.2-0.2
	c1.3-0.2,2.7-0.2,4-0.2h19.2c3.1,0,5.8-0.7,7.9-2c0,0,0,0,0.1,0c0.8-0.5,1.4-1.1,2-1.9l13-15.3C83.3,45,83.1,41.7,80.7,39.5z
	 M21.6,78.3L5.2,62.7l8.8-9.1l16.2,15.8L21.6,78.3z M78.6,45.5l-13,15.3c-0.4,0.5-0.9,0.9-1.4,1.3c-1.6,1-3.7,1.5-6.1,1.5H38.9
	c-1.4,0-2.9,0.1-4.3,0.3l-4.8,0.5l-10-9.7c0.7-1,2-2.7,3.8-4.2c3.9-3.1,8.2-4.1,13-2.8c2.5,0.7,5.1,1,7.8,1h12.6
	c2.3,0,2.9,2,2.9,3.1c0,0.8-0.3,1.7-0.7,2.2c-0.5,0.6-1.2,0.9-2.2,0.9h-11c-0.9,0-1.6,0.7-1.6,1.6c0,0.9,0.7,1.6,1.6,1.6h11
	c1.9,0,3.5-0.7,4.6-2c0.9-1.1,1.5-2.5,1.5-4.1l10.4-10.3c1.5-1.5,3.8-1.1,5.1,0.1C79.2,42.5,80.1,43.8,78.6,45.5z"/>
<path class="st0" d="M40.9,56.1c-0.2-0.9-1.1-1.4-1.9-1.2c-0.9,0.2-1.4,1.1-1.2,1.9l0,0.1c0.2,0.7,0.8,1.2,1.6,1.2
	c0.1,0,0.2,0,0.4,0C40.6,57.9,41.1,57.1,40.9,56.1L40.9,56.1z"/>
<path class="st0" d="M12.2,35.8h15.6c0.8,0,1.6-0.3,2.3-0.7c0.6,0.5,1.4,0.7,2.3,0.7h15.6c0.8,0,1.6-0.3,2.3-0.7
	c0.6,0.5,1.4,0.7,2.3,0.7H68c2.1,0,3.9-1.7,3.9-3.9v-7.3c0-3.3-1.8-6.1-4.6-7.5c1.3-1.6,2.1-3.6,2.1-5.9c0-5.1-4.1-9.2-9.2-9.2
	S51,6.3,51,11.3c0,2.2,0.8,4.3,2.1,5.9c-1.2,0.6-2.2,1.5-3,2.5c-0.8-1.1-1.8-1.9-3-2.5c1.3-1.6,2.1-3.6,2.1-5.9
	c0-5.1-4.1-9.2-9.2-9.2s-9.2,4.1-9.2,9.2c0,2.2,0.8,4.3,2.1,5.9c-1.2,0.6-2.2,1.5-3,2.5c-0.8-1.1-1.8-1.9-3-2.5
	c1.3-1.6,2.1-3.6,2.1-5.9c0-5.1-4.1-9.2-9.2-9.2c-5.1,0-9.2,4.1-9.2,9.2c0,2.2,0.8,4.3,2.1,5.9c-2.7,1.4-4.6,4.2-4.6,7.5V32
	C8.3,34.1,10.1,35.8,12.2,35.8z M60.2,5.3c3.3,0,6,2.7,6,6c0,3.3-2.7,6-6,6c-3.3,0-6-2.7-6-6C54.2,8,56.9,5.3,60.2,5.3z M56,19.6
	c1.2,0.6,2.7,1,4.2,1c1.5,0,2.9-0.4,4.2-1c2.5,0.4,4.3,2.6,4.3,5.1V32c0,0.4-0.3,0.7-0.7,0.7H52.4c-0.4,0-0.7-0.3-0.7-0.7v-7.3
	C51.7,22.1,53.6,20,56,19.6z M40.1,5.3c3.3,0,6,2.7,6,6c0,3.3-2.7,6-6,6c-3.3,0-6-2.7-6-6S36.8,5.3,40.1,5.3z M35.9,19.6
	c1.2,0.6,2.7,1,4.2,1s2.9-0.4,4.2-1c2.5,0.4,4.3,2.6,4.3,5.1V32c0,0.4-0.3,0.7-0.7,0.7H32.3c-0.4,0-0.7-0.3-0.7-0.7v-7.3
	C31.6,22.1,33.5,20,35.9,19.6z M20,5.3c3.3,0,6,2.7,6,6c0,3.3-2.7,6-6,6s-6-2.7-6-6C14,8,16.7,5.3,20,5.3z M11.5,24.7
	c0-2.6,1.8-4.7,4.3-5.1c1.2,0.6,2.7,1,4.2,1s2.9-0.4,4.2-1c2.5,0.4,4.3,2.6,4.3,5.1V32c0,0.4-0.3,0.7-0.7,0.7H12.2
	c-0.4,0-0.7-0.3-0.7-0.7V24.7z"/>
</svg>
