<?xml version="1.0" encoding="utf-8"?>
<!-- Generator: Adobe Illustrator 23.0.3, SVG Export Plug-In . SVG Version: 6.00 Build 0)  -->
<svg version="1.1" id="Layer_1" xmlns="http://www.w3.org/2000/svg" xmlns:xlink="http://www.w3.org/1999/xlink" x="0px" y="0px"
	 viewBox="0 0 84 84" style="enable-background:new 0 0 84 84;" xml:space="preserve">
<style type="text/css">
	.st0{fill:#3C3C3B;stroke:#FFFFFF;stroke-width:0.5;stroke-miterlimit:10;}
</style>
<path class="st0" d="M78.9,2.4C78.7,2.1,78.4,2,78,2c-0.4,0-0.7,0.1-0.9,0.4l-2.7,2.7c-0.5,0.5-0.5,1.4,0,1.9c0.5,0.5,1.3,0.5,1.9,0
	l0.4-0.4v2.1c0,0.7,0.6,1.3,1.3,1.3c0.7,0,1.3-0.6,1.3-1.3V6.6l0.4,0.4c0.5,0.5,1.4,0.5,1.9,0c0.5-0.5,0.5-1.3,0-1.9L78.9,2.4z"/>
<path class="st0" d="M79.3,19.3V14c0-0.7-0.6-1.3-1.3-1.3c-0.7,0-1.3,0.6-1.3,1.3v5.3c0,0.7,0.6,1.3,1.3,1.3
	C78.7,20.7,79.3,20.1,79.3,19.3z"/>
<path class="st0" d="M4.3,68.3l0.4-0.4v4.8C4.7,73.4,5.3,74,6,74c0.7,0,1.3-0.6,1.3-1.3v-4.8l0.4,0.4c0.3,0.3,0.8,0.5,1.3,0.4
	c0.5-0.1,0.8-0.5,1-1s0-1-0.4-1.3l-2.7-2.7c-0.3-0.3-0.6-0.4-0.9-0.4c-0.4,0-0.7,0.1-0.9,0.4l-2.7,2.7c-0.5,0.5-0.5,1.4,0,1.9
	C2.9,68.8,3.7,68.8,4.3,68.3L4.3,68.3z"/>
<path class="st0" d="M6,76.7c-0.7,0-1.3,0.6-1.3,1.3v2.7C4.7,81.4,5.3,82,6,82c0.7,0,1.3-0.6,1.3-1.3V78C7.3,77.3,6.7,76.7,6,76.7z"
	/>
<path class="st0" d="M78,31.3H24.7c-2.2,0-4,1.8-4,4V78c0,2.2,1.8,4,4,4H78c2.2,0,4-1.8,4-4V35.3C82,33.1,80.2,31.3,78,31.3z
	 M24.7,34H78c0.7,0,1.3,0.6,1.3,1.3V42h-56v-6.7C23.3,34.6,23.9,34,24.7,34z M79.3,68.7h-56v-24h56V68.7z M78,79.3H24.7
	c-0.7,0-1.3-0.6-1.3-1.3v-6.7h56V78C79.3,78.7,78.7,79.3,78,79.3z"/>
<path class="st0" d="M6,52.7h10.7c0.7,0,1.3-0.6,1.3-1.3c0-0.7-0.6-1.3-1.3-1.3H6c-0.7,0-1.3-0.6-1.3-1.3V42h12
	c0.7,0,1.3-0.6,1.3-1.3c0-0.7-0.6-1.3-1.3-1.3h-12v-24h56v12c0,0.7,0.6,1.3,1.3,1.3s1.3-0.6,1.3-1.3V6c0-2.2-1.8-4-4-4H6
	C3.8,2,2,3.8,2,6v42.7C2,50.9,3.8,52.7,6,52.7z M6,4.7h53.3c0.7,0,1.3,0.6,1.3,1.3v6.7h-56V6C4.7,5.3,5.3,4.7,6,4.7z"/>
<path class="st0" d="M10,8.7C10,9.4,9.4,10,8.7,10c-0.7,0-1.3-0.6-1.3-1.3c0-0.7,0.6-1.3,1.3-1.3C9.4,7.3,10,7.9,10,8.7z"/>
<path class="st0" d="M15.3,8.7c0,0.7-0.6,1.3-1.3,1.3c-0.7,0-1.3-0.6-1.3-1.3c0-0.7,0.6-1.3,1.3-1.3C14.7,7.3,15.3,7.9,15.3,8.7z"/>
<path class="st0" d="M20.7,8.7c0,0.7-0.6,1.3-1.3,1.3C18.6,10,18,9.4,18,8.7c0-0.7,0.6-1.3,1.3-1.3C20.1,7.3,20.7,7.9,20.7,8.7z"/>
<path class="st0" d="M28.7,38c0,0.7-0.6,1.3-1.3,1.3c-0.7,0-1.3-0.6-1.3-1.3c0-0.7,0.6-1.3,1.3-1.3C28.1,36.7,28.7,37.3,28.7,38z"/>
<path class="st0" d="M34,38c0,0.7-0.6,1.3-1.3,1.3c-0.7,0-1.3-0.6-1.3-1.3c0-0.7,0.6-1.3,1.3-1.3C33.4,36.7,34,37.3,34,38z"/>
<path class="st0" d="M39.3,38c0,0.7-0.6,1.3-1.3,1.3c-0.7,0-1.3-0.6-1.3-1.3c0-0.7,0.6-1.3,1.3-1.3C38.7,36.7,39.3,37.3,39.3,38z"/>
<path class="st0" d="M51.3,66c3,0,5.7-1.7,7.1-4.3c1.4-2.7,1.1-5.9-0.6-8.3l1.1-1.1c0.5-0.5,0.5-1.4,0-1.9c-0.5-0.5-1.3-0.5-1.9,0
	L56,51.5c-1-0.7-2.1-1.2-3.3-1.4V50c0.7,0,1.3-0.6,1.3-1.3c0-0.7-0.6-1.3-1.3-1.3H50c-0.7,0-1.3,0.6-1.3,1.3c0,0.7,0.6,1.3,1.3,1.3
	v0.1c-4.1,0.7-6.9,4.4-6.6,8.5C43.8,62.8,47.2,66,51.3,66z M51.3,52.7c2.9,0,5.3,2.4,5.3,5.3s-2.4,5.3-5.3,5.3S46,60.9,46,58
	S48.4,52.7,51.3,52.7z"/>
<path class="st0" d="M39.3,59.3c0.7,0,1.3-0.6,1.3-1.3c0-2.1,0.6-4.2,1.8-5.9c0.4-0.6,0.2-1.4-0.4-1.9c-0.6-0.4-1.4-0.2-1.9,0.4
	C38.8,52.8,38,55.4,38,58c0,0.4,0.1,0.7,0.4,0.9C38.6,59.2,39,59.3,39.3,59.3z"/>
<path class="st0" d="M61.5,64.5c0.3,0.2,0.7,0.2,1,0.1c0.3-0.1,0.6-0.4,0.8-0.7c0.7-1.4,1.1-2.9,1.3-4.4c0.1-0.7-0.5-1.4-1.2-1.5
	c-0.7-0.1-1.4,0.4-1.5,1.2c-0.1,1.2-0.5,2.4-1,3.6c-0.2,0.3-0.2,0.7-0.1,1C60.9,64.1,61.2,64.4,61.5,64.5z"/>
<path class="st0" d="M51.7,60.3c0.5,0.5,1.4,0.5,1.9,0c0.5-0.5,0.5-1.3,0-1.9l-1.3-1.3c-0.5-0.5-1.4-0.5-1.9,0
	c-0.5,0.5-0.5,1.3,0,1.9L51.7,60.3z"/>
<path class="st0" d="M64.7,50h10.7c0.7,0,1.3-0.6,1.3-1.3c0-0.7-0.6-1.3-1.3-1.3H64.7c-0.7,0-1.3,0.6-1.3,1.3
	C63.3,49.4,63.9,50,64.7,50z"/>
<path class="st0" d="M63.3,55.3h12c0.7,0,1.3-0.6,1.3-1.3c0-0.7-0.6-1.3-1.3-1.3h-12c-0.7,0-1.3,0.6-1.3,1.3
	C62,54.7,62.6,55.3,63.3,55.3z"/>
<path class="st0" d="M75.3,58h-6.7c-0.7,0-1.3,0.6-1.3,1.3c0,0.7,0.6,1.3,1.3,1.3h6.7c0.7,0,1.3-0.6,1.3-1.3
	C76.7,58.6,76.1,58,75.3,58z"/>
<path class="st0" d="M75.3,63.3h-6.7c-0.7,0-1.3,0.6-1.3,1.3c0,0.7,0.6,1.3,1.3,1.3h6.7c0.7,0,1.3-0.6,1.3-1.3
	C76.7,63.9,76.1,63.3,75.3,63.3z"/>
<path class="st0" d="M28.7,50h8c0.7,0,1.3-0.6,1.3-1.3c0-0.7-0.6-1.3-1.3-1.3h-8c-0.7,0-1.3,0.6-1.3,1.3C27.3,49.4,27.9,50,28.7,50z
	"/>
<path class="st0" d="M19.3,30c0-0.7-0.6-1.3-1.3-1.3H8.7c-0.7,0-1.3,0.6-1.3,1.3c0,0.7,0.6,1.3,1.3,1.3H18
	C18.7,31.3,19.3,30.7,19.3,30z"/>
<path class="st0" d="M8.7,34c-0.7,0-1.3,0.6-1.3,1.3c0,0.7,0.6,1.3,1.3,1.3h8c0.7,0,1.3-0.6,1.3-1.3c0-0.7-0.6-1.3-1.3-1.3H8.7z"/>
<path class="st0" d="M28.7,55.3H34c0.7,0,1.3-0.6,1.3-1.3c0-0.7-0.6-1.3-1.3-1.3h-5.3c-0.7,0-1.3,0.6-1.3,1.3
	C27.3,54.7,27.9,55.3,28.7,55.3z"/>
<path class="st0" d="M28.7,60.7H34c0.7,0,1.3-0.6,1.3-1.3c0-0.7-0.6-1.3-1.3-1.3h-5.3c-0.7,0-1.3,0.6-1.3,1.3
	C27.3,60.1,27.9,60.7,28.7,60.7z"/>
<path class="st0" d="M28.7,66h12c0.7,0,1.3-0.6,1.3-1.3c0-0.7-0.6-1.3-1.3-1.3h-12c-0.7,0-1.3,0.6-1.3,1.3
	C27.3,65.4,27.9,66,28.7,66z"/>
<path class="st0" d="M58,23.3v-2.7c0-1.5-1.2-2.7-2.7-2.7H10c-1.5,0-2.7,1.2-2.7,2.7v2.7c0,1.5,1.2,2.7,2.7,2.7h45.3
	C56.8,26,58,24.8,58,23.3z M10,20.7h45.3v2.7H10V20.7z"/>
</svg>
