<?xml version="1.0" encoding="utf-8"?>
<!-- Generator: Adobe Illustrator 23.0.3, SVG Export Plug-In . SVG Version: 6.00 Build 0)  -->
<svg version="1.1" id="Capa_1" xmlns="http://www.w3.org/2000/svg" xmlns:xlink="http://www.w3.org/1999/xlink" x="0px" y="0px"
	 viewBox="0 0 44 44" style="enable-background:new 0 0 44 44;" xml:space="preserve">
<style type="text/css">
	.st0{fill:#3C3C3B;}
</style>
<g>
	<g>
		<path class="st0" d="M27.4,28.2c-0.1-0.1-0.1-0.1-0.2-0.1c-0.9-0.6-2-0.9-3-0.9c-1.5,0-2.9,0.6-4,1.7l-1,1V16.3
			c0-1.6-1.3-2.9-2.9-2.9c-1.6,0-2.9,1.3-2.9,2.9v6.3c-0.5-0.6-1.3-1.1-2.2-1.1c-0.6,0-1.2,0.2-1.7,0.5l-6.1,3.6
			C2.6,26.1,2,27,2,28.1v4.7c0,5.1,4.1,9.2,9.2,9.2c2.5,0,4.7-1,6.4-2.6l0,0l0.2-0.2c0,0,0,0,0,0l9.6-9.6
			C27.8,29.3,27.8,28.6,27.4,28.2z M16.6,38.4c-1.5,1.4-3.4,2.2-5.4,2.2c-4.3,0-7.8-3.5-7.8-7.8v-4.7c0-0.5,0.3-1,0.7-1.2l6.3-3.6
			c0.2-0.1,0.5-0.3,0.8-0.3c0.6,0,0.9,0.3,1.1,0.5l2.5,3.1V16.3c0-0.8,0.6-1.4,1.4-1.4c0.8,0,1.4,0.6,1.4,1.4v14.3
			c0,0.6,0.4,1.1,0.9,1.3c0.2,0.1,0.5,0,0.7-0.1l1.9-1.9c0.8-0.8,1.9-1.3,3-1.3c0.6,0,1.3,0.1,1.8,0.4L16.6,38.4z"/>
	</g>
</g>
<g>
	<g>
		<rect x="15.6" y="4.9" class="st0" width="1.4" height="5.7"/>
	</g>
</g>
<g>
	<g>
		<rect x="9.5" y="7.4" transform="matrix(0.7071 -0.7071 0.7071 0.7071 -4.2283 10.2274)" class="st0" width="1.4" height="5.7"/>
	</g>
</g>
<g>
	<g>
		<rect x="4.9" y="15.6" class="st0" width="5.7" height="1.4"/>
	</g>
</g>
<g>
	<g>
		<rect x="19.5" y="9.5" transform="matrix(0.7071 -0.7071 0.7071 0.7071 -0.6813 18.7936)" class="st0" width="5.7" height="1.4"/>
	</g>
</g>
<g>
	<g>
		<rect x="22" y="15.6" class="st0" width="5.7" height="1.4"/>
	</g>
</g>
<g>
	<g>
		<path class="st0" d="M36.3,12c-3.2,0-5.7,2.6-5.7,5.7s2.6,5.7,5.7,5.7c3.2,0,5.7-2.6,5.7-5.7S39.4,12,36.3,12z M36.3,22
			c-2.4,0-4.3-1.9-4.3-4.3s1.9-4.3,4.3-4.3c2.4,0,4.3,1.9,4.3,4.3S38.6,22,36.3,22z"/>
	</g>
</g>
<g>
	<g>
		<path class="st0" d="M30.6,2c-2.4,0-4.3,1.9-4.3,4.3c0,2.4,1.9,4.3,4.3,4.3s4.3-1.9,4.3-4.3C34.8,3.9,32.9,2,30.6,2z M30.6,9.1
			c-1.6,0-2.9-1.3-2.9-2.9c0-1.6,1.3-2.9,2.9-2.9c1.6,0,2.9,1.3,2.9,2.9C33.4,7.9,32.1,9.1,30.6,9.1z"/>
	</g>
</g>
</svg>
