<svg xmlns="http://www.w3.org/2000/svg" width="184" height="184" viewBox="0 0 184 184"><defs><style>.a{fill:#f8f6f6;}.b,.d{fill:#c0d436;}.b,.c,.e,.g,.h,.i{fill-rule:evenodd;}.c{fill:#a3b52c;}.e{fill:#5d8086;}.f{fill:#4e4d44;}.g{fill:#7e7d6f;}.h{fill:#ecc62f;}.i{fill:#a3251a;}</style></defs><g transform="translate(-372 -851)"><rect class="a" width="184" height="184" transform="translate(372 851)"/><g transform="translate(274.192 617.62)"><path class="b" d="M236.179,317.729l-11.132,24.252h-41.3V317.729Z" transform="translate(-7.81 -4.222)"/><path class="c" d="M236.179,317.729l-.822,1.748h-51.6v-1.749Z" transform="translate(-7.81 -4.222)"/><rect class="d" width="54.732" height="2.969" transform="translate(175.942 310.538)"/><path class="c" d="M190.164,330.849h34.723a.979.979,0,0,1,.981.98h0a1,1,0,0,1-.981.981H190.164a1,1,0,0,1-1.007-.981h0a.985.985,0,0,1,1.007-.98Zm0,7.1H221.6a1,1,0,0,1,.981.98h0a1,1,0,0,1-.981.981H190.164a1,1,0,0,1-1.007-.981h0a1,1,0,0,1,1.007-.98Zm0-14.233H228.2a1,1,0,0,1,.981.981h0a1,1,0,0,1-.981,1.007H190.164a1.007,1.007,0,0,1-1.007-1.007h0A1,1,0,0,1,190.164,323.719Z" transform="translate(-9.053 -5.6)"/><path class="e" d="M190.2,330.849h34.723a.991.991,0,0,1,.875.5,1.049,1.049,0,0,1-.875.5H190.2a1.016,1.016,0,0,1-.875-.5A.963.963,0,0,1,190.2,330.849Zm32.283,7.607a.944.944,0,0,1-.847.53H190.2a.986.986,0,0,1-.875-.53,1.015,1.015,0,0,1,.875-.5h31.435a.969.969,0,0,1,.847.5Zm6.6-14.206a.972.972,0,0,1-.847.5H190.206a1.016,1.016,0,0,1-.875-.5.986.986,0,0,1,.875-.531H228.24A.946.946,0,0,1,229.086,324.249Z" transform="translate(-9.093 -5.6)"/><path class="f" d="M210.036,347.171H177.3a7.918,7.918,0,0,1-7.925-7.925v-33.4l-16.883.053v-2.31l18.023-.052h1.166v14.313h4.877v2.387h-4.877V329.7h4.877v2.387h-4.877v7.156a5.61,5.61,0,0,0,5.62,5.593h32.734Z" transform="translate(-0.618 -0.958)"/><path class="g" d="M191.028,354.565a4.8,4.8,0,1,1-4.8,4.8,4.8,4.8,0,0,1,4.8-4.8Zm27.512,0a4.8,4.8,0,1,1-4.8,4.8,4.8,4.8,0,0,1,4.8-4.8Z" transform="translate(-8.38 -12.697)"/><path class="h" d="M191.852,358.111a2.054,2.054,0,1,0,2.067,2.067,2.054,2.054,0,0,0-2.067-2.067Zm27.512,0a2.054,2.054,0,1,0,2.054,2.054,2.054,2.054,0,0,0-2.054-2.054Z" transform="translate(-9.204 -13.513)"/><path class="i" d="M154.129,299.38a4.32,4.32,0,1,1-4.32,4.32,4.32,4.32,0,0,1,4.32-4.32Z"/></g></g></svg>