<svg xmlns="http://www.w3.org/2000/svg" xmlns:xlink="http://www.w3.org/1999/xlink" width="184" height="183" viewBox="0 0 184 183"><defs><style>.a{fill:none;}.b{fill:#f36e24;}.c{fill:#ededed;}.d{fill:#f4f4f4;}.e{fill:#fff;}.f{fill:#2ab29e;}.g{clip-path:url(#a);}.h{fill:#1d917e;}.i{fill:#4bd6c1;}.j{fill:#32495b;font-size:8px;font-family:SegoeUI-Bold, Segoe UI;font-weight:700;}</style><clipPath id="a"><path class="a" d="M247.8,572.681l-4.027-3.688a1.238,1.238,0,0,1-.063-1.765l10.666-11.263a1.247,1.247,0,0,1,1.736-.062l4.027,3.689a1.238,1.238,0,0,1,.063,1.765l-10.667,11.263A1.247,1.247,0,0,1,247.8,572.681Z" transform="translate(-243.373 -555.58)"/></clipPath></defs><g transform="translate(-591 -851)"><g transform="translate(22 47)"><rect class="b" width="184" height="183" transform="translate(569 804)"/></g><g transform="translate(460.284 482.926)"><g transform="translate(202.717 422.074)"><circle class="c" cx="19.826" cy="19.826" r="19.826" transform="translate(0 28.039) rotate(-45)"/><circle class="d" cx="15.171" cy="15.171" r="15.171" transform="translate(13.963 13.508) rotate(-2.751)"/><circle class="e" cx="6.85" cy="6.85" r="6.85" transform="matrix(0.556, -0.831, 0.831, 0.556, 24.476, 29.579)"/></g><path class="f" d="M250.379,569.959l-4.027-3.688a1.238,1.238,0,0,1-.063-1.765l10.666-11.264a1.247,1.247,0,0,1,1.736-.062l4.027,3.688a1.239,1.239,0,0,1,.063,1.765L252.115,569.9A1.247,1.247,0,0,1,250.379,569.959Z" transform="translate(-42.317 -91.881)"/><g transform="translate(202.866 461.786)"><g class="g" transform="translate(0)"><path class="h" d="M298.347,453.337a21.885,21.885,0,0,0-30.567,1.1,21.024,21.024,0,0,0,1.054,30.064,21.885,21.885,0,0,0,30.567-1.1,21.024,21.024,0,0,0-1.054-30.064Zm-25.3,26.714a15.017,15.017,0,0,1-.753-21.474,15.632,15.632,0,0,1,21.833-.787,15.018,15.018,0,0,1,.753,21.474A15.632,15.632,0,0,1,273.05,480.051Z" transform="translate(-256.433 -479.753)"/></g></g><path class="f" d="M211.334,614.386l-8.679-7.948,9.279-9.8,8.679,7.949Z" transform="translate(-11.901 -122.64)"/><path class="i" d="M186.1,634.491a1.383,1.383,0,0,0,.053,1.973l6.621,6.064a1.44,1.44,0,0,0,2.005-.089l4.651-4.911-8.679-7.948Z" transform="translate(0 -145.782)"/><path class="i" d="M247.034,585.345l-6.621-6.064a1.428,1.428,0,0,0-1.989.072l-4.576,4.832,8.679,7.949L247.1,587.3a1.372,1.372,0,0,0-.069-1.956Z" transform="translate(-33.815 -110.185)"/><path class="h" d="M241.955,604.771l-8.679-7.949.17-.178,8.679,7.949Z" transform="translate(-33.413 -122.643)"/><path class="h" d="M211.173,637.277l-8.679-7.949.17-.178,8.679,7.949Z" transform="translate(-11.788 -145.48)"/><path class="i" d="M300.809,450.51a21.885,21.885,0,0,0-30.567,1.1,21.025,21.025,0,0,0,1.054,30.064,21.886,21.886,0,0,0,30.567-1.1,21.025,21.025,0,0,0-1.054-30.064Zm-18.281,32.761a17.535,17.535,0,1,1,20.7-13.653A17.535,17.535,0,0,1,282.528,483.271Z" transform="translate(-55.297 -15.981)"/><path class="h" d="M282.542,487.606a17.459,17.459,0,0,1-.874-24.938,18.175,18.175,0,0,1,25.355-.914,17.459,17.459,0,0,1,.874,24.938,18.175,18.175,0,0,1-25.355.914Zm23.9-25.242a17.317,17.317,0,0,0-24.158.871A16.635,16.635,0,0,0,283.12,487a17.316,17.316,0,0,0,24.158-.871,16.635,16.635,0,0,0-.833-23.761Z" transform="translate(-64.027 -24.568)"/><text class="j" transform="translate(222.962 453.856)"><tspan x="0" y="0">SEO</tspan></text></g></g></svg>