<svg xmlns="http://www.w3.org/2000/svg" xmlns:xlink="http://www.w3.org/1999/xlink" width="184" height="184" viewBox="0 0 184 184"><defs><style>.a{fill:none;}.b{fill:#f8f6f6;}.c{fill:#ffc30d;}.d{fill:#fd0;}.e{fill:#f0a700;}.f{fill:#ffc000;}.g{clip-path:url(#a);}.h{clip-path:url(#b);}.i{clip-path:url(#c);}.j{fill:#b2d684;}.k{fill:#8fb365;}.l{fill:#d0f2a8;}.m{opacity:0.81;}.n{fill:#819c61;}.o{fill:#8ba868;}.p{opacity:0.6;}.q{fill:#a0c27b;}.r,.s{fill:#d3e8b9;}.r{opacity:0.24;}.s{opacity:0.23;}.t{opacity:0.02;}.u{opacity:0.12;}.v{fill:#7d5834;}.w{fill:#b07a49;}.x{fill:#b8814d;opacity:0.11;}.af,.y{fill:#fff;}.y{opacity:0.1;}.z{fill:#75593e;}.aa,.ab,.ac,.ad,.ag{fill:#ca9a6c;}.aa{opacity:0.3;}.ac{opacity:0.26;}.ad{opacity:0.58;}.ae{fill:#f7be38;}.af{opacity:0.53;}.ag{stroke:#996735;stroke-linecap:round;stroke-miterlimit:10;stroke-width:3.656px;}</style><clipPath id="a"><path class="a" d="M134.753,190.347a7.005,7.005,0,0,1-14.005,0,7,7,0,1,1,14.005,0Z" transform="translate(-120.748 -183.344)"/></clipPath><clipPath id="b"><path class="a" d="M176.513,190.347a7.005,7.005,0,0,1-14.005,0,7,7,0,1,1,14.005,0Z" transform="translate(-162.508 -183.344)"/></clipPath><clipPath id="c"><rect class="a" width="60.704" height="26.564" transform="translate(0 3.339) rotate(-3.154)"/></clipPath></defs><g transform="translate(-810 -851)"><g transform="translate(14 47)"><rect class="b" width="184" height="184" transform="translate(796 804)"/></g><g transform="translate(-12571.553 -4495.156)"><g transform="translate(13444.994 5409.156)"><g transform="translate(2.342 3.629)"><path class="c" d="M134.735,193.243a7.07,7.07,0,0,1-14.135,0,7.068,7.068,0,1,1,14.135,0Z" transform="translate(-120.6 -186.175)"/></g><g transform="translate(0 0)"><path class="d" d="M124.682,196.511a9.2,9.2,0,0,1-9.409-9.18,9.409,9.409,0,1,1,18.819,0A9.2,9.2,0,0,1,124.682,196.511Z" transform="translate(-115.273 -177.921)"/></g><path class="e" d="M126.343,180.9a8.115,8.115,0,0,0-8.107,8.107,8.11,8.11,0,0,0,16.213,0,8.116,8.116,0,0,0-8.107-8.107Z" transform="translate(-116.933 -179.59)"/><path class="f" d="M126.6,181.793a7.914,7.914,0,0,0-7.907,7.907,7.91,7.91,0,0,0,15.813,0A7.914,7.914,0,0,0,126.6,181.793Z" transform="translate(-117.188 -180.091)"/><g transform="translate(2.407 2.384)"><g class="g"><g transform="translate(-1.143 -2.862)"><rect class="d" width="1.663" height="19.711" transform="translate(13.938) rotate(45)"/></g><g transform="translate(-0.36 -0.864)"><rect class="d" width="3.904" height="21.281" transform="matrix(0.707, 0.707, -0.707, 0.707, 15.047, 0)"/></g></g></g></g><g transform="translate(13463.356 5409.156)"><g transform="translate(2.342 3.629)"><path class="c" d="M176.5,193.243a7.07,7.07,0,0,1-14.135,0,7.068,7.068,0,1,1,14.135,0Z" transform="translate(-162.36 -186.175)"/></g><g transform="translate(0 0)"><path class="d" d="M166.443,196.511a9.2,9.2,0,0,1-9.409-9.18,9.409,9.409,0,1,1,18.818,0A9.2,9.2,0,0,1,166.443,196.511Z" transform="translate(-157.034 -177.921)"/></g><path class="e" d="M168.105,180.9A8.116,8.116,0,0,0,160,189a8.11,8.11,0,0,0,16.213,0,8.116,8.116,0,0,0-8.108-8.1Z" transform="translate(-158.696 -179.59)"/><path class="f" d="M168.359,181.793a7.914,7.914,0,0,0-7.907,7.907,7.91,7.91,0,0,0,15.813,0A7.914,7.914,0,0,0,168.359,181.793Z" transform="translate(-158.949 -180.091)"/><g transform="translate(2.407 2.384)"><g class="h"><g transform="translate(-1.142 -2.862)"><rect class="d" width="1.663" height="19.711" transform="matrix(0.707, 0.707, -0.707, 0.707, 13.938, 0)"/></g><g transform="translate(-0.357 -0.864)"><rect class="d" width="3.904" height="21.281" transform="translate(15.045 0) rotate(45)"/></g></g></g></g><g transform="translate(13439.553 5409.39)"><g transform="translate(0.458 0)"><g class="i" transform="translate(0)"><g transform="translate(-9.115 1.931)"><path class="j" d="M164.216,217.757,99.822,234.062l10.948-41.395,44.944-9.822Z" transform="translate(-92.517 -182.845)"/><path class="k" d="M156.533,224.191,94.419,234.949l.294-1.834L90.646,218.94l-3.409-19.988,63.255-10.181Z" transform="translate(-85.465 -186.165)"/><path class="l" d="M156.5,226.792l-57.152,9.9,7.309-2.852a4.335,4.335,0,0,1-4.674-3.052l-2.231-8.543L97.2,207.315a3.026,3.026,0,0,1,2.609-3.373l51.4-8.128a3.008,3.008,0,0,1,3.576,2.3l4.315,25.3A3.026,3.026,0,0,1,156.5,226.792Z" transform="translate(-91.029 -190.083)"/><g class="m" transform="translate(13.653 12.161)"><ellipse class="n" cx="12.444" cy="13.318" rx="12.444" ry="13.318" transform="translate(0 3.745) rotate(-8.654)"/><path class="o" d="M130.4,217.495c-6.127,1.061-10.186,7.238-9.068,13.8s6.991,11.017,13.118,9.956,10.186-7.239,9.068-13.8S136.527,216.433,130.4,217.495Z" transform="translate(-118.119 -214.332)"/></g><g class="m" transform="translate(2.515 26.029)"><path class="o" d="M89.2,242.1c-2.446.423,12.676-.519,13.178,2.418s-13.809,8.643-11.364,8.219,4.023-3.148,3.522-6.085S91.642,241.675,89.2,242.1Z" transform="translate(-88.928 -242.042)"/><path class="n" d="M89.942,245.111c-1.756.3,13.811-1.407,14.17.7s-14.624,7.238-12.868,6.934,2.888-2.26,2.528-4.369S91.7,244.807,89.942,245.111Z" transform="translate(-89.419 -243.555)"/></g><g class="m" transform="translate(49.497 17.312)"><path class="o" d="M199.394,222.273c-2.446.424-4.022,3.149-3.521,6.086s2.89,4.975,5.336,4.552,4.022-3.149,3.522-6.086S201.84,221.85,199.394,222.273Z" transform="translate(-195.78 -222.217)"/><ellipse class="n" cx="3.227" cy="3.874" rx="3.227" ry="3.874" transform="translate(0.708 2.076) rotate(-9.341)"/></g><g class="p" transform="translate(11.203 12.331)"><path class="q" d="M108.688,225.418l.186,1.089.508.687L109.2,226.1Z" transform="translate(-108.688 -219.03)"/><path class="q" d="M193.979,257.638l.186,1.089,12.311-2.132-.186-1.089Z" transform="translate(-156.477 -235.888)"/><path class="q" d="M187.579,213.022l.093.544,12.311-2.132-.093-.545Z" transform="translate(-152.891 -210.889)"/><path class="q" d="M116.351,269.693l.215,1.263,3-.519-.215-1.263Z" transform="translate(-112.982 -243.546)"/></g><path class="r" d="M154.275,237.165,91.019,247.346l-6.04-35.42s-9.9,29.129,17.121,28.21S154.275,237.165,154.275,237.165Z" transform="translate(-83.208 -199.139)"/><path class="s" d="M97.9,203.215s14.955-1.383,23.143-2.72a172.538,172.538,0,0,0,19.386-4.869Z" transform="translate(-91.44 -190.006)"/><path class="t" d="M137.215,241.207l-17.715-33.4-1.319.229,2.873,16.846.147.865,3.02,17.71Z" transform="translate(-102.804 -196.832)"/><path class="u" d="M113.541,283.224a154.963,154.963,0,0,1,17.153-4.171c9.286-1.678,22.926-2.77,22.926-2.77Z" transform="translate(-100.204 -235.199)"/></g></g></g><g transform="translate(0 10.965)"><path class="v" d="M1.817,0H63.839a1.817,1.817,0,0,1,1.817,1.817V44.99a1.817,1.817,0,0,1-1.817,1.817H1.817A1.817,1.817,0,0,1,0,44.99V1.817A1.817,1.817,0,0,1,1.817,0Z" transform="translate(0.075 0.505)"/><path class="w" d="M1.8,0H63.215a1.8,1.8,0,0,1,1.8,1.8v42.81a1.8,1.8,0,0,1-1.8,1.8H1.8a1.8,1.8,0,0,1-1.8-1.8V1.8A1.8,1.8,0,0,1,1.8,0Z" transform="translate(0.075 0.275)"/><path class="x" d="M166.281,250.43H104.866a1.8,1.8,0,0,1-1.8-1.8s13.182-2.779,36.978-17.164c17.519-10.59,26.237-27.447,26.237-27.447a1.8,1.8,0,0,1,1.8,1.8V248.63a1.8,1.8,0,0,1-1.8,1.8Z" transform="translate(-102.99 -203.743)"/><rect class="y" width="6.152" height="46.261"/><g transform="translate(2.452 2.674)"><rect class="z" width="1.738" height="0.583" transform="translate(24.352 0.002)"/><rect class="z" width="1.738" height="0.583" transform="translate(27.828 41.029)"/><rect class="z" width="1.738" height="0.583" transform="translate(38.257 0.002)"/><rect class="z" width="1.738" height="0.583" transform="translate(24.351 41.029)"/><rect class="z" width="1.738" height="0.583" transform="translate(20.875 41.029)"/><rect class="z" width="1.738" height="0.583" transform="translate(31.304 0.002)"/><rect class="z" width="1.738" height="0.583" transform="translate(34.781 0.002)"/><rect class="z" width="1.738" height="0.583" transform="translate(31.304 41.029)"/><rect class="z" width="1.738" height="0.583" transform="translate(38.257 41.029)"/><rect class="z" width="1.738" height="0.583" transform="translate(17.399 0.002)"/><rect class="z" width="1.738" height="0.583" transform="translate(34.781 41.029)"/><rect class="z" width="1.738" height="0.583" transform="translate(27.828 0.002)"/><path class="z" d="M109.311,210.064v-.008h.838v-.583h-1.677v.589Z" transform="translate(-108.473 -209.473)"/><rect class="z" width="1.739" height="0.583" transform="translate(17.399 41.029)"/><rect class="z" width="1.739" height="0.583" transform="translate(3.493 41.029)"/><rect class="z" width="1.738" height="0.583" transform="translate(3.493 0.002)"/><rect class="z" width="1.739" height="0.583" transform="translate(6.97 0.002)"/><path class="z" d="M109.311,302.743h-.838v.6h1.677v-.583h-.839Z" transform="translate(-108.473 -261.733)"/><rect class="z" width="1.738" height="0.583" transform="translate(13.922 0.002)"/><rect class="z" width="1.738" height="0.583" transform="translate(6.97 41.029)"/><rect class="z" width="1.738" height="0.583" transform="translate(13.922 41.029)"/><rect class="z" width="1.738" height="0.583" transform="translate(10.446 41.029)"/><rect class="z" width="1.738" height="0.583" transform="translate(10.446 0.002)"/><rect class="z" width="1.739" height="0.583" transform="translate(20.875 0.002)"/><rect class="z" width="1.738" height="0.583" transform="translate(41.733 41.029)"/><rect class="z" width="0.583" height="1.708" transform="translate(59.698 16.538)"/><rect class="z" width="0.583" height="1.708" transform="translate(59.698 23.369)"/><rect class="z" width="0.583" height="1.708" transform="translate(59.698 33.615)"/><rect class="z" width="0.583" height="1.708" transform="translate(59.698 30.199)"/><rect class="z" width="0.583" height="1.708" transform="translate(59.698 26.784)"/><path class="z" d="M242.919,209.475v.581h.583v.583h.583v-1.167Z" transform="translate(-183.804 -209.473)"/><rect class="z" width="0.583" height="1.708" transform="translate(59.698 2.876)"/><rect class="z" width="0.583" height="1.708" transform="translate(59.698 13.123)"/><rect class="z" width="0.583" height="1.708" transform="translate(59.698 6.292)"/><rect class="z" width="0.583" height="1.708" transform="translate(59.698 9.708)"/><rect class="z" width="0.583" height="1.708" transform="translate(59.698 19.953)"/><rect class="z" width="1.738" height="0.583" transform="translate(48.686 41.029)"/><rect class="z" width="1.738" height="0.583" transform="translate(45.21 0.002)"/><rect class="z" width="1.738" height="0.583" transform="translate(41.733 0.002)"/><rect class="z" width="1.738" height="0.583" transform="translate(45.21 41.029)"/><rect class="z" width="1.738" height="0.583" transform="translate(48.686 0.002)"/><rect class="z" width="1.738" height="0.583" transform="translate(55.638 41.029)"/><rect class="z" width="1.738" height="0.583" transform="translate(55.638 0.002)"/><path class="z" d="M243.5,302.043h-.583v.583h1.167V301.46H243.5Z" transform="translate(-183.804 -261.014)"/><rect class="z" width="1.738" height="0.583" transform="translate(52.162 0.002)"/><rect class="z" width="0.583" height="1.707" transform="translate(59.698 37.03)"/><rect class="z" width="1.738" height="0.583" transform="translate(52.162 41.029)"/></g><path class="aa" d="M228.736,250.428h3.3a1.409,1.409,0,0,0,1.4-1.418V205.424a1.409,1.409,0,0,0-1.4-1.418h-3.3l-.088,24.967-8.941,2.215v2.33a1.847,1.847,0,0,0,.5,1.259l8.533,9.132Z" transform="translate(-168.347 -203.736)"/><rect class="v" width="16.741" height="12.697" rx="1.087" transform="translate(51.065 17.456)"/><rect class="ab" width="16.741" height="12.697" rx="1.087" transform="translate(50.8 17.133)"/><path class="ac" d="M231.723,255.025h2.933a.518.518,0,0,0,.518-.518V242.875a.518.518,0,0,0-.518-.518h-2.933v6.823a3.964,3.964,0,0,1-3.918,3.964l-9.372.11v1.291a.508.508,0,0,0,.509.508Z" transform="translate(-167.633 -225.224)"/><g transform="translate(52.301 18.633)"><path class="z" d="M222.446,265.091h-.6v1.2h1.2v-.6h-.6Z" transform="translate(-221.846 -256.596)"/><rect class="z" width="1.62" height="0.6" transform="translate(2.82 9.096)"/><path class="z" d="M221.846,246.97h.6v-.6h.6v-.6h-1.2Z" transform="translate(-221.846 -245.77)"/><rect class="z" width="0.6" height="1.459" transform="translate(0 5.578)"/><rect class="z" width="0.6" height="1.459" transform="translate(0 2.659)"/><path class="z" d="M251.57,246.37v-.6h-1.2v.6h1.2Z" transform="translate(-237.828 -245.77)"/><rect class="z" width="1.62" height="0.6" transform="translate(6.06)"/><rect class="z" width="1.62" height="0.6" transform="translate(9.3 9.096)"/><rect class="z" width="1.62" height="0.6" transform="translate(9.3)"/><rect class="z" width="1.62" height="0.6" transform="translate(2.82)"/><path class="z" d="M250.965,266.442v.007h-.6v.6h1.2v-.607Z" transform="translate(-237.825 -257.353)"/><rect class="z" width="1.62" height="0.6" transform="translate(6.06 9.096)"/></g><path class="ad" d="M232.422,254.261a2.934,2.934,0,1,1-2.934-2.934,2.934,2.934,0,0,1,2.934,2.934Z" transform="translate(-172.183 -230.25)"/><path class="ae" d="M232.05,252.827A2.825,2.825,0,1,1,229.224,250,2.825,2.825,0,0,1,232.05,252.827Z" transform="translate(-172.096 -229.507)"/><path class="af" d="M230.623,251.434c-.14-.23-.679-.158-1.2.162s-.835.765-.7,1,.68.158,1.2-.162S230.764,251.664,230.623,251.434Z" transform="translate(-173.379 -230.235)"/><g transform="translate(34.646 38.185)"><line class="ag" x2="11.219"/><line class="ag" x2="6.203" transform="translate(14.959)"/></g></g></g></g></g></svg>