<svg xmlns="http://www.w3.org/2000/svg" width="184" height="184" viewBox="0 0 184 184"><defs><style>.a{fill:#f36e24;}.b{fill:#fff;}.c{fill:#e3f4f1;}</style></defs><g transform="translate(-372 -1122)"><g transform="translate(30 21)"><rect class="a" width="184" height="184" transform="translate(342 1101)"/></g><g transform="translate(8.081 86.016)"><g transform="translate(427.919 1099.984)"><rect class="b" width="2.334" height="10.591" transform="translate(17.203)"/><rect class="b" width="10.591" height="2.334" transform="translate(23.018 12.225) rotate(-43.785)"/><rect class="b" width="2.334" height="10.591" transform="matrix(0.043, -0.999, 0.999, 0.043, 25.76, 19.885)"/><rect class="b" width="2.334" height="10.591" transform="matrix(0.751, -0.66, 0.66, 0.751, 22.226, 24.833)"/><rect class="b" width="10.591" height="2.334" transform="matrix(0.085, -0.996, 0.996, 0.085, 15.304, 36.257)"/><rect class="b" width="10.591" height="2.334" transform="matrix(0.779, -0.628, 0.628, 0.779, 3.17, 28.609)"/><rect class="b" width="2.334" height="10.591" transform="matrix(0.128, -0.992, 0.992, 0.128, 0, 16.873)"/><rect class="b" width="2.334" height="10.591" transform="translate(6.58 4.148) rotate(-36.422)"/></g><g transform="translate(443.279 1115.355)"><path class="c" d="M565.706,493.885l3.929-12.75L581.9,493.4l3.189-3.189-36.329-36.33Z" transform="translate(-548.195 -452.557)"/><path class="b" d="M545.236,445.572l.56,1.32,36.329,36.329,3.189-3.189L573.279,468l12.81-3.869Z" transform="translate(-545.236 -445.572)"/></g></g></g></svg>