<svg xmlns="http://www.w3.org/2000/svg" width="184" height="184" viewBox="0 0 184 184"><defs><style>.a{fill:#f36e24;}.b{fill:#ffe69f;}.c{fill:#ffc8cd;}.d{fill:#f2f2f2;}.e{fill:#fd0;}</style></defs><g transform="translate(-810 -1122)"><g transform="translate(14 21)"><rect class="a" width="184" height="184" transform="translate(796 1101)"/></g><g transform="translate(0.932 68)"><g transform="translate(868 1128.862)"><g transform="translate(0.068 0)"><rect class="b" width="11.745" height="27.198" rx="0.5" transform="translate(0 26.499)"/><rect class="c" width="11.745" height="18.916" rx="0.5" transform="translate(36.633 34.781)"/><rect class="d" width="11.745" height="42.999" rx="0.5" transform="translate(18.317 10.698)"/><path class="e" d="M.5,0H11.245a.5.5,0,0,1,.5.5V53.2a.5.5,0,0,1-.5.5H.5a.5.5,0,0,1-.5-.5V.5A.5.5,0,0,1,.5,0Z" transform="translate(54.95)"/></g></g><g transform="translate(869.738 1110)"><g transform="translate(3.494 2.841)"><path class="e" d="M364.717,166.764a.347.347,0,0,1-.218-.618l18.761-15.081,18.508,12.909,18.216-22.345a.347.347,0,1,1,.538.439L401.9,164.913l-18.61-12.98-18.355,14.755A.346.346,0,0,1,364.717,166.764Z" transform="translate(-364.37 -141.502)"/></g><ellipse class="d" cx="3.189" cy="3.189" rx="3.189" ry="3.189" transform="translate(19.211 9.65)"/><path class="c" d="M3.189,0A3.189,3.189,0,1,1,0,3.189,3.189,3.189,0,0,1,3.189,0Z" transform="translate(37.769 22.594)"/><path class="e" d="M3.189,0A3.189,3.189,0,1,1,0,3.189,3.189,3.189,0,0,1,3.189,0Z" transform="translate(56.189 0)"/><ellipse class="b" cx="3.189" cy="3.189" rx="3.189" ry="3.189" transform="matrix(0.232, -0.973, 0.973, 0.232, 0, 30.118)"/></g></g></g></svg>