<svg xmlns="http://www.w3.org/2000/svg" viewBox="0 0 512 512"><circle cx="259" cy="258" r="174" fill="#fff" stroke="#000"/><path d="M490.6 293.1a239.13 239.13 0 0 0 2.9-37.1c0-131.2-106.3-237.5-237.5-237.5a239.13 239.13 0 0 0-37.1 2.9C197 7.8 171.2 0 143.6 0 64.3 0 0 64.3 0 143.5c0 27.7 7.8 53.5 21.4 75.4-1.9 12.1-2.9 24.4-2.9 37.1 0 131.2 106.3 237.5 237.5 237.5a239.13 239.13 0 0 0 37.1-2.9c21.9 13.5 47.7 21.4 75.4 21.4 79.3 0 143.6-64.3 143.6-143.6-.1-27.6-7.9-53.4-21.5-75.3zM368.8 364c-10 14.5-24.8 25.8-44.1 33.9-19.3 8.2-42.2 12.2-68.6 12.2-31.6 0-57.8-5.5-78.5-16.7-14.6-8-26.6-18.7-35.7-32.1-9.2-13.4-13.8-26.5-13.8-39.3 0-7.5 2.9-14.1 8.5-19.5 5.7-5.4 12.9-8.1 21.6-8.1 7 0 13.1 2.1 18 6.3s9 10.3 12.3 18.4c4 9.3 8.4 17.2 13 23.4s11.1 11.3 19.5 15.3c8.3 4 19.4 6 33.3 6 19 0 34.3-4.1 46.1-12.2 11.8-8.2 17.5-18.1 17.5-30.1 0-9.6-3.1-17.2-9.3-23.1-6.3-6-14.5-10.6-24.6-13.8-10.2-3.2-23.8-6.6-40.9-10.3-23-5-42.2-10.9-57.8-17.6s-28-15.9-37.2-27.6-13.8-26.3-13.8-43.6c0-16.5 4.9-31.2 14.6-44 9.7-12.9 23.8-22.7 42.1-29.6s39.7-10.3 64.4-10.3c19.7 0 36.7 2.3 51.1 6.8 14.4 4.6 26.4 10.6 35.9 18.2 9.5 7.5 16.5 15.5 21 23.9 4.4 8.4 6.7 16.6 6.7 24.5 0 7.4-2.9 14.2-8.5 20.1s-12.8 8.9-21.2 8.9c-7.5 0-13.5-1.7-17.6-5.4-4-3.6-8.2-9.2-12.7-17.2-5.7-11-12.6-19.6-20.6-25.8-7.8-6-20.6-9.2-38.5-9.1-16.5 0-29.8 3.4-39.8 10-10.1 6.7-14.9 14.5-14.9 23.6 0 5.7 1.7 10.5 5 14.7 3.4 4.2 8 7.8 14 10.8 6 3.1 12.1 5.5 18.3 7.2 6.2 1.8 16.5 4.3 30.9 7.7 18 3.9 34.3 8.2 49 12.9 14.6 4.7 27.1 10.5 37.4 17.3 10.4 6.8 18.5 15.5 24.3 25.9 5.8 10.5 8.8 23.3 8.8 38.4-.1 18.3-5.2 34.6-15.2 49z" fill="#444"/></svg>