<?xml version="1.0" encoding="utf-8"?>
<!-- Generator: Adobe Illustrator 23.0.3, SVG Export Plug-In . SVG Version: 6.00 Build 0)  -->
<svg version="1.1" id="Capa_1" xmlns="http://www.w3.org/2000/svg" xmlns:xlink="http://www.w3.org/1999/xlink" x="0px" y="0px"
	 viewBox="0 0 44 44" style="enable-background:new 0 0 44 44;" xml:space="preserve">
<style type="text/css">
	.st0{fill:#3C3C3B;}
</style>
<g>
	<g>
		<path class="st0" d="M29.2,30.8h-6.6v-5c0-0.3-0.3-0.6-0.6-0.6s-0.6,0.3-0.6,0.6v5H5.7c-0.3,0-0.6,0.3-0.6,0.6v3.1
			c0,0,0,0.1,0,0.1C3.4,34.9,2,36.4,2,38.3C2,40.3,3.7,42,5.7,42s3.7-1.7,3.7-3.7c0-1.9-1.4-3.4-3.1-3.7c0,0,0-0.1,0-0.1V32h15.1
			v2.6c-1.8,0.3-3.1,1.8-3.1,3.7c0,2.1,1.7,3.7,3.7,3.7s3.7-1.7,3.7-3.7c0-1.9-1.4-3.4-3.1-3.7V32h6.6c0.3,0,0.6-0.3,0.6-0.6
			S29.5,30.8,29.2,30.8z M8.3,38.3c0,1.4-1.1,2.5-2.5,2.5s-2.5-1.1-2.5-2.5c0-1.4,1.1-2.5,2.5-2.5S8.3,36.9,8.3,38.3z M24.5,38.3
			c0,1.4-1.1,2.5-2.5,2.5s-2.5-1.1-2.5-2.5c0-1.4,1.1-2.5,2.5-2.5C23.4,35.7,24.5,36.9,24.5,38.3z"/>
	</g>
</g>
<g>
	<g>
		<path class="st0" d="M38.9,34.6C38.9,34.6,38.9,34.6,38.9,34.6l0-3.2c0-0.3-0.3-0.6-0.6-0.6H32c-0.3,0-0.6,0.3-0.6,0.6
			c0,0.3,0.3,0.6,0.6,0.6h5.7v2.5c0,0,0,0.1,0,0.1c-1.8,0.3-3.1,1.8-3.1,3.7c0,2.1,1.7,3.7,3.7,3.7c2.1,0,3.7-1.7,3.7-3.7
			C42,36.4,40.6,34.9,38.9,34.6z M38.3,40.8c-1.4,0-2.5-1.1-2.5-2.5c0-1.4,1.1-2.5,2.5-2.5s2.5,1.1,2.5,2.5
			C40.8,39.7,39.7,40.8,38.3,40.8z"/>
	</g>
</g>
<g>
	<g>
		<path class="st0" d="M27.4,4C25.9,2.7,24,2,22,2s-3.9,0.7-5.4,2c-0.2,0.2-0.3,0.6,0,0.8c0.2,0.2,0.6,0.3,0.8,0
			c1.3-1.1,2.9-1.7,4.6-1.7c1.7,0,3.3,0.6,4.6,1.7c0.3,0.2,0.7,0.2,0.9-0.1C27.6,4.6,27.6,4.2,27.4,4z"/>
	</g>
</g>
<g>
	<g>
		<path class="st0" d="M25.6,5.8c-1-0.8-2.3-1.3-3.6-1.3S19.4,5,18.4,5.8c-0.2,0.2-0.3,0.6-0.1,0.8c0.2,0.2,0.6,0.3,0.8,0.1
			C20,6,21,5.7,22,5.7s2,0.4,2.8,1c0.1,0.1,0.2,0.1,0.4,0.1C25.8,6.8,26,6.2,25.6,5.8z"/>
	</g>
</g>
<g>
	<g>
		<path class="st0" d="M23.8,7.6C23.2,7.2,22.6,7,22,7s-1.2,0.2-1.8,0.6c-0.3,0.2-0.3,0.6-0.1,0.8c0.2,0.3,0.6,0.3,0.8,0.1
			c0.3-0.2,0.7-0.3,1.1-0.3c0.4,0,0.8,0.1,1.1,0.3c0.3,0.2,0.7,0.1,0.9-0.2C24.1,8.1,24,7.7,23.8,7.6z"/>
	</g>
</g>
<g>
	<g>
		<path class="st0" d="M27.9,17.7C27.9,17.7,27.9,17.7,27.9,17.7l0-1.9c0-3.1-2.5-5.6-5.6-5.6h-7.5c-0.4,0-0.7,0.4-0.5,0.8l2.5,6.2
			v0.6c0,0,0,0,0,0c-1,0-1.8,0.8-1.8,1.8s0.8,1.8,1.8,1.8c0.1,0,0.1,0,0.2,0c0.5,1.8,2.2,3.1,4.2,3.1h2.5c2,0,3.7-1.3,4.2-3.1
			c0.1,0,0.1,0,0.2,0c1,0,1.8-0.8,1.8-1.8C29.8,18.5,29,17.7,27.9,17.7z M16.7,20.2c-0.4,0-0.7-0.3-0.7-0.7c0-0.4,0.3-0.7,0.7-0.7
			c0,0,0,0,0,0L16.7,20.2C16.7,20.1,16.7,20.1,16.7,20.2C16.7,20.2,16.7,20.2,16.7,20.2z M26.7,20.1c0,1.7-1.4,3.2-3.2,3.2h-2.5
			c-1.7,0-3.2-1.4-3.2-3.2v-2.8l1.4-0.9l2.8,1.1c0.1,0.1,0.3,0.1,0.4,0l2.8-1.1l1.4,0.9L26.7,20.1L26.7,20.1z M26.7,15.9l-1-0.6
			c-0.2-0.1-0.4-0.1-0.5-0.1l-2.9,1.2l-2.9-1.2c-0.2-0.1-0.4,0-0.5,0.1l-1.3,0.9l-1.9-4.8h6.6c2.4,0,4.4,2,4.4,4.4L26.7,15.9
			L26.7,15.9z M27.9,20.2C27.9,20.2,27.9,20.2,27.9,20.2C27.9,20.1,27.9,20.1,27.9,20.2l0-1.3c0,0,0,0,0,0c0.4,0,0.7,0.3,0.7,0.7
			C28.6,19.9,28.3,20.2,27.9,20.2z"/>
	</g>
</g>
<g>
	<g>
		<path class="st0" d="M24.7,20.4c-0.2-0.3-0.6-0.3-0.8-0.1c-0.6,0.4-1.2,0.5-1.5,0.5c-0.7,0-1.3-0.3-1.5-0.5
			c-0.3-0.2-0.6-0.1-0.8,0.1c-0.2,0.3-0.1,0.6,0.1,0.8c0.4,0.3,1.2,0.7,2.2,0.7c0.5,0,1.4-0.1,2.2-0.7C24.8,21,24.9,20.7,24.7,20.4z
			"/>
	</g>
</g>
<g>
	<g>
		<circle class="st0" cx="19.8" cy="18.9" r="0.6"/>
	</g>
</g>
<g>
	<g>
		<circle class="st0" cx="24.8" cy="18.9" r="0.6"/>
	</g>
</g>
</svg>
