<svg xmlns="http://www.w3.org/2000/svg" viewBox="0 0 512 512"><style><![CDATA[.A{fill:#333}.C{fill:#0052B4}.D{fill:#D80027}]]></style><path class="A" d="M434.4 110.7C401.2 45.9 334.4 0 256 0v101.3c55.5 0 100.6 43.7 100.6 99.2 0 54.8-45.5 102-100.6 102.1V512c70.6-73.6 152-154.5 187.5-251.4 17.8-48.5 14.5-104.1-9.1-149.9z"/><path class="A" d="M68.5 260.6C104.1 357.5 185.4 438.4 256 512V302.5c-55.1 0-100.6-47.2-100.6-102.1 0-55.5 45.1-99.1 100.6-99.2V0C177.6 0 110.8 45.9 77.6 110.7 54 156.5 50.7 212.1 68.5 260.6z"/><circle cx="256" cy="198.8" r="160" fill="#f0f0f0"/><path class="C" d="M129.1 101.4c-12.6 16.4-22 35.2-27.6 55.7h83.2l-55.6-55.7zM410.5 157c-5.5-20.5-15-39.3-27.6-55.7L327.3 157h83.2zm-309 83.5c5.5 20.5 15 39.3 27.6 55.7l55.7-55.7h-83.3zM353.4 71.8c-16.4-12.6-35.2-22-55.7-27.6v83.2l55.7-55.6zM158.6 325.7c16.4 12.6 35.2 22 55.7 27.6V270l-55.7 55.7zm55.7-281.4c-20.5 5.5-39.3 15-55.7 27.6l55.7 55.7V44.3zm83.4 309c20.5-5.5 39.3-15 55.7-27.6L297.7 270v83.3zm29.6-112.8l55.7 55.7c12.6-16.4 22-35.2 27.6-55.7h-83.3z"/><path class="D" d="M414.6 177.9H276.9V40.1c-6.8-.9-13.8-1.4-20.9-1.4s-14 .5-20.9 1.4v137.8H97.4c-.9 6.8-1.4 13.8-1.4 20.9s.5 14 1.4 20.9h137.8v137.8c6.8.9 13.8 1.4 20.9 1.4s14-.5 20.9-1.4V219.6h137.8c.9-6.8 1.4-13.8 1.4-20.9-.2-7-.7-14-1.6-20.8zm-116.9 62.6l71.4 71.4a152.99 152.99 0 0 0 9.4-10.3l-61.1-61.1h-19.7zm-83.4 0l-71.4 71.4c3.3 3.3 6.7 6.4 10.3 9.4l61.1-61.1v-19.7zm0-83.5l-71.4-71.4a152.99 152.99 0 0 0-9.4 10.3l61.1 61.1h19.7zm83.4 0l71.4-71.4c-3.3-3.3-6.7-6.4-10.3-9.4l-61.1 61.1V157z"/><path d="M255.9 21.7c-73.7 0-141.5 47.6-166.6 116.8-25.3 69.8-3.1 149.8 54 197.1 57.2 47.3 140.4 53.6 204 15.1s97.2-114.7 82.3-187.6c-14.7-71.4-74-128-146.1-139.3-9.1-1.4-18.4-2.1-27.6-2.1m142.7 241.5c-30.2 67-105.7 104.8-177.5 88.4-55.2-12.6-100.4-55.8-115.8-110.2-15.7-55.7 1.3-116.8 43.4-156.4C194.2 42.1 262.9 30.4 320 56.2 388.2 87 426 164.3 407.7 237c-2.2 9-5.3 17.7-9.1 26.2-2.1 4.6 1.5-3.5 0 0" fill="#c7c7c7"/></svg>