<?xml version="1.0" encoding="utf-8"?>
<!-- Generator: Adobe Illustrator 23.0.3, SVG Export Plug-In . SVG Version: 6.00 Build 0)  -->
<svg version="1.1" id="Layer_1" xmlns="http://www.w3.org/2000/svg" xmlns:xlink="http://www.w3.org/1999/xlink" x="0px" y="0px"
	 viewBox="0 0 44 44" style="enable-background:new 0 0 44 44;" xml:space="preserve">
<style type="text/css">
	.st0{fill:#3C3C3B;}
</style>
<g id="Search-2">
	<path class="st0" d="M23.4,14.7c-0.4,1.8,0.8,3.5,2.6,3.9c1.3,0.2,2.6-0.3,3.3-1.3c1.1,1.5,3.2,1.8,4.6,0.7c1-0.8,1.5-2.1,1.3-3.3
		c1.5-1.1,1.8-3.1,0.8-4.6c-0.2-0.3-0.5-0.6-0.8-0.8c0.4-1.8-0.8-3.6-2.6-3.9c-1.3-0.2-2.5,0.3-3.3,1.3c-1.1-1.5-3.2-1.8-4.7-0.7
		c-1,0.8-1.5,2.1-1.3,3.3c-1.5,1.1-1.8,3.1-0.8,4.6C22.8,14.2,23.1,14.5,23.4,14.7L23.4,14.7z M30.1,8.2c0.3-1.1,1.4-1.7,2.4-1.4
		c0.9,0.2,1.5,1,1.5,1.9c0,0,0,0,0,0.1c-0.8-0.2-1.6,0-2.3,0.4l0.7,1.2c0.6-0.3,1.3-0.4,1.9-0.1c1,0.5,1.4,1.7,0.9,2.7
		c-0.2,0.4-0.5,0.7-0.9,0.9c-0.6,0.3-1.3,0.3-1.9-0.1l-0.7,1.2c0.7,0.4,1.5,0.5,2.3,0.4c0,0,0,0,0,0.1c0,1.1-0.9,2-2,2s-2-0.9-2-2
		V8.7C30,8.5,30,8.3,30.1,8.2L30.1,8.2z M24.5,10.2c0.6-0.3,1.3-0.3,1.9,0.1L27,9.1c-0.7-0.4-1.5-0.5-2.3-0.4c0,0,0,0,0-0.1
		c0-1.1,0.9-2,2-2c0.9,0,1.7,0.6,1.9,1.5c0,0.2,0.1,0.3,0.1,0.5v6.7c0,1.1-0.9,2-2,2c-1.1,0-2-0.9-2-2c0,0,0,0,0-0.1
		c0.2,0,0.4,0.1,0.7,0.1c0.6,0,1.2-0.2,1.7-0.4l-0.7-1.2c-0.6,0.3-1.3,0.4-1.9,0.1c-1-0.5-1.4-1.7-0.9-2.7
		C23.7,10.7,24.1,10.4,24.5,10.2L24.5,10.2z"/>
	<path class="st0" d="M41.3,5.3h-4.6c-3.7-4.1-9.9-4.5-14.1-0.8c-0.3,0.3-0.6,0.5-0.8,0.8H2.7C2.3,5.3,2,5.6,2,6v32
		c0,0.4,0.3,0.7,0.7,0.7H26V40c0,1.1,0.9,2,2,2h2.7c1.1,0,2-0.9,2-2v-1.3h8.7c0.4,0,0.7-0.3,0.7-0.7V6C42,5.6,41.7,5.3,41.3,5.3z
		 M29.3,3.3c4.8,0,8.7,3.9,8.7,8.7s-3.9,8.7-8.7,8.7s-8.7-3.9-8.7-8.7C20.7,7.2,24.5,3.3,29.3,3.3z M30,26h-1.3v-4
		c0.2,0,0.4,0,0.7,0c0.2,0,0.4,0,0.7,0V26z M3.3,37.3V6.7h17.6c-3,4.7-1.6,10.8,3.1,13.8c1,0.7,2.2,1.1,3.4,1.4v4.3
		c-0.8,0.3-1.3,1-1.3,1.9v9.3H3.3z M31.3,40c0,0.4-0.3,0.7-0.7,0.7H28c-0.4,0-0.7-0.3-0.7-0.7V28c0-0.4,0.3-0.7,0.7-0.7h2.7
		c0.4,0,0.7,0.3,0.7,0.7V40z M40.7,37.3h-8V28c0-0.8-0.5-1.6-1.3-1.9v-4.3c5.4-1.1,8.9-6.4,7.8-11.8c-0.2-1.2-0.7-2.3-1.4-3.4h2.9
		V37.3z"/>
	<path class="st0" d="M6,9.3h10.7v1.3H6V9.3z"/>
	<path class="st0" d="M6,13.3h10.7v1.3H6V13.3z"/>
	<path class="st0" d="M6,17.3h12v1.3H6V17.3z"/>
	<path class="st0" d="M6,21.3h14.7v1.3H6V21.3z"/>
	<path class="st0" d="M6,25.3h17.3v1.3H6V25.3z"/>
	<path class="st0" d="M6,29.3h17.3v1.3H6V29.3z"/>
	<path class="st0" d="M6,33.3h17.3v1.3H6V33.3z"/>
	<path class="st0" d="M35.3,25.3H38v1.3h-2.7V25.3z"/>
	<path class="st0" d="M35.3,29.3H38v1.3h-2.7V29.3z"/>
	<path class="st0" d="M35.3,33.3H38v1.3h-2.7V33.3z"/>
</g>
</svg>
