<?xml version="1.0" encoding="utf-8"?>
<!-- Generator: Adobe Illustrator 23.0.3, SVG Export Plug-In . SVG Version: 6.00 Build 0)  -->
<svg version="1.1" id="Layer_1" xmlns="http://www.w3.org/2000/svg" xmlns:xlink="http://www.w3.org/1999/xlink" x="0px" y="0px"
	 viewBox="0 0 84 84" style="enable-background:new 0 0 84 84;" xml:space="preserve">
<style type="text/css">
	.st0{fill:#3C3C3B;stroke:#FFFFFF;stroke-width:0.5;stroke-miterlimit:10;}
</style>
<g>
	<g>
		<rect x="4.1" y="2.2" transform="matrix(0.7071 -0.7071 0.7071 0.7071 -1.8023 5.1899)" class="st0" width="2.6" height="5.2"/>
	</g>
</g>
<g>
	<g>
		<rect x="12.7" y="10.8" transform="matrix(0.7071 -0.7071 0.7071 0.7071 -5.372 13.8069)" class="st0" width="2.6" height="5.2"/>
	</g>
</g>
<g>
	<g>
		<rect x="2.8" y="12.1" transform="matrix(0.7071 -0.7071 0.7071 0.7071 -7.8965 7.7138)" class="st0" width="5.2" height="2.6"/>
	</g>
</g>
<g>
	<g>
		<rect x="11.4" y="3.5" transform="matrix(0.7071 -0.7071 0.7071 0.7071 0.7221 11.2834)" class="st0" width="5.2" height="2.6"/>
	</g>
</g>
<g>
	<g>
		<rect x="8.4" y="7.8" class="st0" width="2.6" height="2.6"/>
	</g>
</g>
<g>
	<g>
		
			<rect x="70.3" y="12.6" transform="matrix(0.7071 -0.7071 0.7071 0.7071 10.1834 55.0817)" class="st0" width="2.6" height="5.2"/>
	</g>
</g>
<g>
	<g>
		<rect x="78.9" y="21.3" transform="matrix(0.7071 -0.7071 0.7071 0.7071 6.614 63.7009)" class="st0" width="2.6" height="5.2"/>
	</g>
</g>
<g>
	<g>
		<rect x="69" y="22.6" transform="matrix(0.7071 -0.7071 0.7071 0.7071 4.0898 57.6064)" class="st0" width="5.2" height="2.6"/>
	</g>
</g>
<g>
	<g>
		
			<rect x="77.6" y="13.9" transform="matrix(0.7071 -0.7071 0.7071 0.7071 12.7073 61.1762)" class="st0" width="5.2" height="2.6"/>
	</g>
</g>
<g>
	<g>
		<rect x="74.6" y="18.3" class="st0" width="2.6" height="2.6"/>
	</g>
</g>
<g>
	<g>
		<path class="st0" d="M67.4,43.3l4-4.5l-5-4.7l0.5-0.5L62,29.1l0.8-0.8l-7.1-6.6l-0.6,0.6l-1.5-1.4c0.9-0.3,1.8-0.7,2.6-1.2
			c2-1.4,3.4-3.4,3.9-5.8l0.2-1.2L41.5,8.1l-2,1.7L29.2,5l-0.6,1.1c-1.1,2.2-1.3,4.7-0.5,7c0.5,1.6,1.5,3,2.7,4.1l-1.6,1.3l-5.5-2.3
			l-2.2,7l0,2.9l-5,22.5l2.2,1L0.9,74.9L3,76.4l18.1-25.6L43.2,61l5.3-0.6l0.8,1.2l-12.8,1.9L25.3,80.6l2.2,1.4l10.5-16.1l12.8-2
			L63,82l2.2-1.4l-15.3-23l-6.1,0.7L19.5,47.1l0.7-3.3l5.6,1.9l0.9-2.5l-5.9-2.1l1-4.6l5.6,1.9l0.9-2.5l-5.9-2l1.4-6.1l6.1,2.1
			l0.9-2.5l-6.6-2.3l0-1.7l1.2-3.9l15.9,6.5l-3.3,3.9L43,35l-1.7,1.8l7.1,6.6l0.9-0.9l5.1,4.8l2.7-2.9l5.1,4.8l3.4-3.8L81,67.1
			l2.1-1.5L67.4,43.3z M30.5,12.3c-0.4-1.3-0.4-2.6-0.1-3.8l6.8,3.1l-4.5,3.8C31.7,14.7,31,13.6,30.5,12.3z M31.9,19.7l10.3-8.7
			l14.9,3.6c-0.5,1.2-1.3,2.2-2.4,3c-1.1,0.7-2.3,1.1-3.6,1.1l-0.2-0.1h-1.3l-5.5-0.8l-2.8,5.9L31.9,19.7z M46.2,20.6l-1.1,1.3
			l0.6-1.4L46.2,20.6z M41.5,30l7.7-9h0.2c0.2,0,0.4,0.1,0.6,0.1l3.2,3l-8.4,9L41.5,30z M48.2,39.7l-3.2-3l0.2-0.2l10.6-11.2l3,2.8
			L48.2,39.7z M55.2,42.5l-0.9,1l-3.2-3l9.1-9.6l2.9,2.7L55.2,42.5L55.2,42.5z M62.1,45.4l-3.2-3l5.7-6.3l3.1,2.9L62.1,45.4z"/>
	</g>
</g>
</svg>
