<svg xmlns="http://www.w3.org/2000/svg" xmlns:xlink="http://www.w3.org/1999/xlink" width="214.313" height="38.097" viewBox="0 0 214.313 38.097">
  <defs>
    <clipPath id="clip-path">
      <path id="Rectangle_35" data-name="Rectangle 35" d="M0,0H214.313V38.1H0Z" transform="translate(0 0)" fill="#5c5c5c"/>
    </clipPath>
    <clipPath id="clip-path-2">
      <path id="Path_8199" data-name="Path 8199" d="M184.8,164.888a6.773,6.773,0,0,0,.7.6,11.74,11.74,0,0,0,18.68-5.168,14.525,14.525,0,0,1-24.783,10l-15.35-15.057a7.082,7.082,0,0,0-.694-.6,11.74,11.74,0,0,0-7.593-2.77,11.622,11.622,0,0,0-11.085,7.938,14.525,14.525,0,0,1,24.783-10Z" transform="translate(-144.671 -145.587)" fill="none"/>
    </clipPath>
    <clipPath id="clip-path-3">
      <path id="Path_8202" data-name="Path 8202" d="M367.477,154.443a12.909,12.909,0,0,0-3.354-4.207c-5.561-4.613-14.292-3.849-19.322,1.162l-3.841,3.857,5.454,5.351,3.794-3.781a6.875,6.875,0,1,1,6.807,11.457,10.1,10.1,0,0,0,10.871-6.116A9.3,9.3,0,0,0,367.477,154.443Z" transform="translate(-340.961 -147.171)" fill="none"/>
    </clipPath>
    <clipPath id="clip-path-4">
      <path id="Path_8205" data-name="Path 8205" d="M172.835,205.081l-3.823,3.783a6.875,6.875,0,1,1-6.807-11.457,10.534,10.534,0,0,0-1.477-.115,9.98,9.98,0,0,0-10.1,9.836c0,3.8,2.642,7.176,5.744,9.164a14.689,14.689,0,0,0,18.029-2l3.906-3.849Z" transform="translate(-150.633 -197.292)" fill="none"/>
    </clipPath>
  </defs>
  <g id="Mask_Group_144" data-name="Mask Group 144" clip-path="url(#clip-path)">
    <g id="wholistic_logo_-_Updated" data-name="wholistic logo - Updated" transform="translate(0 4.168)">
      <path id="Path_8166" data-name="Path 8166" d="M560.005,149.9a9.9,9.9,0,0,1,7.475,3.4V142.817h4.537v29.129H567.48v-3.26a8.962,8.962,0,0,1-7.512,3.613c-5.7,0-10.276-4.605-10.276-11.3S554.264,149.9,560.005,149.9Zm.922,3.9c-3.333,0-6.592,2.516-6.592,7.195s3.189,7.4,6.592,7.4,6.59-2.618,6.59-7.331S564.291,153.8,560.927,153.8Z" transform="translate(-486.195 -142.817)" fill="#2f83c5"/>
      <path id="Path_8167" data-name="Path 8167" d="M729.784,142.817h4.5v29.129h-4.5Z" transform="translate(-638.052 -142.817)" fill="#2f83c5"/>
      <path id="Path_8168" data-name="Path 8168" d="M797.188,210.419c-6.236,0-10.842-4.43-10.842-11.232s4.393-11.164,10.842-11.164c6.166,0,10.562,4.289,10.562,10.666a14.774,14.774,0,0,1-.144,2.2H791.022a5.977,5.977,0,0,0,6.166,5.776h.037a5.321,5.321,0,0,0,5.137-3.011h4.857A10.123,10.123,0,0,1,797.188,210.419Zm-6.129-13.146h12.012c-.071-3.33-2.728-5.5-6.058-5.5A5.933,5.933,0,0,0,791.059,197.274Z" transform="translate(-685.747 -180.936)" fill="#2f83c5"/>
      <path id="Path_8169" data-name="Path 8169" d="M952.28,210.166c-5.21,0-8.86-3.082-9.072-7.017h4.642c.141,1.772,1.833,3.189,4.323,3.189,2.587,0,3.969-1.1,3.969-2.587,0-4.252-12.58-1.807-12.58-9.745,0-3.472,3.189-6.284,8.328-6.284,4.925,0,8.15,2.618,8.4,6.98h-4.5c-.176-1.877-1.629-3.189-4.074-3.189s-3.65.992-3.65,2.445c0,4.359,12.224,1.914,12.473,9.745C960.642,207.4,957.417,210.166,952.28,210.166Z" transform="translate(-818.016 -180.683)" fill="#2f83c5"/>
      <g id="Group_1059" data-name="Group 1059" transform="translate(154.402 0.031)">
        <path id="Path_8170" data-name="Path 8170" d="M1129.528,148.378h4.569v1.008h-1.66v5.221h-1.249v-5.221h-1.66Z" transform="translate(-1129.528 -147.538)" fill="#5c5c5c"/>
        <path id="Path_8171" data-name="Path 8171" d="M1164.923,161.249a2.554,2.554,0,0,1,0-5.105,2.3,2.3,0,0,1,2.438,2.445,2.721,2.721,0,0,1-.037.482h-3.613a1.155,1.155,0,0,0,1.186,1.142,1.021,1.021,0,0,0,.992-.6h1.346A2.3,2.3,0,0,1,1164.923,161.249Zm-1.191-3.032h2.356a1.1,1.1,0,0,0-1.178-1.047A1.147,1.147,0,0,0,1163.732,158.217Z" transform="translate(-1157.283 -154.086)" fill="#5c5c5c"/>
        <path id="Path_8172" data-name="Path 8172" d="M1200.009,156.06a2.2,2.2,0,0,1,2.33,1.749h-1.348a.972.972,0,0,0-.99-.689c-.7,0-1.16.524-1.16,1.492s.463,1.482,1.16,1.482a.943.943,0,0,0,.99-.678h1.348a2.256,2.256,0,0,1-2.33,1.749,2.555,2.555,0,0,1,0-5.105Z" transform="translate(-1186.897 -154.015)" fill="#5c5c5c"/>
        <path id="Path_8173" data-name="Path 8173" d="M1233.885,145.973h1.251v2.278a1.97,1.97,0,0,1,3.461,1.427v2.9h-1.249v-2.731a1.112,1.112,0,1,0-2.212,0v2.731h-1.251Z" transform="translate(-1217.525 -145.51)" fill="#5c5c5c"/>
        <path id="Path_8174" data-name="Path 8174" d="M1274.991,158.391a1.113,1.113,0,1,0-2.215,0v2.731h-1.249v-4.946h1.249v.618a1.833,1.833,0,0,1,1.49-.689,1.9,1.9,0,0,1,1.974,2.115v2.9h-1.249Z" transform="translate(-1249.265 -154.053)" fill="#5c5c5c"/>
        <path id="Path_8175" data-name="Path 8175" d="M1309.666,160.852a2.421,2.421,0,0,1-2.508-2.553,2.545,2.545,0,1,1,5.087,0A2.479,2.479,0,0,1,1309.666,160.852Zm0-1.089a1.476,1.476,0,0,0,.018-2.927,1.287,1.287,0,0,0-1.259,1.464c0,.992.571,1.45,1.241,1.45Z" transform="translate(-1279.308 -153.689)" fill="#5c5c5c"/>
        <path id="Path_8176" data-name="Path 8176" d="M1345.491,145.973h1.249v6.606h-1.249Z" transform="translate(-1311.633 -145.51)" fill="#5c5c5c"/>
        <path id="Path_8177" data-name="Path 8177" d="M1361.819,160.852a2.421,2.421,0,0,1-2.508-2.553,2.545,2.545,0,1,1,5.087,0A2.485,2.485,0,0,1,1361.819,160.852Zm0-1.089a1.476,1.476,0,0,0,.018-2.927,1.287,1.287,0,0,0-1.259,1.464c0,.992.573,1.45,1.241,1.45Z" transform="translate(-1323.285 -153.689)" fill="#5c5c5c"/>
        <path id="Path_8178" data-name="Path 8178" d="M1397.847,156.051a1.929,1.929,0,0,1,1.634.785v-.707h1.259V161.1a2.261,2.261,0,0,1-2.445,2.4,2.22,2.22,0,0,1-2.49-1.833h1.239a1.278,1.278,0,0,0,2.437-.568v-.77a1.945,1.945,0,0,1-1.634.814,2.348,2.348,0,0,1-2.257-2.571A2.308,2.308,0,0,1,1397.847,156.051Zm.322,1.1a1.323,1.323,0,0,0-1.309,1.437,1.317,1.317,0,1,0,2.618.018A1.334,1.334,0,0,0,1398.169,157.148Z" transform="translate(-1353.878 -154.007)" fill="#5c5c5c"/>
        <path id="Path_8179" data-name="Path 8179" d="M1435.381,143.821a.767.767,0,1,1,.767.73.733.733,0,0,1-.767-.73Zm.134,1.309h1.249v4.946h-1.257Z" transform="translate(-1387.43 -143.017)" fill="#5c5c5c"/>
        <path id="Path_8180" data-name="Path 8180" d="M1452.5,161.249a2.554,2.554,0,0,1,0-5.105,2.3,2.3,0,0,1,2.438,2.445,3,3,0,0,1-.037.482h-3.616a1.157,1.157,0,0,0,1.188,1.142,1.018,1.018,0,0,0,.99-.6h1.348A2.3,2.3,0,0,1,1452.5,161.249Zm-1.2-3.019h2.356a1.1,1.1,0,0,0-1.178-1.047,1.144,1.144,0,0,0-1.178,1.034Z" transform="translate(-1399.77 -154.086)" fill="#5c5c5c"/>
        <path id="Path_8181" data-name="Path 8181" d="M1487.646,161.179a1.957,1.957,0,0,1-2.16-1.644h1.259a.82.82,0,0,0,.893.662c.5,0,.757-.225.757-.524,0-.882-2.794-.319-2.794-2.131,0-.822.733-1.482,1.956-1.482a1.756,1.756,0,0,1,1.99,1.634h-1.2a.735.735,0,0,0-.83-.644c-.492,0-.7.2-.7.463,0,.9,2.741.338,2.775,2.149C1489.591,160.521,1488.85,161.179,1487.646,161.179Z" transform="translate(-1429.68 -154.015)" fill="#5c5c5c"/>
      </g>
      <g id="Group_1060" data-name="Group 1060" transform="translate(154.732 11.339)">
        <path id="Path_8182" data-name="Path 8182" d="M1131.632,220h1.419l1.982,4.632,1.982-4.632h1.409v6.229h-1.249v-4.05l-1.668,4.05h-.948l-1.678-4.05v4.05h-1.249Z" transform="translate(-1131.632 -219.242)" fill="#5c5c5c"/>
        <path id="Path_8183" data-name="Path 8183" d="M1183.023,227.68a1.958,1.958,0,0,1,1.634.785v-.7h1.257V232.7h-1.257v-.723a1.953,1.953,0,0,1-1.644.8,2.347,2.347,0,0,1-2.249-2.571A2.315,2.315,0,0,1,1183.023,227.68Zm.322,1.1a1.323,1.323,0,0,0-1.309,1.437,1.353,1.353,0,0,0,1.309,1.474,1.464,1.464,0,0,0,0-2.911Z" transform="translate(-1173.061 -225.714)" fill="#5c5c5c"/>
        <path id="Path_8184" data-name="Path 8184" d="M1222.676,232.763h-1.249V227.82h1.249v.767a1.715,1.715,0,0,1,1.519-.838v1.309h-.333c-.741,0-1.186.285-1.186,1.238Z" transform="translate(-1207.35 -225.773)" fill="#5c5c5c"/>
        <path id="Path_8185" data-name="Path 8185" d="M1244.423,217.616h1.249v3.757l1.66-2.095h1.626l-2.178,2.479,2.2,2.464h-1.626l-1.678-2.095v2.095h-1.249Z" transform="translate(-1226.74 -217.229)" fill="#5c5c5c"/>
        <path id="Path_8186" data-name="Path 8186" d="M1278.1,232.791a2.554,2.554,0,0,1,0-5.105,2.3,2.3,0,0,1,2.438,2.445,2.961,2.961,0,0,1-.037.482h-3.615a1.157,1.157,0,0,0,1.188,1.144,1.018,1.018,0,0,0,.987-.6h1.348A2.3,2.3,0,0,1,1278.1,232.791Zm-1.2-3.016h2.356a1.1,1.1,0,0,0-1.178-1.063A1.147,1.147,0,0,0,1276.9,229.775Z" transform="translate(-1253.045 -225.72)" fill="#5c5c5c"/>
        <path id="Path_8187" data-name="Path 8187" d="M1310.893,222.682h-.589v-1.026h.589v-1.217h1.257v1.223h1.107v1.026h-1.107v2.39c0,.333.134.474.524.474h.581V226.6h-.785c-.945,0-1.571-.4-1.571-1.534Z" transform="translate(-1282.293 -219.608)" fill="#5c5c5c"/>
        <path id="Path_8188" data-name="Path 8188" d="M1334.034,215.871a.77.77,0,1,1,.768.725A.77.77,0,0,1,1334.034,215.871Zm.134,1.322h1.252v4.943h-1.252Z" transform="translate(-1302.302 -215.146)" fill="#5c5c5c"/>
        <path id="Path_8189" data-name="Path 8189" d="M1354.181,230.031a1.112,1.112,0,1,0-2.212,0v2.731h-1.251v-4.943h1.251v.615a1.832,1.832,0,0,1,1.49-.686,1.9,1.9,0,0,1,1.971,2.113v2.9h-1.249Z" transform="translate(-1316.37 -225.771)" fill="#5c5c5c"/>
        <path id="Path_8190" data-name="Path 8190" d="M1388.565,227.677a1.927,1.927,0,0,1,1.631.785v-.7h1.259v4.974a2.261,2.261,0,0,1-2.445,2.4,2.219,2.219,0,0,1-2.49-1.833h1.241a1.276,1.276,0,0,0,2.435-.568v-.767a1.951,1.951,0,0,1-1.631.812,2.348,2.348,0,0,1-2.26-2.571A2.318,2.318,0,0,1,1388.565,227.677Zm.319,1.1a1.324,1.324,0,0,0-1.309,1.437,1.353,1.353,0,0,0,1.309,1.474,1.464,1.464,0,0,0,.005-2.911Z" transform="translate(-1346.378 -225.711)" fill="#5c5c5c"/>
      </g>
      <g id="Group_1061" data-name="Group 1061" transform="translate(154.573 22.328)">
        <path id="Path_8191" data-name="Path 8191" d="M1132.925,296.426c-1.309,0-2.294-.678-2.312-1.856h1.338a.856.856,0,0,0,.945.83c.589,0,.937-.314.937-.759,0-1.348-3.212-.524-3.2-2.794,0-1.126.909-1.8,2.194-1.8a1.963,1.963,0,0,1,2.231,1.778h-1.375a.819.819,0,0,0-.89-.741c-.492-.018-.859.223-.859.73,0,1.251,3.2.555,3.2,2.749A1.966,1.966,0,0,1,1132.925,296.426Z" transform="translate(-1130.614 -289.289)" fill="#5c5c5c"/>
        <path id="Path_8192" data-name="Path 8192" d="M1164.385,293.261h-.589v-1.026h.589v-1.223h1.272v1.223h1.107v1.026h-1.107v2.4c0,.33.133.474.524.474h.581v1.047h-.785c-.945,0-1.571-.4-1.571-1.534Z" transform="translate(-1158.594 -290.106)" fill="#5c5c5c"/>
        <path id="Path_8193" data-name="Path 8193" d="M1192.824,303.756h-1.259v-.626a1.817,1.817,0,0,1-1.471.689,1.905,1.905,0,0,1-1.982-2.108v-2.9h1.249v2.723a1.108,1.108,0,1,0,2.2,0V298.81h1.259Z" transform="translate(-1179.097 -296.682)" fill="#5c5c5c"/>
        <path id="Path_8194" data-name="Path 8194" d="M1226.25,289.762a2.032,2.032,0,0,1,1.615.767v-2.356h1.267v6.606h-1.267v-.73a1.867,1.867,0,0,1-1.623.814,2.348,2.348,0,0,1-2.259-2.571A2.312,2.312,0,0,1,1226.25,289.762Zm.312,1.1a1.324,1.324,0,0,0-1.309,1.437,1.317,1.317,0,1,0,2.618.018A1.334,1.334,0,0,0,1226.561,290.859Z" transform="translate(-1209.345 -287.712)" fill="#5c5c5c"/>
        <path id="Path_8195" data-name="Path 8195" d="M1263.773,286.043a.77.77,0,1,1,.767.73.733.733,0,0,1-.767-.73Zm.134,1.309h1.251V292.3h-1.251Z" transform="translate(-1242.896 -285.233)" fill="#5c5c5c"/>
        <path id="Path_8196" data-name="Path 8196" d="M1280.975,303.018a2.42,2.42,0,0,1-2.508-2.553,2.545,2.545,0,1,1,5.087,0A2.47,2.47,0,0,1,1280.975,303.018Zm0-1.089a1.476,1.476,0,0,0,.018-2.927,1.287,1.287,0,0,0-1.259,1.464c0,.992.571,1.471,1.241,1.471Z" transform="translate(-1255.286 -295.863)" fill="#5c5c5c"/>
      </g>
      <rect id="Rectangle_3111" data-name="Rectangle 3111" width="1.401" height="29.355" transform="translate(147.786 0.037)" fill="#5c5c5c"/>
      <path id="Path_8197" data-name="Path 8197" d="M184.8,164.888a6.773,6.773,0,0,0,.7.6,11.74,11.74,0,0,0,18.68-5.168,14.525,14.525,0,0,1-24.783,10l-15.35-15.057a7.082,7.082,0,0,0-.694-.6,11.74,11.74,0,0,0-7.593-2.77,11.622,11.622,0,0,0-11.085,7.938,14.525,14.525,0,0,1,24.783-10Z" transform="translate(-144.671 -145.152)" fill="#2f82c4"/>
      <g id="Group_1062" data-name="Group 1062" transform="translate(0 0.434)" clip-path="url(#clip-path-2)">
        <path id="Path_8198" data-name="Path 8198" d="M144.323,147.317a14.464,14.464,0,0,1,12.593-13.151c8.116-1.047,12.305,4.974,19.458,12.1,9.153,9.127,10.389,10.412,16.149,10.412,9.687-.524,11.782-8.9,11.648-12.339,0,0-3.456,8.553-5.815,9.163,0,0-7.116,3.474-11.431-.812L170.431,135l-11.075-5.079S142.425,135.02,144.323,147.317Z" transform="translate(-144.253 -132.38)" fill="#353535" opacity="0.49"/>
      </g>
      <path id="Path_8200" data-name="Path 8200" d="M367.477,154.443a12.909,12.909,0,0,0-3.354-4.207c-5.561-4.613-14.292-3.849-19.322,1.162l-3.841,3.857,5.454,5.351,3.794-3.781a6.875,6.875,0,1,1,6.807,11.457,10.1,10.1,0,0,0,10.871-6.116A9.3,9.3,0,0,0,367.477,154.443Z" transform="translate(-310.187 -146.489)" fill="#077477"/>
      <g id="Group_1063" data-name="Group 1063" transform="translate(30.774 0.683)" clip-path="url(#clip-path-3)">
        <path id="Path_8201" data-name="Path 8201" d="M441.962,212.574a11.7,11.7,0,0,0,10.174-6.865c3.194-6.92.89,1.411.89,1.411l-4.268,5.744-3.88,2.652-2.644.372-4.281-.359Z" transform="translate(-422.748 -194.214)" fill="#353535" opacity="0.49"/>
      </g>
      <path id="Path_8203" data-name="Path 8203" d="M172.692,205.148l-3.822,3.786a6.875,6.875,0,1,1-9.714-9.732,6.773,6.773,0,0,1,2.9-1.725,10.116,10.116,0,0,0-1.474-.118,9.98,9.98,0,0,0-10.1,9.836c0,3.8,2.642,7.176,5.744,9.163a14.717,14.717,0,0,0,18.049-2l3.909-3.849Z" transform="translate(-149.571 -188.808)" fill="#e86b0f"/>
      <g id="Group_1064" data-name="Group 1064" transform="translate(0.935 8.54)" clip-path="url(#clip-path-4)">
        <path id="Path_8204" data-name="Path 8204" d="M147.749,197.217a11.692,11.692,0,0,0-10.174,6.862c-3.2,6.92-.89-1.409-.89-1.409l4.268-5.744,3.88-2.652,2.644-.372,4.278.356Z" transform="translate(-138.193 -194.434)" fill="#353535" opacity="0.49"/>
      </g>
    </g>
  </g>
</svg>
