<?xml version="1.0" encoding="UTF-8"?> <!-- Generator: Adobe Illustrator 23.0.1, SVG Export Plug-In . SVG Version: 6.00 Build 0) --> <svg xmlns="http://www.w3.org/2000/svg" xmlns:xlink="http://www.w3.org/1999/xlink" id="Layer_1" x="0px" y="0px" viewBox="0 0 32 32" style="enable-background:new 0 0 32 32;" xml:space="preserve"> <style type="text/css"> .st0{fill:#1CB7EB;} </style> <path class="st0" d="M16,1C7.7,1,1,7.7,1,16c0,8.3,6.7,15,15,15c8.3,0,15-6.7,15-15C31,7.7,24.3,1,16,1z M22.3,12.6 c0,0.1,0,0.3,0,0.4c0,4.7-3.3,10.1-9.4,10.1c-1.9,0-3.6-0.6-5.1-1.6c0.3,0.1,0.6,0.1,0.8,0.1c1.5,0,2.9-0.6,4.1-1.5 c-1.4,0-2.6-1-3.1-2.4c0.2,0.1,0.4,0.1,0.6,0.1c0.3,0,0.6-0.1,0.9-0.1c-1.5-0.4-2.6-1.8-2.6-3.5V14c0.4,0.3,0.9,0.4,1.5,0.4 c-0.9-0.6-1.4-1.7-1.4-2.9c0-0.7,0.1-1.3,0.4-1.8c1.6,2.1,4.1,3.6,6.8,3.7c-0.1-0.3-0.1-0.6-0.1-0.8c0-2,1.5-3.6,3.3-3.6 c0.9,0,1.8,0.4,2.4,1.1c0.8-0.2,1.5-0.5,2.1-0.9c-0.3,0.8-0.8,1.5-1.4,1.9c0.6-0.1,1.3-0.3,1.9-0.6C23.6,11.4,23,12,22.3,12.6z"></path> </svg> 