<?xml version="1.0" encoding="UTF-8"?> <!-- Generator: Adobe Illustrator 23.0.1, SVG Export Plug-In . SVG Version: 6.00 Build 0) --> <svg xmlns:cc="http://creativecommons.org/ns#" xmlns:dc="http://purl.org/dc/elements/1.1/" xmlns:inkscape="http://www.inkscape.org/namespaces/inkscape" xmlns:rdf="http://www.w3.org/1999/02/22-rdf-syntax-ns#" xmlns:sodipodi="http://sodipodi.sourceforge.net/DTD/sodipodi-0.dtd" xmlns:svg="http://www.w3.org/2000/svg" xmlns="http://www.w3.org/2000/svg" xmlns:xlink="http://www.w3.org/1999/xlink" id="svg2" x="0px" y="0px" viewBox="0 0 32 32" style="enable-background:new 0 0 32 32;" xml:space="preserve"> <style type="text/css"> .st0{fill:#01AEF2;} </style> <g id="layer1" transform="translate(0,-552.36218)"> <g id="layer1-9" transform="translate(-549.00515,80.294372)"> </g> <g id="layer1-6" transform="translate(-575.71429,39.999999)"> </g> </g> <g> <path class="st0" d="M20,15.7c-0.5-0.3-1-0.5-1.6-0.7c-0.6-0.2-1.3-0.3-2-0.5c-0.6-0.1-1-0.2-1.3-0.3c-0.2-0.1-0.5-0.2-0.7-0.3 c-0.2-0.1-0.4-0.2-0.5-0.4c-0.1-0.1-0.2-0.3-0.2-0.5c0-0.4,0.2-0.7,0.6-0.9c0.4-0.3,0.9-0.4,1.6-0.4c0.7,0,1.2,0.2,1.5,0.4 c0.3,0.2,0.6,0.6,0.8,1c0.2,0.3,0.3,0.5,0.5,0.7c0.2,0.1,0.5,0.2,0.8,0.2s0.6-0.1,0.9-0.4c0.3-0.3,0.4-0.6,0.4-0.9s-0.1-0.6-0.3-1 s-0.5-0.7-0.9-1c-0.4-0.3-0.9-0.5-1.5-0.7c-0.6-0.2-1.3-0.3-2.1-0.3c-1,0-1.9,0.1-2.9,0.5c-0.8,0.3-1.4,0.7-1.8,1.2 c-0.4,0.5-0.6,1.1-0.6,1.8s0.2,1.3,0.6,1.8c0.4,0.4,0.9,0.8,1.6,1.1c0.6,0.3,1.4,0.5,2.4,0.7c0.7,0.1,1.3,0.3,1.7,0.4 s0.7,0.3,1,0.5c0.3,0.3,0.4,0.5,0.4,0.9c0,0.4-0.2,0.8-0.7,1.1c-0.4,0.3-1,0.5-1.8,0.5c-0.5,0-1,0-1.3-0.2 c-0.4-0.2-0.6-0.4-0.8-0.6s-0.3-0.5-0.5-0.9c-0.1-0.4-0.3-0.6-0.5-0.8s-0.5-0.3-0.8-0.3c-0.4,0-0.7,0.2-1,0.4 c-0.3,0.3-0.4,0.6-0.4,0.9c0,0.5,0.2,1,0.6,1.6c0.4,0.5,0.9,1,1.5,1.3c0.9,0.5,2,0.7,3.3,0.7c1.1,0,2.1-0.2,2.9-0.5 c0.9-0.3,1.5-0.8,1.9-1.4c0.4-0.6,0.6-1.2,0.6-2c0-0.6-0.2-1.2-0.4-1.6C20.8,16.3,20.4,16,20,15.7z"></path> <path class="st0" d="M16,1C7.7,1,1,7.7,1,16c0,8.3,6.7,15,15,15s15-6.7,15-15S24.3,1,16,1z M20.3,25.5c-0.9,0-1.7-0.2-2.5-0.6 C17.2,25,16.7,25,16.1,25c-5.1,0-9.2-4-9.2-9c0-0.6,0.1-1.2,0.2-1.8c-0.4-0.7-0.7-1.6-0.7-2.6c0-2.9,2.4-5.2,5.3-5.2 c1.1,0,2,0.3,2.7,0.8c0.5-0.1,1.1-0.1,1.6-0.1c5.1,0,9.2,4,9.2,9c0,0.6-0.1,1.3-0.2,1.9c0.4,0.7,0.6,1.5,0.6,2.3 C25.6,23.2,23.2,25.5,20.3,25.5z"></path> </g> </svg> 