<svg xmlns="http://www.w3.org/2000/svg" viewBox="0 0 512 512"><style><![CDATA[.A{fill:#333}.B{fill:#F0F0F0}.E{fill:#0052B4}]]></style><path class="A" d="M434.4 110.7C401.2 45.9 334.4 0 256 0v101.3c55.5 0 100.6 43.7 100.6 99.2 0 54.8-45.5 102-100.6 102.1V512c70.6-73.6 152-154.5 187.5-251.4 17.8-48.5 14.5-104.1-9.1-149.9z"/><path class="A" d="M68.5 260.6C104.1 357.5 185.4 438.4 256 512V302.5c-55.1 0-100.6-47.2-100.6-102.1 0-55.5 45.1-99.1 100.6-99.2V0C177.6 0 110.8 45.9 77.6 110.7 54 156.5 50.7 212.1 68.5 260.6z"/><circle class="B" cx="256" cy="198.8" r="160"/><path d="M256,38.8c-63.4,0-118.2,36.9-144.1,90.4h288.2C374.2,75.7,319.4,38.8,256,38.8z" fill="#ff9811"/><path d="M256 358.8c63.4 0 118.2-36.9 144.1-90.4H111.9c25.9 53.5 80.7 90.4 144.1 90.4z" fill="#6da544"/><circle class="E" cx="256" cy="198.8" r="55.6"/><circle transform="matrix(.3162 -.9487 .9487 .3162 -13.5111 378.809296)" class="B" cx="256" cy="198.8" r="34.8"/><path class="E" d="M256 155.9l10.7 24.3 26.5-2.9-15.7 21.5 15.7 21.4-26.5-2.8-10.7 24.3-10.7-24.3-26.5 2.8 15.7-21.4-15.7-21.5 26.5 2.9z"/><path d="M255.9 21.7c-73.7 0-141.5 47.6-166.6 116.8-25.3 69.8-3.1 149.8 54 197.1 57.2 47.3 140.4 53.6 204 15.1s97.2-114.7 82.3-187.6c-14.7-71.4-74-128-146.1-139.3-9.1-1.4-18.4-2.1-27.6-2.1m142.7 241.5c-30.2 67-105.7 104.8-177.5 88.4-55.2-12.6-100.4-55.8-115.8-110.2-15.7-55.7 1.3-116.8 43.4-156.4C194.2 42.1 262.9 30.4 320 56.2 388.2 87 426 164.3 407.7 237c-2.2 9-5.3 17.7-9.1 26.2-2.1 4.6 1.5-3.5 0 0" fill="#c7c7c7"/></svg>