<svg xmlns="http://www.w3.org/2000/svg" xmlns:xlink="http://www.w3.org/1999/xlink" width="628.955" height="444.719" viewBox="0 0 628.955 444.719"><defs><style>.a{fill:none;}.b{clip-path:url(#a);}.c{fill:#b5d2ea;}.d{fill:#f7bf31;}.e{fill:#a8e2e5;}.f{fill:#fff;}.g{fill:#a1a8af;}.h{fill:#83b9e5;}.i{fill:#cad1d8;}.j{fill:#4c565f;}.k{fill:#9198a0;}.l{fill:#71777c;}.m{fill:#fafafa;}.n{fill:#8e95a3;}.o{fill:#6acbdb;}.p{fill:#fcc23f;}.q{fill:#f74f4f;}.r{fill:#e2e5e8;}.s{fill:#5f6d75;}.t{opacity:0.58;}.u{fill:#465765;}.v{fill:#00a8c1;}.w{opacity:0.49;}.x{fill:#caffff;}</style><clipPath id="a"><rect class="a" width="628.955" height="444.719"/></clipPath></defs><g transform="translate(-14.62 80.64)"><g transform="translate(14.62 -80.64)"><g class="b"><path class="c" d="M.822,400.738,0,397.869,10.033,395l9.645-11.034,21.583-14.732-.523,3.4a66.015,66.015,0,0,0-.919,12c4.251-5.177,13.238-5.065,16.436-4.841l4.572-10.676L73,372.6l5.977,7.142,2.353-8.218.388-.306c17.228-13.253,18.042-12.476,19.073-11.49a1.554,1.554,0,0,1,.471,1.434l6.021,4.37a138.209,138.209,0,0,1,8.375-17.773l.261-.456.486-.194c5.894-2.353,9.809.187,11.6,2.533,3.653-2.1,6.246-10.422,6.918-13.447l.172-.792.747-.284c.052,0,5.73-2.189,8.92-6.089l.1-.112,17.384-17.407,8.644,4.714L460,225.586l3.623,10.153,7.15-3.974.8,7.254,9.167-2.286v1.95c0,2.174.418,6.066.628,7.844l5.461,1.823,8.778-1.6,5.678,8.046,11.617,8.218,9.5-6.783,14.665-14.665,8.307,1.494,7.822-6.4,17.078-8.166,8.046-8.965,5.05-15.412,9.615-6.656,1.457-8.024,12.349-13.985,5.491,3.661,4.55,2.241,4.632-9.241c1.883-3.056,6.529-10.265,9.017-11.094,2.241-.747,18.759-5.775,19.461-5.977l.867,2.854c-.172.052-17.183,5.23-19.424,5.977-1.106.471-4.707,5.424-7.381,9.764l-5.872,11.737-7.471-3.735-3.4-2.241L597.2,190.81l-1.494,8.412-9.809,6.791-4.931,15.061-8.868,9.869L554.8,239.205l-8.614,7.045-8.128-1.494-13.828,13.8-11.318,8.083-13.784-9.712-4.826-6.9-7.658,1.39-7.979-2.66-.12-.934c0-.2-.516-4.154-.687-7.254l-8.838,2.241-.687-6.193-6.3,3.5-3.847-10.765L170.565,319.508l-7.792-4.251-15.756,15.778c-2.988,3.631-7.583,5.85-9.383,6.627-.8,3.19-3.87,13.8-9.884,15.3l-1.158.291-.538-1.076c-.239-.456-2.488-4.423-8.083-2.45a127.577,127.577,0,0,0-8.584,18.677l-.65,1.935-10.272-7.471c-2.779,1.636-8.965,6.126-14.6,10.422l-3.631,12.7L71.271,375.2l-8.756-2.5-4.393,10.287L57,382.868c-.112,0-11.146-1.307-15.054,3.9-1.136,1.494-2.241,2.054-3.392,1.584-.747-.321-2.712-1.136-1.248-12.79L21.665,386.222,11.707,397.63Z" transform="translate(-10.922 -39.214)"/><path class="d" d="M726.988,192.15a37.54,37.54,0,1,0,37.533,37.538,37.542,37.542,0,0,0-37.533-37.538ZM759,226.986H748.265c-.418-10.728-3.28-20.089-7.65-26.394A32.191,32.191,0,0,1,759,226.986Zm-34.716-28.972v28.942H711.113C711.74,212.59,717.313,200.562,724.284,198.015Zm0,34.365v28.942c-6.97-2.518-12.543-14.546-13.171-28.942Zm5.4,28.942V232.38h13.171c-.628,14.4-6.2,26.432-13.171,28.949Zm0-34.365V198.015c6.97,2.518,12.543,14.546,13.171,28.942Zm-16.324-26.394c-4.378,6.305-7.239,15.689-7.65,26.394H694.968a32.2,32.2,0,0,1,18.393-26.364ZM694.968,232.38h10.743c.411,10.728,3.272,20.089,7.65,26.4A32.206,32.206,0,0,1,694.968,232.38Zm45.646,26.394c4.37-6.305,7.232-15.689,7.65-26.394H759a32.206,32.206,0,0,1-18.385,26.4Z" transform="translate(-185.299 -48.6)"/><path class="e" d="M240.866,202.571h-3.227a19.081,19.081,0,0,0-2.069-4.99l2.286-2.286a.807.807,0,0,0,0-1.15l-5.394-5.394a.807.807,0,0,0-1.15,0l-2.294,2.286a18.677,18.677,0,0,0-4.983-2.069v-3.242a.814.814,0,0,0-.814-.814h-7.628a.814.814,0,0,0-.822.814v3.235a18.782,18.782,0,0,0-4.983,2.069l-2.3-2.279a.814.814,0,0,0-1.158,0l-5.394,5.394a.822.822,0,0,0,0,1.151l2.294,2.286a18.58,18.58,0,0,0-2.069,4.99h-3.235a.814.814,0,0,0-.814.814v7.628a.814.814,0,0,0,.814.814h3.235a18.58,18.58,0,0,0,2.069,4.99l-2.294,2.286a.822.822,0,0,0,0,1.15l5.394,5.394a.814.814,0,0,0,1.158,0l2.286-2.286a18.535,18.535,0,0,0,4.983,2.069v3.235a.814.814,0,0,0,.822.814h7.628a.814.814,0,0,0,.814-.814v-3.235A18.437,18.437,0,0,0,229,223.362l2.294,2.286a.807.807,0,0,0,1.15,0l5.394-5.394a.807.807,0,0,0,0-1.15l-2.286-2.286a19.081,19.081,0,0,0,2.069-4.99h3.227a.814.814,0,0,0,.814-.814v-7.628a.814.814,0,0,0-.8-.814ZM219.44,217.139a9.944,9.944,0,1,1,9.944-9.936A9.944,9.944,0,0,1,219.44,217.139Z" transform="translate(-60.776 -46.768)"/><path class="e" d="M278.776,193.288h-1.718a9.893,9.893,0,0,0-1.1-2.652l1.218-1.225a.441.441,0,0,0,0-.613l-2.876-2.869a.426.426,0,0,0-.613,0l-1.218,1.218a10.258,10.258,0,0,0-2.652-1.106v-1.718a.433.433,0,0,0-.441-.433h-4.057a.433.433,0,0,0-.433.433v1.718a10.309,10.309,0,0,0-2.66,1.106l-1.218-1.218a.426.426,0,0,0-.613,0L257.53,188.8a.426.426,0,0,0,0,.613l1.218,1.225a9.666,9.666,0,0,0-1.106,2.652h-1.718a.433.433,0,0,0-.433.433v4.064a.433.433,0,0,0,.433.433h1.718a9.764,9.764,0,0,0,1.106,2.652l-1.218,1.218a.426.426,0,0,0,0,.613l2.869,2.876a.426.426,0,0,0,.613,0l1.218-1.218a10.041,10.041,0,0,0,2.66,1.1v1.726a.433.433,0,0,0,.433.433h4.057a.433.433,0,0,0,.441-.433v-1.726a9.988,9.988,0,0,0,2.652-1.1l1.218,1.218a.426.426,0,0,0,.613,0l2.876-2.876a.441.441,0,0,0,0-.613l-1.218-1.218a9.989,9.989,0,0,0,1.1-2.652h1.718a.433.433,0,0,0,.441-.433v-4.064a.433.433,0,0,0-.441-.433Zm-11.423,7.755a5.3,5.3,0,1,1,5.289-5.289A5.3,5.3,0,0,1,267.354,201.043Z" transform="translate(-75.542 -46.51)"/><circle class="e" cx="11.826" cy="11.826" r="11.826" transform="translate(498.689 208.956) rotate(-45)"/><circle class="f" cx="8.711" cy="8.711" r="8.711" transform="translate(506.703 200.246)"/><path class="e" d="M708.439,195.505h-4.355V191.15h-3.108v4.355H696.62v3.108h4.355v4.355h3.108v-4.355h4.355Z" transform="translate(-187.115 11.897)"/><rect class="g" width="43.114" height="55.179" transform="translate(459.608 219.326)"/><rect class="f" width="39.662" height="45.982" transform="translate(461.334 226.797)"/><rect class="g" width="3.451" height="3.451" transform="translate(463.059 229.673)"/><rect class="g" width="23.025" height="3.451" transform="translate(469.38 229.673)"/><rect class="g" width="3.451" height="3.451" transform="translate(463.059 236.569)"/><rect class="g" width="23.025" height="3.451" transform="translate(469.38 236.569)"/><rect class="g" width="3.451" height="3.451" transform="translate(463.059 243.464)"/><rect class="g" width="23.025" height="3.451" transform="translate(469.38 243.464)"/><rect class="g" width="3.451" height="3.451" transform="translate(463.059 250.367)"/><rect class="g" width="23.025" height="3.451" transform="translate(469.38 250.367)"/><rect class="g" width="3.451" height="3.451" transform="translate(463.059 257.263)"/><rect class="g" width="16.667" height="3.451" transform="translate(469.38 257.263)"/><rect class="h" width="277.531" height="38.579" transform="translate(250.419 127.234)"/><rect class="f" width="237.712" height="31.116" transform="translate(253.527 130.97)"/><path class="f" d="M695.453,194.09l-.665.747-1.905-1.673a9.532,9.532,0,1,0-1.494,1.733l1.9,1.673-.665.747,8.636,7.658,2.854-3.25Zm-15.39-.642a7.508,7.508,0,1,1,10.594-.687,7.508,7.508,0,0,1-10.594.687Z" transform="translate(-181.757 -45.101)"/><path class="i" d="M623.347,481.609c0,2.562-127.107,4.647-283.888,4.647S55.57,484.172,55.57,481.609,182.67,477,339.458,477,623.347,479.047,623.347,481.609Z" transform="translate(-24.977 -120.645)"/><path class="j" d="M511.553,227.12H266.012a14.732,14.732,0,0,0-14.732,14.732v158.26H526.286V241.852A14.732,14.732,0,0,0,511.553,227.12Z" transform="translate(-74.477 -57.444)"/><path class="k" d="M231.633,368H534.064a3.735,3.735,0,0,1,3.735,3.735h0a18.677,18.677,0,0,1-18.677,18.677H246.567a18.677,18.677,0,0,1-18.677-18.677h0A3.735,3.735,0,0,1,231.625,368Z" transform="translate(-68.561 -32.832)"/><path class="l" d="M247.546,475.718H520.108A18.677,18.677,0,0,0,535.894,467H231.76A18.677,18.677,0,0,0,247.546,475.718Z" transform="translate(-69.54 -118.116)"/><path class="g" d="M537.8,452.415a3.735,3.735,0,0,0-3.735-3.735H231.635a3.735,3.735,0,0,0-3.735,3.735h0a18.58,18.58,0,0,0,2.884,9.951H534.918a18.58,18.58,0,0,0,2.884-9.958Z" transform="translate(-68.564 -113.483)"/><rect class="m" width="257.621" height="145.612" transform="translate(185.476 181.502)"/><rect class="n" width="10.683" height="31.855" transform="translate(201.688 267.445)"/><rect class="o" width="10.683" height="46.543" transform="translate(215.419 252.758)"/><rect class="p" width="10.683" height="51.219" transform="translate(229.158 248.081)"/><rect class="q" width="10.683" height="55.53" transform="translate(242.889 243.77)"/><rect class="n" width="10.683" height="47.275" transform="translate(257.188 252.026)"/><rect class="o" width="10.683" height="60.961" transform="translate(270.919 238.339)"/><rect class="p" width="10.683" height="44.443" transform="translate(284.65 254.857)"/><rect class="q" width="10.683" height="24.414" transform="translate(298.389 274.886)"/><rect class="n" width="10.683" height="33.574" transform="translate(312.681 265.727)"/><rect class="o" width="10.683" height="41.963" transform="translate(326.412 257.337)"/><rect class="p" width="10.683" height="56.464" transform="translate(340.151 242.837)"/><rect class="q" width="10.683" height="45.624" transform="translate(353.882 253.677)"/><rect class="n" width="10.683" height="52.116" transform="translate(368.181 247.185)"/><rect class="o" width="10.683" height="66.094" transform="translate(381.912 233.199)"/><rect class="p" width="10.683" height="79.048" transform="translate(395.643 220.253)"/><rect class="q" width="10.683" height="86.13" transform="translate(409.382 213.17)"/><rect class="r" width="237.712" height="2.488" transform="translate(195.427 302.842)"/><path class="s" d="M272.152,231.358l-2.682-4.49L335.5,187.5l52.176,29.816L431.3,187.4l23.533,14.867,93.138-73.527,3.242,4.1L455.17,208.662l-23.75-15-43.495,29.823-52.37-29.928Z" transform="translate(-79.078 27.683)"/><circle class="q" cx="7.471" cy="7.471" r="7.471" transform="translate(186.904 261.744) rotate(-80.75)"/><circle class="q" cx="7.471" cy="7.471" r="7.471" transform="translate(300.642 246.834) rotate(-45)"/><circle class="q" cx="7.471" cy="7.471" r="7.471" transform="translate(368.457 224.436)"/><circle class="g" cx="7.471" cy="7.471" r="7.471" transform="translate(247.449 223.757) rotate(-76.78)"/><circle class="g" cx="7.471" cy="7.471" r="7.471" transform="translate(344.967 225.648) rotate(-80.75)"/><circle class="g" cx="7.471" cy="7.471" r="7.471" transform="translate(464.285 151.006)"/><g class="t" transform="translate(350.091 193.061)"><circle class="f" cx="34.851" cy="34.851" r="34.851" transform="matrix(0.528, -0.849, 0.849, 0.528, 0, 59.201)"/></g><path class="u" d="M564.637,334.81a41.089,41.089,0,1,1-3.735-57.966,41.089,41.089,0,0,1,3.735,57.966Zm-55.149-48.485a32.356,32.356,0,1,0,45.669-2.951A32.356,32.356,0,0,0,509.488,286.324Z" transform="translate(-135.532 -67.431)"/><rect class="u" width="9.959" height="38.579" transform="matrix(0.66, -0.751, 0.751, 0.66, 421.622, 267.437)"/><rect class="p" width="18.669" height="49.785" transform="matrix(0.66, -0.751, 0.751, 0.66, 430.904, 281.389)"/><path class="v" d="M244.773,404.25h27.388a4.229,4.229,0,0,1,4.214,4.214v13.694a4.228,4.228,0,0,1-4.214,4.214h-2.637v8.965l-10.459-8.965H244.773a4.228,4.228,0,0,1-4.214-4.214V408.464a4.228,4.228,0,0,1,4.214-4.214Z" transform="translate(-71.766 -102.245)"/><path class="e" d="M250.365,381.94H214.871a5.476,5.476,0,0,0-5.461,5.461v17.743a5.476,5.476,0,0,0,5.461,5.461h3.414v11.61l13.537-11.61h18.542a5.476,5.476,0,0,0,5.469-5.461V387.4a5.476,5.476,0,0,0-5.469-5.461Z" transform="translate(-63.887 -96.602)"/><path class="v" d="M230.328,400.819a3.489,3.489,0,1,1-3.489-3.489A3.489,3.489,0,0,1,230.328,400.819Z" transform="translate(-67.413 -100.495)"/><path class="v" d="M242.788,400.819a3.489,3.489,0,1,1-3.489-3.489A3.489,3.489,0,0,1,242.788,400.819Z" transform="translate(-70.565 -100.495)"/><path class="v" d="M255.248,400.819a3.489,3.489,0,1,1-3.489-3.489A3.489,3.489,0,0,1,255.248,400.819Z" transform="translate(-73.716 -100.495)"/><path class="o" d="M190.589,269.65a20.007,20.007,0,0,0-20,20.007h20Z" transform="translate(-54.069 -68.201)"/><path class="p" d="M193.809,293.679h-20a20,20,0,1,0,20-20Z" transform="translate(-54.883 -69.221)"/><circle class="v" cx="18.669" cy="18.669" r="18.669" transform="matrix(0.652, -0.758, 0.758, 0.652, 478.04, 283.998)"/><circle class="f" cx="15.337" cy="15.337" r="15.337" transform="matrix(0.529, -0.848, 0.848, 0.529, 483.258, 286.939)"/><rect class="v" width="1.554" height="5.999" transform="translate(503.588 264.644)"/><rect class="v" width="1.554" height="5.999" transform="translate(503.588 292.652)"/><rect class="v" width="1.554" height="5.999" transform="translate(487.362 282.424) rotate(-90)"/><rect class="v" width="1.554" height="5.999" transform="translate(515.37 282.432) rotate(-90)"/><rect class="v" width="0.994" height="3.825" transform="translate(503.872 264.644)"/><rect class="v" width="0.994" height="3.825" transform="translate(503.872 294.654)"/><rect class="v" width="3.825" height="0.994" transform="translate(487.451 281.064)"/><rect class="v" width="3.825" height="0.994" transform="translate(517.454 281.064)"/><rect class="v" width="3.825" height="0.994" transform="translate(510.777 270.142) rotate(-58.52)"/><rect class="v" width="3.825" height="0.994" transform="translate(495.11 295.729) rotate(-58.52)"/><rect class="v" width="0.994" height="3.825" transform="translate(489.683 273.15) rotate(-58.52)"/><rect class="v" width="0.994" height="3.825" transform="translate(515.27 288.817) rotate(-58.52)"/><rect class="v" width="3.825" height="0.994" transform="matrix(0.882, -0.471, 0.471, 0.882, 515.684, 274.927)"/><rect class="v" width="3.825" height="0.994" transform="matrix(0.882, -0.471, 0.471, 0.882, 489.213, 289.06)"/><rect class="v" width="0.994" height="3.825" transform="matrix(0.882, -0.471, 0.471, 0.882, 495.961, 266.847)"/><rect class="v" width="0.994" height="3.825" transform="matrix(0.882, -0.471, 0.471, 0.882, 510.101, 293.325)"/><path class="v" d="M690.827,376.926a1.644,1.644,0,1,1-1.644-1.636,1.644,1.644,0,0,1,1.644,1.636Z" transform="translate(-184.818 -94.92)"/><path class="v" d="M689.186,284.81,687.55,293.8l1.636-1.636,1.644,1.636Z" transform="translate(-184.821 -11.792)"/><path class="v" d="M697.875,296.327l-8.995-.747,1.644.747-1.644.747Z" transform="translate(-185.157 -14.516)"/><path class="o" d="M142.238,380.8a8.748,8.748,0,0,0-8.748,8.741h17.489A8.741,8.741,0,0,0,142.238,380.8Z" transform="translate(-44.685 -96.314)"/><path class="o" d="M148.338,371.654a4.744,4.744,0,1,1-4.744-4.744A4.744,4.744,0,0,1,148.338,371.654Z" transform="translate(-46.041 -92.801)"/><path class="f" d="M144.24,389.6v-1.763a13.761,13.761,0,1,1,27.522,0V389.6Z" transform="translate(-47.404 -94.614)"/><path class="q" d="M158.6,376.44a12,12,0,0,0-12,12h24A12,12,0,0,0,158.6,376.44Z" transform="translate(-48.001 -95.211)"/><circle class="q" cx="6.507" cy="6.507" r="6.507" transform="translate(104.09 266.997)"/><path class="q" d="M639.335,142.08a21.075,21.075,0,1,1,21.075-21.073A21.075,21.075,0,0,1,639.335,142.08Zm0-38.691a17.623,17.623,0,1,0,17.616,17.621,17.623,17.623,0,0,0-17.616-17.621Z" transform="translate(-167.296 -25.275)"/><path class="q" d="M642.142,136.6a12.782,12.782,0,1,1,12.782-12.782A12.782,12.782,0,0,1,642.142,136.6Zm0-22.113a9.339,9.339,0,1,0,6.615,2.725A9.331,9.331,0,0,0,642.142,114.491Z" transform="translate(-170.103 -28.085)"/><circle class="q" cx="4.228" cy="4.228" r="4.228" transform="translate(467.811 91.509)"/><rect class="q" width="53.894" height="2.772" transform="translate(470.657 94.356)"/><path class="q" d="M698.26,45.858h13.821l6.216-7.6h-15.2Z" transform="translate(-187.53 50.567)"/><path class="q" d="M698.26,48.43h13.821l6.216,7.605h-15.2Z" transform="translate(-187.53 47.995)"/><rect class="o" width="45.601" height="27.634" transform="translate(57.883 227.111)"/><path class="e" d="M92.1,223.36h45.6l-22.8,17.272Z" transform="translate(-34.217 3.751)"/><rect class="h" width="30.055" height="3.108" transform="translate(95.409 184.191)"/><rect class="g" width="6.216" height="3.108" transform="translate(128.572 184.191)"/><g class="w" transform="translate(38.168 79.19)"><rect class="d" width="30.055" height="3.108" transform="translate(20.059 42.24)"/><rect class="g" width="6.216" height="3.108" transform="translate(53.222 42.24)"/><rect class="e" width="30.055" height="3.108" transform="translate(453.93 230.846)"/><rect class="g" width="6.216" height="3.108" transform="translate(487.093 230.846)"/><rect class="q" width="30.055" height="3.108" transform="translate(501.601 27.731)"/><rect class="g" width="6.216" height="3.108" transform="translate(534.764 27.731)"/><rect class="x" width="30.055" height="3.108" transform="translate(60.804 234.313)"/><rect class="g" width="6.216" height="3.108" transform="translate(93.967 234.313)"/><rect class="o" width="30.055" height="3.108" transform="translate(95.349 176.967)"/><rect class="g" width="6.216" height="3.108" transform="translate(128.512 176.967)"/><rect class="q" width="30.055" height="3.108" transform="translate(0 191.475)"/><rect class="g" width="6.216" height="3.108" transform="translate(33.163 191.475)"/><rect class="j" width="30.055" height="3.108" transform="translate(493.308 154.854)"/><rect class="g" width="6.216" height="3.108" transform="translate(526.471 154.854)"/><rect class="h" width="30.055" height="3.108" transform="translate(251.495 33.947)"/><rect class="g" width="6.216" height="3.108" transform="translate(284.65 33.947)"/><rect class="d" width="30.055" height="3.108" transform="translate(324.626 8.293)"/><rect class="g" width="6.216" height="3.108" transform="translate(357.789 8.293)"/><rect class="o" width="27.104" height="3.108" transform="translate(122.535)"/><rect class="g" width="4.961" height="3.108" transform="translate(152.112)"/></g><path class="p" d="M318.432,165.608c0,4.52-2.577,8.18-5.76,8.18s-5.752-3.661-5.752-8.18,2.577-20.918,5.752-20.918S318.432,161.088,318.432,165.608Z" transform="translate(-88.55 -36.596)"/><path class="e" d="M320.281,88.679a42.067,42.067,0,0,0-8.554-8.039,41.838,41.838,0,0,0-8.547,8.039Z" transform="translate(-87.604 -20.396)"/><path class="e" d="M298.609,95.83c-12.125,19.962,4.8,41.971,4.8,41.971h12.118s16.921-22.009,4.8-41.971Z" transform="translate(-85.341 -24.238)"/><circle class="q" cx="9.092" cy="9.092" r="9.092" transform="translate(213.724 93.274) rotate(-81.17)"/><circle class="f" cx="5.454" cy="5.454" r="5.454" transform="translate(218.669 80.236)"/><path class="q" d="M326,146.666s6.664-9.092,7.874-18.176h0a10.459,10.459,0,0,1,7.4,8.569c.889,6.223,1.345,15.733-1.942,24.145C339.313,161.2,338.7,146.054,326,146.666Z" transform="translate(-93.376 -32.498)"/><path class="q" d="M298.09,146.666s-6.664-9.092-7.874-18.176h0a10.5,10.5,0,0,0-7.433,8.6c-.882,6.223-1.345,15.733,1.95,24.145C284.762,161.2,285.367,146.054,298.09,146.666Z" transform="translate(-82.282 -32.498)"/><ellipse class="q" cx="2.122" cy="16.66" rx="2.122" ry="16.66" transform="translate(222.001 97.814)"/></g></g></g></svg>