<svg xmlns="http://www.w3.org/2000/svg" viewBox="0 0 23.712 35.129">
    <defs>
        <style>
            .cls-1{fill:#104d80}
        </style>
    </defs>
    <g id="Group_12446" data-name="Group 12446">
        <path id="Path_7778" d="M34.856 962.362a11.857 11.857 0 0 0-9.976 18.264l9.976 13.79 9.976-13.791a10.889 10.889 0 0 0 1.88-6.408 11.856 11.856 0 0 0-11.856-11.855zm0 6.587a5.269 5.269 0 1 1-5.269 5.269 5.269 5.269 0 0 1 5.269-5.269zm-3.787 21.187c-2.2.688-3.678 1.954-3.678 3.4 0 2.182 3.342 3.952 7.465 3.952s7.465-1.77 7.465-3.952c0-1.449-1.48-2.715-3.678-3.4l-3.787 5.914q-1.9-2.95-3.787-5.914z" class="cls-1" data-name="Path 7778" transform="translate(-23 -962.362)"/>
    </g>
</svg>
