<svg xmlns="http://www.w3.org/2000/svg" width="30.826" height="25.854" viewBox="0 0 30.826 25.854"><defs><style>.a{fill:#fff;}</style></defs><path class="a" d="M16.427,22.933V13.983A2.983,2.983,0,0,0,13.444,11H6.483A2.983,2.983,0,0,0,3.5,13.983V26.91a9.944,9.944,0,0,0,9.944,9.944,1.989,1.989,0,0,0,1.989-1.989,2.032,2.032,0,0,0-2.015-1.989,5.966,5.966,0,0,1-5.94-5.966v-.994h5.966A2.983,2.983,0,0,0,16.427,22.933Zm14.916,2.983H25.376v.994a5.966,5.966,0,0,0,5.94,5.966,2.032,2.032,0,0,1,2.015,1.989,1.989,1.989,0,0,1-1.989,1.989A9.944,9.944,0,0,1,21.4,26.91V13.983A2.983,2.983,0,0,1,24.382,11h6.961a2.983,2.983,0,0,1,2.983,2.983v8.949A2.983,2.983,0,0,1,31.343,25.916Z" transform="translate(-3.5 -11)"/></svg>