<svg xmlns="http://www.w3.org/2000/svg" width="232.196" height="28.002" viewBox="0 0 232.196 28.002"><defs><style>.a{fill:#f36e24;}.b{fill:#3c3c3b;}</style></defs><g transform="translate(-1.2)"><path class="a" d="M114.629,6.888a6.755,6.755,0,0,1,5.13,2.343V2h3.11V22h-3.11V19.774a6.1,6.1,0,0,1-5.13,2.464c-3.918,0-7.029-3.151-7.029-7.756S110.71,6.888,114.629,6.888Zm.606,2.666c-2.3,0-4.524,1.737-4.524,4.969s2.222,5.09,4.524,5.09,4.524-1.818,4.524-5.049-2.181-5.009-4.524-5.009Z" transform="translate(-63.736 -1.192)"/><path class="a" d="M155.5,2h3.07V22H155.5Z" transform="translate(-92.406 -1.192)"/><path class="a" d="M178.033,29.391c-4.282,0-7.433-3.03-7.433-7.716S173.63,14,178.033,14a6.934,6.934,0,0,1,7.231,7.312,9.829,9.829,0,0,1-.121,1.535H173.751a4.1,4.1,0,0,0,4.242,3.959,3.6,3.6,0,0,0,3.514-2.1h3.312A6.663,6.663,0,0,1,178.033,29.391Zm-4.2-9.008h8.241a3.852,3.852,0,0,0-4.161-3.757A4.048,4.048,0,0,0,173.832,20.383Z" transform="translate(-101.474 -8.431)"/><path class="a" d="M218.621,29.45c-3.555,0-6.1-2.1-6.221-4.807h3.191a2.727,2.727,0,0,0,2.989,2.222c1.777,0,2.747-.768,2.747-1.777,0-2.909-8.645-1.252-8.645-6.706,0-2.383,2.222-4.282,5.736-4.282,3.393,0,5.615,1.818,5.777,4.767h-3.07c-.121-1.293-1.091-2.181-2.787-2.181s-2.5.687-2.5,1.656c0,2.989,8.4,1.333,8.564,6.706C224.317,27.592,222.135,29.45,218.621,29.45Z" transform="translate(-126.505 -8.49)"/><path class="b" d="M250.2,5h3.312L260.1,19.745,266.681,5h3.312V23.784h-3.07V10.938l-5.736,12.886h-2.141L253.27,10.938V23.824H250.2Z" transform="translate(-149.173 -2.98)"/><path class="b" d="M313.729,14.1a6.412,6.412,0,0,1,5.171,2.424V14.34h3.11V29.247H318.9V26.984a6.41,6.41,0,0,1-5.211,2.464c-3.878,0-6.988-3.151-6.988-7.756S309.81,14.1,313.729,14.1Zm.646,2.666c-2.3,0-4.524,1.737-4.524,4.969s2.222,5.09,4.524,5.09S318.9,25,318.9,21.814s-2.222-5.049-4.524-5.049Z" transform="translate(-183.003 -8.489)"/><path class="b" d="M357.67,29.148H354.6V14.283h3.07v2.141A4.813,4.813,0,0,1,362.114,14v3.232h-.768c-2.262,0-3.676.969-3.676,4.12Z" transform="translate(-211.66 -8.429)"/><path class="b" d="M380.3,2h3.07V13.634l5.413-6.5h4.282L386.2,14.6l6.867,7.433H388.9l-5.494-6.423v6.423h-3.07V2Z" transform="translate(-227.078 -1.192)"/><path class="b" d="M422.233,29.391c-4.282,0-7.433-3.03-7.433-7.716S417.83,14,422.233,14a6.934,6.934,0,0,1,7.231,7.312,9.833,9.833,0,0,1-.121,1.535H417.951a4.1,4.1,0,0,0,4.242,3.959,3.6,3.6,0,0,0,3.514-2.1h3.312C428.252,27.331,425.909,29.391,422.233,29.391Zm-4.2-9.008h8.241a3.852,3.852,0,0,0-4.161-3.757A4.048,4.048,0,0,0,418.032,20.383Z" transform="translate(-247.754 -8.431)"/><path class="b" d="M457.277,11.721H455.5v-2.5h1.777V5.5h3.11V9.216h3.636v2.5h-3.636v8.241c0,1.091.444,1.575,1.737,1.575h1.9v2.585H461.6c-2.666,0-4.282-1.131-4.282-4.12Z" transform="translate(-272.097 -3.278)"/><path class="b" d="M482.5,1.979a1.979,1.979,0,1,1,1.979,1.979A1.983,1.983,0,0,1,482.5,1.979Zm.4,3.959h3.07V20.844H482.9Z" transform="translate(-288.49)"/><path class="b" d="M511.843,20.884c0-2.747-1.495-4.12-3.716-4.12s-3.757,1.414-3.757,4.12v8.322H501.3V14.34h3.07v1.7a5.682,5.682,0,0,1,4.444-1.939c3.474,0,6.1,2.181,6.1,6.342v8.806h-3.07Z" transform="translate(-299.695 -8.487)"/><path class="b" d="M549.129,14.1a6.412,6.412,0,0,1,5.171,2.424V14.34h3.11V29.489c0,4.04-2.626,7.11-7.271,7.11-3.959,0-6.908-1.979-7.311-5.251h3.07c.444,1.535,2.1,2.585,4.242,2.585,2.383,0,4.161-1.454,4.161-4.444v-2.5a6.43,6.43,0,0,1-5.171,2.5c-3.918,0-7.029-3.151-7.029-7.756S545.211,14.1,549.129,14.1Zm.646,2.666c-2.3,0-4.524,1.737-4.524,4.969s2.222,5.09,4.524,5.09S554.3,25,554.3,21.773,552.118,16.764,549.775,16.764Z" transform="translate(-324.014 -8.597)"/><g transform="translate(1.2 0.939)"><path class="a" d="M28.669,15.609a4.278,4.278,0,0,0,.485.4A8.056,8.056,0,0,0,41.959,12.5a9.939,9.939,0,0,1-16.966,6.827l-10.5-10.3a4.279,4.279,0,0,0-.485-.4A8.056,8.056,0,0,0,1.2,12.135,9.939,9.939,0,0,1,18.166,5.309Z" transform="translate(-1.2 -2.37)"/><path class="b" d="M71.638,7.284a8.319,8.319,0,0,0-2.3-2.868,10.089,10.089,0,0,0-13.209.808L53.5,7.849l3.716,3.676L59.8,8.94a4.706,4.706,0,0,1,6.625,0,4.755,4.755,0,0,1,0,6.665,4.536,4.536,0,0,1-1.979,1.171,7.87,7.87,0,0,0,1.01.081,7,7,0,0,0,6.423-4.282A6.219,6.219,0,0,0,71.638,7.284Z" transform="translate(-32.373 -2.325)"/><path class="b" d="M18.089,21.032l-2.626,2.585a4.706,4.706,0,0,1-6.625,0,4.755,4.755,0,0,1,0-6.665,4.536,4.536,0,0,1,1.979-1.171,7.87,7.87,0,0,0-1.01-.081A6.838,6.838,0,0,0,2.9,22.406c0,2.585,1.818,4.888,3.918,6.261a10.076,10.076,0,0,0,12.361-1.373l2.666-2.626Z" transform="translate(-2.213 -10.297)"/></g></g></svg>