<?xml version="1.0" encoding="utf-8"?>
<!-- Generator: Adobe Illustrator 23.0.3, SVG Export Plug-In . SVG Version: 6.00 Build 0)  -->
<svg version="1.1" id="Layer_1" xmlns="http://www.w3.org/2000/svg" xmlns:xlink="http://www.w3.org/1999/xlink" x="0px" y="0px"
	 viewBox="0 0 44 44" style="enable-background:new 0 0 44 44;" xml:space="preserve">
<style type="text/css">
	.st0{fill:#3C3C3B;}
</style>
<path class="st0" d="M34.5,10.7l-1.9-1.9l-1.9,1.9l-0.9-0.9L32.6,7l2.8,2.8L34.5,10.7z"/>
<path class="st0" d="M32,8.2h1.3v6.9H32V8.2z"/>
<path class="st0" d="M35.8,23.2h-1.3v-2.7c4.7-1,7.9-5.3,7.5-10.1C41.5,5.6,37.4,2,32.6,2s-8.8,3.6-9.3,8.4
	c-0.5,4.8,2.7,9.2,7.5,10.1v2.7h-1.3v17.5H27v-20h-6.3v20h-2.5v-15H12v15H9.5V32H3.3v8.8H2V42h40v-1.3h-6.3V23.2z M8.3,40.7H4.5
	v-7.5h3.8V40.7z M17,40.7h-3.8V27H17V40.7z M25.8,40.7H22V22h3.8V40.7z M24.5,11.4c0-4.3,3.4-7.9,7.7-8.1c4.3-0.2,8.1,3,8.5,7.3
	c0.4,4.3-2.6,8.2-6.9,8.8l-0.5,0.1v3.8H32v-3.8l-0.5-0.1C27.5,18.8,24.5,15.4,24.5,11.4z M34.5,40.7h-3.8V24.5h3.8V40.7z"/>
<path class="st0" d="M39.5,11.4c0-3.8-3.1-6.9-6.9-6.9c-3.8,0-6.9,3.1-6.9,6.9s3.1,6.9,6.9,6.9C36.4,18.2,39.5,15.2,39.5,11.4z
	 M27,11.4c0-3.1,2.5-5.6,5.6-5.6s5.6,2.5,5.6,5.6c0,3.1-2.5,5.6-5.6,5.6C29.5,17,27,14.5,27,11.4z"/>
<path class="st0" d="M11,23.2h4.4l5.4-5.4v1.6H22v-3.8h-3.8V17h1.6l-5,5h-4.4l-8.3,7.7l0.8,0.9L11,23.2z"/>
<path class="st0" d="M38.3,23.2H42v1.3h-3.8V23.2z"/>
<path class="st0" d="M38.3,25.7H42V27h-3.8V25.7z"/>
<path class="st0" d="M38.3,28.2H42v1.3h-3.8V28.2z"/>
<path class="st0" d="M38.3,30.7H42V32h-3.8V30.7z"/>
<path class="st0" d="M38.3,33.2H42v1.3h-3.8V33.2z"/>
<path class="st0" d="M38.3,35.7H42V37h-3.8V35.7z"/>
<path class="st0" d="M38.3,38.2H42v1.3h-3.8V38.2z"/>
</svg>
