<svg xmlns="http://www.w3.org/2000/svg" viewBox="0 0 512 512"><style><![CDATA[.A{fill:#333}.B{fill:#F0F0F0}]]></style><path class="A" d="M434.4 110.7C401.2 45.9 334.4 0 256 0v101.3c55.5 0 100.6 43.7 100.6 99.2 0 54.8-45.5 102-100.6 102.1V512c70.6-73.6 152-154.5 187.5-251.4 17.8-48.5 14.5-104.1-9.1-149.9z"/><path class="A" d="M68.5 260.6C104.1 357.5 185.4 438.4 256 512V302.5c-55.1 0-100.6-47.2-100.6-102.1 0-55.5 45.1-99.1 100.6-99.2V0C177.6 0 110.8 45.9 77.6 110.7 54 156.5 50.7 212.1 68.5 260.6z"/><circle class="B" cx="256" cy="198.8" r="160"/><path d="M96,198.8c0-88.4,71.6-160,160-160s160,71.6,160,160" fill="#d80027"/><path class="B" d="M193.4 122.3c0-23.3 16.4-42.8 38.3-47.6-3.4-.7-6.9-1.1-10.4-1.1-26.9 0-48.7 21.8-48.7 48.7s21.8 48.7 48.7 48.7c3.6 0 7.1-.4 10.4-1.1-21.9-4.9-38.3-24.3-38.3-47.6zM256 77l3.5 10.7h11.1l-9 6.5 3.4 10.7-9-6.6-9 6.6 3.4-10.7-9-6.5h11.1zm-27.1 20.9l3.4 10.6h11.2l-9 6.6 3.4 10.6-9-6.5-9.1 6.5 3.5-10.6-9-6.6h11.1zm54.2 0l3.5 10.6h11.1l-9 6.6 3.5 10.6-9.1-6.5-9 6.5 3.4-10.6-9-6.6h11.2zm-10.4 31.3l3.4 10.6h11.2l-9 6.6 3.4 10.6-9-6.5-9.1 6.5 3.5-10.6-9.1-6.6h11.2zm-33.4 0l3.5 10.6H254l-9.1 6.6 3.5 10.6-9.1-6.5-9 6.5 3.4-10.6-9-6.6h11.2z"/><path d="M255.9 21.7c-73.7 0-141.5 47.6-166.6 116.8-25.3 69.8-3.1 149.8 54 197.1 57.2 47.3 140.4 53.6 204 15.1s97.2-114.7 82.3-187.6c-14.7-71.4-74-128-146.1-139.3-9.1-1.4-18.4-2.1-27.6-2.1m142.7 241.5c-30.2 67-105.7 104.8-177.5 88.4-55.2-12.6-100.4-55.8-115.8-110.2-15.7-55.7 1.3-116.8 43.4-156.4C194.2 42.1 262.9 30.4 320 56.2 388.2 87 426 164.3 407.7 237c-2.2 9-5.3 17.7-9.1 26.2-2.1 4.6 1.5-3.5 0 0" fill="#c7c7c7"/></svg>