<svg xmlns="http://www.w3.org/2000/svg" viewBox="0 0 512 512"><style><![CDATA[.A{fill:#333}.C{fill:#D80027}]]></style><path class="A" d="M434.4 110.7C401.2 45.9 334.4 0 256 0v101.3c55.5 0 100.6 43.7 100.6 99.2 0 54.8-45.5 102-100.6 102.1V512c70.6-73.6 152-154.5 187.5-251.4 17.8-48.5 14.5-104.1-9.1-149.9z"/><path class="A" d="M68.5 260.6C104.1 357.5 185.4 438.4 256 512V302.5c-55.1 0-100.6-47.2-100.6-102.1 0-55.5 45.1-99.1 100.6-99.2V0C177.6 0 110.8 45.9 77.6 110.7 54 156.5 50.7 212.1 68.5 260.6z"/><circle cx="256" cy="198.8" r="160" fill="#f0f0f0"/><path class="C" d="M249 198.8h167c0-14.4-1.9-28.4-5.5-41.7H249v41.7zm0-83.5h143.5c-9.8-16-22.3-30.1-36.9-41.7H249v41.7zm7 243.5c37.7 0 72.3-13 99.6-34.8H156.4c27.3 21.8 61.9 34.8 99.6 34.8zm-136.5-76.5h273c7.9-12.8 14-26.9 18-41.7h-309c4 14.8 10.1 28.8 18 41.7z"/><path d="M170.1 63.8h14.6l-13.6 9.9 5.2 15.9-13.6-9.9-13.6 9.9 4.5-13.8a159.78 159.78 0 0 0-31 34.6h4.7l-8.6 6.3-3.9 6.8 4.1 12.7-7.7-5.6c-1.9 4.1-3.7 8.2-5.2 12.4l4.5 14h16.8l-13.6 9.9 5.2 15.9-13.6-9.9-8.1 5.9c-.8 6.5-1.2 13.2-1.2 20h160v-160c-31.6 0-61.1 9.1-85.9 25zm6.2 119l-13.6-9.9-13.6 9.9 5.2-15.9-13.6-9.9h16.8l5.2-15.9 5.2 15.9h16.8l-13.6 9.9 5.2 15.9zm-5.2-62.6l5.2 15.9-13.6-9.9-13.6 9.9 5.2-15.9-13.6-9.9h16.8l5.2-15.9 5.2 15.9h16.8l-13.6 9.9zm62.6 62.6l-13.6-9.9-13.6 9.9 5.2-15.9-13.6-9.9H215l5.2-15.9 5.2 15.9h16.8l-13.6 9.9 5.1 15.9zm-5.2-62.6l5.2 15.9-13.6-9.9-13.6 9.9 5.2-15.9-13.6-9.9H215l5.2-15.9 5.2 15.9h16.8l-13.7 9.9zm0-46.6l5.2 15.9-13.6-9.9-13.6 9.9 5.2-15.9-13.6-9.9H215l5.2-15.9 5.2 15.9h16.8l-13.7 9.9z" fill="#0052b4"/><path d="M255.9 21.7c-73.7 0-141.5 47.6-166.6 116.8-25.3 69.8-3.1 149.8 54 197.1 57.2 47.3 140.4 53.6 204 15.1s97.2-114.7 82.3-187.6c-14.7-71.4-74-128-146.1-139.3-9.1-1.4-18.4-2.1-27.6-2.1m142.7 241.5c-30.2 67-105.7 104.8-177.5 88.4-55.2-12.6-100.4-55.8-115.8-110.2-15.7-55.7 1.3-116.8 43.4-156.4C194.2 42.1 262.9 30.4 320 56.2 388.2 87 426 164.3 407.7 237c-2.2 9-5.3 17.7-9.1 26.2-2.1 4.6 1.5-3.5 0 0" fill="#c7c7c7"/></svg>